G04 EAGLE Gerber RS-274X export*
G75*
%MOMM*%
%FSLAX34Y34*%
%LPD*%
%INSoldermask Top*%
%IPPOS*%
%AMOC8*
5,1,8,0,0,1.08239X$1,22.5*%
G01*
%ADD10R,0.803200X0.803200*%
%ADD11C,0.505344*%
%ADD12C,0.838200*%
%ADD13R,0.553200X1.653200*%
%ADD14C,0.555600*%
%ADD15C,0.282238*%
%ADD16R,3.403200X3.403200*%
%ADD17R,1.303200X1.403200*%
%ADD18C,1.203200*%
%ADD19C,1.270000*%
%ADD20C,1.703200*%

G36*
X52496Y478253D02*
X52496Y478253D01*
X52503Y478251D01*
X52563Y478272D01*
X52624Y478290D01*
X52628Y478295D01*
X52635Y478298D01*
X52674Y478348D01*
X52716Y478395D01*
X52717Y478402D01*
X52721Y478408D01*
X52738Y478480D01*
X52952Y481198D01*
X53584Y483831D01*
X54620Y486331D01*
X56034Y488639D01*
X57792Y490698D01*
X59850Y492456D01*
X62158Y493870D01*
X64659Y494906D01*
X67291Y495538D01*
X69989Y495750D01*
X72688Y495538D01*
X75320Y494906D01*
X77821Y493870D01*
X80129Y492456D01*
X82187Y490698D01*
X83945Y488639D01*
X85359Y486331D01*
X86395Y483831D01*
X87027Y481198D01*
X87241Y478480D01*
X87244Y478474D01*
X87242Y478467D01*
X87268Y478409D01*
X87291Y478350D01*
X87296Y478345D01*
X87299Y478339D01*
X87352Y478304D01*
X87403Y478266D01*
X87410Y478266D01*
X87416Y478262D01*
X87489Y478251D01*
X97489Y478251D01*
X97514Y478258D01*
X97540Y478256D01*
X97580Y478277D01*
X97624Y478290D01*
X97641Y478310D01*
X97664Y478322D01*
X97686Y478361D01*
X97716Y478395D01*
X97719Y478421D01*
X97732Y478444D01*
X97738Y478518D01*
X97458Y482431D01*
X97455Y482441D01*
X97453Y482467D01*
X96619Y486301D01*
X96614Y486309D01*
X96609Y486335D01*
X95238Y490011D01*
X95232Y490019D01*
X95223Y490043D01*
X93343Y493487D01*
X93336Y493494D01*
X93323Y493517D01*
X90972Y496658D01*
X90964Y496664D01*
X90949Y496685D01*
X88174Y499459D01*
X88166Y499464D01*
X88147Y499483D01*
X85006Y501834D01*
X84997Y501837D01*
X84976Y501853D01*
X81533Y503734D01*
X81523Y503736D01*
X81500Y503748D01*
X77824Y505120D01*
X77815Y505120D01*
X77790Y505130D01*
X73956Y505964D01*
X73946Y505963D01*
X73921Y505969D01*
X70007Y506249D01*
X69998Y506247D01*
X69972Y506249D01*
X66058Y505969D01*
X66049Y505965D01*
X66023Y505964D01*
X62189Y505130D01*
X62180Y505125D01*
X62155Y505120D01*
X58478Y503748D01*
X58471Y503743D01*
X58446Y503734D01*
X55002Y501853D01*
X54996Y501846D01*
X54972Y501834D01*
X51831Y499483D01*
X51826Y499475D01*
X51805Y499459D01*
X49030Y496685D01*
X49025Y496676D01*
X49007Y496658D01*
X46655Y493517D01*
X46652Y493508D01*
X46636Y493487D01*
X44756Y490043D01*
X44754Y490034D01*
X44741Y490011D01*
X43370Y486335D01*
X43369Y486325D01*
X43360Y486301D01*
X42526Y482467D01*
X42526Y482457D01*
X42521Y482431D01*
X42241Y478518D01*
X42246Y478492D01*
X42242Y478467D01*
X42261Y478425D01*
X42270Y478381D01*
X42289Y478363D01*
X42299Y478339D01*
X42337Y478314D01*
X42369Y478282D01*
X42394Y478276D01*
X42416Y478262D01*
X42489Y478251D01*
X52489Y478251D01*
X52496Y478253D01*
G37*
G36*
X952825Y478253D02*
X952825Y478253D01*
X952832Y478251D01*
X952891Y478272D01*
X952952Y478290D01*
X952957Y478295D01*
X952964Y478298D01*
X953002Y478348D01*
X953044Y478395D01*
X953045Y478402D01*
X953049Y478408D01*
X953066Y478480D01*
X953280Y481198D01*
X953912Y483831D01*
X954948Y486331D01*
X956362Y488639D01*
X958120Y490698D01*
X960179Y492456D01*
X962486Y493870D01*
X964987Y494906D01*
X967619Y495538D01*
X970318Y495750D01*
X973016Y495538D01*
X975648Y494906D01*
X978149Y493870D01*
X980457Y492456D01*
X982515Y490698D01*
X984273Y488639D01*
X985688Y486331D01*
X986724Y483831D01*
X987355Y481198D01*
X987569Y478480D01*
X987572Y478474D01*
X987571Y478467D01*
X987597Y478409D01*
X987619Y478350D01*
X987625Y478345D01*
X987628Y478339D01*
X987680Y478304D01*
X987731Y478266D01*
X987738Y478266D01*
X987744Y478262D01*
X987818Y478251D01*
X997818Y478251D01*
X997843Y478258D01*
X997869Y478256D01*
X997909Y478277D01*
X997952Y478290D01*
X997969Y478310D01*
X997992Y478322D01*
X998014Y478361D01*
X998044Y478395D01*
X998048Y478421D01*
X998061Y478444D01*
X998066Y478518D01*
X997787Y482431D01*
X997783Y482441D01*
X997781Y482467D01*
X996947Y486301D01*
X996943Y486309D01*
X996937Y486335D01*
X995566Y490011D01*
X995560Y490019D01*
X995551Y490043D01*
X993671Y493487D01*
X993664Y493494D01*
X993652Y493517D01*
X991300Y496658D01*
X991293Y496664D01*
X991277Y496685D01*
X988503Y499459D01*
X988494Y499464D01*
X988476Y499483D01*
X985335Y501834D01*
X985326Y501837D01*
X985305Y501853D01*
X981861Y503734D01*
X981852Y503736D01*
X981829Y503748D01*
X978153Y505120D01*
X978143Y505120D01*
X978118Y505130D01*
X974284Y505964D01*
X974275Y505963D01*
X974249Y505969D01*
X970336Y506249D01*
X970326Y506247D01*
X970300Y506249D01*
X966386Y505969D01*
X966377Y505965D01*
X966351Y505964D01*
X962517Y505130D01*
X962509Y505125D01*
X962483Y505120D01*
X958807Y503748D01*
X958799Y503743D01*
X958774Y503734D01*
X955331Y501853D01*
X955324Y501846D01*
X955301Y501834D01*
X952160Y499483D01*
X952154Y499475D01*
X952133Y499459D01*
X949358Y496685D01*
X949354Y496676D01*
X949335Y496658D01*
X946984Y493517D01*
X946980Y493508D01*
X946965Y493487D01*
X945084Y490043D01*
X945082Y490034D01*
X945069Y490011D01*
X943698Y486335D01*
X943698Y486325D01*
X943688Y486301D01*
X942854Y482467D01*
X942855Y482457D01*
X942849Y482431D01*
X942569Y478518D01*
X942575Y478492D01*
X942571Y478467D01*
X942589Y478425D01*
X942599Y478381D01*
X942617Y478363D01*
X942628Y478339D01*
X942665Y478314D01*
X942697Y478282D01*
X942723Y478276D01*
X942744Y478262D01*
X942818Y478251D01*
X952818Y478251D01*
X952825Y478253D01*
G37*
G36*
X1402989Y478253D02*
X1402989Y478253D01*
X1402996Y478251D01*
X1403055Y478272D01*
X1403116Y478290D01*
X1403121Y478295D01*
X1403128Y478298D01*
X1403167Y478348D01*
X1403208Y478395D01*
X1403209Y478402D01*
X1403214Y478408D01*
X1403230Y478480D01*
X1403444Y481198D01*
X1404076Y483831D01*
X1405112Y486331D01*
X1406526Y488639D01*
X1408284Y490698D01*
X1410343Y492456D01*
X1412651Y493870D01*
X1415151Y494906D01*
X1417784Y495538D01*
X1420482Y495750D01*
X1423180Y495538D01*
X1425813Y494906D01*
X1428313Y493870D01*
X1430621Y492456D01*
X1432680Y490698D01*
X1434438Y488639D01*
X1435852Y486331D01*
X1436888Y483831D01*
X1437520Y481198D01*
X1437734Y478480D01*
X1437736Y478474D01*
X1437735Y478467D01*
X1437761Y478409D01*
X1437783Y478350D01*
X1437789Y478345D01*
X1437792Y478339D01*
X1437845Y478304D01*
X1437895Y478266D01*
X1437903Y478266D01*
X1437909Y478262D01*
X1437982Y478251D01*
X1447982Y478251D01*
X1448007Y478258D01*
X1448033Y478256D01*
X1448073Y478277D01*
X1448116Y478290D01*
X1448133Y478310D01*
X1448156Y478322D01*
X1448178Y478361D01*
X1448208Y478395D01*
X1448212Y478421D01*
X1448225Y478444D01*
X1448231Y478518D01*
X1447951Y482431D01*
X1447947Y482441D01*
X1447946Y482467D01*
X1447112Y486301D01*
X1447107Y486309D01*
X1447102Y486335D01*
X1445730Y490011D01*
X1445725Y490019D01*
X1445716Y490043D01*
X1443835Y493487D01*
X1443828Y493494D01*
X1443816Y493517D01*
X1441465Y496658D01*
X1441457Y496664D01*
X1441441Y496685D01*
X1438667Y499459D01*
X1438658Y499464D01*
X1438640Y499483D01*
X1435499Y501834D01*
X1435490Y501837D01*
X1435469Y501853D01*
X1432025Y503734D01*
X1432016Y503736D01*
X1431993Y503748D01*
X1428317Y505120D01*
X1428307Y505120D01*
X1428283Y505130D01*
X1424449Y505964D01*
X1424439Y505963D01*
X1424413Y505969D01*
X1420500Y506249D01*
X1420490Y506247D01*
X1420464Y506249D01*
X1416551Y505969D01*
X1416541Y505965D01*
X1416515Y505964D01*
X1412681Y505130D01*
X1412673Y505125D01*
X1412647Y505120D01*
X1408971Y503748D01*
X1408963Y503743D01*
X1408939Y503734D01*
X1405495Y501853D01*
X1405488Y501846D01*
X1405465Y501834D01*
X1402324Y499483D01*
X1402318Y499475D01*
X1402297Y499459D01*
X1399523Y496685D01*
X1399518Y496676D01*
X1399499Y496658D01*
X1397148Y493517D01*
X1397145Y493508D01*
X1397129Y493487D01*
X1395248Y490043D01*
X1395246Y490034D01*
X1395234Y490011D01*
X1393862Y486335D01*
X1393862Y486325D01*
X1393852Y486301D01*
X1393018Y482467D01*
X1393019Y482457D01*
X1393013Y482431D01*
X1392733Y478518D01*
X1392739Y478492D01*
X1392735Y478467D01*
X1392753Y478425D01*
X1392763Y478381D01*
X1392781Y478363D01*
X1392792Y478339D01*
X1392830Y478314D01*
X1392861Y478282D01*
X1392887Y478276D01*
X1392909Y478262D01*
X1392982Y478251D01*
X1402982Y478251D01*
X1402989Y478253D01*
G37*
G36*
X502661Y478253D02*
X502661Y478253D01*
X502668Y478251D01*
X502727Y478272D01*
X502788Y478290D01*
X502793Y478295D01*
X502799Y478298D01*
X502838Y478348D01*
X502880Y478395D01*
X502881Y478402D01*
X502885Y478408D01*
X502902Y478480D01*
X503116Y481198D01*
X503748Y483831D01*
X504784Y486331D01*
X506198Y488639D01*
X507956Y490698D01*
X510014Y492456D01*
X512322Y493870D01*
X514823Y494906D01*
X517455Y495538D01*
X520154Y495750D01*
X522852Y495538D01*
X525484Y494906D01*
X527985Y493870D01*
X530293Y492456D01*
X532351Y490698D01*
X534109Y488639D01*
X535523Y486331D01*
X536559Y483831D01*
X537191Y481198D01*
X537405Y478480D01*
X537408Y478474D01*
X537407Y478467D01*
X537432Y478409D01*
X537455Y478350D01*
X537461Y478345D01*
X537463Y478339D01*
X537516Y478304D01*
X537567Y478266D01*
X537574Y478266D01*
X537580Y478262D01*
X537654Y478251D01*
X547654Y478251D01*
X547679Y478258D01*
X547705Y478256D01*
X547744Y478277D01*
X547788Y478290D01*
X547805Y478310D01*
X547828Y478322D01*
X547850Y478361D01*
X547880Y478395D01*
X547884Y478421D01*
X547896Y478444D01*
X547902Y478518D01*
X547622Y482431D01*
X547619Y482441D01*
X547617Y482467D01*
X546783Y486301D01*
X546779Y486309D01*
X546773Y486335D01*
X545402Y490011D01*
X545396Y490019D01*
X545387Y490043D01*
X543507Y493487D01*
X543500Y493494D01*
X543488Y493517D01*
X541136Y496658D01*
X541129Y496664D01*
X541113Y496685D01*
X538339Y499459D01*
X538330Y499464D01*
X538312Y499483D01*
X535171Y501834D01*
X535162Y501837D01*
X535141Y501853D01*
X531697Y503734D01*
X531688Y503736D01*
X531665Y503748D01*
X527988Y505120D01*
X527979Y505120D01*
X527954Y505130D01*
X524120Y505964D01*
X524111Y505963D01*
X524085Y505969D01*
X520171Y506249D01*
X520162Y506247D01*
X520136Y506249D01*
X516222Y505969D01*
X516213Y505965D01*
X516187Y505964D01*
X512353Y505130D01*
X512344Y505125D01*
X512319Y505120D01*
X508643Y503748D01*
X508635Y503743D01*
X508610Y503734D01*
X505167Y501853D01*
X505160Y501846D01*
X505137Y501834D01*
X501996Y499483D01*
X501990Y499475D01*
X501969Y499459D01*
X499194Y496685D01*
X499190Y496676D01*
X499171Y496658D01*
X496820Y493517D01*
X496816Y493508D01*
X496800Y493487D01*
X494920Y490043D01*
X494918Y490034D01*
X494905Y490011D01*
X493534Y486335D01*
X493533Y486325D01*
X493524Y486301D01*
X492690Y482467D01*
X492691Y482457D01*
X492685Y482431D01*
X492405Y478518D01*
X492410Y478492D01*
X492407Y478467D01*
X492425Y478425D01*
X492435Y478381D01*
X492453Y478363D01*
X492463Y478339D01*
X492501Y478314D01*
X492533Y478282D01*
X492558Y478276D01*
X492580Y478262D01*
X492654Y478251D01*
X502654Y478251D01*
X502661Y478253D01*
G37*
G36*
X277591Y478253D02*
X277591Y478253D01*
X277598Y478251D01*
X277657Y478272D01*
X277718Y478290D01*
X277723Y478295D01*
X277730Y478298D01*
X277769Y478348D01*
X277810Y478395D01*
X277811Y478402D01*
X277816Y478408D01*
X277833Y478480D01*
X278047Y481198D01*
X278679Y483831D01*
X279714Y486331D01*
X281129Y488639D01*
X282887Y490698D01*
X284945Y492456D01*
X287253Y493870D01*
X289754Y494906D01*
X292386Y495538D01*
X295084Y495750D01*
X297783Y495538D01*
X300415Y494906D01*
X302916Y493870D01*
X305224Y492456D01*
X307282Y490698D01*
X309040Y488639D01*
X310454Y486331D01*
X311490Y483831D01*
X312122Y481198D01*
X312336Y478480D01*
X312338Y478474D01*
X312337Y478467D01*
X312363Y478409D01*
X312385Y478350D01*
X312391Y478345D01*
X312394Y478339D01*
X312447Y478304D01*
X312497Y478266D01*
X312505Y478266D01*
X312511Y478262D01*
X312584Y478251D01*
X322584Y478251D01*
X322609Y478258D01*
X322635Y478256D01*
X322675Y478277D01*
X322718Y478290D01*
X322736Y478310D01*
X322758Y478322D01*
X322781Y478361D01*
X322810Y478395D01*
X322814Y478421D01*
X322827Y478444D01*
X322833Y478518D01*
X322553Y482431D01*
X322550Y482441D01*
X322548Y482467D01*
X321714Y486301D01*
X321709Y486309D01*
X321704Y486335D01*
X320333Y490011D01*
X320327Y490019D01*
X320318Y490043D01*
X318437Y493487D01*
X318431Y493494D01*
X318418Y493517D01*
X316067Y496658D01*
X316059Y496664D01*
X316044Y496685D01*
X313269Y499459D01*
X313261Y499464D01*
X313242Y499483D01*
X310101Y501834D01*
X310092Y501837D01*
X310071Y501853D01*
X306628Y503734D01*
X306618Y503736D01*
X306595Y503748D01*
X302919Y505120D01*
X302909Y505120D01*
X302885Y505130D01*
X299051Y505964D01*
X299041Y505963D01*
X299016Y505969D01*
X295102Y506249D01*
X295093Y506247D01*
X295066Y506249D01*
X291153Y505969D01*
X291144Y505965D01*
X291118Y505964D01*
X287284Y505130D01*
X287275Y505125D01*
X287249Y505120D01*
X283573Y503748D01*
X283565Y503743D01*
X283541Y503734D01*
X280097Y501853D01*
X280090Y501846D01*
X280067Y501834D01*
X276926Y499483D01*
X276920Y499475D01*
X276899Y499459D01*
X274125Y496685D01*
X274120Y496676D01*
X274102Y496658D01*
X271750Y493517D01*
X271747Y493508D01*
X271731Y493487D01*
X269851Y490043D01*
X269849Y490034D01*
X269836Y490011D01*
X268465Y486335D01*
X268464Y486325D01*
X268455Y486301D01*
X267621Y482467D01*
X267621Y482457D01*
X267615Y482431D01*
X267336Y478518D01*
X267341Y478492D01*
X267337Y478467D01*
X267356Y478425D01*
X267365Y478381D01*
X267383Y478363D01*
X267394Y478339D01*
X267432Y478314D01*
X267464Y478282D01*
X267489Y478276D01*
X267511Y478262D01*
X267584Y478251D01*
X277584Y478251D01*
X277591Y478253D01*
G37*
G36*
X1177920Y478253D02*
X1177920Y478253D01*
X1177927Y478251D01*
X1177986Y478272D01*
X1178047Y478290D01*
X1178052Y478295D01*
X1178058Y478298D01*
X1178097Y478348D01*
X1178139Y478395D01*
X1178140Y478402D01*
X1178144Y478408D01*
X1178161Y478480D01*
X1178375Y481198D01*
X1179007Y483831D01*
X1180043Y486331D01*
X1181457Y488639D01*
X1183215Y490698D01*
X1185273Y492456D01*
X1187581Y493870D01*
X1190082Y494906D01*
X1192714Y495538D01*
X1195413Y495750D01*
X1198111Y495538D01*
X1200743Y494906D01*
X1203244Y493870D01*
X1205552Y492456D01*
X1207610Y490698D01*
X1209368Y488639D01*
X1210782Y486331D01*
X1211818Y483831D01*
X1212450Y481198D01*
X1212664Y478480D01*
X1212667Y478474D01*
X1212666Y478467D01*
X1212691Y478409D01*
X1212714Y478350D01*
X1212720Y478345D01*
X1212722Y478339D01*
X1212775Y478304D01*
X1212826Y478266D01*
X1212833Y478266D01*
X1212839Y478262D01*
X1212913Y478251D01*
X1222913Y478251D01*
X1222938Y478258D01*
X1222964Y478256D01*
X1223003Y478277D01*
X1223047Y478290D01*
X1223064Y478310D01*
X1223087Y478322D01*
X1223109Y478361D01*
X1223139Y478395D01*
X1223143Y478421D01*
X1223155Y478444D01*
X1223161Y478518D01*
X1222881Y482431D01*
X1222878Y482441D01*
X1222876Y482467D01*
X1222042Y486301D01*
X1222038Y486309D01*
X1222032Y486335D01*
X1220661Y490011D01*
X1220655Y490019D01*
X1220646Y490043D01*
X1218766Y493487D01*
X1218759Y493494D01*
X1218747Y493517D01*
X1216395Y496658D01*
X1216388Y496664D01*
X1216372Y496685D01*
X1213598Y499459D01*
X1213589Y499464D01*
X1213571Y499483D01*
X1210430Y501834D01*
X1210421Y501837D01*
X1210400Y501853D01*
X1206956Y503734D01*
X1206947Y503736D01*
X1206924Y503748D01*
X1203247Y505120D01*
X1203238Y505120D01*
X1203213Y505130D01*
X1199379Y505964D01*
X1199370Y505963D01*
X1199344Y505969D01*
X1195430Y506249D01*
X1195421Y506247D01*
X1195395Y506249D01*
X1191481Y505969D01*
X1191472Y505965D01*
X1191446Y505964D01*
X1187612Y505130D01*
X1187603Y505125D01*
X1187578Y505120D01*
X1183902Y503748D01*
X1183894Y503743D01*
X1183869Y503734D01*
X1180426Y501853D01*
X1180419Y501846D01*
X1180396Y501834D01*
X1177255Y499483D01*
X1177249Y499475D01*
X1177228Y499459D01*
X1174453Y496685D01*
X1174449Y496676D01*
X1174430Y496658D01*
X1172079Y493517D01*
X1172075Y493508D01*
X1172059Y493487D01*
X1170179Y490043D01*
X1170177Y490034D01*
X1170164Y490011D01*
X1168793Y486335D01*
X1168792Y486325D01*
X1168783Y486301D01*
X1167949Y482467D01*
X1167950Y482457D01*
X1167944Y482431D01*
X1167664Y478518D01*
X1167669Y478492D01*
X1167666Y478467D01*
X1167684Y478425D01*
X1167694Y478381D01*
X1167712Y478363D01*
X1167722Y478339D01*
X1167760Y478314D01*
X1167792Y478282D01*
X1167817Y478276D01*
X1167839Y478262D01*
X1167913Y478251D01*
X1177913Y478251D01*
X1177920Y478253D01*
G37*
G36*
X727755Y478253D02*
X727755Y478253D01*
X727762Y478251D01*
X727822Y478272D01*
X727883Y478290D01*
X727887Y478295D01*
X727894Y478298D01*
X727933Y478348D01*
X727975Y478395D01*
X727976Y478402D01*
X727980Y478408D01*
X727997Y478480D01*
X728211Y481198D01*
X728843Y483831D01*
X729879Y486331D01*
X731293Y488639D01*
X733051Y490698D01*
X735109Y492456D01*
X737417Y493870D01*
X739918Y494906D01*
X742550Y495538D01*
X745248Y495750D01*
X747947Y495538D01*
X750579Y494906D01*
X753080Y493870D01*
X755388Y492456D01*
X757446Y490698D01*
X759204Y488639D01*
X760618Y486331D01*
X761654Y483831D01*
X762286Y481198D01*
X762500Y478480D01*
X762503Y478474D01*
X762501Y478467D01*
X762527Y478409D01*
X762550Y478350D01*
X762555Y478345D01*
X762558Y478339D01*
X762611Y478304D01*
X762662Y478266D01*
X762669Y478266D01*
X762675Y478262D01*
X762748Y478251D01*
X772748Y478251D01*
X772773Y478258D01*
X772799Y478256D01*
X772839Y478277D01*
X772883Y478290D01*
X772900Y478310D01*
X772923Y478322D01*
X772945Y478361D01*
X772975Y478395D01*
X772978Y478421D01*
X772991Y478444D01*
X772997Y478518D01*
X772717Y482431D01*
X772714Y482441D01*
X772712Y482467D01*
X771878Y486301D01*
X771873Y486309D01*
X771868Y486335D01*
X770497Y490011D01*
X770491Y490019D01*
X770482Y490043D01*
X768602Y493487D01*
X768595Y493494D01*
X768582Y493517D01*
X766231Y496658D01*
X766223Y496664D01*
X766208Y496685D01*
X763433Y499459D01*
X763425Y499464D01*
X763406Y499483D01*
X760265Y501834D01*
X760256Y501837D01*
X760235Y501853D01*
X756792Y503734D01*
X756782Y503736D01*
X756759Y503748D01*
X753083Y505120D01*
X753074Y505120D01*
X753049Y505130D01*
X749215Y505964D01*
X749205Y505963D01*
X749180Y505969D01*
X745266Y506249D01*
X745257Y506247D01*
X745231Y506249D01*
X741317Y505969D01*
X741308Y505965D01*
X741282Y505964D01*
X737448Y505130D01*
X737439Y505125D01*
X737414Y505120D01*
X733737Y503748D01*
X733730Y503743D01*
X733705Y503734D01*
X730261Y501853D01*
X730255Y501846D01*
X730231Y501834D01*
X727090Y499483D01*
X727085Y499475D01*
X727064Y499459D01*
X724289Y496685D01*
X724284Y496676D01*
X724266Y496658D01*
X721914Y493517D01*
X721911Y493508D01*
X721895Y493487D01*
X720015Y490043D01*
X720013Y490034D01*
X720000Y490011D01*
X718629Y486335D01*
X718628Y486325D01*
X718619Y486301D01*
X717785Y482467D01*
X717785Y482457D01*
X717780Y482431D01*
X717500Y478518D01*
X717505Y478492D01*
X717501Y478467D01*
X717520Y478425D01*
X717529Y478381D01*
X717548Y478363D01*
X717558Y478339D01*
X717596Y478314D01*
X717628Y478282D01*
X717653Y478276D01*
X717675Y478262D01*
X717748Y478251D01*
X727748Y478251D01*
X727755Y478253D01*
G37*
G36*
X1628058Y478253D02*
X1628058Y478253D01*
X1628065Y478251D01*
X1628125Y478272D01*
X1628186Y478290D01*
X1628190Y478295D01*
X1628197Y478298D01*
X1628236Y478348D01*
X1628278Y478395D01*
X1628279Y478402D01*
X1628283Y478408D01*
X1628300Y478480D01*
X1628514Y481198D01*
X1629146Y483831D01*
X1630182Y486331D01*
X1631596Y488639D01*
X1633354Y490698D01*
X1635412Y492456D01*
X1637720Y493870D01*
X1640221Y494906D01*
X1642853Y495538D01*
X1645551Y495750D01*
X1648250Y495538D01*
X1650882Y494906D01*
X1653383Y493870D01*
X1655691Y492456D01*
X1657749Y490698D01*
X1659507Y488639D01*
X1660921Y486331D01*
X1661957Y483831D01*
X1662589Y481198D01*
X1662803Y478480D01*
X1662806Y478474D01*
X1662804Y478467D01*
X1662830Y478409D01*
X1662853Y478350D01*
X1662858Y478345D01*
X1662861Y478339D01*
X1662914Y478304D01*
X1662965Y478266D01*
X1662972Y478266D01*
X1662978Y478262D01*
X1663051Y478251D01*
X1673051Y478251D01*
X1673076Y478258D01*
X1673102Y478256D01*
X1673142Y478277D01*
X1673186Y478290D01*
X1673203Y478310D01*
X1673226Y478322D01*
X1673248Y478361D01*
X1673278Y478395D01*
X1673281Y478421D01*
X1673294Y478444D01*
X1673300Y478518D01*
X1673020Y482431D01*
X1673017Y482441D01*
X1673015Y482467D01*
X1672181Y486301D01*
X1672176Y486309D01*
X1672171Y486335D01*
X1670800Y490011D01*
X1670794Y490019D01*
X1670785Y490043D01*
X1668905Y493487D01*
X1668898Y493494D01*
X1668885Y493517D01*
X1666534Y496658D01*
X1666526Y496664D01*
X1666511Y496685D01*
X1663736Y499459D01*
X1663728Y499464D01*
X1663709Y499483D01*
X1660568Y501834D01*
X1660559Y501837D01*
X1660538Y501853D01*
X1657095Y503734D01*
X1657085Y503736D01*
X1657062Y503748D01*
X1653386Y505120D01*
X1653377Y505120D01*
X1653352Y505130D01*
X1649518Y505964D01*
X1649508Y505963D01*
X1649483Y505969D01*
X1645569Y506249D01*
X1645560Y506247D01*
X1645534Y506249D01*
X1641620Y505969D01*
X1641611Y505965D01*
X1641585Y505964D01*
X1637751Y505130D01*
X1637742Y505125D01*
X1637717Y505120D01*
X1634040Y503748D01*
X1634033Y503743D01*
X1634008Y503734D01*
X1630564Y501853D01*
X1630558Y501846D01*
X1630534Y501834D01*
X1627393Y499483D01*
X1627388Y499475D01*
X1627367Y499459D01*
X1624592Y496685D01*
X1624587Y496676D01*
X1624569Y496658D01*
X1622217Y493517D01*
X1622214Y493508D01*
X1622198Y493487D01*
X1620318Y490043D01*
X1620316Y490034D01*
X1620303Y490011D01*
X1618932Y486335D01*
X1618931Y486325D01*
X1618922Y486301D01*
X1618088Y482467D01*
X1618088Y482457D01*
X1618083Y482431D01*
X1617803Y478518D01*
X1617808Y478492D01*
X1617804Y478467D01*
X1617823Y478425D01*
X1617832Y478381D01*
X1617851Y478363D01*
X1617861Y478339D01*
X1617899Y478314D01*
X1617931Y478282D01*
X1617956Y478276D01*
X1617978Y478262D01*
X1618051Y478251D01*
X1628051Y478251D01*
X1628058Y478253D01*
G37*
G36*
X1729493Y192531D02*
X1729493Y192531D01*
X1729503Y192535D01*
X1729529Y192536D01*
X1733363Y193370D01*
X1733371Y193375D01*
X1733397Y193380D01*
X1737073Y194752D01*
X1737081Y194757D01*
X1737105Y194766D01*
X1740549Y196647D01*
X1740556Y196654D01*
X1740579Y196666D01*
X1743720Y199017D01*
X1743726Y199025D01*
X1743747Y199041D01*
X1746521Y201815D01*
X1746526Y201824D01*
X1746545Y201842D01*
X1748896Y204983D01*
X1748899Y204992D01*
X1748915Y205013D01*
X1750796Y208457D01*
X1750798Y208466D01*
X1750810Y208489D01*
X1752182Y212165D01*
X1752182Y212175D01*
X1752192Y212199D01*
X1753026Y216033D01*
X1753025Y216043D01*
X1753031Y216069D01*
X1753311Y219982D01*
X1753305Y220008D01*
X1753309Y220033D01*
X1753291Y220075D01*
X1753281Y220119D01*
X1753263Y220137D01*
X1753252Y220161D01*
X1753214Y220186D01*
X1753183Y220218D01*
X1753157Y220224D01*
X1753136Y220238D01*
X1753062Y220249D01*
X1743062Y220249D01*
X1743055Y220247D01*
X1743048Y220249D01*
X1742989Y220228D01*
X1742928Y220210D01*
X1742923Y220205D01*
X1742916Y220202D01*
X1742878Y220152D01*
X1742836Y220105D01*
X1742835Y220098D01*
X1742830Y220092D01*
X1742814Y220020D01*
X1742600Y217302D01*
X1741968Y214669D01*
X1740932Y212169D01*
X1739518Y209861D01*
X1737760Y207802D01*
X1735701Y206044D01*
X1733393Y204630D01*
X1730893Y203594D01*
X1728260Y202962D01*
X1725562Y202750D01*
X1722864Y202962D01*
X1720231Y203594D01*
X1717731Y204630D01*
X1715423Y206044D01*
X1713364Y207802D01*
X1711606Y209861D01*
X1710192Y212169D01*
X1709156Y214669D01*
X1708524Y217302D01*
X1708310Y220020D01*
X1708308Y220026D01*
X1708309Y220033D01*
X1708283Y220091D01*
X1708261Y220150D01*
X1708255Y220155D01*
X1708252Y220161D01*
X1708199Y220196D01*
X1708149Y220234D01*
X1708142Y220234D01*
X1708136Y220238D01*
X1708062Y220249D01*
X1698062Y220249D01*
X1698037Y220242D01*
X1698011Y220244D01*
X1697971Y220223D01*
X1697928Y220210D01*
X1697911Y220190D01*
X1697888Y220178D01*
X1697866Y220139D01*
X1697836Y220105D01*
X1697832Y220079D01*
X1697819Y220056D01*
X1697813Y219982D01*
X1698093Y216069D01*
X1698097Y216059D01*
X1698098Y216033D01*
X1698932Y212199D01*
X1698937Y212191D01*
X1698942Y212165D01*
X1700314Y208489D01*
X1700319Y208481D01*
X1700328Y208457D01*
X1702209Y205013D01*
X1702216Y205006D01*
X1702228Y204983D01*
X1704579Y201842D01*
X1704587Y201836D01*
X1704603Y201815D01*
X1707377Y199041D01*
X1707386Y199036D01*
X1707404Y199017D01*
X1710545Y196666D01*
X1710554Y196663D01*
X1710575Y196647D01*
X1714019Y194766D01*
X1714028Y194764D01*
X1714051Y194752D01*
X1717727Y193380D01*
X1717737Y193380D01*
X1717761Y193370D01*
X1721595Y192536D01*
X1721605Y192537D01*
X1721631Y192531D01*
X1725544Y192251D01*
X1725554Y192253D01*
X1725580Y192251D01*
X1729493Y192531D01*
G37*
G36*
X1054260Y192531D02*
X1054260Y192531D01*
X1054269Y192535D01*
X1054295Y192536D01*
X1058129Y193370D01*
X1058138Y193375D01*
X1058163Y193380D01*
X1061839Y194752D01*
X1061847Y194757D01*
X1061872Y194766D01*
X1065315Y196647D01*
X1065322Y196654D01*
X1065345Y196666D01*
X1068486Y199017D01*
X1068492Y199025D01*
X1068513Y199041D01*
X1071288Y201815D01*
X1071292Y201824D01*
X1071311Y201842D01*
X1073662Y204983D01*
X1073666Y204992D01*
X1073682Y205013D01*
X1075562Y208457D01*
X1075564Y208466D01*
X1075577Y208489D01*
X1076948Y212165D01*
X1076949Y212175D01*
X1076958Y212199D01*
X1077792Y216033D01*
X1077791Y216043D01*
X1077797Y216069D01*
X1078077Y219982D01*
X1078072Y220008D01*
X1078075Y220033D01*
X1078057Y220075D01*
X1078048Y220119D01*
X1078029Y220137D01*
X1078019Y220161D01*
X1077981Y220186D01*
X1077949Y220218D01*
X1077924Y220224D01*
X1077902Y220238D01*
X1077828Y220249D01*
X1067828Y220249D01*
X1067821Y220247D01*
X1067814Y220249D01*
X1067755Y220228D01*
X1067694Y220210D01*
X1067689Y220205D01*
X1067683Y220202D01*
X1067644Y220152D01*
X1067602Y220105D01*
X1067601Y220098D01*
X1067597Y220092D01*
X1067580Y220020D01*
X1067366Y217302D01*
X1066734Y214669D01*
X1065698Y212169D01*
X1064284Y209861D01*
X1062526Y207802D01*
X1060468Y206044D01*
X1058160Y204630D01*
X1055659Y203594D01*
X1053027Y202962D01*
X1050328Y202750D01*
X1047630Y202962D01*
X1044998Y203594D01*
X1042497Y204630D01*
X1040189Y206044D01*
X1038131Y207802D01*
X1036373Y209861D01*
X1034959Y212169D01*
X1033923Y214669D01*
X1033291Y217302D01*
X1033077Y220020D01*
X1033074Y220026D01*
X1033075Y220033D01*
X1033050Y220091D01*
X1033027Y220150D01*
X1033022Y220155D01*
X1033019Y220161D01*
X1032966Y220196D01*
X1032915Y220234D01*
X1032908Y220234D01*
X1032902Y220238D01*
X1032828Y220249D01*
X1022828Y220249D01*
X1022803Y220242D01*
X1022777Y220244D01*
X1022738Y220223D01*
X1022694Y220210D01*
X1022677Y220190D01*
X1022654Y220178D01*
X1022632Y220139D01*
X1022602Y220105D01*
X1022598Y220079D01*
X1022586Y220056D01*
X1022580Y219982D01*
X1022860Y216069D01*
X1022863Y216059D01*
X1022865Y216033D01*
X1023699Y212199D01*
X1023703Y212191D01*
X1023709Y212165D01*
X1025080Y208489D01*
X1025086Y208481D01*
X1025095Y208457D01*
X1026975Y205013D01*
X1026982Y205006D01*
X1026994Y204983D01*
X1029346Y201842D01*
X1029354Y201836D01*
X1029369Y201815D01*
X1032144Y199041D01*
X1032152Y199036D01*
X1032170Y199017D01*
X1035311Y196666D01*
X1035321Y196663D01*
X1035341Y196647D01*
X1038785Y194766D01*
X1038794Y194764D01*
X1038817Y194752D01*
X1042494Y193380D01*
X1042503Y193380D01*
X1042528Y193370D01*
X1046362Y192536D01*
X1046371Y192537D01*
X1046397Y192531D01*
X1050311Y192251D01*
X1050320Y192253D01*
X1050346Y192251D01*
X1054260Y192531D01*
G37*
G36*
X829165Y192531D02*
X829165Y192531D01*
X829174Y192535D01*
X829200Y192536D01*
X833034Y193370D01*
X833043Y193375D01*
X833068Y193380D01*
X836745Y194752D01*
X836752Y194757D01*
X836777Y194766D01*
X840221Y196647D01*
X840227Y196654D01*
X840251Y196666D01*
X843392Y199017D01*
X843397Y199025D01*
X843419Y199041D01*
X846193Y201815D01*
X846198Y201824D01*
X846216Y201842D01*
X848568Y204983D01*
X848571Y204992D01*
X848587Y205013D01*
X850467Y208457D01*
X850469Y208466D01*
X850482Y208489D01*
X851853Y212165D01*
X851854Y212175D01*
X851863Y212199D01*
X852697Y216033D01*
X852697Y216043D01*
X852702Y216069D01*
X852982Y219982D01*
X852977Y220008D01*
X852981Y220033D01*
X852962Y220075D01*
X852953Y220119D01*
X852934Y220137D01*
X852924Y220161D01*
X852886Y220186D01*
X852854Y220218D01*
X852829Y220224D01*
X852807Y220238D01*
X852734Y220249D01*
X842734Y220249D01*
X842727Y220247D01*
X842720Y220249D01*
X842660Y220228D01*
X842599Y220210D01*
X842595Y220205D01*
X842588Y220202D01*
X842549Y220152D01*
X842507Y220105D01*
X842506Y220098D01*
X842502Y220092D01*
X842485Y220020D01*
X842271Y217302D01*
X841639Y214669D01*
X840603Y212169D01*
X839189Y209861D01*
X837431Y207802D01*
X835373Y206044D01*
X833065Y204630D01*
X830564Y203594D01*
X827932Y202962D01*
X825234Y202750D01*
X822535Y202962D01*
X819903Y203594D01*
X817402Y204630D01*
X815094Y206044D01*
X813036Y207802D01*
X811278Y209861D01*
X809864Y212169D01*
X808828Y214669D01*
X808196Y217302D01*
X807982Y220020D01*
X807980Y220026D01*
X807981Y220033D01*
X807955Y220091D01*
X807932Y220150D01*
X807927Y220155D01*
X807924Y220161D01*
X807871Y220196D01*
X807820Y220234D01*
X807813Y220234D01*
X807807Y220238D01*
X807734Y220249D01*
X797734Y220249D01*
X797709Y220242D01*
X797683Y220244D01*
X797643Y220223D01*
X797599Y220210D01*
X797582Y220190D01*
X797559Y220178D01*
X797537Y220139D01*
X797507Y220105D01*
X797504Y220079D01*
X797491Y220056D01*
X797485Y219982D01*
X797765Y216069D01*
X797768Y216059D01*
X797770Y216033D01*
X798604Y212199D01*
X798609Y212191D01*
X798614Y212165D01*
X799985Y208489D01*
X799991Y208481D01*
X800000Y208457D01*
X801880Y205013D01*
X801887Y205006D01*
X801900Y204983D01*
X804251Y201842D01*
X804259Y201836D01*
X804274Y201815D01*
X807049Y199041D01*
X807057Y199036D01*
X807076Y199017D01*
X810217Y196666D01*
X810226Y196663D01*
X810247Y196647D01*
X813690Y194766D01*
X813700Y194764D01*
X813723Y194752D01*
X817399Y193380D01*
X817409Y193380D01*
X817433Y193370D01*
X821267Y192536D01*
X821277Y192537D01*
X821302Y192531D01*
X825216Y192251D01*
X825225Y192253D01*
X825251Y192251D01*
X829165Y192531D01*
G37*
G36*
X1279329Y192531D02*
X1279329Y192531D01*
X1279338Y192535D01*
X1279364Y192536D01*
X1283198Y193370D01*
X1283207Y193375D01*
X1283233Y193380D01*
X1286909Y194752D01*
X1286917Y194757D01*
X1286941Y194766D01*
X1290385Y196647D01*
X1290392Y196654D01*
X1290415Y196666D01*
X1293556Y199017D01*
X1293562Y199025D01*
X1293583Y199041D01*
X1296357Y201815D01*
X1296362Y201824D01*
X1296380Y201842D01*
X1298732Y204983D01*
X1298735Y204992D01*
X1298751Y205013D01*
X1300631Y208457D01*
X1300634Y208466D01*
X1300646Y208489D01*
X1302017Y212165D01*
X1302018Y212175D01*
X1302027Y212199D01*
X1302861Y216033D01*
X1302861Y216043D01*
X1302867Y216069D01*
X1303146Y219982D01*
X1303141Y220008D01*
X1303145Y220033D01*
X1303126Y220075D01*
X1303117Y220119D01*
X1303099Y220137D01*
X1303088Y220161D01*
X1303050Y220186D01*
X1303018Y220218D01*
X1302993Y220224D01*
X1302971Y220238D01*
X1302898Y220249D01*
X1292898Y220249D01*
X1292891Y220247D01*
X1292884Y220249D01*
X1292825Y220228D01*
X1292764Y220210D01*
X1292759Y220205D01*
X1292752Y220202D01*
X1292713Y220152D01*
X1292672Y220105D01*
X1292671Y220098D01*
X1292666Y220092D01*
X1292649Y220020D01*
X1292435Y217302D01*
X1291804Y214669D01*
X1290768Y212169D01*
X1289353Y209861D01*
X1287595Y207802D01*
X1285537Y206044D01*
X1283229Y204630D01*
X1280728Y203594D01*
X1278096Y202962D01*
X1275398Y202750D01*
X1272699Y202962D01*
X1270067Y203594D01*
X1267566Y204630D01*
X1265259Y206044D01*
X1263200Y207802D01*
X1261442Y209861D01*
X1260028Y212169D01*
X1258992Y214669D01*
X1258360Y217302D01*
X1258146Y220020D01*
X1258144Y220026D01*
X1258145Y220033D01*
X1258119Y220091D01*
X1258097Y220150D01*
X1258091Y220155D01*
X1258088Y220161D01*
X1258035Y220196D01*
X1257985Y220234D01*
X1257977Y220234D01*
X1257971Y220238D01*
X1257898Y220249D01*
X1247898Y220249D01*
X1247873Y220242D01*
X1247847Y220244D01*
X1247807Y220223D01*
X1247764Y220210D01*
X1247746Y220190D01*
X1247724Y220178D01*
X1247701Y220139D01*
X1247672Y220105D01*
X1247668Y220079D01*
X1247655Y220056D01*
X1247649Y219982D01*
X1247929Y216069D01*
X1247932Y216059D01*
X1247934Y216033D01*
X1248768Y212199D01*
X1248773Y212191D01*
X1248778Y212165D01*
X1250149Y208489D01*
X1250155Y208481D01*
X1250164Y208457D01*
X1252045Y205013D01*
X1252051Y205006D01*
X1252064Y204983D01*
X1254415Y201842D01*
X1254423Y201836D01*
X1254438Y201815D01*
X1257213Y199041D01*
X1257221Y199036D01*
X1257240Y199017D01*
X1260381Y196666D01*
X1260390Y196663D01*
X1260411Y196647D01*
X1263854Y194766D01*
X1263864Y194764D01*
X1263887Y194752D01*
X1267563Y193380D01*
X1267573Y193380D01*
X1267597Y193370D01*
X1271431Y192536D01*
X1271441Y192537D01*
X1271466Y192531D01*
X1275380Y192251D01*
X1275390Y192253D01*
X1275416Y192251D01*
X1279329Y192531D01*
G37*
G36*
X1504424Y192531D02*
X1504424Y192531D01*
X1504433Y192535D01*
X1504459Y192536D01*
X1508293Y193370D01*
X1508302Y193375D01*
X1508327Y193380D01*
X1512004Y194752D01*
X1512011Y194757D01*
X1512036Y194766D01*
X1515480Y196647D01*
X1515486Y196654D01*
X1515510Y196666D01*
X1518651Y199017D01*
X1518656Y199025D01*
X1518678Y199041D01*
X1521452Y201815D01*
X1521457Y201824D01*
X1521475Y201842D01*
X1523827Y204983D01*
X1523830Y204992D01*
X1523846Y205013D01*
X1525726Y208457D01*
X1525728Y208466D01*
X1525741Y208489D01*
X1527112Y212165D01*
X1527113Y212175D01*
X1527122Y212199D01*
X1527956Y216033D01*
X1527956Y216043D01*
X1527961Y216069D01*
X1528241Y219982D01*
X1528236Y220008D01*
X1528240Y220033D01*
X1528221Y220075D01*
X1528212Y220119D01*
X1528193Y220137D01*
X1528183Y220161D01*
X1528145Y220186D01*
X1528113Y220218D01*
X1528088Y220224D01*
X1528066Y220238D01*
X1527993Y220249D01*
X1517993Y220249D01*
X1517986Y220247D01*
X1517979Y220249D01*
X1517919Y220228D01*
X1517858Y220210D01*
X1517854Y220205D01*
X1517847Y220202D01*
X1517808Y220152D01*
X1517766Y220105D01*
X1517765Y220098D01*
X1517761Y220092D01*
X1517744Y220020D01*
X1517530Y217302D01*
X1516898Y214669D01*
X1515862Y212169D01*
X1514448Y209861D01*
X1512690Y207802D01*
X1510632Y206044D01*
X1508324Y204630D01*
X1505823Y203594D01*
X1503191Y202962D01*
X1500493Y202750D01*
X1497794Y202962D01*
X1495162Y203594D01*
X1492661Y204630D01*
X1490353Y206044D01*
X1488295Y207802D01*
X1486537Y209861D01*
X1485123Y212169D01*
X1484087Y214669D01*
X1483455Y217302D01*
X1483241Y220020D01*
X1483239Y220026D01*
X1483240Y220033D01*
X1483214Y220091D01*
X1483191Y220150D01*
X1483186Y220155D01*
X1483183Y220161D01*
X1483130Y220196D01*
X1483079Y220234D01*
X1483072Y220234D01*
X1483066Y220238D01*
X1482993Y220249D01*
X1472993Y220249D01*
X1472968Y220242D01*
X1472942Y220244D01*
X1472902Y220223D01*
X1472858Y220210D01*
X1472841Y220190D01*
X1472818Y220178D01*
X1472796Y220139D01*
X1472766Y220105D01*
X1472763Y220079D01*
X1472750Y220056D01*
X1472744Y219982D01*
X1473024Y216069D01*
X1473027Y216059D01*
X1473029Y216033D01*
X1473863Y212199D01*
X1473868Y212191D01*
X1473873Y212165D01*
X1475244Y208489D01*
X1475250Y208481D01*
X1475259Y208457D01*
X1477139Y205013D01*
X1477146Y205006D01*
X1477159Y204983D01*
X1479510Y201842D01*
X1479518Y201836D01*
X1479533Y201815D01*
X1482308Y199041D01*
X1482316Y199036D01*
X1482335Y199017D01*
X1485476Y196666D01*
X1485485Y196663D01*
X1485506Y196647D01*
X1488949Y194766D01*
X1488959Y194764D01*
X1488982Y194752D01*
X1492658Y193380D01*
X1492668Y193380D01*
X1492692Y193370D01*
X1496526Y192536D01*
X1496536Y192537D01*
X1496561Y192531D01*
X1500475Y192251D01*
X1500484Y192253D01*
X1500510Y192251D01*
X1504424Y192531D01*
G37*
G36*
X604096Y192531D02*
X604096Y192531D01*
X604105Y192535D01*
X604131Y192536D01*
X607965Y193370D01*
X607973Y193375D01*
X607999Y193380D01*
X611675Y194752D01*
X611683Y194757D01*
X611708Y194766D01*
X615151Y196647D01*
X615158Y196654D01*
X615181Y196666D01*
X618322Y199017D01*
X618328Y199025D01*
X618349Y199041D01*
X621124Y201815D01*
X621128Y201824D01*
X621147Y201842D01*
X623498Y204983D01*
X623502Y204992D01*
X623517Y205013D01*
X625398Y208457D01*
X625400Y208466D01*
X625413Y208489D01*
X626784Y212165D01*
X626784Y212175D01*
X626794Y212199D01*
X627628Y216033D01*
X627627Y216043D01*
X627633Y216069D01*
X627913Y219982D01*
X627907Y220008D01*
X627911Y220033D01*
X627893Y220075D01*
X627883Y220119D01*
X627865Y220137D01*
X627854Y220161D01*
X627817Y220186D01*
X627785Y220218D01*
X627759Y220224D01*
X627738Y220238D01*
X627664Y220249D01*
X617664Y220249D01*
X617657Y220247D01*
X617650Y220249D01*
X617591Y220228D01*
X617530Y220210D01*
X617525Y220205D01*
X617518Y220202D01*
X617480Y220152D01*
X617438Y220105D01*
X617437Y220098D01*
X617433Y220092D01*
X617416Y220020D01*
X617202Y217302D01*
X616570Y214669D01*
X615534Y212169D01*
X614120Y209861D01*
X612362Y207802D01*
X610304Y206044D01*
X607996Y204630D01*
X605495Y203594D01*
X602863Y202962D01*
X600164Y202750D01*
X597466Y202962D01*
X594834Y203594D01*
X592333Y204630D01*
X590025Y206044D01*
X587967Y207802D01*
X586209Y209861D01*
X584794Y212169D01*
X583759Y214669D01*
X583127Y217302D01*
X582913Y220020D01*
X582910Y220026D01*
X582911Y220033D01*
X582885Y220091D01*
X582863Y220150D01*
X582857Y220155D01*
X582854Y220161D01*
X582802Y220196D01*
X582751Y220234D01*
X582744Y220234D01*
X582738Y220238D01*
X582664Y220249D01*
X572664Y220249D01*
X572639Y220242D01*
X572613Y220244D01*
X572573Y220223D01*
X572530Y220210D01*
X572513Y220190D01*
X572490Y220178D01*
X572468Y220139D01*
X572438Y220105D01*
X572434Y220079D01*
X572421Y220056D01*
X572416Y219982D01*
X572695Y216069D01*
X572699Y216059D01*
X572701Y216033D01*
X573535Y212199D01*
X573539Y212191D01*
X573545Y212165D01*
X574916Y208489D01*
X574922Y208481D01*
X574931Y208457D01*
X576811Y205013D01*
X576818Y205006D01*
X576830Y204983D01*
X579182Y201842D01*
X579189Y201836D01*
X579205Y201815D01*
X581979Y199041D01*
X581988Y199036D01*
X582006Y199017D01*
X585147Y196666D01*
X585156Y196663D01*
X585177Y196647D01*
X588621Y194766D01*
X588630Y194764D01*
X588653Y194752D01*
X592329Y193380D01*
X592339Y193380D01*
X592364Y193370D01*
X596198Y192536D01*
X596207Y192537D01*
X596233Y192531D01*
X600146Y192251D01*
X600156Y192253D01*
X600182Y192251D01*
X604096Y192531D01*
G37*
G36*
X379001Y192531D02*
X379001Y192531D01*
X379010Y192535D01*
X379036Y192536D01*
X382870Y193370D01*
X382879Y193375D01*
X382904Y193380D01*
X386580Y194752D01*
X386588Y194757D01*
X386613Y194766D01*
X390056Y196647D01*
X390063Y196654D01*
X390086Y196666D01*
X393227Y199017D01*
X393233Y199025D01*
X393254Y199041D01*
X396029Y201815D01*
X396033Y201824D01*
X396052Y201842D01*
X398403Y204983D01*
X398407Y204992D01*
X398423Y205013D01*
X400303Y208457D01*
X400305Y208466D01*
X400318Y208489D01*
X401689Y212165D01*
X401690Y212175D01*
X401699Y212199D01*
X402533Y216033D01*
X402532Y216043D01*
X402538Y216069D01*
X402818Y219982D01*
X402813Y220008D01*
X402816Y220033D01*
X402798Y220075D01*
X402789Y220119D01*
X402770Y220137D01*
X402760Y220161D01*
X402722Y220186D01*
X402690Y220218D01*
X402665Y220224D01*
X402643Y220238D01*
X402569Y220249D01*
X392569Y220249D01*
X392562Y220247D01*
X392555Y220249D01*
X392496Y220228D01*
X392435Y220210D01*
X392430Y220205D01*
X392424Y220202D01*
X392385Y220152D01*
X392343Y220105D01*
X392342Y220098D01*
X392338Y220092D01*
X392321Y220020D01*
X392107Y217302D01*
X391475Y214669D01*
X390439Y212169D01*
X389025Y209861D01*
X387267Y207802D01*
X385209Y206044D01*
X382901Y204630D01*
X380400Y203594D01*
X377768Y202962D01*
X375069Y202750D01*
X372371Y202962D01*
X369739Y203594D01*
X367238Y204630D01*
X364930Y206044D01*
X362872Y207802D01*
X361114Y209861D01*
X359700Y212169D01*
X358664Y214669D01*
X358032Y217302D01*
X357818Y220020D01*
X357815Y220026D01*
X357816Y220033D01*
X357791Y220091D01*
X357768Y220150D01*
X357763Y220155D01*
X357760Y220161D01*
X357707Y220196D01*
X357656Y220234D01*
X357649Y220234D01*
X357643Y220238D01*
X357569Y220249D01*
X347569Y220249D01*
X347544Y220242D01*
X347518Y220244D01*
X347479Y220223D01*
X347435Y220210D01*
X347418Y220190D01*
X347395Y220178D01*
X347373Y220139D01*
X347343Y220105D01*
X347339Y220079D01*
X347327Y220056D01*
X347321Y219982D01*
X347601Y216069D01*
X347604Y216059D01*
X347606Y216033D01*
X348440Y212199D01*
X348444Y212191D01*
X348450Y212165D01*
X349821Y208489D01*
X349827Y208481D01*
X349836Y208457D01*
X351716Y205013D01*
X351723Y205006D01*
X351735Y204983D01*
X354087Y201842D01*
X354095Y201836D01*
X354110Y201815D01*
X356885Y199041D01*
X356893Y199036D01*
X356911Y199017D01*
X360052Y196666D01*
X360062Y196663D01*
X360082Y196647D01*
X363526Y194766D01*
X363535Y194764D01*
X363558Y194752D01*
X367235Y193380D01*
X367244Y193380D01*
X367269Y193370D01*
X371103Y192536D01*
X371112Y192537D01*
X371138Y192531D01*
X375052Y192251D01*
X375061Y192253D01*
X375087Y192251D01*
X379001Y192531D01*
G37*
G36*
X153931Y192531D02*
X153931Y192531D01*
X153941Y192535D01*
X153967Y192536D01*
X157801Y193370D01*
X157809Y193375D01*
X157835Y193380D01*
X161511Y194752D01*
X161519Y194757D01*
X161543Y194766D01*
X164987Y196647D01*
X164994Y196654D01*
X165017Y196666D01*
X168158Y199017D01*
X168164Y199025D01*
X168185Y199041D01*
X170959Y201815D01*
X170964Y201824D01*
X170983Y201842D01*
X173334Y204983D01*
X173337Y204992D01*
X173353Y205013D01*
X175234Y208457D01*
X175236Y208466D01*
X175248Y208489D01*
X176620Y212165D01*
X176620Y212175D01*
X176630Y212199D01*
X177464Y216033D01*
X177463Y216043D01*
X177469Y216069D01*
X177749Y219982D01*
X177743Y220008D01*
X177747Y220033D01*
X177729Y220075D01*
X177719Y220119D01*
X177701Y220137D01*
X177690Y220161D01*
X177652Y220186D01*
X177621Y220218D01*
X177595Y220224D01*
X177574Y220238D01*
X177500Y220249D01*
X167500Y220249D01*
X167493Y220247D01*
X167486Y220249D01*
X167427Y220228D01*
X167366Y220210D01*
X167361Y220205D01*
X167354Y220202D01*
X167316Y220152D01*
X167274Y220105D01*
X167273Y220098D01*
X167268Y220092D01*
X167252Y220020D01*
X167038Y217302D01*
X166406Y214669D01*
X165370Y212169D01*
X163956Y209861D01*
X162198Y207802D01*
X160139Y206044D01*
X157831Y204630D01*
X155331Y203594D01*
X152698Y202962D01*
X150000Y202750D01*
X147302Y202962D01*
X144669Y203594D01*
X142169Y204630D01*
X139861Y206044D01*
X137802Y207802D01*
X136044Y209861D01*
X134630Y212169D01*
X133594Y214669D01*
X132962Y217302D01*
X132748Y220020D01*
X132746Y220026D01*
X132747Y220033D01*
X132721Y220091D01*
X132699Y220150D01*
X132693Y220155D01*
X132690Y220161D01*
X132637Y220196D01*
X132587Y220234D01*
X132580Y220234D01*
X132574Y220238D01*
X132500Y220249D01*
X122500Y220249D01*
X122475Y220242D01*
X122449Y220244D01*
X122409Y220223D01*
X122366Y220210D01*
X122349Y220190D01*
X122326Y220178D01*
X122304Y220139D01*
X122274Y220105D01*
X122270Y220079D01*
X122257Y220056D01*
X122251Y219982D01*
X122531Y216069D01*
X122535Y216059D01*
X122536Y216033D01*
X123370Y212199D01*
X123375Y212191D01*
X123380Y212165D01*
X124752Y208489D01*
X124757Y208481D01*
X124766Y208457D01*
X126647Y205013D01*
X126654Y205006D01*
X126666Y204983D01*
X129017Y201842D01*
X129025Y201836D01*
X129041Y201815D01*
X131815Y199041D01*
X131824Y199036D01*
X131842Y199017D01*
X134983Y196666D01*
X134992Y196663D01*
X135013Y196647D01*
X138457Y194766D01*
X138466Y194764D01*
X138489Y194752D01*
X142165Y193380D01*
X142175Y193380D01*
X142199Y193370D01*
X146033Y192536D01*
X146043Y192537D01*
X146069Y192531D01*
X149982Y192251D01*
X149992Y192253D01*
X150018Y192251D01*
X153931Y192531D01*
G37*
D10*
X25000Y100000D03*
X35000Y100000D03*
X25000Y140000D03*
X35000Y140000D03*
D11*
X24720Y206510D02*
X24720Y213490D01*
X24720Y206510D02*
X17740Y206510D01*
X17740Y213490D01*
X24720Y213490D01*
X24720Y211310D02*
X17740Y211310D01*
X42260Y213490D02*
X42260Y206510D01*
X35280Y206510D01*
X35280Y213490D01*
X42260Y213490D01*
X42260Y211310D02*
X35280Y211310D01*
D10*
X55000Y210000D03*
X65000Y210000D03*
D12*
X10000Y50000D03*
X210000Y210000D03*
D13*
X202500Y12750D03*
X197500Y12750D03*
X192500Y12750D03*
X187500Y12750D03*
X182500Y12750D03*
X177500Y12750D03*
X172500Y12750D03*
X167500Y12750D03*
X162500Y12750D03*
X157500Y12750D03*
X152500Y12750D03*
X147500Y12750D03*
X122500Y12750D03*
X117500Y12750D03*
X112500Y12750D03*
X107500Y12750D03*
X102500Y12750D03*
X97500Y12750D03*
X92500Y12750D03*
X87500Y12750D03*
X82500Y12750D03*
X77500Y12750D03*
X72500Y12750D03*
X67500Y12750D03*
X62500Y12750D03*
X57500Y12750D03*
X52500Y12750D03*
X47500Y12750D03*
X42500Y12750D03*
X37500Y12750D03*
X32500Y12750D03*
X27500Y12750D03*
X22500Y12750D03*
X17500Y12750D03*
D14*
X129000Y210000D03*
X171000Y210000D03*
X150000Y197000D03*
D15*
X136605Y158345D02*
X136605Y150385D01*
X135395Y150385D01*
X135395Y158345D01*
X136605Y158345D01*
X136605Y153066D02*
X135395Y153066D01*
X135395Y155747D02*
X136605Y155747D01*
X132605Y158345D02*
X132605Y150385D01*
X131395Y150385D01*
X131395Y158345D01*
X132605Y158345D01*
X132605Y153066D02*
X131395Y153066D01*
X131395Y155747D02*
X132605Y155747D01*
X128605Y158345D02*
X128605Y150385D01*
X127395Y150385D01*
X127395Y158345D01*
X128605Y158345D01*
X128605Y153066D02*
X127395Y153066D01*
X127395Y155747D02*
X128605Y155747D01*
X124605Y158345D02*
X124605Y150385D01*
X123395Y150385D01*
X123395Y158345D01*
X124605Y158345D01*
X124605Y153066D02*
X123395Y153066D01*
X123395Y155747D02*
X124605Y155747D01*
X120605Y158345D02*
X120605Y150385D01*
X119395Y150385D01*
X119395Y158345D01*
X120605Y158345D01*
X120605Y153066D02*
X119395Y153066D01*
X119395Y155747D02*
X120605Y155747D01*
X116605Y158345D02*
X116605Y150385D01*
X115395Y150385D01*
X115395Y158345D01*
X116605Y158345D01*
X116605Y153066D02*
X115395Y153066D01*
X115395Y155747D02*
X116605Y155747D01*
X111395Y158345D02*
X111395Y150385D01*
X111395Y158345D02*
X112605Y158345D01*
X112605Y150385D01*
X111395Y150385D01*
X111395Y153066D02*
X112605Y153066D01*
X112605Y155747D02*
X111395Y155747D01*
D16*
X110000Y120000D03*
D15*
X108605Y150385D02*
X108605Y158345D01*
X108605Y150385D02*
X107395Y150385D01*
X107395Y158345D01*
X108605Y158345D01*
X108605Y153066D02*
X107395Y153066D01*
X107395Y155747D02*
X108605Y155747D01*
X104605Y158345D02*
X104605Y150385D01*
X103395Y150385D01*
X103395Y158345D01*
X104605Y158345D01*
X104605Y153066D02*
X103395Y153066D01*
X103395Y155747D02*
X104605Y155747D01*
X100605Y158345D02*
X100605Y150385D01*
X99395Y150385D01*
X99395Y158345D01*
X100605Y158345D01*
X100605Y153066D02*
X99395Y153066D01*
X99395Y155747D02*
X100605Y155747D01*
X96605Y158345D02*
X96605Y150385D01*
X95395Y150385D01*
X95395Y158345D01*
X96605Y158345D01*
X96605Y153066D02*
X95395Y153066D01*
X95395Y155747D02*
X96605Y155747D01*
X92605Y158345D02*
X92605Y150385D01*
X91395Y150385D01*
X91395Y158345D01*
X92605Y158345D01*
X92605Y153066D02*
X91395Y153066D01*
X91395Y155747D02*
X92605Y155747D01*
X88605Y158345D02*
X88605Y150385D01*
X87395Y150385D01*
X87395Y158345D01*
X88605Y158345D01*
X88605Y153066D02*
X87395Y153066D01*
X87395Y155747D02*
X88605Y155747D01*
X83395Y158345D02*
X83395Y150385D01*
X83395Y158345D02*
X84605Y158345D01*
X84605Y150385D01*
X83395Y150385D01*
X83395Y153066D02*
X84605Y153066D01*
X84605Y155747D02*
X83395Y155747D01*
X79615Y146605D02*
X71655Y146605D01*
X79615Y146605D02*
X79615Y145395D01*
X71655Y145395D01*
X71655Y146605D01*
X71655Y142605D02*
X79615Y142605D01*
X79615Y141395D01*
X71655Y141395D01*
X71655Y142605D01*
X71655Y138605D02*
X79615Y138605D01*
X79615Y137395D01*
X71655Y137395D01*
X71655Y138605D01*
X71655Y134605D02*
X79615Y134605D01*
X79615Y133395D01*
X71655Y133395D01*
X71655Y134605D01*
X71655Y130605D02*
X79615Y130605D01*
X79615Y129395D01*
X71655Y129395D01*
X71655Y130605D01*
X71655Y126605D02*
X79615Y126605D01*
X79615Y125395D01*
X71655Y125395D01*
X71655Y126605D01*
X71655Y121395D02*
X79615Y121395D01*
X71655Y121395D02*
X71655Y122605D01*
X79615Y122605D01*
X79615Y121395D01*
X79615Y118605D02*
X71655Y118605D01*
X79615Y118605D02*
X79615Y117395D01*
X71655Y117395D01*
X71655Y118605D01*
X71655Y114605D02*
X79615Y114605D01*
X79615Y113395D01*
X71655Y113395D01*
X71655Y114605D01*
X71655Y110605D02*
X79615Y110605D01*
X79615Y109395D01*
X71655Y109395D01*
X71655Y110605D01*
X71655Y106605D02*
X79615Y106605D01*
X79615Y105395D01*
X71655Y105395D01*
X71655Y106605D01*
X71655Y102605D02*
X79615Y102605D01*
X79615Y101395D01*
X71655Y101395D01*
X71655Y102605D01*
X71655Y98605D02*
X79615Y98605D01*
X79615Y97395D01*
X71655Y97395D01*
X71655Y98605D01*
X71655Y93395D02*
X79615Y93395D01*
X71655Y93395D02*
X71655Y94605D01*
X79615Y94605D01*
X79615Y93395D01*
X83395Y89615D02*
X83395Y81655D01*
X83395Y89615D02*
X84605Y89615D01*
X84605Y81655D01*
X83395Y81655D01*
X83395Y84336D02*
X84605Y84336D01*
X84605Y87017D02*
X83395Y87017D01*
X87395Y89615D02*
X87395Y81655D01*
X87395Y89615D02*
X88605Y89615D01*
X88605Y81655D01*
X87395Y81655D01*
X87395Y84336D02*
X88605Y84336D01*
X88605Y87017D02*
X87395Y87017D01*
X91395Y89615D02*
X91395Y81655D01*
X91395Y89615D02*
X92605Y89615D01*
X92605Y81655D01*
X91395Y81655D01*
X91395Y84336D02*
X92605Y84336D01*
X92605Y87017D02*
X91395Y87017D01*
X95395Y89615D02*
X95395Y81655D01*
X95395Y89615D02*
X96605Y89615D01*
X96605Y81655D01*
X95395Y81655D01*
X95395Y84336D02*
X96605Y84336D01*
X96605Y87017D02*
X95395Y87017D01*
X99395Y89615D02*
X99395Y81655D01*
X99395Y89615D02*
X100605Y89615D01*
X100605Y81655D01*
X99395Y81655D01*
X99395Y84336D02*
X100605Y84336D01*
X100605Y87017D02*
X99395Y87017D01*
X103395Y89615D02*
X103395Y81655D01*
X103395Y89615D02*
X104605Y89615D01*
X104605Y81655D01*
X103395Y81655D01*
X103395Y84336D02*
X104605Y84336D01*
X104605Y87017D02*
X103395Y87017D01*
X108605Y89615D02*
X108605Y81655D01*
X107395Y81655D01*
X107395Y89615D01*
X108605Y89615D01*
X108605Y84336D02*
X107395Y84336D01*
X107395Y87017D02*
X108605Y87017D01*
X111395Y89615D02*
X111395Y81655D01*
X111395Y89615D02*
X112605Y89615D01*
X112605Y81655D01*
X111395Y81655D01*
X111395Y84336D02*
X112605Y84336D01*
X112605Y87017D02*
X111395Y87017D01*
X115395Y89615D02*
X115395Y81655D01*
X115395Y89615D02*
X116605Y89615D01*
X116605Y81655D01*
X115395Y81655D01*
X115395Y84336D02*
X116605Y84336D01*
X116605Y87017D02*
X115395Y87017D01*
X119395Y89615D02*
X119395Y81655D01*
X119395Y89615D02*
X120605Y89615D01*
X120605Y81655D01*
X119395Y81655D01*
X119395Y84336D02*
X120605Y84336D01*
X120605Y87017D02*
X119395Y87017D01*
X123395Y89615D02*
X123395Y81655D01*
X123395Y89615D02*
X124605Y89615D01*
X124605Y81655D01*
X123395Y81655D01*
X123395Y84336D02*
X124605Y84336D01*
X124605Y87017D02*
X123395Y87017D01*
X127395Y89615D02*
X127395Y81655D01*
X127395Y89615D02*
X128605Y89615D01*
X128605Y81655D01*
X127395Y81655D01*
X127395Y84336D02*
X128605Y84336D01*
X128605Y87017D02*
X127395Y87017D01*
X131395Y89615D02*
X131395Y81655D01*
X131395Y89615D02*
X132605Y89615D01*
X132605Y81655D01*
X131395Y81655D01*
X131395Y84336D02*
X132605Y84336D01*
X132605Y87017D02*
X131395Y87017D01*
X136605Y89615D02*
X136605Y81655D01*
X135395Y81655D01*
X135395Y89615D01*
X136605Y89615D01*
X136605Y84336D02*
X135395Y84336D01*
X135395Y87017D02*
X136605Y87017D01*
X140385Y93395D02*
X148345Y93395D01*
X140385Y93395D02*
X140385Y94605D01*
X148345Y94605D01*
X148345Y93395D01*
X148345Y97395D02*
X140385Y97395D01*
X140385Y98605D01*
X148345Y98605D01*
X148345Y97395D01*
X148345Y101395D02*
X140385Y101395D01*
X140385Y102605D01*
X148345Y102605D01*
X148345Y101395D01*
X148345Y105395D02*
X140385Y105395D01*
X140385Y106605D01*
X148345Y106605D01*
X148345Y105395D01*
X148345Y109395D02*
X140385Y109395D01*
X140385Y110605D01*
X148345Y110605D01*
X148345Y109395D01*
X148345Y113395D02*
X140385Y113395D01*
X140385Y114605D01*
X148345Y114605D01*
X148345Y113395D01*
X148345Y118605D02*
X140385Y118605D01*
X148345Y118605D02*
X148345Y117395D01*
X140385Y117395D01*
X140385Y118605D01*
X140385Y121395D02*
X148345Y121395D01*
X140385Y121395D02*
X140385Y122605D01*
X148345Y122605D01*
X148345Y121395D01*
X148345Y125395D02*
X140385Y125395D01*
X140385Y126605D01*
X148345Y126605D01*
X148345Y125395D01*
X148345Y129395D02*
X140385Y129395D01*
X140385Y130605D01*
X148345Y130605D01*
X148345Y129395D01*
X148345Y133395D02*
X140385Y133395D01*
X140385Y134605D01*
X148345Y134605D01*
X148345Y133395D01*
X148345Y137395D02*
X140385Y137395D01*
X140385Y138605D01*
X148345Y138605D01*
X148345Y137395D01*
X148345Y141395D02*
X140385Y141395D01*
X140385Y142605D01*
X148345Y142605D01*
X148345Y141395D01*
X148345Y146605D02*
X140385Y146605D01*
X148345Y146605D02*
X148345Y145395D01*
X140385Y145395D01*
X140385Y146605D01*
D10*
X50000Y115000D03*
X50000Y125000D03*
X100000Y165000D03*
X100000Y175000D03*
X140000Y165000D03*
X140000Y175000D03*
D17*
X22900Y128540D03*
X22900Y111540D03*
X36900Y111540D03*
X36900Y128540D03*
D10*
X250069Y100000D03*
X260069Y100000D03*
X250069Y140000D03*
X260069Y140000D03*
D11*
X249789Y206510D02*
X249789Y213490D01*
X249789Y206510D02*
X242809Y206510D01*
X242809Y213490D01*
X249789Y213490D01*
X249789Y211310D02*
X242809Y211310D01*
X267329Y213490D02*
X267329Y206510D01*
X260349Y206510D01*
X260349Y213490D01*
X267329Y213490D01*
X267329Y211310D02*
X260349Y211310D01*
D10*
X280069Y210000D03*
X290069Y210000D03*
D12*
X235069Y50000D03*
X435069Y210000D03*
D13*
X427569Y12750D03*
X422569Y12750D03*
X417569Y12750D03*
X412569Y12750D03*
X407569Y12750D03*
X402569Y12750D03*
X397569Y12750D03*
X392569Y12750D03*
X387569Y12750D03*
X382569Y12750D03*
X377569Y12750D03*
X372569Y12750D03*
X347569Y12750D03*
X342569Y12750D03*
X337569Y12750D03*
X332569Y12750D03*
X327569Y12750D03*
X322569Y12750D03*
X317569Y12750D03*
X312569Y12750D03*
X307569Y12750D03*
X302569Y12750D03*
X297569Y12750D03*
X292569Y12750D03*
X287569Y12750D03*
X282569Y12750D03*
X277569Y12750D03*
X272569Y12750D03*
X267569Y12750D03*
X262569Y12750D03*
X257569Y12750D03*
X252569Y12750D03*
X247569Y12750D03*
X242569Y12750D03*
D14*
X354069Y210000D03*
X396069Y210000D03*
X375069Y197000D03*
D15*
X361674Y158345D02*
X361674Y150385D01*
X360464Y150385D01*
X360464Y158345D01*
X361674Y158345D01*
X361674Y153066D02*
X360464Y153066D01*
X360464Y155747D02*
X361674Y155747D01*
X357674Y158345D02*
X357674Y150385D01*
X356464Y150385D01*
X356464Y158345D01*
X357674Y158345D01*
X357674Y153066D02*
X356464Y153066D01*
X356464Y155747D02*
X357674Y155747D01*
X353674Y158345D02*
X353674Y150385D01*
X352464Y150385D01*
X352464Y158345D01*
X353674Y158345D01*
X353674Y153066D02*
X352464Y153066D01*
X352464Y155747D02*
X353674Y155747D01*
X349674Y158345D02*
X349674Y150385D01*
X348464Y150385D01*
X348464Y158345D01*
X349674Y158345D01*
X349674Y153066D02*
X348464Y153066D01*
X348464Y155747D02*
X349674Y155747D01*
X345674Y158345D02*
X345674Y150385D01*
X344464Y150385D01*
X344464Y158345D01*
X345674Y158345D01*
X345674Y153066D02*
X344464Y153066D01*
X344464Y155747D02*
X345674Y155747D01*
X341674Y158345D02*
X341674Y150385D01*
X340464Y150385D01*
X340464Y158345D01*
X341674Y158345D01*
X341674Y153066D02*
X340464Y153066D01*
X340464Y155747D02*
X341674Y155747D01*
X336464Y158345D02*
X336464Y150385D01*
X336464Y158345D02*
X337674Y158345D01*
X337674Y150385D01*
X336464Y150385D01*
X336464Y153066D02*
X337674Y153066D01*
X337674Y155747D02*
X336464Y155747D01*
D16*
X335069Y120000D03*
D15*
X333674Y150385D02*
X333674Y158345D01*
X333674Y150385D02*
X332464Y150385D01*
X332464Y158345D01*
X333674Y158345D01*
X333674Y153066D02*
X332464Y153066D01*
X332464Y155747D02*
X333674Y155747D01*
X329674Y158345D02*
X329674Y150385D01*
X328464Y150385D01*
X328464Y158345D01*
X329674Y158345D01*
X329674Y153066D02*
X328464Y153066D01*
X328464Y155747D02*
X329674Y155747D01*
X325674Y158345D02*
X325674Y150385D01*
X324464Y150385D01*
X324464Y158345D01*
X325674Y158345D01*
X325674Y153066D02*
X324464Y153066D01*
X324464Y155747D02*
X325674Y155747D01*
X321674Y158345D02*
X321674Y150385D01*
X320464Y150385D01*
X320464Y158345D01*
X321674Y158345D01*
X321674Y153066D02*
X320464Y153066D01*
X320464Y155747D02*
X321674Y155747D01*
X317674Y158345D02*
X317674Y150385D01*
X316464Y150385D01*
X316464Y158345D01*
X317674Y158345D01*
X317674Y153066D02*
X316464Y153066D01*
X316464Y155747D02*
X317674Y155747D01*
X313674Y158345D02*
X313674Y150385D01*
X312464Y150385D01*
X312464Y158345D01*
X313674Y158345D01*
X313674Y153066D02*
X312464Y153066D01*
X312464Y155747D02*
X313674Y155747D01*
X308464Y158345D02*
X308464Y150385D01*
X308464Y158345D02*
X309674Y158345D01*
X309674Y150385D01*
X308464Y150385D01*
X308464Y153066D02*
X309674Y153066D01*
X309674Y155747D02*
X308464Y155747D01*
X304684Y146605D02*
X296724Y146605D01*
X304684Y146605D02*
X304684Y145395D01*
X296724Y145395D01*
X296724Y146605D01*
X296724Y142605D02*
X304684Y142605D01*
X304684Y141395D01*
X296724Y141395D01*
X296724Y142605D01*
X296724Y138605D02*
X304684Y138605D01*
X304684Y137395D01*
X296724Y137395D01*
X296724Y138605D01*
X296724Y134605D02*
X304684Y134605D01*
X304684Y133395D01*
X296724Y133395D01*
X296724Y134605D01*
X296724Y130605D02*
X304684Y130605D01*
X304684Y129395D01*
X296724Y129395D01*
X296724Y130605D01*
X296724Y126605D02*
X304684Y126605D01*
X304684Y125395D01*
X296724Y125395D01*
X296724Y126605D01*
X296724Y121395D02*
X304684Y121395D01*
X296724Y121395D02*
X296724Y122605D01*
X304684Y122605D01*
X304684Y121395D01*
X304684Y118605D02*
X296724Y118605D01*
X304684Y118605D02*
X304684Y117395D01*
X296724Y117395D01*
X296724Y118605D01*
X296724Y114605D02*
X304684Y114605D01*
X304684Y113395D01*
X296724Y113395D01*
X296724Y114605D01*
X296724Y110605D02*
X304684Y110605D01*
X304684Y109395D01*
X296724Y109395D01*
X296724Y110605D01*
X296724Y106605D02*
X304684Y106605D01*
X304684Y105395D01*
X296724Y105395D01*
X296724Y106605D01*
X296724Y102605D02*
X304684Y102605D01*
X304684Y101395D01*
X296724Y101395D01*
X296724Y102605D01*
X296724Y98605D02*
X304684Y98605D01*
X304684Y97395D01*
X296724Y97395D01*
X296724Y98605D01*
X296724Y93395D02*
X304684Y93395D01*
X296724Y93395D02*
X296724Y94605D01*
X304684Y94605D01*
X304684Y93395D01*
X308464Y89615D02*
X308464Y81655D01*
X308464Y89615D02*
X309674Y89615D01*
X309674Y81655D01*
X308464Y81655D01*
X308464Y84336D02*
X309674Y84336D01*
X309674Y87017D02*
X308464Y87017D01*
X312464Y89615D02*
X312464Y81655D01*
X312464Y89615D02*
X313674Y89615D01*
X313674Y81655D01*
X312464Y81655D01*
X312464Y84336D02*
X313674Y84336D01*
X313674Y87017D02*
X312464Y87017D01*
X316464Y89615D02*
X316464Y81655D01*
X316464Y89615D02*
X317674Y89615D01*
X317674Y81655D01*
X316464Y81655D01*
X316464Y84336D02*
X317674Y84336D01*
X317674Y87017D02*
X316464Y87017D01*
X320464Y89615D02*
X320464Y81655D01*
X320464Y89615D02*
X321674Y89615D01*
X321674Y81655D01*
X320464Y81655D01*
X320464Y84336D02*
X321674Y84336D01*
X321674Y87017D02*
X320464Y87017D01*
X324464Y89615D02*
X324464Y81655D01*
X324464Y89615D02*
X325674Y89615D01*
X325674Y81655D01*
X324464Y81655D01*
X324464Y84336D02*
X325674Y84336D01*
X325674Y87017D02*
X324464Y87017D01*
X328464Y89615D02*
X328464Y81655D01*
X328464Y89615D02*
X329674Y89615D01*
X329674Y81655D01*
X328464Y81655D01*
X328464Y84336D02*
X329674Y84336D01*
X329674Y87017D02*
X328464Y87017D01*
X333674Y89615D02*
X333674Y81655D01*
X332464Y81655D01*
X332464Y89615D01*
X333674Y89615D01*
X333674Y84336D02*
X332464Y84336D01*
X332464Y87017D02*
X333674Y87017D01*
X336464Y89615D02*
X336464Y81655D01*
X336464Y89615D02*
X337674Y89615D01*
X337674Y81655D01*
X336464Y81655D01*
X336464Y84336D02*
X337674Y84336D01*
X337674Y87017D02*
X336464Y87017D01*
X340464Y89615D02*
X340464Y81655D01*
X340464Y89615D02*
X341674Y89615D01*
X341674Y81655D01*
X340464Y81655D01*
X340464Y84336D02*
X341674Y84336D01*
X341674Y87017D02*
X340464Y87017D01*
X344464Y89615D02*
X344464Y81655D01*
X344464Y89615D02*
X345674Y89615D01*
X345674Y81655D01*
X344464Y81655D01*
X344464Y84336D02*
X345674Y84336D01*
X345674Y87017D02*
X344464Y87017D01*
X348464Y89615D02*
X348464Y81655D01*
X348464Y89615D02*
X349674Y89615D01*
X349674Y81655D01*
X348464Y81655D01*
X348464Y84336D02*
X349674Y84336D01*
X349674Y87017D02*
X348464Y87017D01*
X352464Y89615D02*
X352464Y81655D01*
X352464Y89615D02*
X353674Y89615D01*
X353674Y81655D01*
X352464Y81655D01*
X352464Y84336D02*
X353674Y84336D01*
X353674Y87017D02*
X352464Y87017D01*
X356464Y89615D02*
X356464Y81655D01*
X356464Y89615D02*
X357674Y89615D01*
X357674Y81655D01*
X356464Y81655D01*
X356464Y84336D02*
X357674Y84336D01*
X357674Y87017D02*
X356464Y87017D01*
X361674Y89615D02*
X361674Y81655D01*
X360464Y81655D01*
X360464Y89615D01*
X361674Y89615D01*
X361674Y84336D02*
X360464Y84336D01*
X360464Y87017D02*
X361674Y87017D01*
X365454Y93395D02*
X373414Y93395D01*
X365454Y93395D02*
X365454Y94605D01*
X373414Y94605D01*
X373414Y93395D01*
X373414Y97395D02*
X365454Y97395D01*
X365454Y98605D01*
X373414Y98605D01*
X373414Y97395D01*
X373414Y101395D02*
X365454Y101395D01*
X365454Y102605D01*
X373414Y102605D01*
X373414Y101395D01*
X373414Y105395D02*
X365454Y105395D01*
X365454Y106605D01*
X373414Y106605D01*
X373414Y105395D01*
X373414Y109395D02*
X365454Y109395D01*
X365454Y110605D01*
X373414Y110605D01*
X373414Y109395D01*
X373414Y113395D02*
X365454Y113395D01*
X365454Y114605D01*
X373414Y114605D01*
X373414Y113395D01*
X373414Y118605D02*
X365454Y118605D01*
X373414Y118605D02*
X373414Y117395D01*
X365454Y117395D01*
X365454Y118605D01*
X365454Y121395D02*
X373414Y121395D01*
X365454Y121395D02*
X365454Y122605D01*
X373414Y122605D01*
X373414Y121395D01*
X373414Y125395D02*
X365454Y125395D01*
X365454Y126605D01*
X373414Y126605D01*
X373414Y125395D01*
X373414Y129395D02*
X365454Y129395D01*
X365454Y130605D01*
X373414Y130605D01*
X373414Y129395D01*
X373414Y133395D02*
X365454Y133395D01*
X365454Y134605D01*
X373414Y134605D01*
X373414Y133395D01*
X373414Y137395D02*
X365454Y137395D01*
X365454Y138605D01*
X373414Y138605D01*
X373414Y137395D01*
X373414Y141395D02*
X365454Y141395D01*
X365454Y142605D01*
X373414Y142605D01*
X373414Y141395D01*
X373414Y146605D02*
X365454Y146605D01*
X373414Y146605D02*
X373414Y145395D01*
X365454Y145395D01*
X365454Y146605D01*
D10*
X275069Y115000D03*
X275069Y125000D03*
X325069Y165000D03*
X325069Y175000D03*
X365069Y165000D03*
X365069Y175000D03*
D17*
X247969Y128540D03*
X247969Y111540D03*
X261969Y111540D03*
X261969Y128540D03*
D10*
X475164Y100000D03*
X485164Y100000D03*
X475164Y140000D03*
X485164Y140000D03*
D11*
X474884Y206510D02*
X474884Y213490D01*
X474884Y206510D02*
X467904Y206510D01*
X467904Y213490D01*
X474884Y213490D01*
X474884Y211310D02*
X467904Y211310D01*
X492424Y213490D02*
X492424Y206510D01*
X485444Y206510D01*
X485444Y213490D01*
X492424Y213490D01*
X492424Y211310D02*
X485444Y211310D01*
D10*
X505164Y210000D03*
X515164Y210000D03*
D12*
X460164Y50000D03*
X660164Y210000D03*
D13*
X652664Y12750D03*
X647664Y12750D03*
X642664Y12750D03*
X637664Y12750D03*
X632664Y12750D03*
X627664Y12750D03*
X622664Y12750D03*
X617664Y12750D03*
X612664Y12750D03*
X607664Y12750D03*
X602664Y12750D03*
X597664Y12750D03*
X572664Y12750D03*
X567664Y12750D03*
X562664Y12750D03*
X557664Y12750D03*
X552664Y12750D03*
X547664Y12750D03*
X542664Y12750D03*
X537664Y12750D03*
X532664Y12750D03*
X527664Y12750D03*
X522664Y12750D03*
X517664Y12750D03*
X512664Y12750D03*
X507664Y12750D03*
X502664Y12750D03*
X497664Y12750D03*
X492664Y12750D03*
X487664Y12750D03*
X482664Y12750D03*
X477664Y12750D03*
X472664Y12750D03*
X467664Y12750D03*
D14*
X579164Y210000D03*
X621164Y210000D03*
X600164Y197000D03*
D15*
X586769Y158345D02*
X586769Y150385D01*
X585559Y150385D01*
X585559Y158345D01*
X586769Y158345D01*
X586769Y153066D02*
X585559Y153066D01*
X585559Y155747D02*
X586769Y155747D01*
X582769Y158345D02*
X582769Y150385D01*
X581559Y150385D01*
X581559Y158345D01*
X582769Y158345D01*
X582769Y153066D02*
X581559Y153066D01*
X581559Y155747D02*
X582769Y155747D01*
X578769Y158345D02*
X578769Y150385D01*
X577559Y150385D01*
X577559Y158345D01*
X578769Y158345D01*
X578769Y153066D02*
X577559Y153066D01*
X577559Y155747D02*
X578769Y155747D01*
X574769Y158345D02*
X574769Y150385D01*
X573559Y150385D01*
X573559Y158345D01*
X574769Y158345D01*
X574769Y153066D02*
X573559Y153066D01*
X573559Y155747D02*
X574769Y155747D01*
X570769Y158345D02*
X570769Y150385D01*
X569559Y150385D01*
X569559Y158345D01*
X570769Y158345D01*
X570769Y153066D02*
X569559Y153066D01*
X569559Y155747D02*
X570769Y155747D01*
X566769Y158345D02*
X566769Y150385D01*
X565559Y150385D01*
X565559Y158345D01*
X566769Y158345D01*
X566769Y153066D02*
X565559Y153066D01*
X565559Y155747D02*
X566769Y155747D01*
X561559Y158345D02*
X561559Y150385D01*
X561559Y158345D02*
X562769Y158345D01*
X562769Y150385D01*
X561559Y150385D01*
X561559Y153066D02*
X562769Y153066D01*
X562769Y155747D02*
X561559Y155747D01*
D16*
X560164Y120000D03*
D15*
X558769Y150385D02*
X558769Y158345D01*
X558769Y150385D02*
X557559Y150385D01*
X557559Y158345D01*
X558769Y158345D01*
X558769Y153066D02*
X557559Y153066D01*
X557559Y155747D02*
X558769Y155747D01*
X554769Y158345D02*
X554769Y150385D01*
X553559Y150385D01*
X553559Y158345D01*
X554769Y158345D01*
X554769Y153066D02*
X553559Y153066D01*
X553559Y155747D02*
X554769Y155747D01*
X550769Y158345D02*
X550769Y150385D01*
X549559Y150385D01*
X549559Y158345D01*
X550769Y158345D01*
X550769Y153066D02*
X549559Y153066D01*
X549559Y155747D02*
X550769Y155747D01*
X546769Y158345D02*
X546769Y150385D01*
X545559Y150385D01*
X545559Y158345D01*
X546769Y158345D01*
X546769Y153066D02*
X545559Y153066D01*
X545559Y155747D02*
X546769Y155747D01*
X542769Y158345D02*
X542769Y150385D01*
X541559Y150385D01*
X541559Y158345D01*
X542769Y158345D01*
X542769Y153066D02*
X541559Y153066D01*
X541559Y155747D02*
X542769Y155747D01*
X538769Y158345D02*
X538769Y150385D01*
X537559Y150385D01*
X537559Y158345D01*
X538769Y158345D01*
X538769Y153066D02*
X537559Y153066D01*
X537559Y155747D02*
X538769Y155747D01*
X533559Y158345D02*
X533559Y150385D01*
X533559Y158345D02*
X534769Y158345D01*
X534769Y150385D01*
X533559Y150385D01*
X533559Y153066D02*
X534769Y153066D01*
X534769Y155747D02*
X533559Y155747D01*
X529779Y146605D02*
X521819Y146605D01*
X529779Y146605D02*
X529779Y145395D01*
X521819Y145395D01*
X521819Y146605D01*
X521819Y142605D02*
X529779Y142605D01*
X529779Y141395D01*
X521819Y141395D01*
X521819Y142605D01*
X521819Y138605D02*
X529779Y138605D01*
X529779Y137395D01*
X521819Y137395D01*
X521819Y138605D01*
X521819Y134605D02*
X529779Y134605D01*
X529779Y133395D01*
X521819Y133395D01*
X521819Y134605D01*
X521819Y130605D02*
X529779Y130605D01*
X529779Y129395D01*
X521819Y129395D01*
X521819Y130605D01*
X521819Y126605D02*
X529779Y126605D01*
X529779Y125395D01*
X521819Y125395D01*
X521819Y126605D01*
X521819Y121395D02*
X529779Y121395D01*
X521819Y121395D02*
X521819Y122605D01*
X529779Y122605D01*
X529779Y121395D01*
X529779Y118605D02*
X521819Y118605D01*
X529779Y118605D02*
X529779Y117395D01*
X521819Y117395D01*
X521819Y118605D01*
X521819Y114605D02*
X529779Y114605D01*
X529779Y113395D01*
X521819Y113395D01*
X521819Y114605D01*
X521819Y110605D02*
X529779Y110605D01*
X529779Y109395D01*
X521819Y109395D01*
X521819Y110605D01*
X521819Y106605D02*
X529779Y106605D01*
X529779Y105395D01*
X521819Y105395D01*
X521819Y106605D01*
X521819Y102605D02*
X529779Y102605D01*
X529779Y101395D01*
X521819Y101395D01*
X521819Y102605D01*
X521819Y98605D02*
X529779Y98605D01*
X529779Y97395D01*
X521819Y97395D01*
X521819Y98605D01*
X521819Y93395D02*
X529779Y93395D01*
X521819Y93395D02*
X521819Y94605D01*
X529779Y94605D01*
X529779Y93395D01*
X533559Y89615D02*
X533559Y81655D01*
X533559Y89615D02*
X534769Y89615D01*
X534769Y81655D01*
X533559Y81655D01*
X533559Y84336D02*
X534769Y84336D01*
X534769Y87017D02*
X533559Y87017D01*
X537559Y89615D02*
X537559Y81655D01*
X537559Y89615D02*
X538769Y89615D01*
X538769Y81655D01*
X537559Y81655D01*
X537559Y84336D02*
X538769Y84336D01*
X538769Y87017D02*
X537559Y87017D01*
X541559Y89615D02*
X541559Y81655D01*
X541559Y89615D02*
X542769Y89615D01*
X542769Y81655D01*
X541559Y81655D01*
X541559Y84336D02*
X542769Y84336D01*
X542769Y87017D02*
X541559Y87017D01*
X545559Y89615D02*
X545559Y81655D01*
X545559Y89615D02*
X546769Y89615D01*
X546769Y81655D01*
X545559Y81655D01*
X545559Y84336D02*
X546769Y84336D01*
X546769Y87017D02*
X545559Y87017D01*
X549559Y89615D02*
X549559Y81655D01*
X549559Y89615D02*
X550769Y89615D01*
X550769Y81655D01*
X549559Y81655D01*
X549559Y84336D02*
X550769Y84336D01*
X550769Y87017D02*
X549559Y87017D01*
X553559Y89615D02*
X553559Y81655D01*
X553559Y89615D02*
X554769Y89615D01*
X554769Y81655D01*
X553559Y81655D01*
X553559Y84336D02*
X554769Y84336D01*
X554769Y87017D02*
X553559Y87017D01*
X558769Y89615D02*
X558769Y81655D01*
X557559Y81655D01*
X557559Y89615D01*
X558769Y89615D01*
X558769Y84336D02*
X557559Y84336D01*
X557559Y87017D02*
X558769Y87017D01*
X561559Y89615D02*
X561559Y81655D01*
X561559Y89615D02*
X562769Y89615D01*
X562769Y81655D01*
X561559Y81655D01*
X561559Y84336D02*
X562769Y84336D01*
X562769Y87017D02*
X561559Y87017D01*
X565559Y89615D02*
X565559Y81655D01*
X565559Y89615D02*
X566769Y89615D01*
X566769Y81655D01*
X565559Y81655D01*
X565559Y84336D02*
X566769Y84336D01*
X566769Y87017D02*
X565559Y87017D01*
X569559Y89615D02*
X569559Y81655D01*
X569559Y89615D02*
X570769Y89615D01*
X570769Y81655D01*
X569559Y81655D01*
X569559Y84336D02*
X570769Y84336D01*
X570769Y87017D02*
X569559Y87017D01*
X573559Y89615D02*
X573559Y81655D01*
X573559Y89615D02*
X574769Y89615D01*
X574769Y81655D01*
X573559Y81655D01*
X573559Y84336D02*
X574769Y84336D01*
X574769Y87017D02*
X573559Y87017D01*
X577559Y89615D02*
X577559Y81655D01*
X577559Y89615D02*
X578769Y89615D01*
X578769Y81655D01*
X577559Y81655D01*
X577559Y84336D02*
X578769Y84336D01*
X578769Y87017D02*
X577559Y87017D01*
X581559Y89615D02*
X581559Y81655D01*
X581559Y89615D02*
X582769Y89615D01*
X582769Y81655D01*
X581559Y81655D01*
X581559Y84336D02*
X582769Y84336D01*
X582769Y87017D02*
X581559Y87017D01*
X586769Y89615D02*
X586769Y81655D01*
X585559Y81655D01*
X585559Y89615D01*
X586769Y89615D01*
X586769Y84336D02*
X585559Y84336D01*
X585559Y87017D02*
X586769Y87017D01*
X590549Y93395D02*
X598509Y93395D01*
X590549Y93395D02*
X590549Y94605D01*
X598509Y94605D01*
X598509Y93395D01*
X598509Y97395D02*
X590549Y97395D01*
X590549Y98605D01*
X598509Y98605D01*
X598509Y97395D01*
X598509Y101395D02*
X590549Y101395D01*
X590549Y102605D01*
X598509Y102605D01*
X598509Y101395D01*
X598509Y105395D02*
X590549Y105395D01*
X590549Y106605D01*
X598509Y106605D01*
X598509Y105395D01*
X598509Y109395D02*
X590549Y109395D01*
X590549Y110605D01*
X598509Y110605D01*
X598509Y109395D01*
X598509Y113395D02*
X590549Y113395D01*
X590549Y114605D01*
X598509Y114605D01*
X598509Y113395D01*
X598509Y118605D02*
X590549Y118605D01*
X598509Y118605D02*
X598509Y117395D01*
X590549Y117395D01*
X590549Y118605D01*
X590549Y121395D02*
X598509Y121395D01*
X590549Y121395D02*
X590549Y122605D01*
X598509Y122605D01*
X598509Y121395D01*
X598509Y125395D02*
X590549Y125395D01*
X590549Y126605D01*
X598509Y126605D01*
X598509Y125395D01*
X598509Y129395D02*
X590549Y129395D01*
X590549Y130605D01*
X598509Y130605D01*
X598509Y129395D01*
X598509Y133395D02*
X590549Y133395D01*
X590549Y134605D01*
X598509Y134605D01*
X598509Y133395D01*
X598509Y137395D02*
X590549Y137395D01*
X590549Y138605D01*
X598509Y138605D01*
X598509Y137395D01*
X598509Y141395D02*
X590549Y141395D01*
X590549Y142605D01*
X598509Y142605D01*
X598509Y141395D01*
X598509Y146605D02*
X590549Y146605D01*
X598509Y146605D02*
X598509Y145395D01*
X590549Y145395D01*
X590549Y146605D01*
D10*
X500164Y115000D03*
X500164Y125000D03*
X550164Y165000D03*
X550164Y175000D03*
X590164Y165000D03*
X590164Y175000D03*
D17*
X473064Y128540D03*
X473064Y111540D03*
X487064Y111540D03*
X487064Y128540D03*
D10*
X700234Y100000D03*
X710234Y100000D03*
X700234Y140000D03*
X710234Y140000D03*
D11*
X699954Y206510D02*
X699954Y213490D01*
X699954Y206510D02*
X692974Y206510D01*
X692974Y213490D01*
X699954Y213490D01*
X699954Y211310D02*
X692974Y211310D01*
X717494Y213490D02*
X717494Y206510D01*
X710514Y206510D01*
X710514Y213490D01*
X717494Y213490D01*
X717494Y211310D02*
X710514Y211310D01*
D10*
X730234Y210000D03*
X740234Y210000D03*
D12*
X685234Y50000D03*
X885234Y210000D03*
D13*
X877734Y12750D03*
X872734Y12750D03*
X867734Y12750D03*
X862734Y12750D03*
X857734Y12750D03*
X852734Y12750D03*
X847734Y12750D03*
X842734Y12750D03*
X837734Y12750D03*
X832734Y12750D03*
X827734Y12750D03*
X822734Y12750D03*
X797734Y12750D03*
X792734Y12750D03*
X787734Y12750D03*
X782734Y12750D03*
X777734Y12750D03*
X772734Y12750D03*
X767734Y12750D03*
X762734Y12750D03*
X757734Y12750D03*
X752734Y12750D03*
X747734Y12750D03*
X742734Y12750D03*
X737734Y12750D03*
X732734Y12750D03*
X727734Y12750D03*
X722734Y12750D03*
X717734Y12750D03*
X712734Y12750D03*
X707734Y12750D03*
X702734Y12750D03*
X697734Y12750D03*
X692734Y12750D03*
D14*
X804234Y210000D03*
X846234Y210000D03*
X825234Y197000D03*
D15*
X811839Y158345D02*
X811839Y150385D01*
X810629Y150385D01*
X810629Y158345D01*
X811839Y158345D01*
X811839Y153066D02*
X810629Y153066D01*
X810629Y155747D02*
X811839Y155747D01*
X807839Y158345D02*
X807839Y150385D01*
X806629Y150385D01*
X806629Y158345D01*
X807839Y158345D01*
X807839Y153066D02*
X806629Y153066D01*
X806629Y155747D02*
X807839Y155747D01*
X803839Y158345D02*
X803839Y150385D01*
X802629Y150385D01*
X802629Y158345D01*
X803839Y158345D01*
X803839Y153066D02*
X802629Y153066D01*
X802629Y155747D02*
X803839Y155747D01*
X799839Y158345D02*
X799839Y150385D01*
X798629Y150385D01*
X798629Y158345D01*
X799839Y158345D01*
X799839Y153066D02*
X798629Y153066D01*
X798629Y155747D02*
X799839Y155747D01*
X795839Y158345D02*
X795839Y150385D01*
X794629Y150385D01*
X794629Y158345D01*
X795839Y158345D01*
X795839Y153066D02*
X794629Y153066D01*
X794629Y155747D02*
X795839Y155747D01*
X791839Y158345D02*
X791839Y150385D01*
X790629Y150385D01*
X790629Y158345D01*
X791839Y158345D01*
X791839Y153066D02*
X790629Y153066D01*
X790629Y155747D02*
X791839Y155747D01*
X786629Y158345D02*
X786629Y150385D01*
X786629Y158345D02*
X787839Y158345D01*
X787839Y150385D01*
X786629Y150385D01*
X786629Y153066D02*
X787839Y153066D01*
X787839Y155747D02*
X786629Y155747D01*
D16*
X785234Y120000D03*
D15*
X783839Y150385D02*
X783839Y158345D01*
X783839Y150385D02*
X782629Y150385D01*
X782629Y158345D01*
X783839Y158345D01*
X783839Y153066D02*
X782629Y153066D01*
X782629Y155747D02*
X783839Y155747D01*
X779839Y158345D02*
X779839Y150385D01*
X778629Y150385D01*
X778629Y158345D01*
X779839Y158345D01*
X779839Y153066D02*
X778629Y153066D01*
X778629Y155747D02*
X779839Y155747D01*
X775839Y158345D02*
X775839Y150385D01*
X774629Y150385D01*
X774629Y158345D01*
X775839Y158345D01*
X775839Y153066D02*
X774629Y153066D01*
X774629Y155747D02*
X775839Y155747D01*
X771839Y158345D02*
X771839Y150385D01*
X770629Y150385D01*
X770629Y158345D01*
X771839Y158345D01*
X771839Y153066D02*
X770629Y153066D01*
X770629Y155747D02*
X771839Y155747D01*
X767839Y158345D02*
X767839Y150385D01*
X766629Y150385D01*
X766629Y158345D01*
X767839Y158345D01*
X767839Y153066D02*
X766629Y153066D01*
X766629Y155747D02*
X767839Y155747D01*
X763839Y158345D02*
X763839Y150385D01*
X762629Y150385D01*
X762629Y158345D01*
X763839Y158345D01*
X763839Y153066D02*
X762629Y153066D01*
X762629Y155747D02*
X763839Y155747D01*
X758629Y158345D02*
X758629Y150385D01*
X758629Y158345D02*
X759839Y158345D01*
X759839Y150385D01*
X758629Y150385D01*
X758629Y153066D02*
X759839Y153066D01*
X759839Y155747D02*
X758629Y155747D01*
X754849Y146605D02*
X746889Y146605D01*
X754849Y146605D02*
X754849Y145395D01*
X746889Y145395D01*
X746889Y146605D01*
X746889Y142605D02*
X754849Y142605D01*
X754849Y141395D01*
X746889Y141395D01*
X746889Y142605D01*
X746889Y138605D02*
X754849Y138605D01*
X754849Y137395D01*
X746889Y137395D01*
X746889Y138605D01*
X746889Y134605D02*
X754849Y134605D01*
X754849Y133395D01*
X746889Y133395D01*
X746889Y134605D01*
X746889Y130605D02*
X754849Y130605D01*
X754849Y129395D01*
X746889Y129395D01*
X746889Y130605D01*
X746889Y126605D02*
X754849Y126605D01*
X754849Y125395D01*
X746889Y125395D01*
X746889Y126605D01*
X746889Y121395D02*
X754849Y121395D01*
X746889Y121395D02*
X746889Y122605D01*
X754849Y122605D01*
X754849Y121395D01*
X754849Y118605D02*
X746889Y118605D01*
X754849Y118605D02*
X754849Y117395D01*
X746889Y117395D01*
X746889Y118605D01*
X746889Y114605D02*
X754849Y114605D01*
X754849Y113395D01*
X746889Y113395D01*
X746889Y114605D01*
X746889Y110605D02*
X754849Y110605D01*
X754849Y109395D01*
X746889Y109395D01*
X746889Y110605D01*
X746889Y106605D02*
X754849Y106605D01*
X754849Y105395D01*
X746889Y105395D01*
X746889Y106605D01*
X746889Y102605D02*
X754849Y102605D01*
X754849Y101395D01*
X746889Y101395D01*
X746889Y102605D01*
X746889Y98605D02*
X754849Y98605D01*
X754849Y97395D01*
X746889Y97395D01*
X746889Y98605D01*
X746889Y93395D02*
X754849Y93395D01*
X746889Y93395D02*
X746889Y94605D01*
X754849Y94605D01*
X754849Y93395D01*
X758629Y89615D02*
X758629Y81655D01*
X758629Y89615D02*
X759839Y89615D01*
X759839Y81655D01*
X758629Y81655D01*
X758629Y84336D02*
X759839Y84336D01*
X759839Y87017D02*
X758629Y87017D01*
X762629Y89615D02*
X762629Y81655D01*
X762629Y89615D02*
X763839Y89615D01*
X763839Y81655D01*
X762629Y81655D01*
X762629Y84336D02*
X763839Y84336D01*
X763839Y87017D02*
X762629Y87017D01*
X766629Y89615D02*
X766629Y81655D01*
X766629Y89615D02*
X767839Y89615D01*
X767839Y81655D01*
X766629Y81655D01*
X766629Y84336D02*
X767839Y84336D01*
X767839Y87017D02*
X766629Y87017D01*
X770629Y89615D02*
X770629Y81655D01*
X770629Y89615D02*
X771839Y89615D01*
X771839Y81655D01*
X770629Y81655D01*
X770629Y84336D02*
X771839Y84336D01*
X771839Y87017D02*
X770629Y87017D01*
X774629Y89615D02*
X774629Y81655D01*
X774629Y89615D02*
X775839Y89615D01*
X775839Y81655D01*
X774629Y81655D01*
X774629Y84336D02*
X775839Y84336D01*
X775839Y87017D02*
X774629Y87017D01*
X778629Y89615D02*
X778629Y81655D01*
X778629Y89615D02*
X779839Y89615D01*
X779839Y81655D01*
X778629Y81655D01*
X778629Y84336D02*
X779839Y84336D01*
X779839Y87017D02*
X778629Y87017D01*
X783839Y89615D02*
X783839Y81655D01*
X782629Y81655D01*
X782629Y89615D01*
X783839Y89615D01*
X783839Y84336D02*
X782629Y84336D01*
X782629Y87017D02*
X783839Y87017D01*
X786629Y89615D02*
X786629Y81655D01*
X786629Y89615D02*
X787839Y89615D01*
X787839Y81655D01*
X786629Y81655D01*
X786629Y84336D02*
X787839Y84336D01*
X787839Y87017D02*
X786629Y87017D01*
X790629Y89615D02*
X790629Y81655D01*
X790629Y89615D02*
X791839Y89615D01*
X791839Y81655D01*
X790629Y81655D01*
X790629Y84336D02*
X791839Y84336D01*
X791839Y87017D02*
X790629Y87017D01*
X794629Y89615D02*
X794629Y81655D01*
X794629Y89615D02*
X795839Y89615D01*
X795839Y81655D01*
X794629Y81655D01*
X794629Y84336D02*
X795839Y84336D01*
X795839Y87017D02*
X794629Y87017D01*
X798629Y89615D02*
X798629Y81655D01*
X798629Y89615D02*
X799839Y89615D01*
X799839Y81655D01*
X798629Y81655D01*
X798629Y84336D02*
X799839Y84336D01*
X799839Y87017D02*
X798629Y87017D01*
X802629Y89615D02*
X802629Y81655D01*
X802629Y89615D02*
X803839Y89615D01*
X803839Y81655D01*
X802629Y81655D01*
X802629Y84336D02*
X803839Y84336D01*
X803839Y87017D02*
X802629Y87017D01*
X806629Y89615D02*
X806629Y81655D01*
X806629Y89615D02*
X807839Y89615D01*
X807839Y81655D01*
X806629Y81655D01*
X806629Y84336D02*
X807839Y84336D01*
X807839Y87017D02*
X806629Y87017D01*
X811839Y89615D02*
X811839Y81655D01*
X810629Y81655D01*
X810629Y89615D01*
X811839Y89615D01*
X811839Y84336D02*
X810629Y84336D01*
X810629Y87017D02*
X811839Y87017D01*
X815619Y93395D02*
X823579Y93395D01*
X815619Y93395D02*
X815619Y94605D01*
X823579Y94605D01*
X823579Y93395D01*
X823579Y97395D02*
X815619Y97395D01*
X815619Y98605D01*
X823579Y98605D01*
X823579Y97395D01*
X823579Y101395D02*
X815619Y101395D01*
X815619Y102605D01*
X823579Y102605D01*
X823579Y101395D01*
X823579Y105395D02*
X815619Y105395D01*
X815619Y106605D01*
X823579Y106605D01*
X823579Y105395D01*
X823579Y109395D02*
X815619Y109395D01*
X815619Y110605D01*
X823579Y110605D01*
X823579Y109395D01*
X823579Y113395D02*
X815619Y113395D01*
X815619Y114605D01*
X823579Y114605D01*
X823579Y113395D01*
X823579Y118605D02*
X815619Y118605D01*
X823579Y118605D02*
X823579Y117395D01*
X815619Y117395D01*
X815619Y118605D01*
X815619Y121395D02*
X823579Y121395D01*
X815619Y121395D02*
X815619Y122605D01*
X823579Y122605D01*
X823579Y121395D01*
X823579Y125395D02*
X815619Y125395D01*
X815619Y126605D01*
X823579Y126605D01*
X823579Y125395D01*
X823579Y129395D02*
X815619Y129395D01*
X815619Y130605D01*
X823579Y130605D01*
X823579Y129395D01*
X823579Y133395D02*
X815619Y133395D01*
X815619Y134605D01*
X823579Y134605D01*
X823579Y133395D01*
X823579Y137395D02*
X815619Y137395D01*
X815619Y138605D01*
X823579Y138605D01*
X823579Y137395D01*
X823579Y141395D02*
X815619Y141395D01*
X815619Y142605D01*
X823579Y142605D01*
X823579Y141395D01*
X823579Y146605D02*
X815619Y146605D01*
X823579Y146605D02*
X823579Y145395D01*
X815619Y145395D01*
X815619Y146605D01*
D10*
X725234Y115000D03*
X725234Y125000D03*
X775234Y165000D03*
X775234Y175000D03*
X815234Y165000D03*
X815234Y175000D03*
D17*
X698134Y128540D03*
X698134Y111540D03*
X712134Y111540D03*
X712134Y128540D03*
D10*
X925328Y100000D03*
X935328Y100000D03*
X925328Y140000D03*
X935328Y140000D03*
D11*
X925048Y206510D02*
X925048Y213490D01*
X925048Y206510D02*
X918068Y206510D01*
X918068Y213490D01*
X925048Y213490D01*
X925048Y211310D02*
X918068Y211310D01*
X942588Y213490D02*
X942588Y206510D01*
X935608Y206510D01*
X935608Y213490D01*
X942588Y213490D01*
X942588Y211310D02*
X935608Y211310D01*
D10*
X955328Y210000D03*
X965328Y210000D03*
D12*
X910328Y50000D03*
X1110328Y210000D03*
D13*
X1102828Y12750D03*
X1097828Y12750D03*
X1092828Y12750D03*
X1087828Y12750D03*
X1082828Y12750D03*
X1077828Y12750D03*
X1072828Y12750D03*
X1067828Y12750D03*
X1062828Y12750D03*
X1057828Y12750D03*
X1052828Y12750D03*
X1047828Y12750D03*
X1022828Y12750D03*
X1017828Y12750D03*
X1012828Y12750D03*
X1007828Y12750D03*
X1002828Y12750D03*
X997828Y12750D03*
X992828Y12750D03*
X987828Y12750D03*
X982828Y12750D03*
X977828Y12750D03*
X972828Y12750D03*
X967828Y12750D03*
X962828Y12750D03*
X957828Y12750D03*
X952828Y12750D03*
X947828Y12750D03*
X942828Y12750D03*
X937828Y12750D03*
X932828Y12750D03*
X927828Y12750D03*
X922828Y12750D03*
X917828Y12750D03*
D14*
X1029328Y210000D03*
X1071328Y210000D03*
X1050328Y197000D03*
D15*
X1036933Y158345D02*
X1036933Y150385D01*
X1035723Y150385D01*
X1035723Y158345D01*
X1036933Y158345D01*
X1036933Y153066D02*
X1035723Y153066D01*
X1035723Y155747D02*
X1036933Y155747D01*
X1032933Y158345D02*
X1032933Y150385D01*
X1031723Y150385D01*
X1031723Y158345D01*
X1032933Y158345D01*
X1032933Y153066D02*
X1031723Y153066D01*
X1031723Y155747D02*
X1032933Y155747D01*
X1028933Y158345D02*
X1028933Y150385D01*
X1027723Y150385D01*
X1027723Y158345D01*
X1028933Y158345D01*
X1028933Y153066D02*
X1027723Y153066D01*
X1027723Y155747D02*
X1028933Y155747D01*
X1024933Y158345D02*
X1024933Y150385D01*
X1023723Y150385D01*
X1023723Y158345D01*
X1024933Y158345D01*
X1024933Y153066D02*
X1023723Y153066D01*
X1023723Y155747D02*
X1024933Y155747D01*
X1020933Y158345D02*
X1020933Y150385D01*
X1019723Y150385D01*
X1019723Y158345D01*
X1020933Y158345D01*
X1020933Y153066D02*
X1019723Y153066D01*
X1019723Y155747D02*
X1020933Y155747D01*
X1016933Y158345D02*
X1016933Y150385D01*
X1015723Y150385D01*
X1015723Y158345D01*
X1016933Y158345D01*
X1016933Y153066D02*
X1015723Y153066D01*
X1015723Y155747D02*
X1016933Y155747D01*
X1011723Y158345D02*
X1011723Y150385D01*
X1011723Y158345D02*
X1012933Y158345D01*
X1012933Y150385D01*
X1011723Y150385D01*
X1011723Y153066D02*
X1012933Y153066D01*
X1012933Y155747D02*
X1011723Y155747D01*
D16*
X1010328Y120000D03*
D15*
X1008933Y150385D02*
X1008933Y158345D01*
X1008933Y150385D02*
X1007723Y150385D01*
X1007723Y158345D01*
X1008933Y158345D01*
X1008933Y153066D02*
X1007723Y153066D01*
X1007723Y155747D02*
X1008933Y155747D01*
X1004933Y158345D02*
X1004933Y150385D01*
X1003723Y150385D01*
X1003723Y158345D01*
X1004933Y158345D01*
X1004933Y153066D02*
X1003723Y153066D01*
X1003723Y155747D02*
X1004933Y155747D01*
X1000933Y158345D02*
X1000933Y150385D01*
X999723Y150385D01*
X999723Y158345D01*
X1000933Y158345D01*
X1000933Y153066D02*
X999723Y153066D01*
X999723Y155747D02*
X1000933Y155747D01*
X996933Y158345D02*
X996933Y150385D01*
X995723Y150385D01*
X995723Y158345D01*
X996933Y158345D01*
X996933Y153066D02*
X995723Y153066D01*
X995723Y155747D02*
X996933Y155747D01*
X992933Y158345D02*
X992933Y150385D01*
X991723Y150385D01*
X991723Y158345D01*
X992933Y158345D01*
X992933Y153066D02*
X991723Y153066D01*
X991723Y155747D02*
X992933Y155747D01*
X988933Y158345D02*
X988933Y150385D01*
X987723Y150385D01*
X987723Y158345D01*
X988933Y158345D01*
X988933Y153066D02*
X987723Y153066D01*
X987723Y155747D02*
X988933Y155747D01*
X983723Y158345D02*
X983723Y150385D01*
X983723Y158345D02*
X984933Y158345D01*
X984933Y150385D01*
X983723Y150385D01*
X983723Y153066D02*
X984933Y153066D01*
X984933Y155747D02*
X983723Y155747D01*
X979943Y146605D02*
X971983Y146605D01*
X979943Y146605D02*
X979943Y145395D01*
X971983Y145395D01*
X971983Y146605D01*
X971983Y142605D02*
X979943Y142605D01*
X979943Y141395D01*
X971983Y141395D01*
X971983Y142605D01*
X971983Y138605D02*
X979943Y138605D01*
X979943Y137395D01*
X971983Y137395D01*
X971983Y138605D01*
X971983Y134605D02*
X979943Y134605D01*
X979943Y133395D01*
X971983Y133395D01*
X971983Y134605D01*
X971983Y130605D02*
X979943Y130605D01*
X979943Y129395D01*
X971983Y129395D01*
X971983Y130605D01*
X971983Y126605D02*
X979943Y126605D01*
X979943Y125395D01*
X971983Y125395D01*
X971983Y126605D01*
X971983Y121395D02*
X979943Y121395D01*
X971983Y121395D02*
X971983Y122605D01*
X979943Y122605D01*
X979943Y121395D01*
X979943Y118605D02*
X971983Y118605D01*
X979943Y118605D02*
X979943Y117395D01*
X971983Y117395D01*
X971983Y118605D01*
X971983Y114605D02*
X979943Y114605D01*
X979943Y113395D01*
X971983Y113395D01*
X971983Y114605D01*
X971983Y110605D02*
X979943Y110605D01*
X979943Y109395D01*
X971983Y109395D01*
X971983Y110605D01*
X971983Y106605D02*
X979943Y106605D01*
X979943Y105395D01*
X971983Y105395D01*
X971983Y106605D01*
X971983Y102605D02*
X979943Y102605D01*
X979943Y101395D01*
X971983Y101395D01*
X971983Y102605D01*
X971983Y98605D02*
X979943Y98605D01*
X979943Y97395D01*
X971983Y97395D01*
X971983Y98605D01*
X971983Y93395D02*
X979943Y93395D01*
X971983Y93395D02*
X971983Y94605D01*
X979943Y94605D01*
X979943Y93395D01*
X983723Y89615D02*
X983723Y81655D01*
X983723Y89615D02*
X984933Y89615D01*
X984933Y81655D01*
X983723Y81655D01*
X983723Y84336D02*
X984933Y84336D01*
X984933Y87017D02*
X983723Y87017D01*
X987723Y89615D02*
X987723Y81655D01*
X987723Y89615D02*
X988933Y89615D01*
X988933Y81655D01*
X987723Y81655D01*
X987723Y84336D02*
X988933Y84336D01*
X988933Y87017D02*
X987723Y87017D01*
X991723Y89615D02*
X991723Y81655D01*
X991723Y89615D02*
X992933Y89615D01*
X992933Y81655D01*
X991723Y81655D01*
X991723Y84336D02*
X992933Y84336D01*
X992933Y87017D02*
X991723Y87017D01*
X995723Y89615D02*
X995723Y81655D01*
X995723Y89615D02*
X996933Y89615D01*
X996933Y81655D01*
X995723Y81655D01*
X995723Y84336D02*
X996933Y84336D01*
X996933Y87017D02*
X995723Y87017D01*
X999723Y89615D02*
X999723Y81655D01*
X999723Y89615D02*
X1000933Y89615D01*
X1000933Y81655D01*
X999723Y81655D01*
X999723Y84336D02*
X1000933Y84336D01*
X1000933Y87017D02*
X999723Y87017D01*
X1003723Y89615D02*
X1003723Y81655D01*
X1003723Y89615D02*
X1004933Y89615D01*
X1004933Y81655D01*
X1003723Y81655D01*
X1003723Y84336D02*
X1004933Y84336D01*
X1004933Y87017D02*
X1003723Y87017D01*
X1008933Y89615D02*
X1008933Y81655D01*
X1007723Y81655D01*
X1007723Y89615D01*
X1008933Y89615D01*
X1008933Y84336D02*
X1007723Y84336D01*
X1007723Y87017D02*
X1008933Y87017D01*
X1011723Y89615D02*
X1011723Y81655D01*
X1011723Y89615D02*
X1012933Y89615D01*
X1012933Y81655D01*
X1011723Y81655D01*
X1011723Y84336D02*
X1012933Y84336D01*
X1012933Y87017D02*
X1011723Y87017D01*
X1015723Y89615D02*
X1015723Y81655D01*
X1015723Y89615D02*
X1016933Y89615D01*
X1016933Y81655D01*
X1015723Y81655D01*
X1015723Y84336D02*
X1016933Y84336D01*
X1016933Y87017D02*
X1015723Y87017D01*
X1019723Y89615D02*
X1019723Y81655D01*
X1019723Y89615D02*
X1020933Y89615D01*
X1020933Y81655D01*
X1019723Y81655D01*
X1019723Y84336D02*
X1020933Y84336D01*
X1020933Y87017D02*
X1019723Y87017D01*
X1023723Y89615D02*
X1023723Y81655D01*
X1023723Y89615D02*
X1024933Y89615D01*
X1024933Y81655D01*
X1023723Y81655D01*
X1023723Y84336D02*
X1024933Y84336D01*
X1024933Y87017D02*
X1023723Y87017D01*
X1027723Y89615D02*
X1027723Y81655D01*
X1027723Y89615D02*
X1028933Y89615D01*
X1028933Y81655D01*
X1027723Y81655D01*
X1027723Y84336D02*
X1028933Y84336D01*
X1028933Y87017D02*
X1027723Y87017D01*
X1031723Y89615D02*
X1031723Y81655D01*
X1031723Y89615D02*
X1032933Y89615D01*
X1032933Y81655D01*
X1031723Y81655D01*
X1031723Y84336D02*
X1032933Y84336D01*
X1032933Y87017D02*
X1031723Y87017D01*
X1036933Y89615D02*
X1036933Y81655D01*
X1035723Y81655D01*
X1035723Y89615D01*
X1036933Y89615D01*
X1036933Y84336D02*
X1035723Y84336D01*
X1035723Y87017D02*
X1036933Y87017D01*
X1040713Y93395D02*
X1048673Y93395D01*
X1040713Y93395D02*
X1040713Y94605D01*
X1048673Y94605D01*
X1048673Y93395D01*
X1048673Y97395D02*
X1040713Y97395D01*
X1040713Y98605D01*
X1048673Y98605D01*
X1048673Y97395D01*
X1048673Y101395D02*
X1040713Y101395D01*
X1040713Y102605D01*
X1048673Y102605D01*
X1048673Y101395D01*
X1048673Y105395D02*
X1040713Y105395D01*
X1040713Y106605D01*
X1048673Y106605D01*
X1048673Y105395D01*
X1048673Y109395D02*
X1040713Y109395D01*
X1040713Y110605D01*
X1048673Y110605D01*
X1048673Y109395D01*
X1048673Y113395D02*
X1040713Y113395D01*
X1040713Y114605D01*
X1048673Y114605D01*
X1048673Y113395D01*
X1048673Y118605D02*
X1040713Y118605D01*
X1048673Y118605D02*
X1048673Y117395D01*
X1040713Y117395D01*
X1040713Y118605D01*
X1040713Y121395D02*
X1048673Y121395D01*
X1040713Y121395D02*
X1040713Y122605D01*
X1048673Y122605D01*
X1048673Y121395D01*
X1048673Y125395D02*
X1040713Y125395D01*
X1040713Y126605D01*
X1048673Y126605D01*
X1048673Y125395D01*
X1048673Y129395D02*
X1040713Y129395D01*
X1040713Y130605D01*
X1048673Y130605D01*
X1048673Y129395D01*
X1048673Y133395D02*
X1040713Y133395D01*
X1040713Y134605D01*
X1048673Y134605D01*
X1048673Y133395D01*
X1048673Y137395D02*
X1040713Y137395D01*
X1040713Y138605D01*
X1048673Y138605D01*
X1048673Y137395D01*
X1048673Y141395D02*
X1040713Y141395D01*
X1040713Y142605D01*
X1048673Y142605D01*
X1048673Y141395D01*
X1048673Y146605D02*
X1040713Y146605D01*
X1048673Y146605D02*
X1048673Y145395D01*
X1040713Y145395D01*
X1040713Y146605D01*
D10*
X950328Y115000D03*
X950328Y125000D03*
X1000328Y165000D03*
X1000328Y175000D03*
X1040328Y165000D03*
X1040328Y175000D03*
D17*
X923228Y128540D03*
X923228Y111540D03*
X937228Y111540D03*
X937228Y128540D03*
D10*
X1150398Y100000D03*
X1160398Y100000D03*
X1150398Y140000D03*
X1160398Y140000D03*
D11*
X1150118Y206510D02*
X1150118Y213490D01*
X1150118Y206510D02*
X1143138Y206510D01*
X1143138Y213490D01*
X1150118Y213490D01*
X1150118Y211310D02*
X1143138Y211310D01*
X1167658Y213490D02*
X1167658Y206510D01*
X1160678Y206510D01*
X1160678Y213490D01*
X1167658Y213490D01*
X1167658Y211310D02*
X1160678Y211310D01*
D10*
X1180398Y210000D03*
X1190398Y210000D03*
D12*
X1135398Y50000D03*
X1335398Y210000D03*
D13*
X1327898Y12750D03*
X1322898Y12750D03*
X1317898Y12750D03*
X1312898Y12750D03*
X1307898Y12750D03*
X1302898Y12750D03*
X1297898Y12750D03*
X1292898Y12750D03*
X1287898Y12750D03*
X1282898Y12750D03*
X1277898Y12750D03*
X1272898Y12750D03*
X1247898Y12750D03*
X1242898Y12750D03*
X1237898Y12750D03*
X1232898Y12750D03*
X1227898Y12750D03*
X1222898Y12750D03*
X1217898Y12750D03*
X1212898Y12750D03*
X1207898Y12750D03*
X1202898Y12750D03*
X1197898Y12750D03*
X1192898Y12750D03*
X1187898Y12750D03*
X1182898Y12750D03*
X1177898Y12750D03*
X1172898Y12750D03*
X1167898Y12750D03*
X1162898Y12750D03*
X1157898Y12750D03*
X1152898Y12750D03*
X1147898Y12750D03*
X1142898Y12750D03*
D14*
X1254398Y210000D03*
X1296398Y210000D03*
X1275398Y197000D03*
D15*
X1262003Y158345D02*
X1262003Y150385D01*
X1260793Y150385D01*
X1260793Y158345D01*
X1262003Y158345D01*
X1262003Y153066D02*
X1260793Y153066D01*
X1260793Y155747D02*
X1262003Y155747D01*
X1258003Y158345D02*
X1258003Y150385D01*
X1256793Y150385D01*
X1256793Y158345D01*
X1258003Y158345D01*
X1258003Y153066D02*
X1256793Y153066D01*
X1256793Y155747D02*
X1258003Y155747D01*
X1254003Y158345D02*
X1254003Y150385D01*
X1252793Y150385D01*
X1252793Y158345D01*
X1254003Y158345D01*
X1254003Y153066D02*
X1252793Y153066D01*
X1252793Y155747D02*
X1254003Y155747D01*
X1250003Y158345D02*
X1250003Y150385D01*
X1248793Y150385D01*
X1248793Y158345D01*
X1250003Y158345D01*
X1250003Y153066D02*
X1248793Y153066D01*
X1248793Y155747D02*
X1250003Y155747D01*
X1246003Y158345D02*
X1246003Y150385D01*
X1244793Y150385D01*
X1244793Y158345D01*
X1246003Y158345D01*
X1246003Y153066D02*
X1244793Y153066D01*
X1244793Y155747D02*
X1246003Y155747D01*
X1242003Y158345D02*
X1242003Y150385D01*
X1240793Y150385D01*
X1240793Y158345D01*
X1242003Y158345D01*
X1242003Y153066D02*
X1240793Y153066D01*
X1240793Y155747D02*
X1242003Y155747D01*
X1236793Y158345D02*
X1236793Y150385D01*
X1236793Y158345D02*
X1238003Y158345D01*
X1238003Y150385D01*
X1236793Y150385D01*
X1236793Y153066D02*
X1238003Y153066D01*
X1238003Y155747D02*
X1236793Y155747D01*
D16*
X1235398Y120000D03*
D15*
X1234003Y150385D02*
X1234003Y158345D01*
X1234003Y150385D02*
X1232793Y150385D01*
X1232793Y158345D01*
X1234003Y158345D01*
X1234003Y153066D02*
X1232793Y153066D01*
X1232793Y155747D02*
X1234003Y155747D01*
X1230003Y158345D02*
X1230003Y150385D01*
X1228793Y150385D01*
X1228793Y158345D01*
X1230003Y158345D01*
X1230003Y153066D02*
X1228793Y153066D01*
X1228793Y155747D02*
X1230003Y155747D01*
X1226003Y158345D02*
X1226003Y150385D01*
X1224793Y150385D01*
X1224793Y158345D01*
X1226003Y158345D01*
X1226003Y153066D02*
X1224793Y153066D01*
X1224793Y155747D02*
X1226003Y155747D01*
X1222003Y158345D02*
X1222003Y150385D01*
X1220793Y150385D01*
X1220793Y158345D01*
X1222003Y158345D01*
X1222003Y153066D02*
X1220793Y153066D01*
X1220793Y155747D02*
X1222003Y155747D01*
X1218003Y158345D02*
X1218003Y150385D01*
X1216793Y150385D01*
X1216793Y158345D01*
X1218003Y158345D01*
X1218003Y153066D02*
X1216793Y153066D01*
X1216793Y155747D02*
X1218003Y155747D01*
X1214003Y158345D02*
X1214003Y150385D01*
X1212793Y150385D01*
X1212793Y158345D01*
X1214003Y158345D01*
X1214003Y153066D02*
X1212793Y153066D01*
X1212793Y155747D02*
X1214003Y155747D01*
X1208793Y158345D02*
X1208793Y150385D01*
X1208793Y158345D02*
X1210003Y158345D01*
X1210003Y150385D01*
X1208793Y150385D01*
X1208793Y153066D02*
X1210003Y153066D01*
X1210003Y155747D02*
X1208793Y155747D01*
X1205013Y146605D02*
X1197053Y146605D01*
X1205013Y146605D02*
X1205013Y145395D01*
X1197053Y145395D01*
X1197053Y146605D01*
X1197053Y142605D02*
X1205013Y142605D01*
X1205013Y141395D01*
X1197053Y141395D01*
X1197053Y142605D01*
X1197053Y138605D02*
X1205013Y138605D01*
X1205013Y137395D01*
X1197053Y137395D01*
X1197053Y138605D01*
X1197053Y134605D02*
X1205013Y134605D01*
X1205013Y133395D01*
X1197053Y133395D01*
X1197053Y134605D01*
X1197053Y130605D02*
X1205013Y130605D01*
X1205013Y129395D01*
X1197053Y129395D01*
X1197053Y130605D01*
X1197053Y126605D02*
X1205013Y126605D01*
X1205013Y125395D01*
X1197053Y125395D01*
X1197053Y126605D01*
X1197053Y121395D02*
X1205013Y121395D01*
X1197053Y121395D02*
X1197053Y122605D01*
X1205013Y122605D01*
X1205013Y121395D01*
X1205013Y118605D02*
X1197053Y118605D01*
X1205013Y118605D02*
X1205013Y117395D01*
X1197053Y117395D01*
X1197053Y118605D01*
X1197053Y114605D02*
X1205013Y114605D01*
X1205013Y113395D01*
X1197053Y113395D01*
X1197053Y114605D01*
X1197053Y110605D02*
X1205013Y110605D01*
X1205013Y109395D01*
X1197053Y109395D01*
X1197053Y110605D01*
X1197053Y106605D02*
X1205013Y106605D01*
X1205013Y105395D01*
X1197053Y105395D01*
X1197053Y106605D01*
X1197053Y102605D02*
X1205013Y102605D01*
X1205013Y101395D01*
X1197053Y101395D01*
X1197053Y102605D01*
X1197053Y98605D02*
X1205013Y98605D01*
X1205013Y97395D01*
X1197053Y97395D01*
X1197053Y98605D01*
X1197053Y93395D02*
X1205013Y93395D01*
X1197053Y93395D02*
X1197053Y94605D01*
X1205013Y94605D01*
X1205013Y93395D01*
X1208793Y89615D02*
X1208793Y81655D01*
X1208793Y89615D02*
X1210003Y89615D01*
X1210003Y81655D01*
X1208793Y81655D01*
X1208793Y84336D02*
X1210003Y84336D01*
X1210003Y87017D02*
X1208793Y87017D01*
X1212793Y89615D02*
X1212793Y81655D01*
X1212793Y89615D02*
X1214003Y89615D01*
X1214003Y81655D01*
X1212793Y81655D01*
X1212793Y84336D02*
X1214003Y84336D01*
X1214003Y87017D02*
X1212793Y87017D01*
X1216793Y89615D02*
X1216793Y81655D01*
X1216793Y89615D02*
X1218003Y89615D01*
X1218003Y81655D01*
X1216793Y81655D01*
X1216793Y84336D02*
X1218003Y84336D01*
X1218003Y87017D02*
X1216793Y87017D01*
X1220793Y89615D02*
X1220793Y81655D01*
X1220793Y89615D02*
X1222003Y89615D01*
X1222003Y81655D01*
X1220793Y81655D01*
X1220793Y84336D02*
X1222003Y84336D01*
X1222003Y87017D02*
X1220793Y87017D01*
X1224793Y89615D02*
X1224793Y81655D01*
X1224793Y89615D02*
X1226003Y89615D01*
X1226003Y81655D01*
X1224793Y81655D01*
X1224793Y84336D02*
X1226003Y84336D01*
X1226003Y87017D02*
X1224793Y87017D01*
X1228793Y89615D02*
X1228793Y81655D01*
X1228793Y89615D02*
X1230003Y89615D01*
X1230003Y81655D01*
X1228793Y81655D01*
X1228793Y84336D02*
X1230003Y84336D01*
X1230003Y87017D02*
X1228793Y87017D01*
X1234003Y89615D02*
X1234003Y81655D01*
X1232793Y81655D01*
X1232793Y89615D01*
X1234003Y89615D01*
X1234003Y84336D02*
X1232793Y84336D01*
X1232793Y87017D02*
X1234003Y87017D01*
X1236793Y89615D02*
X1236793Y81655D01*
X1236793Y89615D02*
X1238003Y89615D01*
X1238003Y81655D01*
X1236793Y81655D01*
X1236793Y84336D02*
X1238003Y84336D01*
X1238003Y87017D02*
X1236793Y87017D01*
X1240793Y89615D02*
X1240793Y81655D01*
X1240793Y89615D02*
X1242003Y89615D01*
X1242003Y81655D01*
X1240793Y81655D01*
X1240793Y84336D02*
X1242003Y84336D01*
X1242003Y87017D02*
X1240793Y87017D01*
X1244793Y89615D02*
X1244793Y81655D01*
X1244793Y89615D02*
X1246003Y89615D01*
X1246003Y81655D01*
X1244793Y81655D01*
X1244793Y84336D02*
X1246003Y84336D01*
X1246003Y87017D02*
X1244793Y87017D01*
X1248793Y89615D02*
X1248793Y81655D01*
X1248793Y89615D02*
X1250003Y89615D01*
X1250003Y81655D01*
X1248793Y81655D01*
X1248793Y84336D02*
X1250003Y84336D01*
X1250003Y87017D02*
X1248793Y87017D01*
X1252793Y89615D02*
X1252793Y81655D01*
X1252793Y89615D02*
X1254003Y89615D01*
X1254003Y81655D01*
X1252793Y81655D01*
X1252793Y84336D02*
X1254003Y84336D01*
X1254003Y87017D02*
X1252793Y87017D01*
X1256793Y89615D02*
X1256793Y81655D01*
X1256793Y89615D02*
X1258003Y89615D01*
X1258003Y81655D01*
X1256793Y81655D01*
X1256793Y84336D02*
X1258003Y84336D01*
X1258003Y87017D02*
X1256793Y87017D01*
X1262003Y89615D02*
X1262003Y81655D01*
X1260793Y81655D01*
X1260793Y89615D01*
X1262003Y89615D01*
X1262003Y84336D02*
X1260793Y84336D01*
X1260793Y87017D02*
X1262003Y87017D01*
X1265783Y93395D02*
X1273743Y93395D01*
X1265783Y93395D02*
X1265783Y94605D01*
X1273743Y94605D01*
X1273743Y93395D01*
X1273743Y97395D02*
X1265783Y97395D01*
X1265783Y98605D01*
X1273743Y98605D01*
X1273743Y97395D01*
X1273743Y101395D02*
X1265783Y101395D01*
X1265783Y102605D01*
X1273743Y102605D01*
X1273743Y101395D01*
X1273743Y105395D02*
X1265783Y105395D01*
X1265783Y106605D01*
X1273743Y106605D01*
X1273743Y105395D01*
X1273743Y109395D02*
X1265783Y109395D01*
X1265783Y110605D01*
X1273743Y110605D01*
X1273743Y109395D01*
X1273743Y113395D02*
X1265783Y113395D01*
X1265783Y114605D01*
X1273743Y114605D01*
X1273743Y113395D01*
X1273743Y118605D02*
X1265783Y118605D01*
X1273743Y118605D02*
X1273743Y117395D01*
X1265783Y117395D01*
X1265783Y118605D01*
X1265783Y121395D02*
X1273743Y121395D01*
X1265783Y121395D02*
X1265783Y122605D01*
X1273743Y122605D01*
X1273743Y121395D01*
X1273743Y125395D02*
X1265783Y125395D01*
X1265783Y126605D01*
X1273743Y126605D01*
X1273743Y125395D01*
X1273743Y129395D02*
X1265783Y129395D01*
X1265783Y130605D01*
X1273743Y130605D01*
X1273743Y129395D01*
X1273743Y133395D02*
X1265783Y133395D01*
X1265783Y134605D01*
X1273743Y134605D01*
X1273743Y133395D01*
X1273743Y137395D02*
X1265783Y137395D01*
X1265783Y138605D01*
X1273743Y138605D01*
X1273743Y137395D01*
X1273743Y141395D02*
X1265783Y141395D01*
X1265783Y142605D01*
X1273743Y142605D01*
X1273743Y141395D01*
X1273743Y146605D02*
X1265783Y146605D01*
X1273743Y146605D02*
X1273743Y145395D01*
X1265783Y145395D01*
X1265783Y146605D01*
D10*
X1175398Y115000D03*
X1175398Y125000D03*
X1225398Y165000D03*
X1225398Y175000D03*
X1265398Y165000D03*
X1265398Y175000D03*
D17*
X1148298Y128540D03*
X1148298Y111540D03*
X1162298Y111540D03*
X1162298Y128540D03*
D10*
X1375493Y100000D03*
X1385493Y100000D03*
X1375493Y140000D03*
X1385493Y140000D03*
D11*
X1375213Y206510D02*
X1375213Y213490D01*
X1375213Y206510D02*
X1368233Y206510D01*
X1368233Y213490D01*
X1375213Y213490D01*
X1375213Y211310D02*
X1368233Y211310D01*
X1392753Y213490D02*
X1392753Y206510D01*
X1385773Y206510D01*
X1385773Y213490D01*
X1392753Y213490D01*
X1392753Y211310D02*
X1385773Y211310D01*
D10*
X1405493Y210000D03*
X1415493Y210000D03*
D12*
X1360493Y50000D03*
X1560493Y210000D03*
D13*
X1552993Y12750D03*
X1547993Y12750D03*
X1542993Y12750D03*
X1537993Y12750D03*
X1532993Y12750D03*
X1527993Y12750D03*
X1522993Y12750D03*
X1517993Y12750D03*
X1512993Y12750D03*
X1507993Y12750D03*
X1502993Y12750D03*
X1497993Y12750D03*
X1472993Y12750D03*
X1467993Y12750D03*
X1462993Y12750D03*
X1457993Y12750D03*
X1452993Y12750D03*
X1447993Y12750D03*
X1442993Y12750D03*
X1437993Y12750D03*
X1432993Y12750D03*
X1427993Y12750D03*
X1422993Y12750D03*
X1417993Y12750D03*
X1412993Y12750D03*
X1407993Y12750D03*
X1402993Y12750D03*
X1397993Y12750D03*
X1392993Y12750D03*
X1387993Y12750D03*
X1382993Y12750D03*
X1377993Y12750D03*
X1372993Y12750D03*
X1367993Y12750D03*
D14*
X1479493Y210000D03*
X1521493Y210000D03*
X1500493Y197000D03*
D15*
X1487098Y158345D02*
X1487098Y150385D01*
X1485888Y150385D01*
X1485888Y158345D01*
X1487098Y158345D01*
X1487098Y153066D02*
X1485888Y153066D01*
X1485888Y155747D02*
X1487098Y155747D01*
X1483098Y158345D02*
X1483098Y150385D01*
X1481888Y150385D01*
X1481888Y158345D01*
X1483098Y158345D01*
X1483098Y153066D02*
X1481888Y153066D01*
X1481888Y155747D02*
X1483098Y155747D01*
X1479098Y158345D02*
X1479098Y150385D01*
X1477888Y150385D01*
X1477888Y158345D01*
X1479098Y158345D01*
X1479098Y153066D02*
X1477888Y153066D01*
X1477888Y155747D02*
X1479098Y155747D01*
X1475098Y158345D02*
X1475098Y150385D01*
X1473888Y150385D01*
X1473888Y158345D01*
X1475098Y158345D01*
X1475098Y153066D02*
X1473888Y153066D01*
X1473888Y155747D02*
X1475098Y155747D01*
X1471098Y158345D02*
X1471098Y150385D01*
X1469888Y150385D01*
X1469888Y158345D01*
X1471098Y158345D01*
X1471098Y153066D02*
X1469888Y153066D01*
X1469888Y155747D02*
X1471098Y155747D01*
X1467098Y158345D02*
X1467098Y150385D01*
X1465888Y150385D01*
X1465888Y158345D01*
X1467098Y158345D01*
X1467098Y153066D02*
X1465888Y153066D01*
X1465888Y155747D02*
X1467098Y155747D01*
X1461888Y158345D02*
X1461888Y150385D01*
X1461888Y158345D02*
X1463098Y158345D01*
X1463098Y150385D01*
X1461888Y150385D01*
X1461888Y153066D02*
X1463098Y153066D01*
X1463098Y155747D02*
X1461888Y155747D01*
D16*
X1460493Y120000D03*
D15*
X1459098Y150385D02*
X1459098Y158345D01*
X1459098Y150385D02*
X1457888Y150385D01*
X1457888Y158345D01*
X1459098Y158345D01*
X1459098Y153066D02*
X1457888Y153066D01*
X1457888Y155747D02*
X1459098Y155747D01*
X1455098Y158345D02*
X1455098Y150385D01*
X1453888Y150385D01*
X1453888Y158345D01*
X1455098Y158345D01*
X1455098Y153066D02*
X1453888Y153066D01*
X1453888Y155747D02*
X1455098Y155747D01*
X1451098Y158345D02*
X1451098Y150385D01*
X1449888Y150385D01*
X1449888Y158345D01*
X1451098Y158345D01*
X1451098Y153066D02*
X1449888Y153066D01*
X1449888Y155747D02*
X1451098Y155747D01*
X1447098Y158345D02*
X1447098Y150385D01*
X1445888Y150385D01*
X1445888Y158345D01*
X1447098Y158345D01*
X1447098Y153066D02*
X1445888Y153066D01*
X1445888Y155747D02*
X1447098Y155747D01*
X1443098Y158345D02*
X1443098Y150385D01*
X1441888Y150385D01*
X1441888Y158345D01*
X1443098Y158345D01*
X1443098Y153066D02*
X1441888Y153066D01*
X1441888Y155747D02*
X1443098Y155747D01*
X1439098Y158345D02*
X1439098Y150385D01*
X1437888Y150385D01*
X1437888Y158345D01*
X1439098Y158345D01*
X1439098Y153066D02*
X1437888Y153066D01*
X1437888Y155747D02*
X1439098Y155747D01*
X1433888Y158345D02*
X1433888Y150385D01*
X1433888Y158345D02*
X1435098Y158345D01*
X1435098Y150385D01*
X1433888Y150385D01*
X1433888Y153066D02*
X1435098Y153066D01*
X1435098Y155747D02*
X1433888Y155747D01*
X1430108Y146605D02*
X1422148Y146605D01*
X1430108Y146605D02*
X1430108Y145395D01*
X1422148Y145395D01*
X1422148Y146605D01*
X1422148Y142605D02*
X1430108Y142605D01*
X1430108Y141395D01*
X1422148Y141395D01*
X1422148Y142605D01*
X1422148Y138605D02*
X1430108Y138605D01*
X1430108Y137395D01*
X1422148Y137395D01*
X1422148Y138605D01*
X1422148Y134605D02*
X1430108Y134605D01*
X1430108Y133395D01*
X1422148Y133395D01*
X1422148Y134605D01*
X1422148Y130605D02*
X1430108Y130605D01*
X1430108Y129395D01*
X1422148Y129395D01*
X1422148Y130605D01*
X1422148Y126605D02*
X1430108Y126605D01*
X1430108Y125395D01*
X1422148Y125395D01*
X1422148Y126605D01*
X1422148Y121395D02*
X1430108Y121395D01*
X1422148Y121395D02*
X1422148Y122605D01*
X1430108Y122605D01*
X1430108Y121395D01*
X1430108Y118605D02*
X1422148Y118605D01*
X1430108Y118605D02*
X1430108Y117395D01*
X1422148Y117395D01*
X1422148Y118605D01*
X1422148Y114605D02*
X1430108Y114605D01*
X1430108Y113395D01*
X1422148Y113395D01*
X1422148Y114605D01*
X1422148Y110605D02*
X1430108Y110605D01*
X1430108Y109395D01*
X1422148Y109395D01*
X1422148Y110605D01*
X1422148Y106605D02*
X1430108Y106605D01*
X1430108Y105395D01*
X1422148Y105395D01*
X1422148Y106605D01*
X1422148Y102605D02*
X1430108Y102605D01*
X1430108Y101395D01*
X1422148Y101395D01*
X1422148Y102605D01*
X1422148Y98605D02*
X1430108Y98605D01*
X1430108Y97395D01*
X1422148Y97395D01*
X1422148Y98605D01*
X1422148Y93395D02*
X1430108Y93395D01*
X1422148Y93395D02*
X1422148Y94605D01*
X1430108Y94605D01*
X1430108Y93395D01*
X1433888Y89615D02*
X1433888Y81655D01*
X1433888Y89615D02*
X1435098Y89615D01*
X1435098Y81655D01*
X1433888Y81655D01*
X1433888Y84336D02*
X1435098Y84336D01*
X1435098Y87017D02*
X1433888Y87017D01*
X1437888Y89615D02*
X1437888Y81655D01*
X1437888Y89615D02*
X1439098Y89615D01*
X1439098Y81655D01*
X1437888Y81655D01*
X1437888Y84336D02*
X1439098Y84336D01*
X1439098Y87017D02*
X1437888Y87017D01*
X1441888Y89615D02*
X1441888Y81655D01*
X1441888Y89615D02*
X1443098Y89615D01*
X1443098Y81655D01*
X1441888Y81655D01*
X1441888Y84336D02*
X1443098Y84336D01*
X1443098Y87017D02*
X1441888Y87017D01*
X1445888Y89615D02*
X1445888Y81655D01*
X1445888Y89615D02*
X1447098Y89615D01*
X1447098Y81655D01*
X1445888Y81655D01*
X1445888Y84336D02*
X1447098Y84336D01*
X1447098Y87017D02*
X1445888Y87017D01*
X1449888Y89615D02*
X1449888Y81655D01*
X1449888Y89615D02*
X1451098Y89615D01*
X1451098Y81655D01*
X1449888Y81655D01*
X1449888Y84336D02*
X1451098Y84336D01*
X1451098Y87017D02*
X1449888Y87017D01*
X1453888Y89615D02*
X1453888Y81655D01*
X1453888Y89615D02*
X1455098Y89615D01*
X1455098Y81655D01*
X1453888Y81655D01*
X1453888Y84336D02*
X1455098Y84336D01*
X1455098Y87017D02*
X1453888Y87017D01*
X1459098Y89615D02*
X1459098Y81655D01*
X1457888Y81655D01*
X1457888Y89615D01*
X1459098Y89615D01*
X1459098Y84336D02*
X1457888Y84336D01*
X1457888Y87017D02*
X1459098Y87017D01*
X1461888Y89615D02*
X1461888Y81655D01*
X1461888Y89615D02*
X1463098Y89615D01*
X1463098Y81655D01*
X1461888Y81655D01*
X1461888Y84336D02*
X1463098Y84336D01*
X1463098Y87017D02*
X1461888Y87017D01*
X1465888Y89615D02*
X1465888Y81655D01*
X1465888Y89615D02*
X1467098Y89615D01*
X1467098Y81655D01*
X1465888Y81655D01*
X1465888Y84336D02*
X1467098Y84336D01*
X1467098Y87017D02*
X1465888Y87017D01*
X1469888Y89615D02*
X1469888Y81655D01*
X1469888Y89615D02*
X1471098Y89615D01*
X1471098Y81655D01*
X1469888Y81655D01*
X1469888Y84336D02*
X1471098Y84336D01*
X1471098Y87017D02*
X1469888Y87017D01*
X1473888Y89615D02*
X1473888Y81655D01*
X1473888Y89615D02*
X1475098Y89615D01*
X1475098Y81655D01*
X1473888Y81655D01*
X1473888Y84336D02*
X1475098Y84336D01*
X1475098Y87017D02*
X1473888Y87017D01*
X1477888Y89615D02*
X1477888Y81655D01*
X1477888Y89615D02*
X1479098Y89615D01*
X1479098Y81655D01*
X1477888Y81655D01*
X1477888Y84336D02*
X1479098Y84336D01*
X1479098Y87017D02*
X1477888Y87017D01*
X1481888Y89615D02*
X1481888Y81655D01*
X1481888Y89615D02*
X1483098Y89615D01*
X1483098Y81655D01*
X1481888Y81655D01*
X1481888Y84336D02*
X1483098Y84336D01*
X1483098Y87017D02*
X1481888Y87017D01*
X1487098Y89615D02*
X1487098Y81655D01*
X1485888Y81655D01*
X1485888Y89615D01*
X1487098Y89615D01*
X1487098Y84336D02*
X1485888Y84336D01*
X1485888Y87017D02*
X1487098Y87017D01*
X1490878Y93395D02*
X1498838Y93395D01*
X1490878Y93395D02*
X1490878Y94605D01*
X1498838Y94605D01*
X1498838Y93395D01*
X1498838Y97395D02*
X1490878Y97395D01*
X1490878Y98605D01*
X1498838Y98605D01*
X1498838Y97395D01*
X1498838Y101395D02*
X1490878Y101395D01*
X1490878Y102605D01*
X1498838Y102605D01*
X1498838Y101395D01*
X1498838Y105395D02*
X1490878Y105395D01*
X1490878Y106605D01*
X1498838Y106605D01*
X1498838Y105395D01*
X1498838Y109395D02*
X1490878Y109395D01*
X1490878Y110605D01*
X1498838Y110605D01*
X1498838Y109395D01*
X1498838Y113395D02*
X1490878Y113395D01*
X1490878Y114605D01*
X1498838Y114605D01*
X1498838Y113395D01*
X1498838Y118605D02*
X1490878Y118605D01*
X1498838Y118605D02*
X1498838Y117395D01*
X1490878Y117395D01*
X1490878Y118605D01*
X1490878Y121395D02*
X1498838Y121395D01*
X1490878Y121395D02*
X1490878Y122605D01*
X1498838Y122605D01*
X1498838Y121395D01*
X1498838Y125395D02*
X1490878Y125395D01*
X1490878Y126605D01*
X1498838Y126605D01*
X1498838Y125395D01*
X1498838Y129395D02*
X1490878Y129395D01*
X1490878Y130605D01*
X1498838Y130605D01*
X1498838Y129395D01*
X1498838Y133395D02*
X1490878Y133395D01*
X1490878Y134605D01*
X1498838Y134605D01*
X1498838Y133395D01*
X1498838Y137395D02*
X1490878Y137395D01*
X1490878Y138605D01*
X1498838Y138605D01*
X1498838Y137395D01*
X1498838Y141395D02*
X1490878Y141395D01*
X1490878Y142605D01*
X1498838Y142605D01*
X1498838Y141395D01*
X1498838Y146605D02*
X1490878Y146605D01*
X1498838Y146605D02*
X1498838Y145395D01*
X1490878Y145395D01*
X1490878Y146605D01*
D10*
X1400493Y115000D03*
X1400493Y125000D03*
X1450493Y165000D03*
X1450493Y175000D03*
X1490493Y165000D03*
X1490493Y175000D03*
D17*
X1373393Y128540D03*
X1373393Y111540D03*
X1387393Y111540D03*
X1387393Y128540D03*
D10*
X1600562Y100000D03*
X1610562Y100000D03*
X1600562Y140000D03*
X1610562Y140000D03*
D11*
X1600282Y206510D02*
X1600282Y213490D01*
X1600282Y206510D02*
X1593302Y206510D01*
X1593302Y213490D01*
X1600282Y213490D01*
X1600282Y211310D02*
X1593302Y211310D01*
X1617822Y213490D02*
X1617822Y206510D01*
X1610842Y206510D01*
X1610842Y213490D01*
X1617822Y213490D01*
X1617822Y211310D02*
X1610842Y211310D01*
D10*
X1630562Y210000D03*
X1640562Y210000D03*
D12*
X1585562Y50000D03*
X1785562Y210000D03*
D13*
X1778062Y12750D03*
X1773062Y12750D03*
X1768062Y12750D03*
X1763062Y12750D03*
X1758062Y12750D03*
X1753062Y12750D03*
X1748062Y12750D03*
X1743062Y12750D03*
X1738062Y12750D03*
X1733062Y12750D03*
X1728062Y12750D03*
X1723062Y12750D03*
X1698062Y12750D03*
X1693062Y12750D03*
X1688062Y12750D03*
X1683062Y12750D03*
X1678062Y12750D03*
X1673062Y12750D03*
X1668062Y12750D03*
X1663062Y12750D03*
X1658062Y12750D03*
X1653062Y12750D03*
X1648062Y12750D03*
X1643062Y12750D03*
X1638062Y12750D03*
X1633062Y12750D03*
X1628062Y12750D03*
X1623062Y12750D03*
X1618062Y12750D03*
X1613062Y12750D03*
X1608062Y12750D03*
X1603062Y12750D03*
X1598062Y12750D03*
X1593062Y12750D03*
D14*
X1704562Y210000D03*
X1746562Y210000D03*
X1725562Y197000D03*
D15*
X1712167Y158345D02*
X1712167Y150385D01*
X1710957Y150385D01*
X1710957Y158345D01*
X1712167Y158345D01*
X1712167Y153066D02*
X1710957Y153066D01*
X1710957Y155747D02*
X1712167Y155747D01*
X1708167Y158345D02*
X1708167Y150385D01*
X1706957Y150385D01*
X1706957Y158345D01*
X1708167Y158345D01*
X1708167Y153066D02*
X1706957Y153066D01*
X1706957Y155747D02*
X1708167Y155747D01*
X1704167Y158345D02*
X1704167Y150385D01*
X1702957Y150385D01*
X1702957Y158345D01*
X1704167Y158345D01*
X1704167Y153066D02*
X1702957Y153066D01*
X1702957Y155747D02*
X1704167Y155747D01*
X1700167Y158345D02*
X1700167Y150385D01*
X1698957Y150385D01*
X1698957Y158345D01*
X1700167Y158345D01*
X1700167Y153066D02*
X1698957Y153066D01*
X1698957Y155747D02*
X1700167Y155747D01*
X1696167Y158345D02*
X1696167Y150385D01*
X1694957Y150385D01*
X1694957Y158345D01*
X1696167Y158345D01*
X1696167Y153066D02*
X1694957Y153066D01*
X1694957Y155747D02*
X1696167Y155747D01*
X1692167Y158345D02*
X1692167Y150385D01*
X1690957Y150385D01*
X1690957Y158345D01*
X1692167Y158345D01*
X1692167Y153066D02*
X1690957Y153066D01*
X1690957Y155747D02*
X1692167Y155747D01*
X1686957Y158345D02*
X1686957Y150385D01*
X1686957Y158345D02*
X1688167Y158345D01*
X1688167Y150385D01*
X1686957Y150385D01*
X1686957Y153066D02*
X1688167Y153066D01*
X1688167Y155747D02*
X1686957Y155747D01*
D16*
X1685562Y120000D03*
D15*
X1684167Y150385D02*
X1684167Y158345D01*
X1684167Y150385D02*
X1682957Y150385D01*
X1682957Y158345D01*
X1684167Y158345D01*
X1684167Y153066D02*
X1682957Y153066D01*
X1682957Y155747D02*
X1684167Y155747D01*
X1680167Y158345D02*
X1680167Y150385D01*
X1678957Y150385D01*
X1678957Y158345D01*
X1680167Y158345D01*
X1680167Y153066D02*
X1678957Y153066D01*
X1678957Y155747D02*
X1680167Y155747D01*
X1676167Y158345D02*
X1676167Y150385D01*
X1674957Y150385D01*
X1674957Y158345D01*
X1676167Y158345D01*
X1676167Y153066D02*
X1674957Y153066D01*
X1674957Y155747D02*
X1676167Y155747D01*
X1672167Y158345D02*
X1672167Y150385D01*
X1670957Y150385D01*
X1670957Y158345D01*
X1672167Y158345D01*
X1672167Y153066D02*
X1670957Y153066D01*
X1670957Y155747D02*
X1672167Y155747D01*
X1668167Y158345D02*
X1668167Y150385D01*
X1666957Y150385D01*
X1666957Y158345D01*
X1668167Y158345D01*
X1668167Y153066D02*
X1666957Y153066D01*
X1666957Y155747D02*
X1668167Y155747D01*
X1664167Y158345D02*
X1664167Y150385D01*
X1662957Y150385D01*
X1662957Y158345D01*
X1664167Y158345D01*
X1664167Y153066D02*
X1662957Y153066D01*
X1662957Y155747D02*
X1664167Y155747D01*
X1658957Y158345D02*
X1658957Y150385D01*
X1658957Y158345D02*
X1660167Y158345D01*
X1660167Y150385D01*
X1658957Y150385D01*
X1658957Y153066D02*
X1660167Y153066D01*
X1660167Y155747D02*
X1658957Y155747D01*
X1655177Y146605D02*
X1647217Y146605D01*
X1655177Y146605D02*
X1655177Y145395D01*
X1647217Y145395D01*
X1647217Y146605D01*
X1647217Y142605D02*
X1655177Y142605D01*
X1655177Y141395D01*
X1647217Y141395D01*
X1647217Y142605D01*
X1647217Y138605D02*
X1655177Y138605D01*
X1655177Y137395D01*
X1647217Y137395D01*
X1647217Y138605D01*
X1647217Y134605D02*
X1655177Y134605D01*
X1655177Y133395D01*
X1647217Y133395D01*
X1647217Y134605D01*
X1647217Y130605D02*
X1655177Y130605D01*
X1655177Y129395D01*
X1647217Y129395D01*
X1647217Y130605D01*
X1647217Y126605D02*
X1655177Y126605D01*
X1655177Y125395D01*
X1647217Y125395D01*
X1647217Y126605D01*
X1647217Y121395D02*
X1655177Y121395D01*
X1647217Y121395D02*
X1647217Y122605D01*
X1655177Y122605D01*
X1655177Y121395D01*
X1655177Y118605D02*
X1647217Y118605D01*
X1655177Y118605D02*
X1655177Y117395D01*
X1647217Y117395D01*
X1647217Y118605D01*
X1647217Y114605D02*
X1655177Y114605D01*
X1655177Y113395D01*
X1647217Y113395D01*
X1647217Y114605D01*
X1647217Y110605D02*
X1655177Y110605D01*
X1655177Y109395D01*
X1647217Y109395D01*
X1647217Y110605D01*
X1647217Y106605D02*
X1655177Y106605D01*
X1655177Y105395D01*
X1647217Y105395D01*
X1647217Y106605D01*
X1647217Y102605D02*
X1655177Y102605D01*
X1655177Y101395D01*
X1647217Y101395D01*
X1647217Y102605D01*
X1647217Y98605D02*
X1655177Y98605D01*
X1655177Y97395D01*
X1647217Y97395D01*
X1647217Y98605D01*
X1647217Y93395D02*
X1655177Y93395D01*
X1647217Y93395D02*
X1647217Y94605D01*
X1655177Y94605D01*
X1655177Y93395D01*
X1658957Y89615D02*
X1658957Y81655D01*
X1658957Y89615D02*
X1660167Y89615D01*
X1660167Y81655D01*
X1658957Y81655D01*
X1658957Y84336D02*
X1660167Y84336D01*
X1660167Y87017D02*
X1658957Y87017D01*
X1662957Y89615D02*
X1662957Y81655D01*
X1662957Y89615D02*
X1664167Y89615D01*
X1664167Y81655D01*
X1662957Y81655D01*
X1662957Y84336D02*
X1664167Y84336D01*
X1664167Y87017D02*
X1662957Y87017D01*
X1666957Y89615D02*
X1666957Y81655D01*
X1666957Y89615D02*
X1668167Y89615D01*
X1668167Y81655D01*
X1666957Y81655D01*
X1666957Y84336D02*
X1668167Y84336D01*
X1668167Y87017D02*
X1666957Y87017D01*
X1670957Y89615D02*
X1670957Y81655D01*
X1670957Y89615D02*
X1672167Y89615D01*
X1672167Y81655D01*
X1670957Y81655D01*
X1670957Y84336D02*
X1672167Y84336D01*
X1672167Y87017D02*
X1670957Y87017D01*
X1674957Y89615D02*
X1674957Y81655D01*
X1674957Y89615D02*
X1676167Y89615D01*
X1676167Y81655D01*
X1674957Y81655D01*
X1674957Y84336D02*
X1676167Y84336D01*
X1676167Y87017D02*
X1674957Y87017D01*
X1678957Y89615D02*
X1678957Y81655D01*
X1678957Y89615D02*
X1680167Y89615D01*
X1680167Y81655D01*
X1678957Y81655D01*
X1678957Y84336D02*
X1680167Y84336D01*
X1680167Y87017D02*
X1678957Y87017D01*
X1684167Y89615D02*
X1684167Y81655D01*
X1682957Y81655D01*
X1682957Y89615D01*
X1684167Y89615D01*
X1684167Y84336D02*
X1682957Y84336D01*
X1682957Y87017D02*
X1684167Y87017D01*
X1686957Y89615D02*
X1686957Y81655D01*
X1686957Y89615D02*
X1688167Y89615D01*
X1688167Y81655D01*
X1686957Y81655D01*
X1686957Y84336D02*
X1688167Y84336D01*
X1688167Y87017D02*
X1686957Y87017D01*
X1690957Y89615D02*
X1690957Y81655D01*
X1690957Y89615D02*
X1692167Y89615D01*
X1692167Y81655D01*
X1690957Y81655D01*
X1690957Y84336D02*
X1692167Y84336D01*
X1692167Y87017D02*
X1690957Y87017D01*
X1694957Y89615D02*
X1694957Y81655D01*
X1694957Y89615D02*
X1696167Y89615D01*
X1696167Y81655D01*
X1694957Y81655D01*
X1694957Y84336D02*
X1696167Y84336D01*
X1696167Y87017D02*
X1694957Y87017D01*
X1698957Y89615D02*
X1698957Y81655D01*
X1698957Y89615D02*
X1700167Y89615D01*
X1700167Y81655D01*
X1698957Y81655D01*
X1698957Y84336D02*
X1700167Y84336D01*
X1700167Y87017D02*
X1698957Y87017D01*
X1702957Y89615D02*
X1702957Y81655D01*
X1702957Y89615D02*
X1704167Y89615D01*
X1704167Y81655D01*
X1702957Y81655D01*
X1702957Y84336D02*
X1704167Y84336D01*
X1704167Y87017D02*
X1702957Y87017D01*
X1706957Y89615D02*
X1706957Y81655D01*
X1706957Y89615D02*
X1708167Y89615D01*
X1708167Y81655D01*
X1706957Y81655D01*
X1706957Y84336D02*
X1708167Y84336D01*
X1708167Y87017D02*
X1706957Y87017D01*
X1712167Y89615D02*
X1712167Y81655D01*
X1710957Y81655D01*
X1710957Y89615D01*
X1712167Y89615D01*
X1712167Y84336D02*
X1710957Y84336D01*
X1710957Y87017D02*
X1712167Y87017D01*
X1715947Y93395D02*
X1723907Y93395D01*
X1715947Y93395D02*
X1715947Y94605D01*
X1723907Y94605D01*
X1723907Y93395D01*
X1723907Y97395D02*
X1715947Y97395D01*
X1715947Y98605D01*
X1723907Y98605D01*
X1723907Y97395D01*
X1723907Y101395D02*
X1715947Y101395D01*
X1715947Y102605D01*
X1723907Y102605D01*
X1723907Y101395D01*
X1723907Y105395D02*
X1715947Y105395D01*
X1715947Y106605D01*
X1723907Y106605D01*
X1723907Y105395D01*
X1723907Y109395D02*
X1715947Y109395D01*
X1715947Y110605D01*
X1723907Y110605D01*
X1723907Y109395D01*
X1723907Y113395D02*
X1715947Y113395D01*
X1715947Y114605D01*
X1723907Y114605D01*
X1723907Y113395D01*
X1723907Y118605D02*
X1715947Y118605D01*
X1723907Y118605D02*
X1723907Y117395D01*
X1715947Y117395D01*
X1715947Y118605D01*
X1715947Y121395D02*
X1723907Y121395D01*
X1715947Y121395D02*
X1715947Y122605D01*
X1723907Y122605D01*
X1723907Y121395D01*
X1723907Y125395D02*
X1715947Y125395D01*
X1715947Y126605D01*
X1723907Y126605D01*
X1723907Y125395D01*
X1723907Y129395D02*
X1715947Y129395D01*
X1715947Y130605D01*
X1723907Y130605D01*
X1723907Y129395D01*
X1723907Y133395D02*
X1715947Y133395D01*
X1715947Y134605D01*
X1723907Y134605D01*
X1723907Y133395D01*
X1723907Y137395D02*
X1715947Y137395D01*
X1715947Y138605D01*
X1723907Y138605D01*
X1723907Y137395D01*
X1723907Y141395D02*
X1715947Y141395D01*
X1715947Y142605D01*
X1723907Y142605D01*
X1723907Y141395D01*
X1723907Y146605D02*
X1715947Y146605D01*
X1723907Y146605D02*
X1723907Y145395D01*
X1715947Y145395D01*
X1715947Y146605D01*
D10*
X1625562Y115000D03*
X1625562Y125000D03*
X1675562Y165000D03*
X1675562Y175000D03*
X1715562Y165000D03*
X1715562Y175000D03*
D17*
X1598462Y128540D03*
X1598462Y111540D03*
X1612462Y111540D03*
X1612462Y128540D03*
D10*
X194989Y598500D03*
X184989Y598500D03*
X194989Y558500D03*
X184989Y558500D03*
D11*
X195269Y491990D02*
X195269Y485010D01*
X195269Y491990D02*
X202249Y491990D01*
X202249Y485010D01*
X195269Y485010D01*
X195269Y489810D02*
X202249Y489810D01*
X177729Y491990D02*
X177729Y485010D01*
X177729Y491990D02*
X184709Y491990D01*
X184709Y485010D01*
X177729Y485010D01*
X177729Y489810D02*
X184709Y489810D01*
D10*
X164989Y488500D03*
X154989Y488500D03*
D12*
X209989Y648500D03*
X9989Y488500D03*
D13*
X17489Y685750D03*
X22489Y685750D03*
X27489Y685750D03*
X32489Y685750D03*
X37489Y685750D03*
X42489Y685750D03*
X47489Y685750D03*
X52489Y685750D03*
X57489Y685750D03*
X62489Y685750D03*
X67489Y685750D03*
X72489Y685750D03*
X97489Y685750D03*
X102489Y685750D03*
X107489Y685750D03*
X112489Y685750D03*
X117489Y685750D03*
X122489Y685750D03*
X127489Y685750D03*
X132489Y685750D03*
X137489Y685750D03*
X142489Y685750D03*
X147489Y685750D03*
X152489Y685750D03*
X157489Y685750D03*
X162489Y685750D03*
X167489Y685750D03*
X172489Y685750D03*
X177489Y685750D03*
X182489Y685750D03*
X187489Y685750D03*
X192489Y685750D03*
X197489Y685750D03*
X202489Y685750D03*
D14*
X90989Y488500D03*
X48989Y488500D03*
X69989Y501500D03*
D15*
X83384Y540155D02*
X83384Y548115D01*
X84594Y548115D01*
X84594Y540155D01*
X83384Y540155D01*
X83384Y542836D02*
X84594Y542836D01*
X84594Y545517D02*
X83384Y545517D01*
X87384Y548115D02*
X87384Y540155D01*
X87384Y548115D02*
X88594Y548115D01*
X88594Y540155D01*
X87384Y540155D01*
X87384Y542836D02*
X88594Y542836D01*
X88594Y545517D02*
X87384Y545517D01*
X91384Y548115D02*
X91384Y540155D01*
X91384Y548115D02*
X92594Y548115D01*
X92594Y540155D01*
X91384Y540155D01*
X91384Y542836D02*
X92594Y542836D01*
X92594Y545517D02*
X91384Y545517D01*
X95384Y548115D02*
X95384Y540155D01*
X95384Y548115D02*
X96594Y548115D01*
X96594Y540155D01*
X95384Y540155D01*
X95384Y542836D02*
X96594Y542836D01*
X96594Y545517D02*
X95384Y545517D01*
X99384Y548115D02*
X99384Y540155D01*
X99384Y548115D02*
X100594Y548115D01*
X100594Y540155D01*
X99384Y540155D01*
X99384Y542836D02*
X100594Y542836D01*
X100594Y545517D02*
X99384Y545517D01*
X103384Y548115D02*
X103384Y540155D01*
X103384Y548115D02*
X104594Y548115D01*
X104594Y540155D01*
X103384Y540155D01*
X103384Y542836D02*
X104594Y542836D01*
X104594Y545517D02*
X103384Y545517D01*
X108594Y548115D02*
X108594Y540155D01*
X107384Y540155D01*
X107384Y548115D01*
X108594Y548115D01*
X108594Y542836D02*
X107384Y542836D01*
X107384Y545517D02*
X108594Y545517D01*
D16*
X109989Y578500D03*
D15*
X111384Y548115D02*
X111384Y540155D01*
X111384Y548115D02*
X112594Y548115D01*
X112594Y540155D01*
X111384Y540155D01*
X111384Y542836D02*
X112594Y542836D01*
X112594Y545517D02*
X111384Y545517D01*
X115384Y548115D02*
X115384Y540155D01*
X115384Y548115D02*
X116594Y548115D01*
X116594Y540155D01*
X115384Y540155D01*
X115384Y542836D02*
X116594Y542836D01*
X116594Y545517D02*
X115384Y545517D01*
X119384Y548115D02*
X119384Y540155D01*
X119384Y548115D02*
X120594Y548115D01*
X120594Y540155D01*
X119384Y540155D01*
X119384Y542836D02*
X120594Y542836D01*
X120594Y545517D02*
X119384Y545517D01*
X123384Y548115D02*
X123384Y540155D01*
X123384Y548115D02*
X124594Y548115D01*
X124594Y540155D01*
X123384Y540155D01*
X123384Y542836D02*
X124594Y542836D01*
X124594Y545517D02*
X123384Y545517D01*
X127384Y548115D02*
X127384Y540155D01*
X127384Y548115D02*
X128594Y548115D01*
X128594Y540155D01*
X127384Y540155D01*
X127384Y542836D02*
X128594Y542836D01*
X128594Y545517D02*
X127384Y545517D01*
X131384Y548115D02*
X131384Y540155D01*
X131384Y548115D02*
X132594Y548115D01*
X132594Y540155D01*
X131384Y540155D01*
X131384Y542836D02*
X132594Y542836D01*
X132594Y545517D02*
X131384Y545517D01*
X136594Y548115D02*
X136594Y540155D01*
X135384Y540155D01*
X135384Y548115D01*
X136594Y548115D01*
X136594Y542836D02*
X135384Y542836D01*
X135384Y545517D02*
X136594Y545517D01*
X140374Y551895D02*
X148334Y551895D01*
X140374Y551895D02*
X140374Y553105D01*
X148334Y553105D01*
X148334Y551895D01*
X148334Y555895D02*
X140374Y555895D01*
X140374Y557105D01*
X148334Y557105D01*
X148334Y555895D01*
X148334Y559895D02*
X140374Y559895D01*
X140374Y561105D01*
X148334Y561105D01*
X148334Y559895D01*
X148334Y563895D02*
X140374Y563895D01*
X140374Y565105D01*
X148334Y565105D01*
X148334Y563895D01*
X148334Y567895D02*
X140374Y567895D01*
X140374Y569105D01*
X148334Y569105D01*
X148334Y567895D01*
X148334Y571895D02*
X140374Y571895D01*
X140374Y573105D01*
X148334Y573105D01*
X148334Y571895D01*
X148334Y577105D02*
X140374Y577105D01*
X148334Y577105D02*
X148334Y575895D01*
X140374Y575895D01*
X140374Y577105D01*
X140374Y579895D02*
X148334Y579895D01*
X140374Y579895D02*
X140374Y581105D01*
X148334Y581105D01*
X148334Y579895D01*
X148334Y583895D02*
X140374Y583895D01*
X140374Y585105D01*
X148334Y585105D01*
X148334Y583895D01*
X148334Y587895D02*
X140374Y587895D01*
X140374Y589105D01*
X148334Y589105D01*
X148334Y587895D01*
X148334Y591895D02*
X140374Y591895D01*
X140374Y593105D01*
X148334Y593105D01*
X148334Y591895D01*
X148334Y595895D02*
X140374Y595895D01*
X140374Y597105D01*
X148334Y597105D01*
X148334Y595895D01*
X148334Y599895D02*
X140374Y599895D01*
X140374Y601105D01*
X148334Y601105D01*
X148334Y599895D01*
X148334Y605105D02*
X140374Y605105D01*
X148334Y605105D02*
X148334Y603895D01*
X140374Y603895D01*
X140374Y605105D01*
X136594Y608885D02*
X136594Y616845D01*
X136594Y608885D02*
X135384Y608885D01*
X135384Y616845D01*
X136594Y616845D01*
X136594Y611566D02*
X135384Y611566D01*
X135384Y614247D02*
X136594Y614247D01*
X132594Y616845D02*
X132594Y608885D01*
X131384Y608885D01*
X131384Y616845D01*
X132594Y616845D01*
X132594Y611566D02*
X131384Y611566D01*
X131384Y614247D02*
X132594Y614247D01*
X128594Y616845D02*
X128594Y608885D01*
X127384Y608885D01*
X127384Y616845D01*
X128594Y616845D01*
X128594Y611566D02*
X127384Y611566D01*
X127384Y614247D02*
X128594Y614247D01*
X124594Y616845D02*
X124594Y608885D01*
X123384Y608885D01*
X123384Y616845D01*
X124594Y616845D01*
X124594Y611566D02*
X123384Y611566D01*
X123384Y614247D02*
X124594Y614247D01*
X120594Y616845D02*
X120594Y608885D01*
X119384Y608885D01*
X119384Y616845D01*
X120594Y616845D01*
X120594Y611566D02*
X119384Y611566D01*
X119384Y614247D02*
X120594Y614247D01*
X116594Y616845D02*
X116594Y608885D01*
X115384Y608885D01*
X115384Y616845D01*
X116594Y616845D01*
X116594Y611566D02*
X115384Y611566D01*
X115384Y614247D02*
X116594Y614247D01*
X111384Y616845D02*
X111384Y608885D01*
X111384Y616845D02*
X112594Y616845D01*
X112594Y608885D01*
X111384Y608885D01*
X111384Y611566D02*
X112594Y611566D01*
X112594Y614247D02*
X111384Y614247D01*
X108594Y616845D02*
X108594Y608885D01*
X107384Y608885D01*
X107384Y616845D01*
X108594Y616845D01*
X108594Y611566D02*
X107384Y611566D01*
X107384Y614247D02*
X108594Y614247D01*
X104594Y616845D02*
X104594Y608885D01*
X103384Y608885D01*
X103384Y616845D01*
X104594Y616845D01*
X104594Y611566D02*
X103384Y611566D01*
X103384Y614247D02*
X104594Y614247D01*
X100594Y616845D02*
X100594Y608885D01*
X99384Y608885D01*
X99384Y616845D01*
X100594Y616845D01*
X100594Y611566D02*
X99384Y611566D01*
X99384Y614247D02*
X100594Y614247D01*
X96594Y616845D02*
X96594Y608885D01*
X95384Y608885D01*
X95384Y616845D01*
X96594Y616845D01*
X96594Y611566D02*
X95384Y611566D01*
X95384Y614247D02*
X96594Y614247D01*
X92594Y616845D02*
X92594Y608885D01*
X91384Y608885D01*
X91384Y616845D01*
X92594Y616845D01*
X92594Y611566D02*
X91384Y611566D01*
X91384Y614247D02*
X92594Y614247D01*
X88594Y616845D02*
X88594Y608885D01*
X87384Y608885D01*
X87384Y616845D01*
X88594Y616845D01*
X88594Y611566D02*
X87384Y611566D01*
X87384Y614247D02*
X88594Y614247D01*
X83384Y616845D02*
X83384Y608885D01*
X83384Y616845D02*
X84594Y616845D01*
X84594Y608885D01*
X83384Y608885D01*
X83384Y611566D02*
X84594Y611566D01*
X84594Y614247D02*
X83384Y614247D01*
X79604Y605105D02*
X71644Y605105D01*
X79604Y605105D02*
X79604Y603895D01*
X71644Y603895D01*
X71644Y605105D01*
X71644Y601105D02*
X79604Y601105D01*
X79604Y599895D01*
X71644Y599895D01*
X71644Y601105D01*
X71644Y597105D02*
X79604Y597105D01*
X79604Y595895D01*
X71644Y595895D01*
X71644Y597105D01*
X71644Y593105D02*
X79604Y593105D01*
X79604Y591895D01*
X71644Y591895D01*
X71644Y593105D01*
X71644Y589105D02*
X79604Y589105D01*
X79604Y587895D01*
X71644Y587895D01*
X71644Y589105D01*
X71644Y585105D02*
X79604Y585105D01*
X79604Y583895D01*
X71644Y583895D01*
X71644Y585105D01*
X71644Y579895D02*
X79604Y579895D01*
X71644Y579895D02*
X71644Y581105D01*
X79604Y581105D01*
X79604Y579895D01*
X79604Y577105D02*
X71644Y577105D01*
X79604Y577105D02*
X79604Y575895D01*
X71644Y575895D01*
X71644Y577105D01*
X71644Y573105D02*
X79604Y573105D01*
X79604Y571895D01*
X71644Y571895D01*
X71644Y573105D01*
X71644Y569105D02*
X79604Y569105D01*
X79604Y567895D01*
X71644Y567895D01*
X71644Y569105D01*
X71644Y565105D02*
X79604Y565105D01*
X79604Y563895D01*
X71644Y563895D01*
X71644Y565105D01*
X71644Y561105D02*
X79604Y561105D01*
X79604Y559895D01*
X71644Y559895D01*
X71644Y561105D01*
X71644Y557105D02*
X79604Y557105D01*
X79604Y555895D01*
X71644Y555895D01*
X71644Y557105D01*
X71644Y551895D02*
X79604Y551895D01*
X71644Y551895D02*
X71644Y553105D01*
X79604Y553105D01*
X79604Y551895D01*
D10*
X169989Y583500D03*
X169989Y573500D03*
X119989Y533500D03*
X119989Y523500D03*
X79989Y533500D03*
X79989Y523500D03*
D17*
X197089Y569960D03*
X197089Y586960D03*
X183089Y586960D03*
X183089Y569960D03*
D10*
X420084Y598500D03*
X410084Y598500D03*
X420084Y558500D03*
X410084Y558500D03*
D11*
X420364Y491990D02*
X420364Y485010D01*
X420364Y491990D02*
X427344Y491990D01*
X427344Y485010D01*
X420364Y485010D01*
X420364Y489810D02*
X427344Y489810D01*
X402824Y491990D02*
X402824Y485010D01*
X402824Y491990D02*
X409804Y491990D01*
X409804Y485010D01*
X402824Y485010D01*
X402824Y489810D02*
X409804Y489810D01*
D10*
X390084Y488500D03*
X380084Y488500D03*
D12*
X435084Y648500D03*
X235084Y488500D03*
D13*
X242584Y685750D03*
X247584Y685750D03*
X252584Y685750D03*
X257584Y685750D03*
X262584Y685750D03*
X267584Y685750D03*
X272584Y685750D03*
X277584Y685750D03*
X282584Y685750D03*
X287584Y685750D03*
X292584Y685750D03*
X297584Y685750D03*
X322584Y685750D03*
X327584Y685750D03*
X332584Y685750D03*
X337584Y685750D03*
X342584Y685750D03*
X347584Y685750D03*
X352584Y685750D03*
X357584Y685750D03*
X362584Y685750D03*
X367584Y685750D03*
X372584Y685750D03*
X377584Y685750D03*
X382584Y685750D03*
X387584Y685750D03*
X392584Y685750D03*
X397584Y685750D03*
X402584Y685750D03*
X407584Y685750D03*
X412584Y685750D03*
X417584Y685750D03*
X422584Y685750D03*
X427584Y685750D03*
D14*
X316084Y488500D03*
X274084Y488500D03*
X295084Y501500D03*
D15*
X308479Y540155D02*
X308479Y548115D01*
X309689Y548115D01*
X309689Y540155D01*
X308479Y540155D01*
X308479Y542836D02*
X309689Y542836D01*
X309689Y545517D02*
X308479Y545517D01*
X312479Y548115D02*
X312479Y540155D01*
X312479Y548115D02*
X313689Y548115D01*
X313689Y540155D01*
X312479Y540155D01*
X312479Y542836D02*
X313689Y542836D01*
X313689Y545517D02*
X312479Y545517D01*
X316479Y548115D02*
X316479Y540155D01*
X316479Y548115D02*
X317689Y548115D01*
X317689Y540155D01*
X316479Y540155D01*
X316479Y542836D02*
X317689Y542836D01*
X317689Y545517D02*
X316479Y545517D01*
X320479Y548115D02*
X320479Y540155D01*
X320479Y548115D02*
X321689Y548115D01*
X321689Y540155D01*
X320479Y540155D01*
X320479Y542836D02*
X321689Y542836D01*
X321689Y545517D02*
X320479Y545517D01*
X324479Y548115D02*
X324479Y540155D01*
X324479Y548115D02*
X325689Y548115D01*
X325689Y540155D01*
X324479Y540155D01*
X324479Y542836D02*
X325689Y542836D01*
X325689Y545517D02*
X324479Y545517D01*
X328479Y548115D02*
X328479Y540155D01*
X328479Y548115D02*
X329689Y548115D01*
X329689Y540155D01*
X328479Y540155D01*
X328479Y542836D02*
X329689Y542836D01*
X329689Y545517D02*
X328479Y545517D01*
X333689Y548115D02*
X333689Y540155D01*
X332479Y540155D01*
X332479Y548115D01*
X333689Y548115D01*
X333689Y542836D02*
X332479Y542836D01*
X332479Y545517D02*
X333689Y545517D01*
D16*
X335084Y578500D03*
D15*
X336479Y548115D02*
X336479Y540155D01*
X336479Y548115D02*
X337689Y548115D01*
X337689Y540155D01*
X336479Y540155D01*
X336479Y542836D02*
X337689Y542836D01*
X337689Y545517D02*
X336479Y545517D01*
X340479Y548115D02*
X340479Y540155D01*
X340479Y548115D02*
X341689Y548115D01*
X341689Y540155D01*
X340479Y540155D01*
X340479Y542836D02*
X341689Y542836D01*
X341689Y545517D02*
X340479Y545517D01*
X344479Y548115D02*
X344479Y540155D01*
X344479Y548115D02*
X345689Y548115D01*
X345689Y540155D01*
X344479Y540155D01*
X344479Y542836D02*
X345689Y542836D01*
X345689Y545517D02*
X344479Y545517D01*
X348479Y548115D02*
X348479Y540155D01*
X348479Y548115D02*
X349689Y548115D01*
X349689Y540155D01*
X348479Y540155D01*
X348479Y542836D02*
X349689Y542836D01*
X349689Y545517D02*
X348479Y545517D01*
X352479Y548115D02*
X352479Y540155D01*
X352479Y548115D02*
X353689Y548115D01*
X353689Y540155D01*
X352479Y540155D01*
X352479Y542836D02*
X353689Y542836D01*
X353689Y545517D02*
X352479Y545517D01*
X356479Y548115D02*
X356479Y540155D01*
X356479Y548115D02*
X357689Y548115D01*
X357689Y540155D01*
X356479Y540155D01*
X356479Y542836D02*
X357689Y542836D01*
X357689Y545517D02*
X356479Y545517D01*
X361689Y548115D02*
X361689Y540155D01*
X360479Y540155D01*
X360479Y548115D01*
X361689Y548115D01*
X361689Y542836D02*
X360479Y542836D01*
X360479Y545517D02*
X361689Y545517D01*
X365469Y551895D02*
X373429Y551895D01*
X365469Y551895D02*
X365469Y553105D01*
X373429Y553105D01*
X373429Y551895D01*
X373429Y555895D02*
X365469Y555895D01*
X365469Y557105D01*
X373429Y557105D01*
X373429Y555895D01*
X373429Y559895D02*
X365469Y559895D01*
X365469Y561105D01*
X373429Y561105D01*
X373429Y559895D01*
X373429Y563895D02*
X365469Y563895D01*
X365469Y565105D01*
X373429Y565105D01*
X373429Y563895D01*
X373429Y567895D02*
X365469Y567895D01*
X365469Y569105D01*
X373429Y569105D01*
X373429Y567895D01*
X373429Y571895D02*
X365469Y571895D01*
X365469Y573105D01*
X373429Y573105D01*
X373429Y571895D01*
X373429Y577105D02*
X365469Y577105D01*
X373429Y577105D02*
X373429Y575895D01*
X365469Y575895D01*
X365469Y577105D01*
X365469Y579895D02*
X373429Y579895D01*
X365469Y579895D02*
X365469Y581105D01*
X373429Y581105D01*
X373429Y579895D01*
X373429Y583895D02*
X365469Y583895D01*
X365469Y585105D01*
X373429Y585105D01*
X373429Y583895D01*
X373429Y587895D02*
X365469Y587895D01*
X365469Y589105D01*
X373429Y589105D01*
X373429Y587895D01*
X373429Y591895D02*
X365469Y591895D01*
X365469Y593105D01*
X373429Y593105D01*
X373429Y591895D01*
X373429Y595895D02*
X365469Y595895D01*
X365469Y597105D01*
X373429Y597105D01*
X373429Y595895D01*
X373429Y599895D02*
X365469Y599895D01*
X365469Y601105D01*
X373429Y601105D01*
X373429Y599895D01*
X373429Y605105D02*
X365469Y605105D01*
X373429Y605105D02*
X373429Y603895D01*
X365469Y603895D01*
X365469Y605105D01*
X361689Y608885D02*
X361689Y616845D01*
X361689Y608885D02*
X360479Y608885D01*
X360479Y616845D01*
X361689Y616845D01*
X361689Y611566D02*
X360479Y611566D01*
X360479Y614247D02*
X361689Y614247D01*
X357689Y616845D02*
X357689Y608885D01*
X356479Y608885D01*
X356479Y616845D01*
X357689Y616845D01*
X357689Y611566D02*
X356479Y611566D01*
X356479Y614247D02*
X357689Y614247D01*
X353689Y616845D02*
X353689Y608885D01*
X352479Y608885D01*
X352479Y616845D01*
X353689Y616845D01*
X353689Y611566D02*
X352479Y611566D01*
X352479Y614247D02*
X353689Y614247D01*
X349689Y616845D02*
X349689Y608885D01*
X348479Y608885D01*
X348479Y616845D01*
X349689Y616845D01*
X349689Y611566D02*
X348479Y611566D01*
X348479Y614247D02*
X349689Y614247D01*
X345689Y616845D02*
X345689Y608885D01*
X344479Y608885D01*
X344479Y616845D01*
X345689Y616845D01*
X345689Y611566D02*
X344479Y611566D01*
X344479Y614247D02*
X345689Y614247D01*
X341689Y616845D02*
X341689Y608885D01*
X340479Y608885D01*
X340479Y616845D01*
X341689Y616845D01*
X341689Y611566D02*
X340479Y611566D01*
X340479Y614247D02*
X341689Y614247D01*
X336479Y616845D02*
X336479Y608885D01*
X336479Y616845D02*
X337689Y616845D01*
X337689Y608885D01*
X336479Y608885D01*
X336479Y611566D02*
X337689Y611566D01*
X337689Y614247D02*
X336479Y614247D01*
X333689Y616845D02*
X333689Y608885D01*
X332479Y608885D01*
X332479Y616845D01*
X333689Y616845D01*
X333689Y611566D02*
X332479Y611566D01*
X332479Y614247D02*
X333689Y614247D01*
X329689Y616845D02*
X329689Y608885D01*
X328479Y608885D01*
X328479Y616845D01*
X329689Y616845D01*
X329689Y611566D02*
X328479Y611566D01*
X328479Y614247D02*
X329689Y614247D01*
X325689Y616845D02*
X325689Y608885D01*
X324479Y608885D01*
X324479Y616845D01*
X325689Y616845D01*
X325689Y611566D02*
X324479Y611566D01*
X324479Y614247D02*
X325689Y614247D01*
X321689Y616845D02*
X321689Y608885D01*
X320479Y608885D01*
X320479Y616845D01*
X321689Y616845D01*
X321689Y611566D02*
X320479Y611566D01*
X320479Y614247D02*
X321689Y614247D01*
X317689Y616845D02*
X317689Y608885D01*
X316479Y608885D01*
X316479Y616845D01*
X317689Y616845D01*
X317689Y611566D02*
X316479Y611566D01*
X316479Y614247D02*
X317689Y614247D01*
X313689Y616845D02*
X313689Y608885D01*
X312479Y608885D01*
X312479Y616845D01*
X313689Y616845D01*
X313689Y611566D02*
X312479Y611566D01*
X312479Y614247D02*
X313689Y614247D01*
X308479Y616845D02*
X308479Y608885D01*
X308479Y616845D02*
X309689Y616845D01*
X309689Y608885D01*
X308479Y608885D01*
X308479Y611566D02*
X309689Y611566D01*
X309689Y614247D02*
X308479Y614247D01*
X304699Y605105D02*
X296739Y605105D01*
X304699Y605105D02*
X304699Y603895D01*
X296739Y603895D01*
X296739Y605105D01*
X296739Y601105D02*
X304699Y601105D01*
X304699Y599895D01*
X296739Y599895D01*
X296739Y601105D01*
X296739Y597105D02*
X304699Y597105D01*
X304699Y595895D01*
X296739Y595895D01*
X296739Y597105D01*
X296739Y593105D02*
X304699Y593105D01*
X304699Y591895D01*
X296739Y591895D01*
X296739Y593105D01*
X296739Y589105D02*
X304699Y589105D01*
X304699Y587895D01*
X296739Y587895D01*
X296739Y589105D01*
X296739Y585105D02*
X304699Y585105D01*
X304699Y583895D01*
X296739Y583895D01*
X296739Y585105D01*
X296739Y579895D02*
X304699Y579895D01*
X296739Y579895D02*
X296739Y581105D01*
X304699Y581105D01*
X304699Y579895D01*
X304699Y577105D02*
X296739Y577105D01*
X304699Y577105D02*
X304699Y575895D01*
X296739Y575895D01*
X296739Y577105D01*
X296739Y573105D02*
X304699Y573105D01*
X304699Y571895D01*
X296739Y571895D01*
X296739Y573105D01*
X296739Y569105D02*
X304699Y569105D01*
X304699Y567895D01*
X296739Y567895D01*
X296739Y569105D01*
X296739Y565105D02*
X304699Y565105D01*
X304699Y563895D01*
X296739Y563895D01*
X296739Y565105D01*
X296739Y561105D02*
X304699Y561105D01*
X304699Y559895D01*
X296739Y559895D01*
X296739Y561105D01*
X296739Y557105D02*
X304699Y557105D01*
X304699Y555895D01*
X296739Y555895D01*
X296739Y557105D01*
X296739Y551895D02*
X304699Y551895D01*
X296739Y551895D02*
X296739Y553105D01*
X304699Y553105D01*
X304699Y551895D01*
D10*
X395084Y583500D03*
X395084Y573500D03*
X345084Y533500D03*
X345084Y523500D03*
X305084Y533500D03*
X305084Y523500D03*
D17*
X422184Y569960D03*
X422184Y586960D03*
X408184Y586960D03*
X408184Y569960D03*
D10*
X645154Y598500D03*
X635154Y598500D03*
X645154Y558500D03*
X635154Y558500D03*
D11*
X645434Y491990D02*
X645434Y485010D01*
X645434Y491990D02*
X652414Y491990D01*
X652414Y485010D01*
X645434Y485010D01*
X645434Y489810D02*
X652414Y489810D01*
X627894Y491990D02*
X627894Y485010D01*
X627894Y491990D02*
X634874Y491990D01*
X634874Y485010D01*
X627894Y485010D01*
X627894Y489810D02*
X634874Y489810D01*
D10*
X615154Y488500D03*
X605154Y488500D03*
D12*
X660154Y648500D03*
X460154Y488500D03*
D13*
X467654Y685750D03*
X472654Y685750D03*
X477654Y685750D03*
X482654Y685750D03*
X487654Y685750D03*
X492654Y685750D03*
X497654Y685750D03*
X502654Y685750D03*
X507654Y685750D03*
X512654Y685750D03*
X517654Y685750D03*
X522654Y685750D03*
X547654Y685750D03*
X552654Y685750D03*
X557654Y685750D03*
X562654Y685750D03*
X567654Y685750D03*
X572654Y685750D03*
X577654Y685750D03*
X582654Y685750D03*
X587654Y685750D03*
X592654Y685750D03*
X597654Y685750D03*
X602654Y685750D03*
X607654Y685750D03*
X612654Y685750D03*
X617654Y685750D03*
X622654Y685750D03*
X627654Y685750D03*
X632654Y685750D03*
X637654Y685750D03*
X642654Y685750D03*
X647654Y685750D03*
X652654Y685750D03*
D14*
X541154Y488500D03*
X499154Y488500D03*
X520154Y501500D03*
D15*
X533549Y540155D02*
X533549Y548115D01*
X534759Y548115D01*
X534759Y540155D01*
X533549Y540155D01*
X533549Y542836D02*
X534759Y542836D01*
X534759Y545517D02*
X533549Y545517D01*
X537549Y548115D02*
X537549Y540155D01*
X537549Y548115D02*
X538759Y548115D01*
X538759Y540155D01*
X537549Y540155D01*
X537549Y542836D02*
X538759Y542836D01*
X538759Y545517D02*
X537549Y545517D01*
X541549Y548115D02*
X541549Y540155D01*
X541549Y548115D02*
X542759Y548115D01*
X542759Y540155D01*
X541549Y540155D01*
X541549Y542836D02*
X542759Y542836D01*
X542759Y545517D02*
X541549Y545517D01*
X545549Y548115D02*
X545549Y540155D01*
X545549Y548115D02*
X546759Y548115D01*
X546759Y540155D01*
X545549Y540155D01*
X545549Y542836D02*
X546759Y542836D01*
X546759Y545517D02*
X545549Y545517D01*
X549549Y548115D02*
X549549Y540155D01*
X549549Y548115D02*
X550759Y548115D01*
X550759Y540155D01*
X549549Y540155D01*
X549549Y542836D02*
X550759Y542836D01*
X550759Y545517D02*
X549549Y545517D01*
X553549Y548115D02*
X553549Y540155D01*
X553549Y548115D02*
X554759Y548115D01*
X554759Y540155D01*
X553549Y540155D01*
X553549Y542836D02*
X554759Y542836D01*
X554759Y545517D02*
X553549Y545517D01*
X558759Y548115D02*
X558759Y540155D01*
X557549Y540155D01*
X557549Y548115D01*
X558759Y548115D01*
X558759Y542836D02*
X557549Y542836D01*
X557549Y545517D02*
X558759Y545517D01*
D16*
X560154Y578500D03*
D15*
X561549Y548115D02*
X561549Y540155D01*
X561549Y548115D02*
X562759Y548115D01*
X562759Y540155D01*
X561549Y540155D01*
X561549Y542836D02*
X562759Y542836D01*
X562759Y545517D02*
X561549Y545517D01*
X565549Y548115D02*
X565549Y540155D01*
X565549Y548115D02*
X566759Y548115D01*
X566759Y540155D01*
X565549Y540155D01*
X565549Y542836D02*
X566759Y542836D01*
X566759Y545517D02*
X565549Y545517D01*
X569549Y548115D02*
X569549Y540155D01*
X569549Y548115D02*
X570759Y548115D01*
X570759Y540155D01*
X569549Y540155D01*
X569549Y542836D02*
X570759Y542836D01*
X570759Y545517D02*
X569549Y545517D01*
X573549Y548115D02*
X573549Y540155D01*
X573549Y548115D02*
X574759Y548115D01*
X574759Y540155D01*
X573549Y540155D01*
X573549Y542836D02*
X574759Y542836D01*
X574759Y545517D02*
X573549Y545517D01*
X577549Y548115D02*
X577549Y540155D01*
X577549Y548115D02*
X578759Y548115D01*
X578759Y540155D01*
X577549Y540155D01*
X577549Y542836D02*
X578759Y542836D01*
X578759Y545517D02*
X577549Y545517D01*
X581549Y548115D02*
X581549Y540155D01*
X581549Y548115D02*
X582759Y548115D01*
X582759Y540155D01*
X581549Y540155D01*
X581549Y542836D02*
X582759Y542836D01*
X582759Y545517D02*
X581549Y545517D01*
X586759Y548115D02*
X586759Y540155D01*
X585549Y540155D01*
X585549Y548115D01*
X586759Y548115D01*
X586759Y542836D02*
X585549Y542836D01*
X585549Y545517D02*
X586759Y545517D01*
X590539Y551895D02*
X598499Y551895D01*
X590539Y551895D02*
X590539Y553105D01*
X598499Y553105D01*
X598499Y551895D01*
X598499Y555895D02*
X590539Y555895D01*
X590539Y557105D01*
X598499Y557105D01*
X598499Y555895D01*
X598499Y559895D02*
X590539Y559895D01*
X590539Y561105D01*
X598499Y561105D01*
X598499Y559895D01*
X598499Y563895D02*
X590539Y563895D01*
X590539Y565105D01*
X598499Y565105D01*
X598499Y563895D01*
X598499Y567895D02*
X590539Y567895D01*
X590539Y569105D01*
X598499Y569105D01*
X598499Y567895D01*
X598499Y571895D02*
X590539Y571895D01*
X590539Y573105D01*
X598499Y573105D01*
X598499Y571895D01*
X598499Y577105D02*
X590539Y577105D01*
X598499Y577105D02*
X598499Y575895D01*
X590539Y575895D01*
X590539Y577105D01*
X590539Y579895D02*
X598499Y579895D01*
X590539Y579895D02*
X590539Y581105D01*
X598499Y581105D01*
X598499Y579895D01*
X598499Y583895D02*
X590539Y583895D01*
X590539Y585105D01*
X598499Y585105D01*
X598499Y583895D01*
X598499Y587895D02*
X590539Y587895D01*
X590539Y589105D01*
X598499Y589105D01*
X598499Y587895D01*
X598499Y591895D02*
X590539Y591895D01*
X590539Y593105D01*
X598499Y593105D01*
X598499Y591895D01*
X598499Y595895D02*
X590539Y595895D01*
X590539Y597105D01*
X598499Y597105D01*
X598499Y595895D01*
X598499Y599895D02*
X590539Y599895D01*
X590539Y601105D01*
X598499Y601105D01*
X598499Y599895D01*
X598499Y605105D02*
X590539Y605105D01*
X598499Y605105D02*
X598499Y603895D01*
X590539Y603895D01*
X590539Y605105D01*
X586759Y608885D02*
X586759Y616845D01*
X586759Y608885D02*
X585549Y608885D01*
X585549Y616845D01*
X586759Y616845D01*
X586759Y611566D02*
X585549Y611566D01*
X585549Y614247D02*
X586759Y614247D01*
X582759Y616845D02*
X582759Y608885D01*
X581549Y608885D01*
X581549Y616845D01*
X582759Y616845D01*
X582759Y611566D02*
X581549Y611566D01*
X581549Y614247D02*
X582759Y614247D01*
X578759Y616845D02*
X578759Y608885D01*
X577549Y608885D01*
X577549Y616845D01*
X578759Y616845D01*
X578759Y611566D02*
X577549Y611566D01*
X577549Y614247D02*
X578759Y614247D01*
X574759Y616845D02*
X574759Y608885D01*
X573549Y608885D01*
X573549Y616845D01*
X574759Y616845D01*
X574759Y611566D02*
X573549Y611566D01*
X573549Y614247D02*
X574759Y614247D01*
X570759Y616845D02*
X570759Y608885D01*
X569549Y608885D01*
X569549Y616845D01*
X570759Y616845D01*
X570759Y611566D02*
X569549Y611566D01*
X569549Y614247D02*
X570759Y614247D01*
X566759Y616845D02*
X566759Y608885D01*
X565549Y608885D01*
X565549Y616845D01*
X566759Y616845D01*
X566759Y611566D02*
X565549Y611566D01*
X565549Y614247D02*
X566759Y614247D01*
X561549Y616845D02*
X561549Y608885D01*
X561549Y616845D02*
X562759Y616845D01*
X562759Y608885D01*
X561549Y608885D01*
X561549Y611566D02*
X562759Y611566D01*
X562759Y614247D02*
X561549Y614247D01*
X558759Y616845D02*
X558759Y608885D01*
X557549Y608885D01*
X557549Y616845D01*
X558759Y616845D01*
X558759Y611566D02*
X557549Y611566D01*
X557549Y614247D02*
X558759Y614247D01*
X554759Y616845D02*
X554759Y608885D01*
X553549Y608885D01*
X553549Y616845D01*
X554759Y616845D01*
X554759Y611566D02*
X553549Y611566D01*
X553549Y614247D02*
X554759Y614247D01*
X550759Y616845D02*
X550759Y608885D01*
X549549Y608885D01*
X549549Y616845D01*
X550759Y616845D01*
X550759Y611566D02*
X549549Y611566D01*
X549549Y614247D02*
X550759Y614247D01*
X546759Y616845D02*
X546759Y608885D01*
X545549Y608885D01*
X545549Y616845D01*
X546759Y616845D01*
X546759Y611566D02*
X545549Y611566D01*
X545549Y614247D02*
X546759Y614247D01*
X542759Y616845D02*
X542759Y608885D01*
X541549Y608885D01*
X541549Y616845D01*
X542759Y616845D01*
X542759Y611566D02*
X541549Y611566D01*
X541549Y614247D02*
X542759Y614247D01*
X538759Y616845D02*
X538759Y608885D01*
X537549Y608885D01*
X537549Y616845D01*
X538759Y616845D01*
X538759Y611566D02*
X537549Y611566D01*
X537549Y614247D02*
X538759Y614247D01*
X533549Y616845D02*
X533549Y608885D01*
X533549Y616845D02*
X534759Y616845D01*
X534759Y608885D01*
X533549Y608885D01*
X533549Y611566D02*
X534759Y611566D01*
X534759Y614247D02*
X533549Y614247D01*
X529769Y605105D02*
X521809Y605105D01*
X529769Y605105D02*
X529769Y603895D01*
X521809Y603895D01*
X521809Y605105D01*
X521809Y601105D02*
X529769Y601105D01*
X529769Y599895D01*
X521809Y599895D01*
X521809Y601105D01*
X521809Y597105D02*
X529769Y597105D01*
X529769Y595895D01*
X521809Y595895D01*
X521809Y597105D01*
X521809Y593105D02*
X529769Y593105D01*
X529769Y591895D01*
X521809Y591895D01*
X521809Y593105D01*
X521809Y589105D02*
X529769Y589105D01*
X529769Y587895D01*
X521809Y587895D01*
X521809Y589105D01*
X521809Y585105D02*
X529769Y585105D01*
X529769Y583895D01*
X521809Y583895D01*
X521809Y585105D01*
X521809Y579895D02*
X529769Y579895D01*
X521809Y579895D02*
X521809Y581105D01*
X529769Y581105D01*
X529769Y579895D01*
X529769Y577105D02*
X521809Y577105D01*
X529769Y577105D02*
X529769Y575895D01*
X521809Y575895D01*
X521809Y577105D01*
X521809Y573105D02*
X529769Y573105D01*
X529769Y571895D01*
X521809Y571895D01*
X521809Y573105D01*
X521809Y569105D02*
X529769Y569105D01*
X529769Y567895D01*
X521809Y567895D01*
X521809Y569105D01*
X521809Y565105D02*
X529769Y565105D01*
X529769Y563895D01*
X521809Y563895D01*
X521809Y565105D01*
X521809Y561105D02*
X529769Y561105D01*
X529769Y559895D01*
X521809Y559895D01*
X521809Y561105D01*
X521809Y557105D02*
X529769Y557105D01*
X529769Y555895D01*
X521809Y555895D01*
X521809Y557105D01*
X521809Y551895D02*
X529769Y551895D01*
X521809Y551895D02*
X521809Y553105D01*
X529769Y553105D01*
X529769Y551895D01*
D10*
X620154Y583500D03*
X620154Y573500D03*
X570154Y533500D03*
X570154Y523500D03*
X530154Y533500D03*
X530154Y523500D03*
D17*
X647254Y569960D03*
X647254Y586960D03*
X633254Y586960D03*
X633254Y569960D03*
D10*
X870248Y598500D03*
X860248Y598500D03*
X870248Y558500D03*
X860248Y558500D03*
D11*
X870528Y491990D02*
X870528Y485010D01*
X870528Y491990D02*
X877508Y491990D01*
X877508Y485010D01*
X870528Y485010D01*
X870528Y489810D02*
X877508Y489810D01*
X852988Y491990D02*
X852988Y485010D01*
X852988Y491990D02*
X859968Y491990D01*
X859968Y485010D01*
X852988Y485010D01*
X852988Y489810D02*
X859968Y489810D01*
D10*
X840248Y488500D03*
X830248Y488500D03*
D12*
X885248Y648500D03*
X685248Y488500D03*
D13*
X692748Y685750D03*
X697748Y685750D03*
X702748Y685750D03*
X707748Y685750D03*
X712748Y685750D03*
X717748Y685750D03*
X722748Y685750D03*
X727748Y685750D03*
X732748Y685750D03*
X737748Y685750D03*
X742748Y685750D03*
X747748Y685750D03*
X772748Y685750D03*
X777748Y685750D03*
X782748Y685750D03*
X787748Y685750D03*
X792748Y685750D03*
X797748Y685750D03*
X802748Y685750D03*
X807748Y685750D03*
X812748Y685750D03*
X817748Y685750D03*
X822748Y685750D03*
X827748Y685750D03*
X832748Y685750D03*
X837748Y685750D03*
X842748Y685750D03*
X847748Y685750D03*
X852748Y685750D03*
X857748Y685750D03*
X862748Y685750D03*
X867748Y685750D03*
X872748Y685750D03*
X877748Y685750D03*
D14*
X766248Y488500D03*
X724248Y488500D03*
X745248Y501500D03*
D15*
X758643Y540155D02*
X758643Y548115D01*
X759853Y548115D01*
X759853Y540155D01*
X758643Y540155D01*
X758643Y542836D02*
X759853Y542836D01*
X759853Y545517D02*
X758643Y545517D01*
X762643Y548115D02*
X762643Y540155D01*
X762643Y548115D02*
X763853Y548115D01*
X763853Y540155D01*
X762643Y540155D01*
X762643Y542836D02*
X763853Y542836D01*
X763853Y545517D02*
X762643Y545517D01*
X766643Y548115D02*
X766643Y540155D01*
X766643Y548115D02*
X767853Y548115D01*
X767853Y540155D01*
X766643Y540155D01*
X766643Y542836D02*
X767853Y542836D01*
X767853Y545517D02*
X766643Y545517D01*
X770643Y548115D02*
X770643Y540155D01*
X770643Y548115D02*
X771853Y548115D01*
X771853Y540155D01*
X770643Y540155D01*
X770643Y542836D02*
X771853Y542836D01*
X771853Y545517D02*
X770643Y545517D01*
X774643Y548115D02*
X774643Y540155D01*
X774643Y548115D02*
X775853Y548115D01*
X775853Y540155D01*
X774643Y540155D01*
X774643Y542836D02*
X775853Y542836D01*
X775853Y545517D02*
X774643Y545517D01*
X778643Y548115D02*
X778643Y540155D01*
X778643Y548115D02*
X779853Y548115D01*
X779853Y540155D01*
X778643Y540155D01*
X778643Y542836D02*
X779853Y542836D01*
X779853Y545517D02*
X778643Y545517D01*
X783853Y548115D02*
X783853Y540155D01*
X782643Y540155D01*
X782643Y548115D01*
X783853Y548115D01*
X783853Y542836D02*
X782643Y542836D01*
X782643Y545517D02*
X783853Y545517D01*
D16*
X785248Y578500D03*
D15*
X786643Y548115D02*
X786643Y540155D01*
X786643Y548115D02*
X787853Y548115D01*
X787853Y540155D01*
X786643Y540155D01*
X786643Y542836D02*
X787853Y542836D01*
X787853Y545517D02*
X786643Y545517D01*
X790643Y548115D02*
X790643Y540155D01*
X790643Y548115D02*
X791853Y548115D01*
X791853Y540155D01*
X790643Y540155D01*
X790643Y542836D02*
X791853Y542836D01*
X791853Y545517D02*
X790643Y545517D01*
X794643Y548115D02*
X794643Y540155D01*
X794643Y548115D02*
X795853Y548115D01*
X795853Y540155D01*
X794643Y540155D01*
X794643Y542836D02*
X795853Y542836D01*
X795853Y545517D02*
X794643Y545517D01*
X798643Y548115D02*
X798643Y540155D01*
X798643Y548115D02*
X799853Y548115D01*
X799853Y540155D01*
X798643Y540155D01*
X798643Y542836D02*
X799853Y542836D01*
X799853Y545517D02*
X798643Y545517D01*
X802643Y548115D02*
X802643Y540155D01*
X802643Y548115D02*
X803853Y548115D01*
X803853Y540155D01*
X802643Y540155D01*
X802643Y542836D02*
X803853Y542836D01*
X803853Y545517D02*
X802643Y545517D01*
X806643Y548115D02*
X806643Y540155D01*
X806643Y548115D02*
X807853Y548115D01*
X807853Y540155D01*
X806643Y540155D01*
X806643Y542836D02*
X807853Y542836D01*
X807853Y545517D02*
X806643Y545517D01*
X811853Y548115D02*
X811853Y540155D01*
X810643Y540155D01*
X810643Y548115D01*
X811853Y548115D01*
X811853Y542836D02*
X810643Y542836D01*
X810643Y545517D02*
X811853Y545517D01*
X815633Y551895D02*
X823593Y551895D01*
X815633Y551895D02*
X815633Y553105D01*
X823593Y553105D01*
X823593Y551895D01*
X823593Y555895D02*
X815633Y555895D01*
X815633Y557105D01*
X823593Y557105D01*
X823593Y555895D01*
X823593Y559895D02*
X815633Y559895D01*
X815633Y561105D01*
X823593Y561105D01*
X823593Y559895D01*
X823593Y563895D02*
X815633Y563895D01*
X815633Y565105D01*
X823593Y565105D01*
X823593Y563895D01*
X823593Y567895D02*
X815633Y567895D01*
X815633Y569105D01*
X823593Y569105D01*
X823593Y567895D01*
X823593Y571895D02*
X815633Y571895D01*
X815633Y573105D01*
X823593Y573105D01*
X823593Y571895D01*
X823593Y577105D02*
X815633Y577105D01*
X823593Y577105D02*
X823593Y575895D01*
X815633Y575895D01*
X815633Y577105D01*
X815633Y579895D02*
X823593Y579895D01*
X815633Y579895D02*
X815633Y581105D01*
X823593Y581105D01*
X823593Y579895D01*
X823593Y583895D02*
X815633Y583895D01*
X815633Y585105D01*
X823593Y585105D01*
X823593Y583895D01*
X823593Y587895D02*
X815633Y587895D01*
X815633Y589105D01*
X823593Y589105D01*
X823593Y587895D01*
X823593Y591895D02*
X815633Y591895D01*
X815633Y593105D01*
X823593Y593105D01*
X823593Y591895D01*
X823593Y595895D02*
X815633Y595895D01*
X815633Y597105D01*
X823593Y597105D01*
X823593Y595895D01*
X823593Y599895D02*
X815633Y599895D01*
X815633Y601105D01*
X823593Y601105D01*
X823593Y599895D01*
X823593Y605105D02*
X815633Y605105D01*
X823593Y605105D02*
X823593Y603895D01*
X815633Y603895D01*
X815633Y605105D01*
X811853Y608885D02*
X811853Y616845D01*
X811853Y608885D02*
X810643Y608885D01*
X810643Y616845D01*
X811853Y616845D01*
X811853Y611566D02*
X810643Y611566D01*
X810643Y614247D02*
X811853Y614247D01*
X807853Y616845D02*
X807853Y608885D01*
X806643Y608885D01*
X806643Y616845D01*
X807853Y616845D01*
X807853Y611566D02*
X806643Y611566D01*
X806643Y614247D02*
X807853Y614247D01*
X803853Y616845D02*
X803853Y608885D01*
X802643Y608885D01*
X802643Y616845D01*
X803853Y616845D01*
X803853Y611566D02*
X802643Y611566D01*
X802643Y614247D02*
X803853Y614247D01*
X799853Y616845D02*
X799853Y608885D01*
X798643Y608885D01*
X798643Y616845D01*
X799853Y616845D01*
X799853Y611566D02*
X798643Y611566D01*
X798643Y614247D02*
X799853Y614247D01*
X795853Y616845D02*
X795853Y608885D01*
X794643Y608885D01*
X794643Y616845D01*
X795853Y616845D01*
X795853Y611566D02*
X794643Y611566D01*
X794643Y614247D02*
X795853Y614247D01*
X791853Y616845D02*
X791853Y608885D01*
X790643Y608885D01*
X790643Y616845D01*
X791853Y616845D01*
X791853Y611566D02*
X790643Y611566D01*
X790643Y614247D02*
X791853Y614247D01*
X786643Y616845D02*
X786643Y608885D01*
X786643Y616845D02*
X787853Y616845D01*
X787853Y608885D01*
X786643Y608885D01*
X786643Y611566D02*
X787853Y611566D01*
X787853Y614247D02*
X786643Y614247D01*
X783853Y616845D02*
X783853Y608885D01*
X782643Y608885D01*
X782643Y616845D01*
X783853Y616845D01*
X783853Y611566D02*
X782643Y611566D01*
X782643Y614247D02*
X783853Y614247D01*
X779853Y616845D02*
X779853Y608885D01*
X778643Y608885D01*
X778643Y616845D01*
X779853Y616845D01*
X779853Y611566D02*
X778643Y611566D01*
X778643Y614247D02*
X779853Y614247D01*
X775853Y616845D02*
X775853Y608885D01*
X774643Y608885D01*
X774643Y616845D01*
X775853Y616845D01*
X775853Y611566D02*
X774643Y611566D01*
X774643Y614247D02*
X775853Y614247D01*
X771853Y616845D02*
X771853Y608885D01*
X770643Y608885D01*
X770643Y616845D01*
X771853Y616845D01*
X771853Y611566D02*
X770643Y611566D01*
X770643Y614247D02*
X771853Y614247D01*
X767853Y616845D02*
X767853Y608885D01*
X766643Y608885D01*
X766643Y616845D01*
X767853Y616845D01*
X767853Y611566D02*
X766643Y611566D01*
X766643Y614247D02*
X767853Y614247D01*
X763853Y616845D02*
X763853Y608885D01*
X762643Y608885D01*
X762643Y616845D01*
X763853Y616845D01*
X763853Y611566D02*
X762643Y611566D01*
X762643Y614247D02*
X763853Y614247D01*
X758643Y616845D02*
X758643Y608885D01*
X758643Y616845D02*
X759853Y616845D01*
X759853Y608885D01*
X758643Y608885D01*
X758643Y611566D02*
X759853Y611566D01*
X759853Y614247D02*
X758643Y614247D01*
X754863Y605105D02*
X746903Y605105D01*
X754863Y605105D02*
X754863Y603895D01*
X746903Y603895D01*
X746903Y605105D01*
X746903Y601105D02*
X754863Y601105D01*
X754863Y599895D01*
X746903Y599895D01*
X746903Y601105D01*
X746903Y597105D02*
X754863Y597105D01*
X754863Y595895D01*
X746903Y595895D01*
X746903Y597105D01*
X746903Y593105D02*
X754863Y593105D01*
X754863Y591895D01*
X746903Y591895D01*
X746903Y593105D01*
X746903Y589105D02*
X754863Y589105D01*
X754863Y587895D01*
X746903Y587895D01*
X746903Y589105D01*
X746903Y585105D02*
X754863Y585105D01*
X754863Y583895D01*
X746903Y583895D01*
X746903Y585105D01*
X746903Y579895D02*
X754863Y579895D01*
X746903Y579895D02*
X746903Y581105D01*
X754863Y581105D01*
X754863Y579895D01*
X754863Y577105D02*
X746903Y577105D01*
X754863Y577105D02*
X754863Y575895D01*
X746903Y575895D01*
X746903Y577105D01*
X746903Y573105D02*
X754863Y573105D01*
X754863Y571895D01*
X746903Y571895D01*
X746903Y573105D01*
X746903Y569105D02*
X754863Y569105D01*
X754863Y567895D01*
X746903Y567895D01*
X746903Y569105D01*
X746903Y565105D02*
X754863Y565105D01*
X754863Y563895D01*
X746903Y563895D01*
X746903Y565105D01*
X746903Y561105D02*
X754863Y561105D01*
X754863Y559895D01*
X746903Y559895D01*
X746903Y561105D01*
X746903Y557105D02*
X754863Y557105D01*
X754863Y555895D01*
X746903Y555895D01*
X746903Y557105D01*
X746903Y551895D02*
X754863Y551895D01*
X746903Y551895D02*
X746903Y553105D01*
X754863Y553105D01*
X754863Y551895D01*
D10*
X845248Y583500D03*
X845248Y573500D03*
X795248Y533500D03*
X795248Y523500D03*
X755248Y533500D03*
X755248Y523500D03*
D17*
X872348Y569960D03*
X872348Y586960D03*
X858348Y586960D03*
X858348Y569960D03*
D10*
X1095318Y598500D03*
X1085318Y598500D03*
X1095318Y558500D03*
X1085318Y558500D03*
D11*
X1095598Y491990D02*
X1095598Y485010D01*
X1095598Y491990D02*
X1102578Y491990D01*
X1102578Y485010D01*
X1095598Y485010D01*
X1095598Y489810D02*
X1102578Y489810D01*
X1078058Y491990D02*
X1078058Y485010D01*
X1078058Y491990D02*
X1085038Y491990D01*
X1085038Y485010D01*
X1078058Y485010D01*
X1078058Y489810D02*
X1085038Y489810D01*
D10*
X1065318Y488500D03*
X1055318Y488500D03*
D12*
X1110318Y648500D03*
X910318Y488500D03*
D13*
X917818Y685750D03*
X922818Y685750D03*
X927818Y685750D03*
X932818Y685750D03*
X937818Y685750D03*
X942818Y685750D03*
X947818Y685750D03*
X952818Y685750D03*
X957818Y685750D03*
X962818Y685750D03*
X967818Y685750D03*
X972818Y685750D03*
X997818Y685750D03*
X1002818Y685750D03*
X1007818Y685750D03*
X1012818Y685750D03*
X1017818Y685750D03*
X1022818Y685750D03*
X1027818Y685750D03*
X1032818Y685750D03*
X1037818Y685750D03*
X1042818Y685750D03*
X1047818Y685750D03*
X1052818Y685750D03*
X1057818Y685750D03*
X1062818Y685750D03*
X1067818Y685750D03*
X1072818Y685750D03*
X1077818Y685750D03*
X1082818Y685750D03*
X1087818Y685750D03*
X1092818Y685750D03*
X1097818Y685750D03*
X1102818Y685750D03*
D14*
X991318Y488500D03*
X949318Y488500D03*
X970318Y501500D03*
D15*
X983713Y540155D02*
X983713Y548115D01*
X984923Y548115D01*
X984923Y540155D01*
X983713Y540155D01*
X983713Y542836D02*
X984923Y542836D01*
X984923Y545517D02*
X983713Y545517D01*
X987713Y548115D02*
X987713Y540155D01*
X987713Y548115D02*
X988923Y548115D01*
X988923Y540155D01*
X987713Y540155D01*
X987713Y542836D02*
X988923Y542836D01*
X988923Y545517D02*
X987713Y545517D01*
X991713Y548115D02*
X991713Y540155D01*
X991713Y548115D02*
X992923Y548115D01*
X992923Y540155D01*
X991713Y540155D01*
X991713Y542836D02*
X992923Y542836D01*
X992923Y545517D02*
X991713Y545517D01*
X995713Y548115D02*
X995713Y540155D01*
X995713Y548115D02*
X996923Y548115D01*
X996923Y540155D01*
X995713Y540155D01*
X995713Y542836D02*
X996923Y542836D01*
X996923Y545517D02*
X995713Y545517D01*
X999713Y548115D02*
X999713Y540155D01*
X999713Y548115D02*
X1000923Y548115D01*
X1000923Y540155D01*
X999713Y540155D01*
X999713Y542836D02*
X1000923Y542836D01*
X1000923Y545517D02*
X999713Y545517D01*
X1003713Y548115D02*
X1003713Y540155D01*
X1003713Y548115D02*
X1004923Y548115D01*
X1004923Y540155D01*
X1003713Y540155D01*
X1003713Y542836D02*
X1004923Y542836D01*
X1004923Y545517D02*
X1003713Y545517D01*
X1008923Y548115D02*
X1008923Y540155D01*
X1007713Y540155D01*
X1007713Y548115D01*
X1008923Y548115D01*
X1008923Y542836D02*
X1007713Y542836D01*
X1007713Y545517D02*
X1008923Y545517D01*
D16*
X1010318Y578500D03*
D15*
X1011713Y548115D02*
X1011713Y540155D01*
X1011713Y548115D02*
X1012923Y548115D01*
X1012923Y540155D01*
X1011713Y540155D01*
X1011713Y542836D02*
X1012923Y542836D01*
X1012923Y545517D02*
X1011713Y545517D01*
X1015713Y548115D02*
X1015713Y540155D01*
X1015713Y548115D02*
X1016923Y548115D01*
X1016923Y540155D01*
X1015713Y540155D01*
X1015713Y542836D02*
X1016923Y542836D01*
X1016923Y545517D02*
X1015713Y545517D01*
X1019713Y548115D02*
X1019713Y540155D01*
X1019713Y548115D02*
X1020923Y548115D01*
X1020923Y540155D01*
X1019713Y540155D01*
X1019713Y542836D02*
X1020923Y542836D01*
X1020923Y545517D02*
X1019713Y545517D01*
X1023713Y548115D02*
X1023713Y540155D01*
X1023713Y548115D02*
X1024923Y548115D01*
X1024923Y540155D01*
X1023713Y540155D01*
X1023713Y542836D02*
X1024923Y542836D01*
X1024923Y545517D02*
X1023713Y545517D01*
X1027713Y548115D02*
X1027713Y540155D01*
X1027713Y548115D02*
X1028923Y548115D01*
X1028923Y540155D01*
X1027713Y540155D01*
X1027713Y542836D02*
X1028923Y542836D01*
X1028923Y545517D02*
X1027713Y545517D01*
X1031713Y548115D02*
X1031713Y540155D01*
X1031713Y548115D02*
X1032923Y548115D01*
X1032923Y540155D01*
X1031713Y540155D01*
X1031713Y542836D02*
X1032923Y542836D01*
X1032923Y545517D02*
X1031713Y545517D01*
X1036923Y548115D02*
X1036923Y540155D01*
X1035713Y540155D01*
X1035713Y548115D01*
X1036923Y548115D01*
X1036923Y542836D02*
X1035713Y542836D01*
X1035713Y545517D02*
X1036923Y545517D01*
X1040703Y551895D02*
X1048663Y551895D01*
X1040703Y551895D02*
X1040703Y553105D01*
X1048663Y553105D01*
X1048663Y551895D01*
X1048663Y555895D02*
X1040703Y555895D01*
X1040703Y557105D01*
X1048663Y557105D01*
X1048663Y555895D01*
X1048663Y559895D02*
X1040703Y559895D01*
X1040703Y561105D01*
X1048663Y561105D01*
X1048663Y559895D01*
X1048663Y563895D02*
X1040703Y563895D01*
X1040703Y565105D01*
X1048663Y565105D01*
X1048663Y563895D01*
X1048663Y567895D02*
X1040703Y567895D01*
X1040703Y569105D01*
X1048663Y569105D01*
X1048663Y567895D01*
X1048663Y571895D02*
X1040703Y571895D01*
X1040703Y573105D01*
X1048663Y573105D01*
X1048663Y571895D01*
X1048663Y577105D02*
X1040703Y577105D01*
X1048663Y577105D02*
X1048663Y575895D01*
X1040703Y575895D01*
X1040703Y577105D01*
X1040703Y579895D02*
X1048663Y579895D01*
X1040703Y579895D02*
X1040703Y581105D01*
X1048663Y581105D01*
X1048663Y579895D01*
X1048663Y583895D02*
X1040703Y583895D01*
X1040703Y585105D01*
X1048663Y585105D01*
X1048663Y583895D01*
X1048663Y587895D02*
X1040703Y587895D01*
X1040703Y589105D01*
X1048663Y589105D01*
X1048663Y587895D01*
X1048663Y591895D02*
X1040703Y591895D01*
X1040703Y593105D01*
X1048663Y593105D01*
X1048663Y591895D01*
X1048663Y595895D02*
X1040703Y595895D01*
X1040703Y597105D01*
X1048663Y597105D01*
X1048663Y595895D01*
X1048663Y599895D02*
X1040703Y599895D01*
X1040703Y601105D01*
X1048663Y601105D01*
X1048663Y599895D01*
X1048663Y605105D02*
X1040703Y605105D01*
X1048663Y605105D02*
X1048663Y603895D01*
X1040703Y603895D01*
X1040703Y605105D01*
X1036923Y608885D02*
X1036923Y616845D01*
X1036923Y608885D02*
X1035713Y608885D01*
X1035713Y616845D01*
X1036923Y616845D01*
X1036923Y611566D02*
X1035713Y611566D01*
X1035713Y614247D02*
X1036923Y614247D01*
X1032923Y616845D02*
X1032923Y608885D01*
X1031713Y608885D01*
X1031713Y616845D01*
X1032923Y616845D01*
X1032923Y611566D02*
X1031713Y611566D01*
X1031713Y614247D02*
X1032923Y614247D01*
X1028923Y616845D02*
X1028923Y608885D01*
X1027713Y608885D01*
X1027713Y616845D01*
X1028923Y616845D01*
X1028923Y611566D02*
X1027713Y611566D01*
X1027713Y614247D02*
X1028923Y614247D01*
X1024923Y616845D02*
X1024923Y608885D01*
X1023713Y608885D01*
X1023713Y616845D01*
X1024923Y616845D01*
X1024923Y611566D02*
X1023713Y611566D01*
X1023713Y614247D02*
X1024923Y614247D01*
X1020923Y616845D02*
X1020923Y608885D01*
X1019713Y608885D01*
X1019713Y616845D01*
X1020923Y616845D01*
X1020923Y611566D02*
X1019713Y611566D01*
X1019713Y614247D02*
X1020923Y614247D01*
X1016923Y616845D02*
X1016923Y608885D01*
X1015713Y608885D01*
X1015713Y616845D01*
X1016923Y616845D01*
X1016923Y611566D02*
X1015713Y611566D01*
X1015713Y614247D02*
X1016923Y614247D01*
X1011713Y616845D02*
X1011713Y608885D01*
X1011713Y616845D02*
X1012923Y616845D01*
X1012923Y608885D01*
X1011713Y608885D01*
X1011713Y611566D02*
X1012923Y611566D01*
X1012923Y614247D02*
X1011713Y614247D01*
X1008923Y616845D02*
X1008923Y608885D01*
X1007713Y608885D01*
X1007713Y616845D01*
X1008923Y616845D01*
X1008923Y611566D02*
X1007713Y611566D01*
X1007713Y614247D02*
X1008923Y614247D01*
X1004923Y616845D02*
X1004923Y608885D01*
X1003713Y608885D01*
X1003713Y616845D01*
X1004923Y616845D01*
X1004923Y611566D02*
X1003713Y611566D01*
X1003713Y614247D02*
X1004923Y614247D01*
X1000923Y616845D02*
X1000923Y608885D01*
X999713Y608885D01*
X999713Y616845D01*
X1000923Y616845D01*
X1000923Y611566D02*
X999713Y611566D01*
X999713Y614247D02*
X1000923Y614247D01*
X996923Y616845D02*
X996923Y608885D01*
X995713Y608885D01*
X995713Y616845D01*
X996923Y616845D01*
X996923Y611566D02*
X995713Y611566D01*
X995713Y614247D02*
X996923Y614247D01*
X992923Y616845D02*
X992923Y608885D01*
X991713Y608885D01*
X991713Y616845D01*
X992923Y616845D01*
X992923Y611566D02*
X991713Y611566D01*
X991713Y614247D02*
X992923Y614247D01*
X988923Y616845D02*
X988923Y608885D01*
X987713Y608885D01*
X987713Y616845D01*
X988923Y616845D01*
X988923Y611566D02*
X987713Y611566D01*
X987713Y614247D02*
X988923Y614247D01*
X983713Y616845D02*
X983713Y608885D01*
X983713Y616845D02*
X984923Y616845D01*
X984923Y608885D01*
X983713Y608885D01*
X983713Y611566D02*
X984923Y611566D01*
X984923Y614247D02*
X983713Y614247D01*
X979933Y605105D02*
X971973Y605105D01*
X979933Y605105D02*
X979933Y603895D01*
X971973Y603895D01*
X971973Y605105D01*
X971973Y601105D02*
X979933Y601105D01*
X979933Y599895D01*
X971973Y599895D01*
X971973Y601105D01*
X971973Y597105D02*
X979933Y597105D01*
X979933Y595895D01*
X971973Y595895D01*
X971973Y597105D01*
X971973Y593105D02*
X979933Y593105D01*
X979933Y591895D01*
X971973Y591895D01*
X971973Y593105D01*
X971973Y589105D02*
X979933Y589105D01*
X979933Y587895D01*
X971973Y587895D01*
X971973Y589105D01*
X971973Y585105D02*
X979933Y585105D01*
X979933Y583895D01*
X971973Y583895D01*
X971973Y585105D01*
X971973Y579895D02*
X979933Y579895D01*
X971973Y579895D02*
X971973Y581105D01*
X979933Y581105D01*
X979933Y579895D01*
X979933Y577105D02*
X971973Y577105D01*
X979933Y577105D02*
X979933Y575895D01*
X971973Y575895D01*
X971973Y577105D01*
X971973Y573105D02*
X979933Y573105D01*
X979933Y571895D01*
X971973Y571895D01*
X971973Y573105D01*
X971973Y569105D02*
X979933Y569105D01*
X979933Y567895D01*
X971973Y567895D01*
X971973Y569105D01*
X971973Y565105D02*
X979933Y565105D01*
X979933Y563895D01*
X971973Y563895D01*
X971973Y565105D01*
X971973Y561105D02*
X979933Y561105D01*
X979933Y559895D01*
X971973Y559895D01*
X971973Y561105D01*
X971973Y557105D02*
X979933Y557105D01*
X979933Y555895D01*
X971973Y555895D01*
X971973Y557105D01*
X971973Y551895D02*
X979933Y551895D01*
X971973Y551895D02*
X971973Y553105D01*
X979933Y553105D01*
X979933Y551895D01*
D10*
X1070318Y583500D03*
X1070318Y573500D03*
X1020318Y533500D03*
X1020318Y523500D03*
X980318Y533500D03*
X980318Y523500D03*
D17*
X1097418Y569960D03*
X1097418Y586960D03*
X1083418Y586960D03*
X1083418Y569960D03*
D10*
X1320413Y598500D03*
X1310413Y598500D03*
X1320413Y558500D03*
X1310413Y558500D03*
D11*
X1320693Y491990D02*
X1320693Y485010D01*
X1320693Y491990D02*
X1327673Y491990D01*
X1327673Y485010D01*
X1320693Y485010D01*
X1320693Y489810D02*
X1327673Y489810D01*
X1303153Y491990D02*
X1303153Y485010D01*
X1303153Y491990D02*
X1310133Y491990D01*
X1310133Y485010D01*
X1303153Y485010D01*
X1303153Y489810D02*
X1310133Y489810D01*
D10*
X1290413Y488500D03*
X1280413Y488500D03*
D12*
X1335413Y648500D03*
X1135413Y488500D03*
D13*
X1142913Y685750D03*
X1147913Y685750D03*
X1152913Y685750D03*
X1157913Y685750D03*
X1162913Y685750D03*
X1167913Y685750D03*
X1172913Y685750D03*
X1177913Y685750D03*
X1182913Y685750D03*
X1187913Y685750D03*
X1192913Y685750D03*
X1197913Y685750D03*
X1222913Y685750D03*
X1227913Y685750D03*
X1232913Y685750D03*
X1237913Y685750D03*
X1242913Y685750D03*
X1247913Y685750D03*
X1252913Y685750D03*
X1257913Y685750D03*
X1262913Y685750D03*
X1267913Y685750D03*
X1272913Y685750D03*
X1277913Y685750D03*
X1282913Y685750D03*
X1287913Y685750D03*
X1292913Y685750D03*
X1297913Y685750D03*
X1302913Y685750D03*
X1307913Y685750D03*
X1312913Y685750D03*
X1317913Y685750D03*
X1322913Y685750D03*
X1327913Y685750D03*
D14*
X1216413Y488500D03*
X1174413Y488500D03*
X1195413Y501500D03*
D15*
X1208808Y540155D02*
X1208808Y548115D01*
X1210018Y548115D01*
X1210018Y540155D01*
X1208808Y540155D01*
X1208808Y542836D02*
X1210018Y542836D01*
X1210018Y545517D02*
X1208808Y545517D01*
X1212808Y548115D02*
X1212808Y540155D01*
X1212808Y548115D02*
X1214018Y548115D01*
X1214018Y540155D01*
X1212808Y540155D01*
X1212808Y542836D02*
X1214018Y542836D01*
X1214018Y545517D02*
X1212808Y545517D01*
X1216808Y548115D02*
X1216808Y540155D01*
X1216808Y548115D02*
X1218018Y548115D01*
X1218018Y540155D01*
X1216808Y540155D01*
X1216808Y542836D02*
X1218018Y542836D01*
X1218018Y545517D02*
X1216808Y545517D01*
X1220808Y548115D02*
X1220808Y540155D01*
X1220808Y548115D02*
X1222018Y548115D01*
X1222018Y540155D01*
X1220808Y540155D01*
X1220808Y542836D02*
X1222018Y542836D01*
X1222018Y545517D02*
X1220808Y545517D01*
X1224808Y548115D02*
X1224808Y540155D01*
X1224808Y548115D02*
X1226018Y548115D01*
X1226018Y540155D01*
X1224808Y540155D01*
X1224808Y542836D02*
X1226018Y542836D01*
X1226018Y545517D02*
X1224808Y545517D01*
X1228808Y548115D02*
X1228808Y540155D01*
X1228808Y548115D02*
X1230018Y548115D01*
X1230018Y540155D01*
X1228808Y540155D01*
X1228808Y542836D02*
X1230018Y542836D01*
X1230018Y545517D02*
X1228808Y545517D01*
X1234018Y548115D02*
X1234018Y540155D01*
X1232808Y540155D01*
X1232808Y548115D01*
X1234018Y548115D01*
X1234018Y542836D02*
X1232808Y542836D01*
X1232808Y545517D02*
X1234018Y545517D01*
D16*
X1235413Y578500D03*
D15*
X1236808Y548115D02*
X1236808Y540155D01*
X1236808Y548115D02*
X1238018Y548115D01*
X1238018Y540155D01*
X1236808Y540155D01*
X1236808Y542836D02*
X1238018Y542836D01*
X1238018Y545517D02*
X1236808Y545517D01*
X1240808Y548115D02*
X1240808Y540155D01*
X1240808Y548115D02*
X1242018Y548115D01*
X1242018Y540155D01*
X1240808Y540155D01*
X1240808Y542836D02*
X1242018Y542836D01*
X1242018Y545517D02*
X1240808Y545517D01*
X1244808Y548115D02*
X1244808Y540155D01*
X1244808Y548115D02*
X1246018Y548115D01*
X1246018Y540155D01*
X1244808Y540155D01*
X1244808Y542836D02*
X1246018Y542836D01*
X1246018Y545517D02*
X1244808Y545517D01*
X1248808Y548115D02*
X1248808Y540155D01*
X1248808Y548115D02*
X1250018Y548115D01*
X1250018Y540155D01*
X1248808Y540155D01*
X1248808Y542836D02*
X1250018Y542836D01*
X1250018Y545517D02*
X1248808Y545517D01*
X1252808Y548115D02*
X1252808Y540155D01*
X1252808Y548115D02*
X1254018Y548115D01*
X1254018Y540155D01*
X1252808Y540155D01*
X1252808Y542836D02*
X1254018Y542836D01*
X1254018Y545517D02*
X1252808Y545517D01*
X1256808Y548115D02*
X1256808Y540155D01*
X1256808Y548115D02*
X1258018Y548115D01*
X1258018Y540155D01*
X1256808Y540155D01*
X1256808Y542836D02*
X1258018Y542836D01*
X1258018Y545517D02*
X1256808Y545517D01*
X1262018Y548115D02*
X1262018Y540155D01*
X1260808Y540155D01*
X1260808Y548115D01*
X1262018Y548115D01*
X1262018Y542836D02*
X1260808Y542836D01*
X1260808Y545517D02*
X1262018Y545517D01*
X1265798Y551895D02*
X1273758Y551895D01*
X1265798Y551895D02*
X1265798Y553105D01*
X1273758Y553105D01*
X1273758Y551895D01*
X1273758Y555895D02*
X1265798Y555895D01*
X1265798Y557105D01*
X1273758Y557105D01*
X1273758Y555895D01*
X1273758Y559895D02*
X1265798Y559895D01*
X1265798Y561105D01*
X1273758Y561105D01*
X1273758Y559895D01*
X1273758Y563895D02*
X1265798Y563895D01*
X1265798Y565105D01*
X1273758Y565105D01*
X1273758Y563895D01*
X1273758Y567895D02*
X1265798Y567895D01*
X1265798Y569105D01*
X1273758Y569105D01*
X1273758Y567895D01*
X1273758Y571895D02*
X1265798Y571895D01*
X1265798Y573105D01*
X1273758Y573105D01*
X1273758Y571895D01*
X1273758Y577105D02*
X1265798Y577105D01*
X1273758Y577105D02*
X1273758Y575895D01*
X1265798Y575895D01*
X1265798Y577105D01*
X1265798Y579895D02*
X1273758Y579895D01*
X1265798Y579895D02*
X1265798Y581105D01*
X1273758Y581105D01*
X1273758Y579895D01*
X1273758Y583895D02*
X1265798Y583895D01*
X1265798Y585105D01*
X1273758Y585105D01*
X1273758Y583895D01*
X1273758Y587895D02*
X1265798Y587895D01*
X1265798Y589105D01*
X1273758Y589105D01*
X1273758Y587895D01*
X1273758Y591895D02*
X1265798Y591895D01*
X1265798Y593105D01*
X1273758Y593105D01*
X1273758Y591895D01*
X1273758Y595895D02*
X1265798Y595895D01*
X1265798Y597105D01*
X1273758Y597105D01*
X1273758Y595895D01*
X1273758Y599895D02*
X1265798Y599895D01*
X1265798Y601105D01*
X1273758Y601105D01*
X1273758Y599895D01*
X1273758Y605105D02*
X1265798Y605105D01*
X1273758Y605105D02*
X1273758Y603895D01*
X1265798Y603895D01*
X1265798Y605105D01*
X1262018Y608885D02*
X1262018Y616845D01*
X1262018Y608885D02*
X1260808Y608885D01*
X1260808Y616845D01*
X1262018Y616845D01*
X1262018Y611566D02*
X1260808Y611566D01*
X1260808Y614247D02*
X1262018Y614247D01*
X1258018Y616845D02*
X1258018Y608885D01*
X1256808Y608885D01*
X1256808Y616845D01*
X1258018Y616845D01*
X1258018Y611566D02*
X1256808Y611566D01*
X1256808Y614247D02*
X1258018Y614247D01*
X1254018Y616845D02*
X1254018Y608885D01*
X1252808Y608885D01*
X1252808Y616845D01*
X1254018Y616845D01*
X1254018Y611566D02*
X1252808Y611566D01*
X1252808Y614247D02*
X1254018Y614247D01*
X1250018Y616845D02*
X1250018Y608885D01*
X1248808Y608885D01*
X1248808Y616845D01*
X1250018Y616845D01*
X1250018Y611566D02*
X1248808Y611566D01*
X1248808Y614247D02*
X1250018Y614247D01*
X1246018Y616845D02*
X1246018Y608885D01*
X1244808Y608885D01*
X1244808Y616845D01*
X1246018Y616845D01*
X1246018Y611566D02*
X1244808Y611566D01*
X1244808Y614247D02*
X1246018Y614247D01*
X1242018Y616845D02*
X1242018Y608885D01*
X1240808Y608885D01*
X1240808Y616845D01*
X1242018Y616845D01*
X1242018Y611566D02*
X1240808Y611566D01*
X1240808Y614247D02*
X1242018Y614247D01*
X1236808Y616845D02*
X1236808Y608885D01*
X1236808Y616845D02*
X1238018Y616845D01*
X1238018Y608885D01*
X1236808Y608885D01*
X1236808Y611566D02*
X1238018Y611566D01*
X1238018Y614247D02*
X1236808Y614247D01*
X1234018Y616845D02*
X1234018Y608885D01*
X1232808Y608885D01*
X1232808Y616845D01*
X1234018Y616845D01*
X1234018Y611566D02*
X1232808Y611566D01*
X1232808Y614247D02*
X1234018Y614247D01*
X1230018Y616845D02*
X1230018Y608885D01*
X1228808Y608885D01*
X1228808Y616845D01*
X1230018Y616845D01*
X1230018Y611566D02*
X1228808Y611566D01*
X1228808Y614247D02*
X1230018Y614247D01*
X1226018Y616845D02*
X1226018Y608885D01*
X1224808Y608885D01*
X1224808Y616845D01*
X1226018Y616845D01*
X1226018Y611566D02*
X1224808Y611566D01*
X1224808Y614247D02*
X1226018Y614247D01*
X1222018Y616845D02*
X1222018Y608885D01*
X1220808Y608885D01*
X1220808Y616845D01*
X1222018Y616845D01*
X1222018Y611566D02*
X1220808Y611566D01*
X1220808Y614247D02*
X1222018Y614247D01*
X1218018Y616845D02*
X1218018Y608885D01*
X1216808Y608885D01*
X1216808Y616845D01*
X1218018Y616845D01*
X1218018Y611566D02*
X1216808Y611566D01*
X1216808Y614247D02*
X1218018Y614247D01*
X1214018Y616845D02*
X1214018Y608885D01*
X1212808Y608885D01*
X1212808Y616845D01*
X1214018Y616845D01*
X1214018Y611566D02*
X1212808Y611566D01*
X1212808Y614247D02*
X1214018Y614247D01*
X1208808Y616845D02*
X1208808Y608885D01*
X1208808Y616845D02*
X1210018Y616845D01*
X1210018Y608885D01*
X1208808Y608885D01*
X1208808Y611566D02*
X1210018Y611566D01*
X1210018Y614247D02*
X1208808Y614247D01*
X1205028Y605105D02*
X1197068Y605105D01*
X1205028Y605105D02*
X1205028Y603895D01*
X1197068Y603895D01*
X1197068Y605105D01*
X1197068Y601105D02*
X1205028Y601105D01*
X1205028Y599895D01*
X1197068Y599895D01*
X1197068Y601105D01*
X1197068Y597105D02*
X1205028Y597105D01*
X1205028Y595895D01*
X1197068Y595895D01*
X1197068Y597105D01*
X1197068Y593105D02*
X1205028Y593105D01*
X1205028Y591895D01*
X1197068Y591895D01*
X1197068Y593105D01*
X1197068Y589105D02*
X1205028Y589105D01*
X1205028Y587895D01*
X1197068Y587895D01*
X1197068Y589105D01*
X1197068Y585105D02*
X1205028Y585105D01*
X1205028Y583895D01*
X1197068Y583895D01*
X1197068Y585105D01*
X1197068Y579895D02*
X1205028Y579895D01*
X1197068Y579895D02*
X1197068Y581105D01*
X1205028Y581105D01*
X1205028Y579895D01*
X1205028Y577105D02*
X1197068Y577105D01*
X1205028Y577105D02*
X1205028Y575895D01*
X1197068Y575895D01*
X1197068Y577105D01*
X1197068Y573105D02*
X1205028Y573105D01*
X1205028Y571895D01*
X1197068Y571895D01*
X1197068Y573105D01*
X1197068Y569105D02*
X1205028Y569105D01*
X1205028Y567895D01*
X1197068Y567895D01*
X1197068Y569105D01*
X1197068Y565105D02*
X1205028Y565105D01*
X1205028Y563895D01*
X1197068Y563895D01*
X1197068Y565105D01*
X1197068Y561105D02*
X1205028Y561105D01*
X1205028Y559895D01*
X1197068Y559895D01*
X1197068Y561105D01*
X1197068Y557105D02*
X1205028Y557105D01*
X1205028Y555895D01*
X1197068Y555895D01*
X1197068Y557105D01*
X1197068Y551895D02*
X1205028Y551895D01*
X1197068Y551895D02*
X1197068Y553105D01*
X1205028Y553105D01*
X1205028Y551895D01*
D10*
X1295413Y583500D03*
X1295413Y573500D03*
X1245413Y533500D03*
X1245413Y523500D03*
X1205413Y533500D03*
X1205413Y523500D03*
D17*
X1322513Y569960D03*
X1322513Y586960D03*
X1308513Y586960D03*
X1308513Y569960D03*
D10*
X1545482Y598500D03*
X1535482Y598500D03*
X1545482Y558500D03*
X1535482Y558500D03*
D11*
X1545762Y491990D02*
X1545762Y485010D01*
X1545762Y491990D02*
X1552742Y491990D01*
X1552742Y485010D01*
X1545762Y485010D01*
X1545762Y489810D02*
X1552742Y489810D01*
X1528222Y491990D02*
X1528222Y485010D01*
X1528222Y491990D02*
X1535202Y491990D01*
X1535202Y485010D01*
X1528222Y485010D01*
X1528222Y489810D02*
X1535202Y489810D01*
D10*
X1515482Y488500D03*
X1505482Y488500D03*
D12*
X1560482Y648500D03*
X1360482Y488500D03*
D13*
X1367982Y685750D03*
X1372982Y685750D03*
X1377982Y685750D03*
X1382982Y685750D03*
X1387982Y685750D03*
X1392982Y685750D03*
X1397982Y685750D03*
X1402982Y685750D03*
X1407982Y685750D03*
X1412982Y685750D03*
X1417982Y685750D03*
X1422982Y685750D03*
X1447982Y685750D03*
X1452982Y685750D03*
X1457982Y685750D03*
X1462982Y685750D03*
X1467982Y685750D03*
X1472982Y685750D03*
X1477982Y685750D03*
X1482982Y685750D03*
X1487982Y685750D03*
X1492982Y685750D03*
X1497982Y685750D03*
X1502982Y685750D03*
X1507982Y685750D03*
X1512982Y685750D03*
X1517982Y685750D03*
X1522982Y685750D03*
X1527982Y685750D03*
X1532982Y685750D03*
X1537982Y685750D03*
X1542982Y685750D03*
X1547982Y685750D03*
X1552982Y685750D03*
D14*
X1441482Y488500D03*
X1399482Y488500D03*
X1420482Y501500D03*
D15*
X1433877Y540155D02*
X1433877Y548115D01*
X1435087Y548115D01*
X1435087Y540155D01*
X1433877Y540155D01*
X1433877Y542836D02*
X1435087Y542836D01*
X1435087Y545517D02*
X1433877Y545517D01*
X1437877Y548115D02*
X1437877Y540155D01*
X1437877Y548115D02*
X1439087Y548115D01*
X1439087Y540155D01*
X1437877Y540155D01*
X1437877Y542836D02*
X1439087Y542836D01*
X1439087Y545517D02*
X1437877Y545517D01*
X1441877Y548115D02*
X1441877Y540155D01*
X1441877Y548115D02*
X1443087Y548115D01*
X1443087Y540155D01*
X1441877Y540155D01*
X1441877Y542836D02*
X1443087Y542836D01*
X1443087Y545517D02*
X1441877Y545517D01*
X1445877Y548115D02*
X1445877Y540155D01*
X1445877Y548115D02*
X1447087Y548115D01*
X1447087Y540155D01*
X1445877Y540155D01*
X1445877Y542836D02*
X1447087Y542836D01*
X1447087Y545517D02*
X1445877Y545517D01*
X1449877Y548115D02*
X1449877Y540155D01*
X1449877Y548115D02*
X1451087Y548115D01*
X1451087Y540155D01*
X1449877Y540155D01*
X1449877Y542836D02*
X1451087Y542836D01*
X1451087Y545517D02*
X1449877Y545517D01*
X1453877Y548115D02*
X1453877Y540155D01*
X1453877Y548115D02*
X1455087Y548115D01*
X1455087Y540155D01*
X1453877Y540155D01*
X1453877Y542836D02*
X1455087Y542836D01*
X1455087Y545517D02*
X1453877Y545517D01*
X1459087Y548115D02*
X1459087Y540155D01*
X1457877Y540155D01*
X1457877Y548115D01*
X1459087Y548115D01*
X1459087Y542836D02*
X1457877Y542836D01*
X1457877Y545517D02*
X1459087Y545517D01*
D16*
X1460482Y578500D03*
D15*
X1461877Y548115D02*
X1461877Y540155D01*
X1461877Y548115D02*
X1463087Y548115D01*
X1463087Y540155D01*
X1461877Y540155D01*
X1461877Y542836D02*
X1463087Y542836D01*
X1463087Y545517D02*
X1461877Y545517D01*
X1465877Y548115D02*
X1465877Y540155D01*
X1465877Y548115D02*
X1467087Y548115D01*
X1467087Y540155D01*
X1465877Y540155D01*
X1465877Y542836D02*
X1467087Y542836D01*
X1467087Y545517D02*
X1465877Y545517D01*
X1469877Y548115D02*
X1469877Y540155D01*
X1469877Y548115D02*
X1471087Y548115D01*
X1471087Y540155D01*
X1469877Y540155D01*
X1469877Y542836D02*
X1471087Y542836D01*
X1471087Y545517D02*
X1469877Y545517D01*
X1473877Y548115D02*
X1473877Y540155D01*
X1473877Y548115D02*
X1475087Y548115D01*
X1475087Y540155D01*
X1473877Y540155D01*
X1473877Y542836D02*
X1475087Y542836D01*
X1475087Y545517D02*
X1473877Y545517D01*
X1477877Y548115D02*
X1477877Y540155D01*
X1477877Y548115D02*
X1479087Y548115D01*
X1479087Y540155D01*
X1477877Y540155D01*
X1477877Y542836D02*
X1479087Y542836D01*
X1479087Y545517D02*
X1477877Y545517D01*
X1481877Y548115D02*
X1481877Y540155D01*
X1481877Y548115D02*
X1483087Y548115D01*
X1483087Y540155D01*
X1481877Y540155D01*
X1481877Y542836D02*
X1483087Y542836D01*
X1483087Y545517D02*
X1481877Y545517D01*
X1487087Y548115D02*
X1487087Y540155D01*
X1485877Y540155D01*
X1485877Y548115D01*
X1487087Y548115D01*
X1487087Y542836D02*
X1485877Y542836D01*
X1485877Y545517D02*
X1487087Y545517D01*
X1490867Y551895D02*
X1498827Y551895D01*
X1490867Y551895D02*
X1490867Y553105D01*
X1498827Y553105D01*
X1498827Y551895D01*
X1498827Y555895D02*
X1490867Y555895D01*
X1490867Y557105D01*
X1498827Y557105D01*
X1498827Y555895D01*
X1498827Y559895D02*
X1490867Y559895D01*
X1490867Y561105D01*
X1498827Y561105D01*
X1498827Y559895D01*
X1498827Y563895D02*
X1490867Y563895D01*
X1490867Y565105D01*
X1498827Y565105D01*
X1498827Y563895D01*
X1498827Y567895D02*
X1490867Y567895D01*
X1490867Y569105D01*
X1498827Y569105D01*
X1498827Y567895D01*
X1498827Y571895D02*
X1490867Y571895D01*
X1490867Y573105D01*
X1498827Y573105D01*
X1498827Y571895D01*
X1498827Y577105D02*
X1490867Y577105D01*
X1498827Y577105D02*
X1498827Y575895D01*
X1490867Y575895D01*
X1490867Y577105D01*
X1490867Y579895D02*
X1498827Y579895D01*
X1490867Y579895D02*
X1490867Y581105D01*
X1498827Y581105D01*
X1498827Y579895D01*
X1498827Y583895D02*
X1490867Y583895D01*
X1490867Y585105D01*
X1498827Y585105D01*
X1498827Y583895D01*
X1498827Y587895D02*
X1490867Y587895D01*
X1490867Y589105D01*
X1498827Y589105D01*
X1498827Y587895D01*
X1498827Y591895D02*
X1490867Y591895D01*
X1490867Y593105D01*
X1498827Y593105D01*
X1498827Y591895D01*
X1498827Y595895D02*
X1490867Y595895D01*
X1490867Y597105D01*
X1498827Y597105D01*
X1498827Y595895D01*
X1498827Y599895D02*
X1490867Y599895D01*
X1490867Y601105D01*
X1498827Y601105D01*
X1498827Y599895D01*
X1498827Y605105D02*
X1490867Y605105D01*
X1498827Y605105D02*
X1498827Y603895D01*
X1490867Y603895D01*
X1490867Y605105D01*
X1487087Y608885D02*
X1487087Y616845D01*
X1487087Y608885D02*
X1485877Y608885D01*
X1485877Y616845D01*
X1487087Y616845D01*
X1487087Y611566D02*
X1485877Y611566D01*
X1485877Y614247D02*
X1487087Y614247D01*
X1483087Y616845D02*
X1483087Y608885D01*
X1481877Y608885D01*
X1481877Y616845D01*
X1483087Y616845D01*
X1483087Y611566D02*
X1481877Y611566D01*
X1481877Y614247D02*
X1483087Y614247D01*
X1479087Y616845D02*
X1479087Y608885D01*
X1477877Y608885D01*
X1477877Y616845D01*
X1479087Y616845D01*
X1479087Y611566D02*
X1477877Y611566D01*
X1477877Y614247D02*
X1479087Y614247D01*
X1475087Y616845D02*
X1475087Y608885D01*
X1473877Y608885D01*
X1473877Y616845D01*
X1475087Y616845D01*
X1475087Y611566D02*
X1473877Y611566D01*
X1473877Y614247D02*
X1475087Y614247D01*
X1471087Y616845D02*
X1471087Y608885D01*
X1469877Y608885D01*
X1469877Y616845D01*
X1471087Y616845D01*
X1471087Y611566D02*
X1469877Y611566D01*
X1469877Y614247D02*
X1471087Y614247D01*
X1467087Y616845D02*
X1467087Y608885D01*
X1465877Y608885D01*
X1465877Y616845D01*
X1467087Y616845D01*
X1467087Y611566D02*
X1465877Y611566D01*
X1465877Y614247D02*
X1467087Y614247D01*
X1461877Y616845D02*
X1461877Y608885D01*
X1461877Y616845D02*
X1463087Y616845D01*
X1463087Y608885D01*
X1461877Y608885D01*
X1461877Y611566D02*
X1463087Y611566D01*
X1463087Y614247D02*
X1461877Y614247D01*
X1459087Y616845D02*
X1459087Y608885D01*
X1457877Y608885D01*
X1457877Y616845D01*
X1459087Y616845D01*
X1459087Y611566D02*
X1457877Y611566D01*
X1457877Y614247D02*
X1459087Y614247D01*
X1455087Y616845D02*
X1455087Y608885D01*
X1453877Y608885D01*
X1453877Y616845D01*
X1455087Y616845D01*
X1455087Y611566D02*
X1453877Y611566D01*
X1453877Y614247D02*
X1455087Y614247D01*
X1451087Y616845D02*
X1451087Y608885D01*
X1449877Y608885D01*
X1449877Y616845D01*
X1451087Y616845D01*
X1451087Y611566D02*
X1449877Y611566D01*
X1449877Y614247D02*
X1451087Y614247D01*
X1447087Y616845D02*
X1447087Y608885D01*
X1445877Y608885D01*
X1445877Y616845D01*
X1447087Y616845D01*
X1447087Y611566D02*
X1445877Y611566D01*
X1445877Y614247D02*
X1447087Y614247D01*
X1443087Y616845D02*
X1443087Y608885D01*
X1441877Y608885D01*
X1441877Y616845D01*
X1443087Y616845D01*
X1443087Y611566D02*
X1441877Y611566D01*
X1441877Y614247D02*
X1443087Y614247D01*
X1439087Y616845D02*
X1439087Y608885D01*
X1437877Y608885D01*
X1437877Y616845D01*
X1439087Y616845D01*
X1439087Y611566D02*
X1437877Y611566D01*
X1437877Y614247D02*
X1439087Y614247D01*
X1433877Y616845D02*
X1433877Y608885D01*
X1433877Y616845D02*
X1435087Y616845D01*
X1435087Y608885D01*
X1433877Y608885D01*
X1433877Y611566D02*
X1435087Y611566D01*
X1435087Y614247D02*
X1433877Y614247D01*
X1430097Y605105D02*
X1422137Y605105D01*
X1430097Y605105D02*
X1430097Y603895D01*
X1422137Y603895D01*
X1422137Y605105D01*
X1422137Y601105D02*
X1430097Y601105D01*
X1430097Y599895D01*
X1422137Y599895D01*
X1422137Y601105D01*
X1422137Y597105D02*
X1430097Y597105D01*
X1430097Y595895D01*
X1422137Y595895D01*
X1422137Y597105D01*
X1422137Y593105D02*
X1430097Y593105D01*
X1430097Y591895D01*
X1422137Y591895D01*
X1422137Y593105D01*
X1422137Y589105D02*
X1430097Y589105D01*
X1430097Y587895D01*
X1422137Y587895D01*
X1422137Y589105D01*
X1422137Y585105D02*
X1430097Y585105D01*
X1430097Y583895D01*
X1422137Y583895D01*
X1422137Y585105D01*
X1422137Y579895D02*
X1430097Y579895D01*
X1422137Y579895D02*
X1422137Y581105D01*
X1430097Y581105D01*
X1430097Y579895D01*
X1430097Y577105D02*
X1422137Y577105D01*
X1430097Y577105D02*
X1430097Y575895D01*
X1422137Y575895D01*
X1422137Y577105D01*
X1422137Y573105D02*
X1430097Y573105D01*
X1430097Y571895D01*
X1422137Y571895D01*
X1422137Y573105D01*
X1422137Y569105D02*
X1430097Y569105D01*
X1430097Y567895D01*
X1422137Y567895D01*
X1422137Y569105D01*
X1422137Y565105D02*
X1430097Y565105D01*
X1430097Y563895D01*
X1422137Y563895D01*
X1422137Y565105D01*
X1422137Y561105D02*
X1430097Y561105D01*
X1430097Y559895D01*
X1422137Y559895D01*
X1422137Y561105D01*
X1422137Y557105D02*
X1430097Y557105D01*
X1430097Y555895D01*
X1422137Y555895D01*
X1422137Y557105D01*
X1422137Y551895D02*
X1430097Y551895D01*
X1422137Y551895D02*
X1422137Y553105D01*
X1430097Y553105D01*
X1430097Y551895D01*
D10*
X1520482Y583500D03*
X1520482Y573500D03*
X1470482Y533500D03*
X1470482Y523500D03*
X1430482Y533500D03*
X1430482Y523500D03*
D17*
X1547582Y569960D03*
X1547582Y586960D03*
X1533582Y586960D03*
X1533582Y569960D03*
D10*
X1770551Y598500D03*
X1760551Y598500D03*
X1770551Y558500D03*
X1760551Y558500D03*
D11*
X1770831Y491990D02*
X1770831Y485010D01*
X1770831Y491990D02*
X1777811Y491990D01*
X1777811Y485010D01*
X1770831Y485010D01*
X1770831Y489810D02*
X1777811Y489810D01*
X1753291Y491990D02*
X1753291Y485010D01*
X1753291Y491990D02*
X1760271Y491990D01*
X1760271Y485010D01*
X1753291Y485010D01*
X1753291Y489810D02*
X1760271Y489810D01*
D10*
X1740551Y488500D03*
X1730551Y488500D03*
D12*
X1785551Y648500D03*
X1585551Y488500D03*
D13*
X1593051Y685750D03*
X1598051Y685750D03*
X1603051Y685750D03*
X1608051Y685750D03*
X1613051Y685750D03*
X1618051Y685750D03*
X1623051Y685750D03*
X1628051Y685750D03*
X1633051Y685750D03*
X1638051Y685750D03*
X1643051Y685750D03*
X1648051Y685750D03*
X1673051Y685750D03*
X1678051Y685750D03*
X1683051Y685750D03*
X1688051Y685750D03*
X1693051Y685750D03*
X1698051Y685750D03*
X1703051Y685750D03*
X1708051Y685750D03*
X1713051Y685750D03*
X1718051Y685750D03*
X1723051Y685750D03*
X1728051Y685750D03*
X1733051Y685750D03*
X1738051Y685750D03*
X1743051Y685750D03*
X1748051Y685750D03*
X1753051Y685750D03*
X1758051Y685750D03*
X1763051Y685750D03*
X1768051Y685750D03*
X1773051Y685750D03*
X1778051Y685750D03*
D14*
X1666551Y488500D03*
X1624551Y488500D03*
X1645551Y501500D03*
D15*
X1658946Y540155D02*
X1658946Y548115D01*
X1660156Y548115D01*
X1660156Y540155D01*
X1658946Y540155D01*
X1658946Y542836D02*
X1660156Y542836D01*
X1660156Y545517D02*
X1658946Y545517D01*
X1662946Y548115D02*
X1662946Y540155D01*
X1662946Y548115D02*
X1664156Y548115D01*
X1664156Y540155D01*
X1662946Y540155D01*
X1662946Y542836D02*
X1664156Y542836D01*
X1664156Y545517D02*
X1662946Y545517D01*
X1666946Y548115D02*
X1666946Y540155D01*
X1666946Y548115D02*
X1668156Y548115D01*
X1668156Y540155D01*
X1666946Y540155D01*
X1666946Y542836D02*
X1668156Y542836D01*
X1668156Y545517D02*
X1666946Y545517D01*
X1670946Y548115D02*
X1670946Y540155D01*
X1670946Y548115D02*
X1672156Y548115D01*
X1672156Y540155D01*
X1670946Y540155D01*
X1670946Y542836D02*
X1672156Y542836D01*
X1672156Y545517D02*
X1670946Y545517D01*
X1674946Y548115D02*
X1674946Y540155D01*
X1674946Y548115D02*
X1676156Y548115D01*
X1676156Y540155D01*
X1674946Y540155D01*
X1674946Y542836D02*
X1676156Y542836D01*
X1676156Y545517D02*
X1674946Y545517D01*
X1678946Y548115D02*
X1678946Y540155D01*
X1678946Y548115D02*
X1680156Y548115D01*
X1680156Y540155D01*
X1678946Y540155D01*
X1678946Y542836D02*
X1680156Y542836D01*
X1680156Y545517D02*
X1678946Y545517D01*
X1684156Y548115D02*
X1684156Y540155D01*
X1682946Y540155D01*
X1682946Y548115D01*
X1684156Y548115D01*
X1684156Y542836D02*
X1682946Y542836D01*
X1682946Y545517D02*
X1684156Y545517D01*
D16*
X1685551Y578500D03*
D15*
X1686946Y548115D02*
X1686946Y540155D01*
X1686946Y548115D02*
X1688156Y548115D01*
X1688156Y540155D01*
X1686946Y540155D01*
X1686946Y542836D02*
X1688156Y542836D01*
X1688156Y545517D02*
X1686946Y545517D01*
X1690946Y548115D02*
X1690946Y540155D01*
X1690946Y548115D02*
X1692156Y548115D01*
X1692156Y540155D01*
X1690946Y540155D01*
X1690946Y542836D02*
X1692156Y542836D01*
X1692156Y545517D02*
X1690946Y545517D01*
X1694946Y548115D02*
X1694946Y540155D01*
X1694946Y548115D02*
X1696156Y548115D01*
X1696156Y540155D01*
X1694946Y540155D01*
X1694946Y542836D02*
X1696156Y542836D01*
X1696156Y545517D02*
X1694946Y545517D01*
X1698946Y548115D02*
X1698946Y540155D01*
X1698946Y548115D02*
X1700156Y548115D01*
X1700156Y540155D01*
X1698946Y540155D01*
X1698946Y542836D02*
X1700156Y542836D01*
X1700156Y545517D02*
X1698946Y545517D01*
X1702946Y548115D02*
X1702946Y540155D01*
X1702946Y548115D02*
X1704156Y548115D01*
X1704156Y540155D01*
X1702946Y540155D01*
X1702946Y542836D02*
X1704156Y542836D01*
X1704156Y545517D02*
X1702946Y545517D01*
X1706946Y548115D02*
X1706946Y540155D01*
X1706946Y548115D02*
X1708156Y548115D01*
X1708156Y540155D01*
X1706946Y540155D01*
X1706946Y542836D02*
X1708156Y542836D01*
X1708156Y545517D02*
X1706946Y545517D01*
X1712156Y548115D02*
X1712156Y540155D01*
X1710946Y540155D01*
X1710946Y548115D01*
X1712156Y548115D01*
X1712156Y542836D02*
X1710946Y542836D01*
X1710946Y545517D02*
X1712156Y545517D01*
X1715936Y551895D02*
X1723896Y551895D01*
X1715936Y551895D02*
X1715936Y553105D01*
X1723896Y553105D01*
X1723896Y551895D01*
X1723896Y555895D02*
X1715936Y555895D01*
X1715936Y557105D01*
X1723896Y557105D01*
X1723896Y555895D01*
X1723896Y559895D02*
X1715936Y559895D01*
X1715936Y561105D01*
X1723896Y561105D01*
X1723896Y559895D01*
X1723896Y563895D02*
X1715936Y563895D01*
X1715936Y565105D01*
X1723896Y565105D01*
X1723896Y563895D01*
X1723896Y567895D02*
X1715936Y567895D01*
X1715936Y569105D01*
X1723896Y569105D01*
X1723896Y567895D01*
X1723896Y571895D02*
X1715936Y571895D01*
X1715936Y573105D01*
X1723896Y573105D01*
X1723896Y571895D01*
X1723896Y577105D02*
X1715936Y577105D01*
X1723896Y577105D02*
X1723896Y575895D01*
X1715936Y575895D01*
X1715936Y577105D01*
X1715936Y579895D02*
X1723896Y579895D01*
X1715936Y579895D02*
X1715936Y581105D01*
X1723896Y581105D01*
X1723896Y579895D01*
X1723896Y583895D02*
X1715936Y583895D01*
X1715936Y585105D01*
X1723896Y585105D01*
X1723896Y583895D01*
X1723896Y587895D02*
X1715936Y587895D01*
X1715936Y589105D01*
X1723896Y589105D01*
X1723896Y587895D01*
X1723896Y591895D02*
X1715936Y591895D01*
X1715936Y593105D01*
X1723896Y593105D01*
X1723896Y591895D01*
X1723896Y595895D02*
X1715936Y595895D01*
X1715936Y597105D01*
X1723896Y597105D01*
X1723896Y595895D01*
X1723896Y599895D02*
X1715936Y599895D01*
X1715936Y601105D01*
X1723896Y601105D01*
X1723896Y599895D01*
X1723896Y605105D02*
X1715936Y605105D01*
X1723896Y605105D02*
X1723896Y603895D01*
X1715936Y603895D01*
X1715936Y605105D01*
X1712156Y608885D02*
X1712156Y616845D01*
X1712156Y608885D02*
X1710946Y608885D01*
X1710946Y616845D01*
X1712156Y616845D01*
X1712156Y611566D02*
X1710946Y611566D01*
X1710946Y614247D02*
X1712156Y614247D01*
X1708156Y616845D02*
X1708156Y608885D01*
X1706946Y608885D01*
X1706946Y616845D01*
X1708156Y616845D01*
X1708156Y611566D02*
X1706946Y611566D01*
X1706946Y614247D02*
X1708156Y614247D01*
X1704156Y616845D02*
X1704156Y608885D01*
X1702946Y608885D01*
X1702946Y616845D01*
X1704156Y616845D01*
X1704156Y611566D02*
X1702946Y611566D01*
X1702946Y614247D02*
X1704156Y614247D01*
X1700156Y616845D02*
X1700156Y608885D01*
X1698946Y608885D01*
X1698946Y616845D01*
X1700156Y616845D01*
X1700156Y611566D02*
X1698946Y611566D01*
X1698946Y614247D02*
X1700156Y614247D01*
X1696156Y616845D02*
X1696156Y608885D01*
X1694946Y608885D01*
X1694946Y616845D01*
X1696156Y616845D01*
X1696156Y611566D02*
X1694946Y611566D01*
X1694946Y614247D02*
X1696156Y614247D01*
X1692156Y616845D02*
X1692156Y608885D01*
X1690946Y608885D01*
X1690946Y616845D01*
X1692156Y616845D01*
X1692156Y611566D02*
X1690946Y611566D01*
X1690946Y614247D02*
X1692156Y614247D01*
X1686946Y616845D02*
X1686946Y608885D01*
X1686946Y616845D02*
X1688156Y616845D01*
X1688156Y608885D01*
X1686946Y608885D01*
X1686946Y611566D02*
X1688156Y611566D01*
X1688156Y614247D02*
X1686946Y614247D01*
X1684156Y616845D02*
X1684156Y608885D01*
X1682946Y608885D01*
X1682946Y616845D01*
X1684156Y616845D01*
X1684156Y611566D02*
X1682946Y611566D01*
X1682946Y614247D02*
X1684156Y614247D01*
X1680156Y616845D02*
X1680156Y608885D01*
X1678946Y608885D01*
X1678946Y616845D01*
X1680156Y616845D01*
X1680156Y611566D02*
X1678946Y611566D01*
X1678946Y614247D02*
X1680156Y614247D01*
X1676156Y616845D02*
X1676156Y608885D01*
X1674946Y608885D01*
X1674946Y616845D01*
X1676156Y616845D01*
X1676156Y611566D02*
X1674946Y611566D01*
X1674946Y614247D02*
X1676156Y614247D01*
X1672156Y616845D02*
X1672156Y608885D01*
X1670946Y608885D01*
X1670946Y616845D01*
X1672156Y616845D01*
X1672156Y611566D02*
X1670946Y611566D01*
X1670946Y614247D02*
X1672156Y614247D01*
X1668156Y616845D02*
X1668156Y608885D01*
X1666946Y608885D01*
X1666946Y616845D01*
X1668156Y616845D01*
X1668156Y611566D02*
X1666946Y611566D01*
X1666946Y614247D02*
X1668156Y614247D01*
X1664156Y616845D02*
X1664156Y608885D01*
X1662946Y608885D01*
X1662946Y616845D01*
X1664156Y616845D01*
X1664156Y611566D02*
X1662946Y611566D01*
X1662946Y614247D02*
X1664156Y614247D01*
X1658946Y616845D02*
X1658946Y608885D01*
X1658946Y616845D02*
X1660156Y616845D01*
X1660156Y608885D01*
X1658946Y608885D01*
X1658946Y611566D02*
X1660156Y611566D01*
X1660156Y614247D02*
X1658946Y614247D01*
X1655166Y605105D02*
X1647206Y605105D01*
X1655166Y605105D02*
X1655166Y603895D01*
X1647206Y603895D01*
X1647206Y605105D01*
X1647206Y601105D02*
X1655166Y601105D01*
X1655166Y599895D01*
X1647206Y599895D01*
X1647206Y601105D01*
X1647206Y597105D02*
X1655166Y597105D01*
X1655166Y595895D01*
X1647206Y595895D01*
X1647206Y597105D01*
X1647206Y593105D02*
X1655166Y593105D01*
X1655166Y591895D01*
X1647206Y591895D01*
X1647206Y593105D01*
X1647206Y589105D02*
X1655166Y589105D01*
X1655166Y587895D01*
X1647206Y587895D01*
X1647206Y589105D01*
X1647206Y585105D02*
X1655166Y585105D01*
X1655166Y583895D01*
X1647206Y583895D01*
X1647206Y585105D01*
X1647206Y579895D02*
X1655166Y579895D01*
X1647206Y579895D02*
X1647206Y581105D01*
X1655166Y581105D01*
X1655166Y579895D01*
X1655166Y577105D02*
X1647206Y577105D01*
X1655166Y577105D02*
X1655166Y575895D01*
X1647206Y575895D01*
X1647206Y577105D01*
X1647206Y573105D02*
X1655166Y573105D01*
X1655166Y571895D01*
X1647206Y571895D01*
X1647206Y573105D01*
X1647206Y569105D02*
X1655166Y569105D01*
X1655166Y567895D01*
X1647206Y567895D01*
X1647206Y569105D01*
X1647206Y565105D02*
X1655166Y565105D01*
X1655166Y563895D01*
X1647206Y563895D01*
X1647206Y565105D01*
X1647206Y561105D02*
X1655166Y561105D01*
X1655166Y559895D01*
X1647206Y559895D01*
X1647206Y561105D01*
X1647206Y557105D02*
X1655166Y557105D01*
X1655166Y555895D01*
X1647206Y555895D01*
X1647206Y557105D01*
X1647206Y551895D02*
X1655166Y551895D01*
X1647206Y551895D02*
X1647206Y553105D01*
X1655166Y553105D01*
X1655166Y551895D01*
D10*
X1745551Y583500D03*
X1745551Y573500D03*
X1695551Y533500D03*
X1695551Y523500D03*
X1655551Y533500D03*
X1655551Y523500D03*
D17*
X1772651Y569960D03*
X1772651Y586960D03*
X1758651Y586960D03*
X1758651Y569960D03*
D18*
X-26238Y635000D03*
X1821815Y635000D03*
D19*
X-35293Y63500D02*
X-35290Y63722D01*
X-35282Y63944D01*
X-35268Y64166D01*
X-35249Y64388D01*
X-35225Y64608D01*
X-35195Y64829D01*
X-35160Y65048D01*
X-35119Y65267D01*
X-35073Y65484D01*
X-35022Y65700D01*
X-34965Y65915D01*
X-34903Y66129D01*
X-34836Y66340D01*
X-34764Y66551D01*
X-34686Y66759D01*
X-34604Y66965D01*
X-34516Y67169D01*
X-34424Y67372D01*
X-34326Y67571D01*
X-34224Y67768D01*
X-34117Y67963D01*
X-34005Y68155D01*
X-33888Y68344D01*
X-33767Y68531D01*
X-33641Y68714D01*
X-33511Y68894D01*
X-33376Y69071D01*
X-33238Y69244D01*
X-33095Y69414D01*
X-32947Y69581D01*
X-32796Y69744D01*
X-32641Y69903D01*
X-32482Y70058D01*
X-32319Y70209D01*
X-32152Y70357D01*
X-31982Y70500D01*
X-31809Y70638D01*
X-31632Y70773D01*
X-31452Y70903D01*
X-31269Y71029D01*
X-31082Y71150D01*
X-30893Y71267D01*
X-30701Y71379D01*
X-30506Y71486D01*
X-30309Y71588D01*
X-30110Y71686D01*
X-29907Y71778D01*
X-29703Y71866D01*
X-29497Y71948D01*
X-29289Y72026D01*
X-29078Y72098D01*
X-28867Y72165D01*
X-28653Y72227D01*
X-28438Y72284D01*
X-28222Y72335D01*
X-28005Y72381D01*
X-27786Y72422D01*
X-27567Y72457D01*
X-27346Y72487D01*
X-27126Y72511D01*
X-26904Y72530D01*
X-26682Y72544D01*
X-26460Y72552D01*
X-26238Y72555D01*
X-26016Y72552D01*
X-25794Y72544D01*
X-25572Y72530D01*
X-25350Y72511D01*
X-25130Y72487D01*
X-24909Y72457D01*
X-24690Y72422D01*
X-24471Y72381D01*
X-24254Y72335D01*
X-24038Y72284D01*
X-23823Y72227D01*
X-23609Y72165D01*
X-23398Y72098D01*
X-23187Y72026D01*
X-22979Y71948D01*
X-22773Y71866D01*
X-22569Y71778D01*
X-22366Y71686D01*
X-22167Y71588D01*
X-21970Y71486D01*
X-21775Y71379D01*
X-21583Y71267D01*
X-21394Y71150D01*
X-21207Y71029D01*
X-21024Y70903D01*
X-20844Y70773D01*
X-20667Y70638D01*
X-20494Y70500D01*
X-20324Y70357D01*
X-20157Y70209D01*
X-19994Y70058D01*
X-19835Y69903D01*
X-19680Y69744D01*
X-19529Y69581D01*
X-19381Y69414D01*
X-19238Y69244D01*
X-19100Y69071D01*
X-18965Y68894D01*
X-18835Y68714D01*
X-18709Y68531D01*
X-18588Y68344D01*
X-18471Y68155D01*
X-18359Y67963D01*
X-18252Y67768D01*
X-18150Y67571D01*
X-18052Y67372D01*
X-17960Y67169D01*
X-17872Y66965D01*
X-17790Y66759D01*
X-17712Y66551D01*
X-17640Y66340D01*
X-17573Y66129D01*
X-17511Y65915D01*
X-17454Y65700D01*
X-17403Y65484D01*
X-17357Y65267D01*
X-17316Y65048D01*
X-17281Y64829D01*
X-17251Y64608D01*
X-17227Y64388D01*
X-17208Y64166D01*
X-17194Y63944D01*
X-17186Y63722D01*
X-17183Y63500D01*
X-17186Y63278D01*
X-17194Y63056D01*
X-17208Y62834D01*
X-17227Y62612D01*
X-17251Y62392D01*
X-17281Y62171D01*
X-17316Y61952D01*
X-17357Y61733D01*
X-17403Y61516D01*
X-17454Y61300D01*
X-17511Y61085D01*
X-17573Y60871D01*
X-17640Y60660D01*
X-17712Y60449D01*
X-17790Y60241D01*
X-17872Y60035D01*
X-17960Y59831D01*
X-18052Y59628D01*
X-18150Y59429D01*
X-18252Y59232D01*
X-18359Y59037D01*
X-18471Y58845D01*
X-18588Y58656D01*
X-18709Y58469D01*
X-18835Y58286D01*
X-18965Y58106D01*
X-19100Y57929D01*
X-19238Y57756D01*
X-19381Y57586D01*
X-19529Y57419D01*
X-19680Y57256D01*
X-19835Y57097D01*
X-19994Y56942D01*
X-20157Y56791D01*
X-20324Y56643D01*
X-20494Y56500D01*
X-20667Y56362D01*
X-20844Y56227D01*
X-21024Y56097D01*
X-21207Y55971D01*
X-21394Y55850D01*
X-21583Y55733D01*
X-21775Y55621D01*
X-21970Y55514D01*
X-22167Y55412D01*
X-22366Y55314D01*
X-22569Y55222D01*
X-22773Y55134D01*
X-22979Y55052D01*
X-23187Y54974D01*
X-23398Y54902D01*
X-23609Y54835D01*
X-23823Y54773D01*
X-24038Y54716D01*
X-24254Y54665D01*
X-24471Y54619D01*
X-24690Y54578D01*
X-24909Y54543D01*
X-25130Y54513D01*
X-25350Y54489D01*
X-25572Y54470D01*
X-25794Y54456D01*
X-26016Y54448D01*
X-26238Y54445D01*
X-26460Y54448D01*
X-26682Y54456D01*
X-26904Y54470D01*
X-27126Y54489D01*
X-27346Y54513D01*
X-27567Y54543D01*
X-27786Y54578D01*
X-28005Y54619D01*
X-28222Y54665D01*
X-28438Y54716D01*
X-28653Y54773D01*
X-28867Y54835D01*
X-29078Y54902D01*
X-29289Y54974D01*
X-29497Y55052D01*
X-29703Y55134D01*
X-29907Y55222D01*
X-30110Y55314D01*
X-30309Y55412D01*
X-30506Y55514D01*
X-30701Y55621D01*
X-30893Y55733D01*
X-31082Y55850D01*
X-31269Y55971D01*
X-31452Y56097D01*
X-31632Y56227D01*
X-31809Y56362D01*
X-31982Y56500D01*
X-32152Y56643D01*
X-32319Y56791D01*
X-32482Y56942D01*
X-32641Y57097D01*
X-32796Y57256D01*
X-32947Y57419D01*
X-33095Y57586D01*
X-33238Y57756D01*
X-33376Y57929D01*
X-33511Y58106D01*
X-33641Y58286D01*
X-33767Y58469D01*
X-33888Y58656D01*
X-34005Y58845D01*
X-34117Y59037D01*
X-34224Y59232D01*
X-34326Y59429D01*
X-34424Y59628D01*
X-34516Y59831D01*
X-34604Y60035D01*
X-34686Y60241D01*
X-34764Y60449D01*
X-34836Y60660D01*
X-34903Y60871D01*
X-34965Y61085D01*
X-35022Y61300D01*
X-35073Y61516D01*
X-35119Y61733D01*
X-35160Y61952D01*
X-35195Y62171D01*
X-35225Y62392D01*
X-35249Y62612D01*
X-35268Y62834D01*
X-35282Y63056D01*
X-35290Y63278D01*
X-35293Y63500D01*
D20*
X-26238Y63500D03*
M02*
