M48
;GenerationSoftware,Autodesk,EAGLE,9.6.2*%
;CreationDate,2020-11-25T19:20:08Z*%
FMAT,2
ICI,OFF
METRIC,TZ,000.000
T1C0.200
%
G90
M71
T1
X20500Y2600
X18473Y3365
X16800Y6400
X17100Y9000
X18600Y6700
X17100Y10000
X20632Y12255
X16700Y16600
X14700Y17500
X7300Y17900
X6600Y13000
X14300Y6800
X9700Y13300
X12200Y13100
X12300Y10700
X9700Y10700
X11000Y12000
X1600Y10000
X1700Y14000
X4800Y10700
X17500Y14800
X17100Y13000
X11800Y3700
X9300Y3000
X1500Y2500
X10000Y18100
X9700Y12000
X12300Y12000
X11000Y10800
X11000Y13300
X20200Y6000
X19000Y4397
X6000Y10200
X19000Y10000
X18300Y16300
X6000Y16300
X18021Y4797
X14800Y6041
X6341Y6512
X15300Y6400
X5841Y6900
X7000Y4500
X5800Y4200
X5900Y13800
X5613Y4700
X12859Y16941
X15700Y17100
X15673Y5005
X17002Y5404
X9541Y18100
X16963Y18400
X17128Y4959
X17417Y18300
X11241Y18700
X17455Y4597
X17759Y18659
X11600Y19000
X4200Y14900
X4300Y6700
X4759Y13899
X4459Y7300
X9200Y19300
X3000Y19300
X2500Y4600
X15332Y5400
X13200Y4500
X8441Y3982
X12000Y7800
X11759Y7300
X19800Y19000
X10759Y19041
X18556Y3997
X16095Y5278
X15761Y17861
X10459Y18334
X12500Y5600
X1200Y6200
X1200Y14200
X6700Y8700
X10200Y9800
X11541Y7754
X11500Y21000
X4800Y3000
X7600Y21000
X8459Y18559
X4000Y18800
X3841Y6400
X7700Y3800
X6441Y8264
X3459Y7900
X8800Y18900
X3500Y18900
X2941Y4783
X6800Y3470
X8055Y6445
X4965Y4000
X5141Y6500
X12038Y17620
X7400Y17200
X7800Y4700
X16800Y4200
X12000Y17100
X8000Y17233
X7855Y2955
X17400Y3443
X19209Y10600
X19000Y13100
X7117Y3904
X5817Y5929
X6758Y9249
X7871Y8171
X8383Y7750
X6758Y9779
X13600Y7800
X13600Y9800
X15207Y12700
X9983Y7792
X5000Y16200
X15500Y9000
X18500Y5300
X16800Y14800
X15214Y14700
X1632Y3148
X20091Y3048
X9100Y14700
X8400Y12000
X9200Y14100
X12982Y11900
X12878Y13000
X13700Y12500
X13275Y10683
X13600Y11000
X8400Y11400
X15500Y10000
X13300Y11446
X13600Y9341
X9954Y14000
X10500Y13900
X13200Y17300
X16500Y17500
X16473Y5578
X11241Y2978
X10746Y9900
X19000Y8600
X11240Y3560
X11200Y9800
X18500Y9659
X18572Y13290
X21200Y14000
X12859Y7000
X3500Y7000
X3568Y3378
X43007Y2600
X40980Y3365
X39307Y6400
X39607Y9000
X41107Y6700
X39607Y10000
X43139Y12255
X39207Y16600
X37207Y17500
X29807Y17900
X29107Y13000
X36807Y6800
X32207Y13300
X34707Y13100
X34807Y10700
X32207Y10700
X33507Y12000
X24107Y10000
X24207Y14000
X27307Y10700
X40007Y14800
X39607Y13000
X34307Y3700
X31807Y3000
X24007Y2500
X32507Y18100
X32207Y12000
X34807Y12000
X33507Y10800
X33507Y13300
X42707Y6000
X41507Y4397
X28507Y10200
X41507Y10000
X40807Y16300
X28507Y16300
X40528Y4797
X37307Y6041
X28848Y6512
X37807Y6400
X28348Y6900
X29507Y4500
X28307Y4200
X28407Y13800
X28120Y4700
X35366Y16941
X38207Y17100
X38180Y5005
X39508Y5404
X32048Y18100
X39470Y18400
X39635Y4959
X39924Y18300
X33748Y18700
X39962Y4597
X40266Y18659
X34107Y19000
X26707Y14900
X26807Y6700
X27266Y13899
X26966Y7300
X31707Y19300
X25507Y19300
X25007Y4600
X37839Y5400
X35707Y4500
X30948Y3982
X34507Y7800
X34266Y7300
X42307Y19000
X33266Y19041
X41063Y3997
X38602Y5278
X38268Y17861
X32966Y18334
X35007Y5600
X23707Y6200
X23707Y14200
X29207Y8700
X32707Y9800
X34048Y7754
X34007Y21000
X27307Y3000
X30107Y21000
X30966Y18559
X26507Y18800
X26348Y6400
X30207Y3800
X28948Y8264
X25966Y7900
X31307Y18900
X26007Y18900
X25448Y4783
X29307Y3470
X30562Y6445
X27472Y4000
X27648Y6500
X34545Y17620
X29907Y17200
X30307Y4700
X39307Y4200
X34507Y17100
X30507Y17233
X30362Y2955
X39907Y3443
X41716Y10600
X41507Y13100
X29624Y3904
X28324Y5929
X29265Y9249
X30378Y8171
X30889Y7750
X29265Y9779
X36107Y7800
X36107Y9800
X37714Y12700
X32489Y7792
X27507Y16200
X38007Y9000
X41007Y5300
X39307Y14800
X37721Y14700
X24139Y3148
X42598Y3048
X31607Y14700
X30907Y12000
X31707Y14100
X35489Y11900
X35385Y13000
X36207Y12500
X35782Y10683
X36107Y11000
X30907Y11400
X38007Y10000
X35807Y11446
X36107Y9341
X32461Y14000
X33007Y13900
X35707Y17300
X39007Y17500
X38980Y5578
X33748Y2978
X33253Y9900
X41507Y8600
X33747Y3560
X33707Y9800
X41007Y9659
X41079Y13290
X43707Y14000
X35366Y7000
X26007Y7000
X26075Y3378
X65516Y2600
X63489Y3365
X61816Y6400
X62116Y9000
X63616Y6700
X62116Y10000
X65648Y12255
X61716Y16600
X59716Y17500
X52316Y17900
X51616Y13000
X59316Y6800
X54716Y13300
X57216Y13100
X57316Y10700
X54716Y10700
X56016Y12000
X46616Y10000
X46716Y14000
X49816Y10700
X62516Y14800
X62116Y13000
X56816Y3700
X54316Y3000
X46516Y2500
X55016Y18100
X54716Y12000
X57316Y12000
X56016Y10800
X56016Y13300
X65216Y6000
X64016Y4397
X51016Y10200
X64016Y10000
X63316Y16300
X51016Y16300
X63038Y4797
X59816Y6041
X51358Y6512
X60316Y6400
X50858Y6900
X52016Y4500
X50816Y4200
X50916Y13800
X50629Y4700
X57875Y16941
X60716Y17100
X60689Y5005
X62018Y5404
X54558Y18100
X61980Y18400
X62144Y4959
X62434Y18300
X56258Y18700
X62471Y4597
X62775Y18659
X56616Y19000
X49216Y14900
X49316Y6700
X49775Y13899
X49475Y7300
X54216Y19300
X48016Y19300
X47516Y4600
X60348Y5400
X58216Y4500
X53458Y3982
X57016Y7800
X56775Y7300
X64816Y19000
X55775Y19041
X63573Y3997
X61112Y5278
X60777Y17861
X55475Y18334
X57516Y5600
X46216Y6200
X46216Y14200
X51716Y8700
X55216Y9800
X56558Y7754
X56516Y21000
X49816Y3000
X52616Y21000
X53475Y18559
X49016Y18800
X48858Y6400
X52716Y3800
X51458Y8264
X48475Y7900
X53816Y18900
X48516Y18900
X47958Y4783
X51816Y3470
X53071Y6445
X49981Y4000
X50158Y6500
X57054Y17620
X52416Y17200
X52816Y4700
X61816Y4200
X57016Y17100
X53016Y17233
X52871Y2955
X62416Y3443
X64225Y10600
X64016Y13100
X52134Y3904
X50834Y5929
X51774Y9249
X52887Y8171
X53399Y7750
X51774Y9779
X58616Y7800
X58616Y9800
X60224Y12700
X54999Y7792
X50016Y16200
X60516Y9000
X63516Y5300
X61816Y14800
X60231Y14700
X46649Y3148
X65108Y3048
X54116Y14700
X53416Y12000
X54216Y14100
X57999Y11900
X57894Y13000
X58716Y12500
X58292Y10683
X58616Y11000
X53416Y11400
X60516Y10000
X58316Y11446
X58616Y9341
X54970Y14000
X55516Y13900
X58216Y17300
X61516Y17500
X61489Y5578
X56258Y2978
X55762Y9900
X64016Y8600
X56257Y3560
X56216Y9800
X63516Y9659
X63589Y13290
X66216Y14000
X57875Y7000
X48516Y7000
X48585Y3378
X88023Y2600
X85996Y3365
X84323Y6400
X84623Y9000
X86123Y6700
X84623Y10000
X88155Y12255
X84223Y16600
X82223Y17500
X74823Y17900
X74123Y13000
X81823Y6800
X77223Y13300
X79723Y13100
X79823Y10700
X77223Y10700
X78523Y12000
X69123Y10000
X69223Y14000
X72323Y10700
X85023Y14800
X84623Y13000
X79323Y3700
X76823Y3000
X69023Y2500
X77523Y18100
X77223Y12000
X79823Y12000
X78523Y10800
X78523Y13300
X87723Y6000
X86523Y4397
X73523Y10200
X86523Y10000
X85823Y16300
X73523Y16300
X85545Y4797
X82323Y6041
X73865Y6512
X82823Y6400
X73365Y6900
X74523Y4500
X73323Y4200
X73423Y13800
X73136Y4700
X80382Y16941
X83223Y17100
X83196Y5005
X84525Y5404
X77065Y18100
X84487Y18400
X84651Y4959
X84941Y18300
X78765Y18700
X84978Y4597
X85282Y18659
X79123Y19000
X71723Y14900
X71823Y6700
X72282Y13899
X71982Y7300
X76723Y19300
X70523Y19300
X70023Y4600
X82855Y5400
X80723Y4500
X75965Y3982
X79523Y7800
X79282Y7300
X87323Y19000
X78282Y19041
X86080Y3997
X83619Y5278
X83284Y17861
X77982Y18334
X80023Y5600
X68723Y6200
X68723Y14200
X74223Y8700
X77723Y9800
X79065Y7754
X79023Y21000
X72323Y3000
X75123Y21000
X75982Y18559
X71523Y18800
X71365Y6400
X75223Y3800
X73965Y8264
X70982Y7900
X76323Y18900
X71023Y18900
X70465Y4783
X74323Y3470
X75578Y6445
X72488Y4000
X72665Y6500
X79561Y17620
X74923Y17200
X75323Y4700
X84323Y4200
X79523Y17100
X75523Y17233
X75378Y2955
X84923Y3443
X86732Y10600
X86523Y13100
X74641Y3904
X73341Y5929
X74281Y9249
X75394Y8171
X75906Y7750
X74281Y9779
X81123Y7800
X81123Y9800
X82730Y12700
X77506Y7792
X72523Y16200
X83023Y9000
X86023Y5300
X84323Y14800
X82738Y14700
X69156Y3148
X87615Y3048
X76623Y14700
X75923Y12000
X76723Y14100
X80506Y11900
X80401Y13000
X81223Y12500
X80799Y10683
X81123Y11000
X75923Y11400
X83023Y10000
X80823Y11446
X81123Y9341
X77477Y14000
X78023Y13900
X80723Y17300
X84023Y17500
X83996Y5578
X78765Y2978
X78269Y9900
X86523Y8600
X78764Y3560
X78723Y9800
X86023Y9659
X86096Y13290
X88723Y14000
X80382Y7000
X71023Y7000
X71092Y3378
X110533Y2600
X108506Y3365
X106833Y6400
X107133Y9000
X108633Y6700
X107133Y10000
X110665Y12255
X106733Y16600
X104733Y17500
X97333Y17900
X96633Y13000
X104333Y6800
X99733Y13300
X102233Y13100
X102333Y10700
X99733Y10700
X101033Y12000
X91633Y10000
X91733Y14000
X94833Y10700
X107533Y14800
X107133Y13000
X101833Y3700
X99333Y3000
X91533Y2500
X100033Y18100
X99733Y12000
X102333Y12000
X101033Y10800
X101033Y13300
X110233Y6000
X109033Y4397
X96033Y10200
X109033Y10000
X108333Y16300
X96033Y16300
X108054Y4797
X104833Y6041
X96374Y6512
X105333Y6400
X95874Y6900
X97033Y4500
X95833Y4200
X95933Y13800
X95646Y4700
X102892Y16941
X105733Y17100
X105706Y5005
X107034Y5404
X99574Y18100
X106996Y18400
X107161Y4959
X107450Y18300
X101274Y18700
X107488Y4597
X107792Y18659
X101633Y19000
X94233Y14900
X94333Y6700
X94792Y13899
X94492Y7300
X99233Y19300
X93033Y19300
X92533Y4600
X105365Y5400
X103233Y4500
X98474Y3982
X102033Y7800
X101792Y7300
X109833Y19000
X100792Y19041
X108589Y3997
X106128Y5278
X105794Y17861
X100492Y18334
X102533Y5600
X91233Y6200
X91233Y14200
X96733Y8700
X100233Y9800
X101574Y7754
X101533Y21000
X94833Y3000
X97633Y21000
X98492Y18559
X94033Y18800
X93874Y6400
X97733Y3800
X96474Y8264
X93492Y7900
X98833Y18900
X93533Y18900
X92974Y4783
X96833Y3470
X98088Y6445
X94998Y4000
X95174Y6500
X102070Y17620
X97433Y17200
X97833Y4700
X106833Y4200
X102033Y17100
X98033Y17233
X97888Y2955
X107433Y3443
X109242Y10600
X109033Y13100
X97150Y3904
X95850Y5929
X96791Y9249
X97904Y8171
X98415Y7750
X96791Y9779
X103633Y7800
X103633Y9800
X105240Y12700
X100015Y7792
X95033Y16200
X105533Y9000
X108533Y5300
X106833Y14800
X105247Y14700
X91665Y3148
X110124Y3048
X99133Y14700
X98433Y12000
X99233Y14100
X103015Y11900
X102911Y13000
X103733Y12500
X103308Y10683
X103633Y11000
X98433Y11400
X105533Y10000
X103333Y11446
X103633Y9341
X99987Y14000
X100533Y13900
X103233Y17300
X106533Y17500
X106506Y5578
X101274Y2978
X100779Y9900
X109033Y8600
X101273Y3560
X101233Y9800
X108533Y9659
X108605Y13290
X111233Y14000
X102892Y7000
X93533Y7000
X93601Y3378
X133040Y2600
X131013Y3365
X129340Y6400
X129640Y9000
X131140Y6700
X129640Y10000
X133172Y12255
X129240Y16600
X127240Y17500
X119840Y17900
X119140Y13000
X126840Y6800
X122240Y13300
X124740Y13100
X124840Y10700
X122240Y10700
X123540Y12000
X114140Y10000
X114240Y14000
X117340Y10700
X130040Y14800
X129640Y13000
X124340Y3700
X121840Y3000
X114040Y2500
X122540Y18100
X122240Y12000
X124840Y12000
X123540Y10800
X123540Y13300
X132740Y6000
X131540Y4397
X118540Y10200
X131540Y10000
X130840Y16300
X118540Y16300
X130561Y4797
X127340Y6041
X118881Y6512
X127840Y6400
X118381Y6900
X119540Y4500
X118340Y4200
X118440Y13800
X118152Y4700
X125398Y16941
X128240Y17100
X128213Y5005
X129541Y5404
X122081Y18100
X129503Y18400
X129667Y4959
X129957Y18300
X123781Y18700
X129994Y4597
X130298Y18659
X124140Y19000
X116740Y14900
X116840Y6700
X117298Y13899
X116998Y7300
X121740Y19300
X115540Y19300
X115040Y4600
X127871Y5400
X125740Y4500
X120981Y3982
X124540Y7800
X124298Y7300
X132340Y19000
X123298Y19041
X131096Y3997
X128635Y5278
X128300Y17861
X122998Y18334
X125040Y5600
X113740Y6200
X113740Y14200
X119240Y8700
X122740Y9800
X124081Y7754
X124040Y21000
X117340Y3000
X120140Y21000
X120998Y18559
X116540Y18800
X116381Y6400
X120240Y3800
X118981Y8264
X115998Y7900
X121340Y18900
X116040Y18900
X115481Y4783
X119340Y3470
X120595Y6445
X117505Y4000
X117681Y6500
X124577Y17620
X119940Y17200
X120340Y4700
X129340Y4200
X124540Y17100
X120540Y17233
X120395Y2955
X129940Y3443
X131748Y10600
X131540Y13100
X119657Y3904
X118357Y5929
X119298Y9249
X120411Y8171
X120922Y7750
X119298Y9779
X126140Y7800
X126140Y9800
X127747Y12700
X122522Y7792
X117540Y16200
X128040Y9000
X131040Y5300
X129340Y14800
X127754Y14700
X114172Y3148
X132631Y3048
X121640Y14700
X120940Y12000
X121740Y14100
X125522Y11900
X125417Y13000
X126240Y12500
X125815Y10683
X126140Y11000
X120940Y11400
X128040Y10000
X125840Y11446
X126140Y9341
X122494Y14000
X123040Y13900
X125740Y17300
X129040Y17500
X129013Y5578
X123781Y2978
X123286Y9900
X131540Y8600
X123780Y3560
X123740Y9800
X131040Y9659
X131112Y13290
X133740Y14000
X125398Y7000
X116040Y7000
X116108Y3378
X155549Y2600
X153522Y3365
X151849Y6400
X152149Y9000
X153649Y6700
X152149Y10000
X155681Y12255
X151749Y16600
X149749Y17500
X142349Y17900
X141649Y13000
X149349Y6800
X144749Y13300
X147249Y13100
X147349Y10700
X144749Y10700
X146049Y12000
X136649Y10000
X136749Y14000
X139849Y10700
X152549Y14800
X152149Y13000
X146849Y3700
X144349Y3000
X136549Y2500
X145049Y18100
X144749Y12000
X147349Y12000
X146049Y10800
X146049Y13300
X155249Y6000
X154049Y4397
X141049Y10200
X154049Y10000
X153349Y16300
X141049Y16300
X153071Y4797
X149849Y6041
X141391Y6512
X150349Y6400
X140891Y6900
X142049Y4500
X140849Y4200
X140949Y13800
X140662Y4700
X147908Y16941
X150749Y17100
X150722Y5005
X152051Y5404
X144591Y18100
X152013Y18400
X152177Y4959
X152467Y18300
X146291Y18700
X152504Y4597
X152808Y18659
X146649Y19000
X139249Y14900
X139349Y6700
X139808Y13899
X139508Y7300
X144249Y19300
X138049Y19300
X137549Y4600
X150381Y5400
X148249Y4500
X143491Y3982
X147049Y7800
X146808Y7300
X154849Y19000
X145808Y19041
X153606Y3997
X151145Y5278
X150810Y17861
X145508Y18334
X147549Y5600
X136249Y6200
X136249Y14200
X141749Y8700
X145249Y9800
X146591Y7754
X146549Y21000
X139849Y3000
X142649Y21000
X143508Y18559
X139049Y18800
X138891Y6400
X142749Y3800
X141491Y8264
X138508Y7900
X143849Y18900
X138549Y18900
X137991Y4783
X141849Y3470
X143104Y6445
X140014Y4000
X140190Y6500
X147087Y17620
X142449Y17200
X142849Y4700
X151849Y4200
X147049Y17100
X143049Y17233
X142904Y2955
X152449Y3443
X154258Y10600
X154049Y13100
X142167Y3904
X140867Y5929
X141807Y9249
X142920Y8171
X143432Y7750
X141807Y9779
X148649Y7800
X148649Y9800
X150256Y12700
X145032Y7792
X140049Y16200
X150549Y9000
X153549Y5300
X151849Y14800
X150264Y14700
X136682Y3148
X155141Y3048
X144149Y14700
X143449Y12000
X144249Y14100
X148032Y11900
X147927Y13000
X148749Y12500
X148325Y10683
X148649Y11000
X143449Y11400
X150549Y10000
X148349Y11446
X148649Y9341
X145003Y14000
X145549Y13900
X148249Y17300
X151549Y17500
X151522Y5578
X146291Y2978
X145795Y9900
X154049Y8600
X146290Y3560
X146249Y9800
X153549Y9659
X153621Y13290
X156249Y14000
X147908Y7000
X138549Y7000
X138617Y3378
X178056Y2600
X176029Y3365
X174356Y6400
X174656Y9000
X176156Y6700
X174656Y10000
X178188Y12255
X174256Y16600
X172256Y17500
X164856Y17900
X164156Y13000
X171856Y6800
X167256Y13300
X169756Y13100
X169856Y10700
X167256Y10700
X168556Y12000
X159156Y10000
X159256Y14000
X162356Y10700
X175056Y14800
X174656Y13000
X169356Y3700
X166856Y3000
X159056Y2500
X167556Y18100
X167256Y12000
X169856Y12000
X168556Y10800
X168556Y13300
X177756Y6000
X176556Y4397
X163556Y10200
X176556Y10000
X175856Y16300
X163556Y16300
X175578Y4797
X172356Y6041
X163898Y6512
X172856Y6400
X163398Y6900
X164556Y4500
X163356Y4200
X163456Y13800
X163169Y4700
X170415Y16941
X173256Y17100
X173229Y5005
X174558Y5404
X167098Y18100
X174520Y18400
X174684Y4959
X174974Y18300
X168798Y18700
X175011Y4597
X175315Y18659
X169156Y19000
X161756Y14900
X161856Y6700
X162315Y13899
X162015Y7300
X166756Y19300
X160556Y19300
X160056Y4600
X172888Y5400
X170756Y4500
X165998Y3982
X169556Y7800
X169315Y7300
X177356Y19000
X168315Y19041
X176113Y3997
X173652Y5278
X173317Y17861
X168015Y18334
X170056Y5600
X158756Y6200
X158756Y14200
X164256Y8700
X167756Y9800
X169098Y7754
X169056Y21000
X162356Y3000
X165156Y21000
X166015Y18559
X161556Y18800
X161398Y6400
X165256Y3800
X163998Y8264
X161015Y7900
X166356Y18900
X161056Y18900
X160498Y4783
X164356Y3470
X165611Y6445
X162521Y4000
X162697Y6500
X169594Y17620
X164956Y17200
X165356Y4700
X174356Y4200
X169556Y17100
X165556Y17233
X165411Y2955
X174956Y3443
X176765Y10600
X176556Y13100
X164674Y3904
X163374Y5929
X164314Y9249
X165427Y8171
X165939Y7750
X164314Y9779
X171156Y7800
X171156Y9800
X172763Y12700
X167539Y7792
X162556Y16200
X173056Y9000
X176056Y5300
X174356Y14800
X172771Y14700
X159189Y3148
X177647Y3048
X166656Y14700
X165956Y12000
X166756Y14100
X170539Y11900
X170434Y13000
X171256Y12500
X170832Y10683
X171156Y11000
X165956Y11400
X173056Y10000
X170856Y11446
X171156Y9341
X167510Y14000
X168056Y13900
X170756Y17300
X174056Y17500
X174029Y5578
X168798Y2978
X168302Y9900
X176556Y8600
X168797Y3560
X168756Y9800
X176056Y9659
X176128Y13290
X178756Y14000
X170415Y7000
X161056Y7000
X161124Y3378
X1499Y67250
X3526Y66485
X5199Y63450
X4899Y60850
X3399Y63150
X4899Y59850
X1367Y57595
X5299Y53250
X7299Y52350
X14699Y51950
X15399Y56850
X7699Y63050
X12299Y56550
X9799Y56750
X9699Y59150
X12299Y59150
X10999Y57850
X20399Y59850
X20299Y55850
X17199Y59150
X4499Y55050
X4899Y56850
X10199Y66150
X12699Y66850
X20499Y67350
X11999Y51750
X12299Y57850
X9699Y57850
X10999Y59050
X10999Y56550
X1799Y63850
X2999Y65453
X15999Y59650
X2999Y59850
X3699Y53550
X15999Y53550
X3978Y65053
X7199Y63809
X15658Y63338
X6699Y63450
X16158Y62950
X14999Y65350
X16199Y65650
X16099Y56050
X16386Y65150
X9140Y52909
X6299Y52750
X6326Y64845
X4997Y64446
X12458Y51750
X5036Y51450
X4871Y64891
X4582Y51550
X10758Y51150
X4544Y65253
X4240Y51191
X10399Y50850
X17799Y54950
X17699Y63150
X17240Y55951
X17540Y62550
X12799Y50550
X18999Y50550
X19499Y65250
X6667Y64450
X8799Y65350
X13558Y65868
X9999Y62050
X10240Y62550
X2199Y50850
X11240Y50809
X3443Y65853
X5904Y64572
X6238Y51989
X11540Y51516
X9499Y64250
X20799Y63650
X20799Y55650
X15299Y61150
X11799Y60050
X10458Y62096
X10499Y48850
X17199Y66850
X14399Y48850
X13540Y51291
X17999Y51050
X18158Y63450
X14299Y66050
X15558Y61586
X18540Y61950
X13199Y50950
X18499Y50950
X19058Y65067
X15199Y66380
X13944Y63405
X17034Y65850
X16858Y63350
X9961Y52230
X14599Y52650
X14199Y65150
X5199Y65650
X9999Y52750
X13999Y52617
X14144Y66895
X4599Y66407
X2790Y59250
X2999Y56750
X14881Y65946
X16181Y63921
X15241Y60601
X14128Y61679
X13616Y62100
X15241Y60071
X8399Y62050
X8399Y60050
X6792Y57150
X12016Y62058
X16999Y53650
X6499Y60850
X3499Y64550
X5199Y55050
X6785Y55150
X20366Y66702
X1908Y66802
X12899Y55150
X13599Y57850
X12799Y55750
X9016Y57950
X9121Y56850
X8299Y57350
X8724Y59167
X8399Y58850
X13599Y58450
X6499Y59850
X8699Y58404
X8399Y60509
X12045Y55850
X11499Y55950
X8799Y52550
X5499Y52350
X5526Y64272
X10758Y66872
X11253Y59950
X2999Y61250
X10759Y66290
X10799Y60050
X3499Y60191
X3427Y56560
X799Y55850
X9140Y62850
X18499Y62850
X18431Y66472
X24008Y67250
X26035Y66485
X27708Y63450
X27408Y60850
X25908Y63150
X27408Y59850
X23876Y57595
X27808Y53250
X29808Y52350
X37208Y51950
X37908Y56850
X30208Y63050
X34808Y56550
X32308Y56750
X32208Y59150
X34808Y59150
X33508Y57850
X42908Y59850
X42808Y55850
X39708Y59150
X27008Y55050
X27408Y56850
X32708Y66150
X35208Y66850
X43008Y67350
X34508Y51750
X34808Y57850
X32208Y57850
X33508Y59050
X33508Y56550
X24308Y63850
X25508Y65453
X38508Y59650
X25508Y59850
X26208Y53550
X38508Y53550
X26487Y65053
X29708Y63809
X38167Y63338
X29208Y63450
X38667Y62950
X37508Y65350
X38708Y65650
X38608Y56050
X38896Y65150
X31650Y52909
X28808Y52750
X28835Y64845
X27507Y64446
X34967Y51750
X27545Y51450
X27381Y64891
X27091Y51550
X33267Y51150
X27054Y65253
X26750Y51191
X32908Y50850
X40308Y54950
X40208Y63150
X39750Y55951
X40050Y62550
X35308Y50550
X41508Y50550
X42008Y65250
X29177Y64450
X31308Y65350
X36067Y65868
X32508Y62050
X32750Y62550
X24708Y50850
X33750Y50809
X25952Y65853
X28413Y64572
X28748Y51989
X34050Y51516
X32008Y64250
X43308Y63650
X43308Y55650
X37808Y61150
X34308Y60050
X32967Y62096
X33008Y48850
X39708Y66850
X36908Y48850
X36050Y51291
X40508Y51050
X40667Y63450
X36808Y66050
X38067Y61586
X41050Y61950
X35708Y50950
X41008Y50950
X41567Y65067
X37708Y66380
X36454Y63405
X39543Y65850
X39367Y63350
X32471Y52230
X37108Y52650
X36708Y65150
X27708Y65650
X32508Y52750
X36508Y52617
X36654Y66895
X27108Y66407
X25300Y59250
X25508Y56750
X37391Y65946
X38691Y63921
X37750Y60601
X36638Y61679
X36126Y62100
X37750Y60071
X30908Y62050
X30908Y60050
X29301Y57150
X34526Y62058
X39508Y53650
X29008Y60850
X26008Y64550
X27708Y55050
X29294Y55150
X42876Y66702
X24417Y66802
X35408Y55150
X36108Y57850
X35308Y55750
X31526Y57950
X31631Y56850
X30808Y57350
X31233Y59167
X30908Y58850
X36108Y58450
X29008Y59850
X31208Y58404
X30908Y60509
X34554Y55850
X34008Y55950
X31308Y52550
X28008Y52350
X28035Y64272
X33267Y66872
X33762Y59950
X25508Y61250
X33268Y66290
X33308Y60050
X26008Y60191
X25936Y56560
X23308Y55850
X31650Y62850
X41008Y62850
X40940Y66472
X46515Y67250
X48542Y66485
X50215Y63450
X49915Y60850
X48415Y63150
X49915Y59850
X46383Y57595
X50315Y53250
X52315Y52350
X59715Y51950
X60415Y56850
X52715Y63050
X57315Y56550
X54815Y56750
X54715Y59150
X57315Y59150
X56015Y57850
X65415Y59850
X65315Y55850
X62215Y59150
X49515Y55050
X49915Y56850
X55215Y66150
X57715Y66850
X65515Y67350
X57015Y51750
X57315Y57850
X54715Y57850
X56015Y59050
X56015Y56550
X46815Y63850
X48015Y65453
X61015Y59650
X48015Y59850
X48715Y53550
X61015Y53550
X48994Y65053
X52215Y63809
X60674Y63338
X51715Y63450
X61174Y62950
X60015Y65350
X61215Y65650
X61115Y56050
X61403Y65150
X54157Y52909
X51315Y52750
X51342Y64845
X50014Y64446
X57474Y51750
X50052Y51450
X49888Y64891
X49598Y51550
X55774Y51150
X49561Y65253
X49257Y51191
X55415Y50850
X62815Y54950
X62715Y63150
X62257Y55951
X62557Y62550
X57815Y50550
X64015Y50550
X64515Y65250
X51684Y64450
X53815Y65350
X58574Y65868
X55015Y62050
X55257Y62550
X47215Y50850
X56257Y50809
X48459Y65853
X50920Y64572
X51255Y51989
X56557Y51516
X54515Y64250
X65815Y63650
X65815Y55650
X60315Y61150
X56815Y60050
X55474Y62096
X55515Y48850
X62215Y66850
X59415Y48850
X58557Y51291
X63015Y51050
X63174Y63450
X59315Y66050
X60574Y61586
X63557Y61950
X58215Y50950
X63515Y50950
X64074Y65067
X60215Y66380
X58961Y63405
X62050Y65850
X61874Y63350
X54978Y52230
X59615Y52650
X59215Y65150
X50215Y65650
X55015Y52750
X59015Y52617
X59161Y66895
X49615Y66407
X47807Y59250
X48015Y56750
X59898Y65946
X61198Y63921
X60257Y60601
X59144Y61679
X58633Y62100
X60257Y60071
X53415Y62050
X53415Y60050
X51808Y57150
X57033Y62058
X62015Y53650
X51515Y60850
X48515Y64550
X50215Y55050
X51801Y55150
X65383Y66702
X46924Y66802
X57915Y55150
X58615Y57850
X57815Y55750
X54033Y57950
X54138Y56850
X53315Y57350
X53740Y59167
X53415Y58850
X58615Y58450
X51515Y59850
X53715Y58404
X53415Y60509
X57061Y55850
X56515Y55950
X53815Y52550
X50515Y52350
X50542Y64272
X55774Y66872
X56269Y59950
X48015Y61250
X55775Y66290
X55815Y60050
X48515Y60191
X48443Y56560
X45815Y55850
X54157Y62850
X63515Y62850
X63447Y66472
X69025Y67250
X71052Y66485
X72725Y63450
X72425Y60850
X70925Y63150
X72425Y59850
X68893Y57595
X72825Y53250
X74825Y52350
X82225Y51950
X82925Y56850
X75225Y63050
X79825Y56550
X77325Y56750
X77225Y59150
X79825Y59150
X78525Y57850
X87925Y59850
X87825Y55850
X84725Y59150
X72025Y55050
X72425Y56850
X77725Y66150
X80225Y66850
X88025Y67350
X79525Y51750
X79825Y57850
X77225Y57850
X78525Y59050
X78525Y56550
X69325Y63850
X70525Y65453
X83525Y59650
X70525Y59850
X71225Y53550
X83525Y53550
X71503Y65053
X74725Y63809
X83184Y63338
X74225Y63450
X83684Y62950
X82525Y65350
X83725Y65650
X83625Y56050
X83912Y65150
X76666Y52909
X73825Y52750
X73852Y64845
X72523Y64446
X79984Y51750
X72561Y51450
X72397Y64891
X72107Y51550
X78284Y51150
X72070Y65253
X71766Y51191
X77925Y50850
X85325Y54950
X85225Y63150
X84766Y55951
X85066Y62550
X80325Y50550
X86525Y50550
X87025Y65250
X74193Y64450
X76325Y65350
X81084Y65868
X77525Y62050
X77766Y62550
X69725Y50850
X78766Y50809
X70968Y65853
X73430Y64572
X73764Y51989
X79066Y51516
X77025Y64250
X88325Y63650
X88325Y55650
X82825Y61150
X79325Y60050
X77984Y62096
X78025Y48850
X84725Y66850
X81925Y48850
X81066Y51291
X85525Y51050
X85684Y63450
X81825Y66050
X83084Y61586
X86066Y61950
X80725Y50950
X86025Y50950
X86584Y65067
X82725Y66380
X81470Y63405
X84560Y65850
X84384Y63350
X77487Y52230
X82125Y52650
X81725Y65150
X72725Y65650
X77525Y52750
X81525Y52617
X81670Y66895
X72125Y66407
X70316Y59250
X70525Y56750
X82407Y65946
X83707Y63921
X82767Y60601
X81654Y61679
X81142Y62100
X82767Y60071
X75925Y62050
X75925Y60050
X74318Y57150
X79542Y62058
X84525Y53650
X74025Y60850
X71025Y64550
X72725Y55050
X74311Y55150
X87892Y66702
X69434Y66802
X80425Y55150
X81125Y57850
X80325Y55750
X76542Y57950
X76647Y56850
X75825Y57350
X76249Y59167
X75925Y58850
X81125Y58450
X74025Y59850
X76225Y58404
X75925Y60509
X79571Y55850
X79025Y55950
X76325Y52550
X73025Y52350
X73052Y64272
X78284Y66872
X78779Y59950
X70525Y61250
X78284Y66290
X78325Y60050
X71025Y60191
X70953Y56560
X68325Y55850
X76666Y62850
X86025Y62850
X85957Y66472
X91532Y67250
X93559Y66485
X95232Y63450
X94932Y60850
X93432Y63150
X94932Y59850
X91400Y57595
X95332Y53250
X97332Y52350
X104732Y51950
X105432Y56850
X97732Y63050
X102332Y56550
X99832Y56750
X99732Y59150
X102332Y59150
X101032Y57850
X110432Y59850
X110332Y55850
X107232Y59150
X94532Y55050
X94932Y56850
X100232Y66150
X102732Y66850
X110532Y67350
X102032Y51750
X102332Y57850
X99732Y57850
X101032Y59050
X101032Y56550
X91832Y63850
X93032Y65453
X106032Y59650
X93032Y59850
X93732Y53550
X106032Y53550
X94010Y65053
X97232Y63809
X105690Y63338
X96732Y63450
X106190Y62950
X105032Y65350
X106232Y65650
X106132Y56050
X106419Y65150
X99173Y52909
X96332Y52750
X96359Y64845
X95030Y64446
X102490Y51750
X95068Y51450
X94904Y64891
X94614Y51550
X100790Y51150
X94577Y65253
X94273Y51191
X100432Y50850
X107832Y54950
X107732Y63150
X107273Y55951
X107573Y62550
X102832Y50550
X109032Y50550
X109532Y65250
X96700Y64450
X98832Y65350
X103590Y65868
X100032Y62050
X100273Y62550
X92232Y50850
X101273Y50809
X93475Y65853
X95936Y64572
X96271Y51989
X101573Y51516
X99532Y64250
X110832Y63650
X110832Y55650
X105332Y61150
X101832Y60050
X100490Y62096
X100532Y48850
X107232Y66850
X104432Y48850
X103573Y51291
X108032Y51050
X108190Y63450
X104332Y66050
X105590Y61586
X108573Y61950
X103232Y50950
X108532Y50950
X109090Y65067
X105232Y66380
X103977Y63405
X107067Y65850
X106891Y63350
X99994Y52230
X104632Y52650
X104232Y65150
X95232Y65650
X100032Y52750
X104032Y52617
X104177Y66895
X94632Y66407
X92823Y59250
X93032Y56750
X104914Y65946
X106214Y63921
X105274Y60601
X104161Y61679
X103649Y62100
X105274Y60071
X98432Y62050
X98432Y60050
X96825Y57150
X102049Y62058
X107032Y53650
X96532Y60850
X93532Y64550
X95232Y55050
X96817Y55150
X110399Y66702
X91940Y66802
X102932Y55150
X103632Y57850
X102832Y55750
X99049Y57950
X99154Y56850
X98332Y57350
X98756Y59167
X98432Y58850
X103632Y58450
X96532Y59850
X98732Y58404
X98432Y60509
X102078Y55850
X101532Y55950
X98832Y52550
X95532Y52350
X95559Y64272
X100790Y66872
X101286Y59950
X93032Y61250
X100791Y66290
X100832Y60050
X93532Y60191
X93460Y56560
X90832Y55850
X99173Y62850
X108532Y62850
X108464Y66472
X114041Y67250
X116068Y66485
X117741Y63450
X117441Y60850
X115941Y63150
X117441Y59850
X113909Y57595
X117841Y53250
X119841Y52350
X127241Y51950
X127941Y56850
X120241Y63050
X124841Y56550
X122341Y56750
X122241Y59150
X124841Y59150
X123541Y57850
X132941Y59850
X132841Y55850
X129741Y59150
X117041Y55050
X117441Y56850
X122741Y66150
X125241Y66850
X133041Y67350
X124541Y51750
X124841Y57850
X122241Y57850
X123541Y59050
X123541Y56550
X114341Y63850
X115541Y65453
X128541Y59650
X115541Y59850
X116241Y53550
X128541Y53550
X116520Y65053
X119741Y63809
X128200Y63338
X119241Y63450
X128700Y62950
X127541Y65350
X128741Y65650
X128641Y56050
X128929Y65150
X121683Y52909
X118841Y52750
X118868Y64845
X117540Y64446
X125000Y51750
X117578Y51450
X117414Y64891
X117124Y51550
X123300Y51150
X117087Y65253
X116783Y51191
X122941Y50850
X130341Y54950
X130241Y63150
X129783Y55951
X130083Y62550
X125341Y50550
X131541Y50550
X132041Y65250
X119210Y64450
X121341Y65350
X126100Y65868
X122541Y62050
X122783Y62550
X114741Y50850
X123783Y50809
X115985Y65853
X118446Y64572
X118781Y51989
X124083Y51516
X122041Y64250
X133341Y63650
X133341Y55650
X127841Y61150
X124341Y60050
X123000Y62096
X123041Y48850
X129741Y66850
X126941Y48850
X126083Y51291
X130541Y51050
X130700Y63450
X126841Y66050
X128100Y61586
X131083Y61950
X125741Y50950
X131041Y50950
X131600Y65067
X127741Y66380
X126486Y63405
X129576Y65850
X129400Y63350
X122504Y52230
X127141Y52650
X126741Y65150
X117741Y65650
X122541Y52750
X126541Y52617
X126686Y66895
X117141Y66407
X115333Y59250
X115541Y56750
X127424Y65946
X128724Y63921
X127783Y60601
X126670Y61679
X126159Y62100
X127783Y60071
X120941Y62050
X120941Y60050
X119334Y57150
X124559Y62058
X129541Y53650
X119041Y60850
X116041Y64550
X117741Y55050
X119327Y55150
X132909Y66702
X114450Y66802
X125441Y55150
X126141Y57850
X125341Y55750
X121559Y57950
X121664Y56850
X120841Y57350
X121266Y59167
X120941Y58850
X126141Y58450
X119041Y59850
X121241Y58404
X120941Y60509
X124587Y55850
X124041Y55950
X121341Y52550
X118041Y52350
X118068Y64272
X123300Y66872
X123795Y59950
X115541Y61250
X123301Y66290
X123341Y60050
X116041Y60191
X115969Y56560
X113341Y55850
X121683Y62850
X131041Y62850
X130973Y66472
X136548Y67250
X138575Y66485
X140248Y63450
X139948Y60850
X138448Y63150
X139948Y59850
X136416Y57595
X140348Y53250
X142348Y52350
X149748Y51950
X150448Y56850
X142748Y63050
X147348Y56550
X144848Y56750
X144748Y59150
X147348Y59150
X146048Y57850
X155448Y59850
X155348Y55850
X152248Y59150
X139548Y55050
X139948Y56850
X145248Y66150
X147748Y66850
X155548Y67350
X147048Y51750
X147348Y57850
X144748Y57850
X146048Y59050
X146048Y56550
X136848Y63850
X138048Y65453
X151048Y59650
X138048Y59850
X138748Y53550
X151048Y53550
X139027Y65053
X142248Y63809
X150707Y63338
X141748Y63450
X151207Y62950
X150048Y65350
X151248Y65650
X151148Y56050
X151436Y65150
X144190Y52909
X141348Y52750
X141375Y64845
X140047Y64446
X147507Y51750
X140085Y51450
X139921Y64891
X139631Y51550
X145807Y51150
X139594Y65253
X139290Y51191
X145448Y50850
X152848Y54950
X152748Y63150
X152290Y55951
X152590Y62550
X147848Y50550
X154048Y50550
X154548Y65250
X141717Y64450
X143848Y65350
X148607Y65868
X145048Y62050
X145290Y62550
X137248Y50850
X146290Y50809
X138492Y65853
X140953Y64572
X141288Y51989
X146590Y51516
X144548Y64250
X155848Y63650
X155848Y55650
X150348Y61150
X146848Y60050
X145507Y62096
X145548Y48850
X152248Y66850
X149448Y48850
X148590Y51291
X153048Y51050
X153207Y63450
X149348Y66050
X150607Y61586
X153590Y61950
X148248Y50950
X153548Y50950
X154107Y65067
X150248Y66380
X148993Y63405
X152083Y65850
X151907Y63350
X145011Y52230
X149648Y52650
X149248Y65150
X140248Y65650
X145048Y52750
X149048Y52617
X149193Y66895
X139648Y66407
X137840Y59250
X138048Y56750
X149931Y65946
X151231Y63921
X150290Y60601
X149177Y61679
X148666Y62100
X150290Y60071
X143448Y62050
X143448Y60050
X141841Y57150
X147066Y62058
X152048Y53650
X141548Y60850
X138548Y64550
X140248Y55050
X141834Y55150
X155416Y66702
X136957Y66802
X147948Y55150
X148648Y57850
X147848Y55750
X144066Y57950
X144171Y56850
X143348Y57350
X143773Y59167
X143448Y58850
X148648Y58450
X141548Y59850
X143748Y58404
X143448Y60509
X147094Y55850
X146548Y55950
X143848Y52550
X140548Y52350
X140575Y64272
X145807Y66872
X146302Y59950
X138048Y61250
X145808Y66290
X145848Y60050
X138548Y60191
X138476Y56560
X135848Y55850
X144190Y62850
X153548Y62850
X153480Y66472
X159055Y67250
X161082Y66485
X162755Y63450
X162455Y60850
X160955Y63150
X162455Y59850
X158923Y57595
X162855Y53250
X164855Y52350
X172255Y51950
X172955Y56850
X165255Y63050
X169855Y56550
X167355Y56750
X167255Y59150
X169855Y59150
X168555Y57850
X177955Y59850
X177855Y55850
X174755Y59150
X162055Y55050
X162455Y56850
X167755Y66150
X170255Y66850
X178055Y67350
X169555Y51750
X169855Y57850
X167255Y57850
X168555Y59050
X168555Y56550
X159355Y63850
X160555Y65453
X173555Y59650
X160555Y59850
X161255Y53550
X173555Y53550
X161534Y65053
X164755Y63809
X173214Y63338
X164255Y63450
X173714Y62950
X172555Y65350
X173755Y65650
X173655Y56050
X173942Y65150
X166696Y52909
X163855Y52750
X163882Y64845
X162554Y64446
X170014Y51750
X162592Y51450
X162427Y64891
X162138Y51550
X168314Y51150
X162100Y65253
X161796Y51191
X167955Y50850
X175355Y54950
X175255Y63150
X174796Y55951
X175096Y62550
X170355Y50550
X176555Y50550
X177055Y65250
X164223Y64450
X166355Y65350
X171114Y65868
X167555Y62050
X167796Y62550
X159755Y50850
X168796Y50809
X160999Y65853
X163460Y64572
X163794Y51989
X169096Y51516
X167055Y64250
X178355Y63650
X178355Y55650
X172855Y61150
X169355Y60050
X168014Y62096
X168055Y48850
X174755Y66850
X171955Y48850
X171096Y51291
X175555Y51050
X175714Y63450
X171855Y66050
X173114Y61586
X176096Y61950
X170755Y50950
X176055Y50950
X176614Y65067
X172755Y66380
X171500Y63405
X174590Y65850
X174414Y63350
X167518Y52230
X172155Y52650
X171755Y65150
X162755Y65650
X167555Y52750
X171555Y52617
X171700Y66895
X162155Y66407
X160346Y59250
X160555Y56750
X172438Y65946
X173738Y63921
X172797Y60601
X171684Y61679
X171173Y62100
X172797Y60071
X165955Y62050
X165955Y60050
X164348Y57150
X169573Y62058
X174555Y53650
X164055Y60850
X161055Y64550
X162755Y55050
X164341Y55150
X177923Y66702
X159464Y66802
X170455Y55150
X171155Y57850
X170355Y55750
X166573Y57950
X166677Y56850
X165855Y57350
X166280Y59167
X165955Y58850
X171155Y58450
X164055Y59850
X166255Y58404
X165955Y60509
X169601Y55850
X169055Y55950
X166355Y52550
X163055Y52350
X163082Y64272
X168314Y66872
X168809Y59950
X160555Y61250
X168315Y66290
X168355Y60050
X161055Y60191
X160983Y56560
X158355Y55850
X166696Y62850
X176055Y62850
X175987Y66472
X12900Y21000
X17100Y21000
X15000Y19700
X35407Y21000
X39607Y21000
X37507Y19700
X57916Y21000
X62116Y21000
X60016Y19700
X80423Y21000
X84623Y21000
X82523Y19700
X102933Y21000
X107133Y21000
X105033Y19700
X125440Y21000
X129640Y21000
X127540Y19700
X147949Y21000
X152149Y21000
X150049Y19700
X170456Y21000
X174656Y21000
X172556Y19700
X9099Y48850
X4899Y48850
X6999Y50150
X31608Y48850
X27408Y48850
X29508Y50150
X54115Y48850
X49915Y48850
X52015Y50150
X76625Y48850
X72425Y48850
X74525Y50150
X99132Y48850
X94932Y48850
X97032Y50150
X121641Y48850
X117441Y48850
X119541Y50150
X144148Y48850
X139948Y48850
X142048Y50150
X166655Y48850
X162455Y48850
X164555Y50150
M30