G04 EAGLE Gerber RS-274X export*
G75*
%MOMM*%
%FSLAX34Y34*%
%LPD*%
%INSoldermask Bottom*%
%IPPOS*%
%AMOC8*
5,1,8,0,0,1.08239X$1,22.5*%
G01*
%ADD10C,0.838200*%
%ADD11R,0.553200X2.153200*%
%ADD12C,0.555600*%
%ADD13R,0.803200X0.803200*%
%ADD14R,1.053200X0.703200*%
%ADD15R,0.400000X1.100000*%
%ADD16C,1.203200*%
%ADD17C,1.270000*%
%ADD18C,1.703200*%

G36*
X1729493Y192531D02*
X1729493Y192531D01*
X1729503Y192535D01*
X1729529Y192536D01*
X1733363Y193370D01*
X1733371Y193375D01*
X1733397Y193380D01*
X1737073Y194752D01*
X1737081Y194757D01*
X1737105Y194766D01*
X1740549Y196647D01*
X1740556Y196654D01*
X1740579Y196666D01*
X1743720Y199017D01*
X1743726Y199025D01*
X1743747Y199041D01*
X1746521Y201815D01*
X1746526Y201824D01*
X1746545Y201842D01*
X1748896Y204983D01*
X1748899Y204992D01*
X1748915Y205013D01*
X1750796Y208457D01*
X1750798Y208466D01*
X1750810Y208489D01*
X1752182Y212165D01*
X1752182Y212175D01*
X1752192Y212199D01*
X1753026Y216033D01*
X1753025Y216043D01*
X1753031Y216069D01*
X1753311Y219982D01*
X1753305Y220008D01*
X1753309Y220033D01*
X1753291Y220075D01*
X1753281Y220119D01*
X1753263Y220137D01*
X1753252Y220161D01*
X1753214Y220186D01*
X1753183Y220218D01*
X1753157Y220224D01*
X1753136Y220238D01*
X1753062Y220249D01*
X1743062Y220249D01*
X1743055Y220247D01*
X1743048Y220249D01*
X1742989Y220228D01*
X1742928Y220210D01*
X1742923Y220205D01*
X1742916Y220202D01*
X1742878Y220152D01*
X1742836Y220105D01*
X1742835Y220098D01*
X1742830Y220092D01*
X1742814Y220020D01*
X1742600Y217302D01*
X1741968Y214669D01*
X1740932Y212169D01*
X1739518Y209861D01*
X1737760Y207802D01*
X1735701Y206044D01*
X1733393Y204630D01*
X1730893Y203594D01*
X1728260Y202962D01*
X1725562Y202750D01*
X1722864Y202962D01*
X1720231Y203594D01*
X1717731Y204630D01*
X1715423Y206044D01*
X1713364Y207802D01*
X1713311Y207865D01*
X1712885Y208364D01*
X1712672Y208613D01*
X1712459Y208862D01*
X1712246Y209112D01*
X1711821Y209610D01*
X1711820Y209610D01*
X1711608Y209859D01*
X1711606Y209861D01*
X1710192Y212169D01*
X1709156Y214669D01*
X1708524Y217302D01*
X1708310Y220020D01*
X1708308Y220026D01*
X1708309Y220033D01*
X1708283Y220091D01*
X1708261Y220150D01*
X1708255Y220155D01*
X1708252Y220161D01*
X1708199Y220196D01*
X1708149Y220234D01*
X1708142Y220234D01*
X1708136Y220238D01*
X1708062Y220249D01*
X1698062Y220249D01*
X1698037Y220242D01*
X1698011Y220244D01*
X1697971Y220223D01*
X1697928Y220210D01*
X1697911Y220190D01*
X1697888Y220178D01*
X1697866Y220139D01*
X1697836Y220105D01*
X1697832Y220079D01*
X1697819Y220056D01*
X1697813Y219982D01*
X1698093Y216069D01*
X1698097Y216059D01*
X1698098Y216033D01*
X1698932Y212199D01*
X1698937Y212191D01*
X1698942Y212165D01*
X1700314Y208489D01*
X1700319Y208481D01*
X1700328Y208457D01*
X1702209Y205013D01*
X1702216Y205006D01*
X1702228Y204983D01*
X1704579Y201842D01*
X1704587Y201836D01*
X1704603Y201815D01*
X1707377Y199041D01*
X1707386Y199036D01*
X1707404Y199017D01*
X1710545Y196666D01*
X1710554Y196663D01*
X1710575Y196647D01*
X1714019Y194766D01*
X1714028Y194764D01*
X1714051Y194752D01*
X1717727Y193380D01*
X1717737Y193380D01*
X1717761Y193370D01*
X1721595Y192536D01*
X1721605Y192537D01*
X1721631Y192531D01*
X1725544Y192251D01*
X1725554Y192253D01*
X1725580Y192251D01*
X1729493Y192531D01*
G37*
G36*
X1279329Y192531D02*
X1279329Y192531D01*
X1279338Y192535D01*
X1279364Y192536D01*
X1283198Y193370D01*
X1283207Y193375D01*
X1283233Y193380D01*
X1286909Y194752D01*
X1286917Y194757D01*
X1286941Y194766D01*
X1290385Y196647D01*
X1290392Y196654D01*
X1290415Y196666D01*
X1293556Y199017D01*
X1293562Y199025D01*
X1293583Y199041D01*
X1296357Y201815D01*
X1296362Y201824D01*
X1296380Y201842D01*
X1298732Y204983D01*
X1298735Y204992D01*
X1298751Y205013D01*
X1300631Y208457D01*
X1300634Y208466D01*
X1300646Y208489D01*
X1302017Y212165D01*
X1302018Y212175D01*
X1302027Y212199D01*
X1302861Y216033D01*
X1302861Y216043D01*
X1302867Y216069D01*
X1303146Y219982D01*
X1303141Y220008D01*
X1303145Y220033D01*
X1303126Y220075D01*
X1303117Y220119D01*
X1303099Y220137D01*
X1303088Y220161D01*
X1303050Y220186D01*
X1303018Y220218D01*
X1302993Y220224D01*
X1302971Y220238D01*
X1302898Y220249D01*
X1292898Y220249D01*
X1292891Y220247D01*
X1292884Y220249D01*
X1292825Y220228D01*
X1292764Y220210D01*
X1292759Y220205D01*
X1292752Y220202D01*
X1292713Y220152D01*
X1292672Y220105D01*
X1292671Y220098D01*
X1292666Y220092D01*
X1292649Y220020D01*
X1292435Y217302D01*
X1291804Y214669D01*
X1290768Y212169D01*
X1289353Y209861D01*
X1287595Y207802D01*
X1285537Y206044D01*
X1283229Y204630D01*
X1280728Y203594D01*
X1278096Y202962D01*
X1275398Y202750D01*
X1272699Y202962D01*
X1270067Y203594D01*
X1267566Y204630D01*
X1265259Y206044D01*
X1263200Y207802D01*
X1263147Y207865D01*
X1263146Y207865D01*
X1262721Y208364D01*
X1262508Y208613D01*
X1262295Y208862D01*
X1262082Y209112D01*
X1261656Y209610D01*
X1261443Y209859D01*
X1261442Y209861D01*
X1260028Y212169D01*
X1258992Y214669D01*
X1258360Y217302D01*
X1258146Y220020D01*
X1258144Y220026D01*
X1258145Y220033D01*
X1258119Y220091D01*
X1258097Y220150D01*
X1258091Y220155D01*
X1258088Y220161D01*
X1258035Y220196D01*
X1257985Y220234D01*
X1257977Y220234D01*
X1257971Y220238D01*
X1257898Y220249D01*
X1247898Y220249D01*
X1247873Y220242D01*
X1247847Y220244D01*
X1247807Y220223D01*
X1247764Y220210D01*
X1247746Y220190D01*
X1247724Y220178D01*
X1247701Y220139D01*
X1247672Y220105D01*
X1247668Y220079D01*
X1247655Y220056D01*
X1247649Y219982D01*
X1247929Y216069D01*
X1247932Y216059D01*
X1247934Y216033D01*
X1248768Y212199D01*
X1248773Y212191D01*
X1248778Y212165D01*
X1250149Y208489D01*
X1250155Y208481D01*
X1250164Y208457D01*
X1252045Y205013D01*
X1252051Y205006D01*
X1252064Y204983D01*
X1254415Y201842D01*
X1254423Y201836D01*
X1254438Y201815D01*
X1257213Y199041D01*
X1257221Y199036D01*
X1257240Y199017D01*
X1260381Y196666D01*
X1260390Y196663D01*
X1260411Y196647D01*
X1263854Y194766D01*
X1263864Y194764D01*
X1263887Y194752D01*
X1267563Y193380D01*
X1267573Y193380D01*
X1267597Y193370D01*
X1271431Y192536D01*
X1271441Y192537D01*
X1271466Y192531D01*
X1275380Y192251D01*
X1275390Y192253D01*
X1275416Y192251D01*
X1279329Y192531D01*
G37*
G36*
X1054260Y192531D02*
X1054260Y192531D01*
X1054269Y192535D01*
X1054295Y192536D01*
X1058129Y193370D01*
X1058138Y193375D01*
X1058163Y193380D01*
X1061839Y194752D01*
X1061847Y194757D01*
X1061872Y194766D01*
X1065315Y196647D01*
X1065322Y196654D01*
X1065345Y196666D01*
X1068486Y199017D01*
X1068492Y199025D01*
X1068513Y199041D01*
X1071288Y201815D01*
X1071292Y201824D01*
X1071311Y201842D01*
X1073662Y204983D01*
X1073666Y204992D01*
X1073682Y205013D01*
X1075562Y208457D01*
X1075564Y208466D01*
X1075577Y208489D01*
X1076948Y212165D01*
X1076949Y212175D01*
X1076958Y212199D01*
X1077792Y216033D01*
X1077791Y216043D01*
X1077797Y216069D01*
X1078077Y219982D01*
X1078072Y220008D01*
X1078075Y220033D01*
X1078057Y220075D01*
X1078048Y220119D01*
X1078029Y220137D01*
X1078019Y220161D01*
X1077981Y220186D01*
X1077949Y220218D01*
X1077924Y220224D01*
X1077902Y220238D01*
X1077828Y220249D01*
X1067828Y220249D01*
X1067821Y220247D01*
X1067814Y220249D01*
X1067755Y220228D01*
X1067694Y220210D01*
X1067689Y220205D01*
X1067683Y220202D01*
X1067644Y220152D01*
X1067602Y220105D01*
X1067601Y220098D01*
X1067597Y220092D01*
X1067580Y220020D01*
X1067366Y217302D01*
X1066734Y214669D01*
X1065698Y212169D01*
X1064284Y209861D01*
X1062526Y207802D01*
X1060468Y206044D01*
X1058160Y204630D01*
X1055659Y203594D01*
X1053027Y202962D01*
X1050328Y202750D01*
X1047630Y202962D01*
X1044998Y203594D01*
X1042497Y204630D01*
X1040189Y206044D01*
X1038131Y207802D01*
X1038077Y207865D01*
X1037651Y208364D01*
X1037438Y208613D01*
X1037226Y208862D01*
X1037225Y208862D01*
X1037013Y209112D01*
X1036587Y209610D01*
X1036374Y209859D01*
X1036373Y209861D01*
X1034959Y212169D01*
X1033923Y214669D01*
X1033291Y217302D01*
X1033077Y220020D01*
X1033074Y220026D01*
X1033075Y220033D01*
X1033050Y220091D01*
X1033027Y220150D01*
X1033022Y220155D01*
X1033019Y220161D01*
X1032966Y220196D01*
X1032915Y220234D01*
X1032908Y220234D01*
X1032902Y220238D01*
X1032828Y220249D01*
X1022828Y220249D01*
X1022803Y220242D01*
X1022777Y220244D01*
X1022738Y220223D01*
X1022694Y220210D01*
X1022677Y220190D01*
X1022654Y220178D01*
X1022632Y220139D01*
X1022602Y220105D01*
X1022598Y220079D01*
X1022586Y220056D01*
X1022580Y219982D01*
X1022860Y216069D01*
X1022863Y216059D01*
X1022865Y216033D01*
X1023699Y212199D01*
X1023703Y212191D01*
X1023709Y212165D01*
X1025080Y208489D01*
X1025086Y208481D01*
X1025095Y208457D01*
X1026975Y205013D01*
X1026982Y205006D01*
X1026994Y204983D01*
X1029346Y201842D01*
X1029354Y201836D01*
X1029369Y201815D01*
X1032144Y199041D01*
X1032152Y199036D01*
X1032170Y199017D01*
X1035311Y196666D01*
X1035321Y196663D01*
X1035341Y196647D01*
X1038785Y194766D01*
X1038794Y194764D01*
X1038817Y194752D01*
X1042494Y193380D01*
X1042503Y193380D01*
X1042528Y193370D01*
X1046362Y192536D01*
X1046371Y192537D01*
X1046397Y192531D01*
X1050311Y192251D01*
X1050320Y192253D01*
X1050346Y192251D01*
X1054260Y192531D01*
G37*
G36*
X604096Y192531D02*
X604096Y192531D01*
X604105Y192535D01*
X604131Y192536D01*
X607965Y193370D01*
X607973Y193375D01*
X607999Y193380D01*
X611675Y194752D01*
X611683Y194757D01*
X611708Y194766D01*
X615151Y196647D01*
X615158Y196654D01*
X615181Y196666D01*
X618322Y199017D01*
X618328Y199025D01*
X618349Y199041D01*
X621124Y201815D01*
X621128Y201824D01*
X621147Y201842D01*
X623498Y204983D01*
X623502Y204992D01*
X623517Y205013D01*
X625398Y208457D01*
X625400Y208466D01*
X625413Y208489D01*
X626784Y212165D01*
X626784Y212175D01*
X626794Y212199D01*
X627628Y216033D01*
X627627Y216043D01*
X627633Y216069D01*
X627913Y219982D01*
X627907Y220008D01*
X627911Y220033D01*
X627893Y220075D01*
X627883Y220119D01*
X627865Y220137D01*
X627854Y220161D01*
X627817Y220186D01*
X627785Y220218D01*
X627759Y220224D01*
X627738Y220238D01*
X627664Y220249D01*
X617664Y220249D01*
X617657Y220247D01*
X617650Y220249D01*
X617591Y220228D01*
X617530Y220210D01*
X617525Y220205D01*
X617518Y220202D01*
X617480Y220152D01*
X617438Y220105D01*
X617437Y220098D01*
X617433Y220092D01*
X617416Y220020D01*
X617202Y217302D01*
X616570Y214669D01*
X615534Y212169D01*
X614120Y209861D01*
X612362Y207802D01*
X610304Y206044D01*
X607996Y204630D01*
X605495Y203594D01*
X602863Y202962D01*
X600164Y202750D01*
X597466Y202962D01*
X594834Y203594D01*
X592333Y204630D01*
X590025Y206044D01*
X587967Y207802D01*
X587913Y207865D01*
X587487Y208364D01*
X587274Y208613D01*
X587061Y208862D01*
X586848Y209112D01*
X586423Y209610D01*
X586210Y209859D01*
X586209Y209861D01*
X584794Y212169D01*
X583759Y214669D01*
X583127Y217302D01*
X582913Y220020D01*
X582910Y220026D01*
X582911Y220033D01*
X582885Y220091D01*
X582863Y220150D01*
X582857Y220155D01*
X582854Y220161D01*
X582802Y220196D01*
X582751Y220234D01*
X582744Y220234D01*
X582738Y220238D01*
X582664Y220249D01*
X572664Y220249D01*
X572639Y220242D01*
X572613Y220244D01*
X572573Y220223D01*
X572530Y220210D01*
X572513Y220190D01*
X572490Y220178D01*
X572468Y220139D01*
X572438Y220105D01*
X572434Y220079D01*
X572421Y220056D01*
X572416Y219982D01*
X572695Y216069D01*
X572699Y216059D01*
X572701Y216033D01*
X573535Y212199D01*
X573539Y212191D01*
X573545Y212165D01*
X574916Y208489D01*
X574922Y208481D01*
X574931Y208457D01*
X576811Y205013D01*
X576818Y205006D01*
X576830Y204983D01*
X579182Y201842D01*
X579189Y201836D01*
X579205Y201815D01*
X581979Y199041D01*
X581988Y199036D01*
X582006Y199017D01*
X585147Y196666D01*
X585156Y196663D01*
X585177Y196647D01*
X588621Y194766D01*
X588630Y194764D01*
X588653Y194752D01*
X592329Y193380D01*
X592339Y193380D01*
X592364Y193370D01*
X596198Y192536D01*
X596207Y192537D01*
X596233Y192531D01*
X600146Y192251D01*
X600156Y192253D01*
X600182Y192251D01*
X604096Y192531D01*
G37*
G36*
X1504424Y192531D02*
X1504424Y192531D01*
X1504433Y192535D01*
X1504459Y192536D01*
X1508293Y193370D01*
X1508302Y193375D01*
X1508327Y193380D01*
X1512004Y194752D01*
X1512011Y194757D01*
X1512036Y194766D01*
X1515480Y196647D01*
X1515486Y196654D01*
X1515510Y196666D01*
X1518651Y199017D01*
X1518656Y199025D01*
X1518678Y199041D01*
X1521452Y201815D01*
X1521457Y201824D01*
X1521475Y201842D01*
X1523827Y204983D01*
X1523830Y204992D01*
X1523846Y205013D01*
X1525726Y208457D01*
X1525728Y208466D01*
X1525741Y208489D01*
X1527112Y212165D01*
X1527113Y212175D01*
X1527122Y212199D01*
X1527956Y216033D01*
X1527956Y216043D01*
X1527961Y216069D01*
X1528241Y219982D01*
X1528236Y220008D01*
X1528240Y220033D01*
X1528221Y220075D01*
X1528212Y220119D01*
X1528193Y220137D01*
X1528183Y220161D01*
X1528145Y220186D01*
X1528113Y220218D01*
X1528088Y220224D01*
X1528066Y220238D01*
X1527993Y220249D01*
X1517993Y220249D01*
X1517986Y220247D01*
X1517979Y220249D01*
X1517919Y220228D01*
X1517858Y220210D01*
X1517854Y220205D01*
X1517847Y220202D01*
X1517808Y220152D01*
X1517766Y220105D01*
X1517765Y220098D01*
X1517761Y220092D01*
X1517744Y220020D01*
X1517530Y217302D01*
X1516898Y214669D01*
X1515862Y212169D01*
X1514448Y209861D01*
X1512690Y207802D01*
X1510632Y206044D01*
X1508324Y204630D01*
X1505823Y203594D01*
X1503191Y202962D01*
X1500493Y202750D01*
X1497794Y202962D01*
X1495162Y203594D01*
X1492661Y204630D01*
X1490353Y206044D01*
X1488295Y207802D01*
X1488241Y207865D01*
X1487816Y208364D01*
X1487815Y208364D01*
X1487603Y208613D01*
X1487390Y208862D01*
X1487177Y209112D01*
X1486751Y209610D01*
X1486538Y209859D01*
X1486537Y209861D01*
X1485123Y212169D01*
X1484087Y214669D01*
X1483455Y217302D01*
X1483241Y220020D01*
X1483239Y220026D01*
X1483240Y220033D01*
X1483214Y220091D01*
X1483191Y220150D01*
X1483186Y220155D01*
X1483183Y220161D01*
X1483130Y220196D01*
X1483079Y220234D01*
X1483072Y220234D01*
X1483066Y220238D01*
X1482993Y220249D01*
X1472993Y220249D01*
X1472968Y220242D01*
X1472942Y220244D01*
X1472902Y220223D01*
X1472858Y220210D01*
X1472841Y220190D01*
X1472818Y220178D01*
X1472796Y220139D01*
X1472766Y220105D01*
X1472763Y220079D01*
X1472750Y220056D01*
X1472744Y219982D01*
X1473024Y216069D01*
X1473027Y216059D01*
X1473029Y216033D01*
X1473863Y212199D01*
X1473868Y212191D01*
X1473873Y212165D01*
X1475244Y208489D01*
X1475250Y208481D01*
X1475259Y208457D01*
X1477139Y205013D01*
X1477146Y205006D01*
X1477159Y204983D01*
X1479510Y201842D01*
X1479518Y201836D01*
X1479533Y201815D01*
X1482308Y199041D01*
X1482316Y199036D01*
X1482335Y199017D01*
X1485476Y196666D01*
X1485485Y196663D01*
X1485506Y196647D01*
X1488949Y194766D01*
X1488959Y194764D01*
X1488982Y194752D01*
X1492658Y193380D01*
X1492668Y193380D01*
X1492692Y193370D01*
X1496526Y192536D01*
X1496536Y192537D01*
X1496561Y192531D01*
X1500475Y192251D01*
X1500484Y192253D01*
X1500510Y192251D01*
X1504424Y192531D01*
G37*
G36*
X829165Y192531D02*
X829165Y192531D01*
X829174Y192535D01*
X829200Y192536D01*
X833034Y193370D01*
X833043Y193375D01*
X833068Y193380D01*
X836745Y194752D01*
X836752Y194757D01*
X836777Y194766D01*
X840221Y196647D01*
X840227Y196654D01*
X840251Y196666D01*
X843392Y199017D01*
X843397Y199025D01*
X843419Y199041D01*
X846193Y201815D01*
X846198Y201824D01*
X846216Y201842D01*
X848568Y204983D01*
X848571Y204992D01*
X848587Y205013D01*
X850467Y208457D01*
X850469Y208466D01*
X850482Y208489D01*
X851853Y212165D01*
X851854Y212175D01*
X851863Y212199D01*
X852697Y216033D01*
X852697Y216043D01*
X852702Y216069D01*
X852982Y219982D01*
X852977Y220008D01*
X852981Y220033D01*
X852962Y220075D01*
X852953Y220119D01*
X852934Y220137D01*
X852924Y220161D01*
X852886Y220186D01*
X852854Y220218D01*
X852829Y220224D01*
X852807Y220238D01*
X852734Y220249D01*
X842734Y220249D01*
X842727Y220247D01*
X842720Y220249D01*
X842660Y220228D01*
X842599Y220210D01*
X842595Y220205D01*
X842588Y220202D01*
X842549Y220152D01*
X842507Y220105D01*
X842506Y220098D01*
X842502Y220092D01*
X842485Y220020D01*
X842271Y217302D01*
X841639Y214669D01*
X840603Y212169D01*
X839189Y209861D01*
X837431Y207802D01*
X835373Y206044D01*
X833065Y204630D01*
X830564Y203594D01*
X827932Y202962D01*
X825234Y202750D01*
X822535Y202962D01*
X819903Y203594D01*
X817402Y204630D01*
X815094Y206044D01*
X813036Y207802D01*
X812982Y207865D01*
X812557Y208364D01*
X812556Y208364D01*
X812344Y208613D01*
X812131Y208862D01*
X811918Y209112D01*
X811492Y209610D01*
X811279Y209859D01*
X811278Y209861D01*
X809864Y212169D01*
X808828Y214669D01*
X808196Y217302D01*
X807982Y220020D01*
X807980Y220026D01*
X807981Y220033D01*
X807955Y220091D01*
X807932Y220150D01*
X807927Y220155D01*
X807924Y220161D01*
X807871Y220196D01*
X807820Y220234D01*
X807813Y220234D01*
X807807Y220238D01*
X807734Y220249D01*
X797734Y220249D01*
X797709Y220242D01*
X797683Y220244D01*
X797643Y220223D01*
X797599Y220210D01*
X797582Y220190D01*
X797559Y220178D01*
X797537Y220139D01*
X797507Y220105D01*
X797504Y220079D01*
X797491Y220056D01*
X797485Y219982D01*
X797765Y216069D01*
X797768Y216059D01*
X797770Y216033D01*
X798604Y212199D01*
X798609Y212191D01*
X798614Y212165D01*
X799985Y208489D01*
X799991Y208481D01*
X800000Y208457D01*
X801880Y205013D01*
X801887Y205006D01*
X801900Y204983D01*
X804251Y201842D01*
X804259Y201836D01*
X804274Y201815D01*
X807049Y199041D01*
X807057Y199036D01*
X807076Y199017D01*
X810217Y196666D01*
X810226Y196663D01*
X810247Y196647D01*
X813690Y194766D01*
X813700Y194764D01*
X813723Y194752D01*
X817399Y193380D01*
X817409Y193380D01*
X817433Y193370D01*
X821267Y192536D01*
X821277Y192537D01*
X821302Y192531D01*
X825216Y192251D01*
X825225Y192253D01*
X825251Y192251D01*
X829165Y192531D01*
G37*
G36*
X379001Y192531D02*
X379001Y192531D01*
X379010Y192535D01*
X379036Y192536D01*
X382870Y193370D01*
X382879Y193375D01*
X382904Y193380D01*
X386580Y194752D01*
X386588Y194757D01*
X386613Y194766D01*
X390056Y196647D01*
X390063Y196654D01*
X390086Y196666D01*
X393227Y199017D01*
X393233Y199025D01*
X393254Y199041D01*
X396029Y201815D01*
X396033Y201824D01*
X396052Y201842D01*
X398403Y204983D01*
X398407Y204992D01*
X398423Y205013D01*
X400303Y208457D01*
X400305Y208466D01*
X400318Y208489D01*
X401689Y212165D01*
X401690Y212175D01*
X401699Y212199D01*
X402533Y216033D01*
X402532Y216043D01*
X402538Y216069D01*
X402818Y219982D01*
X402813Y220008D01*
X402816Y220033D01*
X402798Y220075D01*
X402789Y220119D01*
X402770Y220137D01*
X402760Y220161D01*
X402722Y220186D01*
X402690Y220218D01*
X402665Y220224D01*
X402643Y220238D01*
X402569Y220249D01*
X392569Y220249D01*
X392562Y220247D01*
X392555Y220249D01*
X392496Y220228D01*
X392435Y220210D01*
X392430Y220205D01*
X392424Y220202D01*
X392385Y220152D01*
X392343Y220105D01*
X392342Y220098D01*
X392338Y220092D01*
X392321Y220020D01*
X392107Y217302D01*
X391475Y214669D01*
X390439Y212169D01*
X389025Y209861D01*
X387267Y207802D01*
X385209Y206044D01*
X382901Y204630D01*
X380400Y203594D01*
X377768Y202962D01*
X375069Y202750D01*
X372371Y202962D01*
X369739Y203594D01*
X367238Y204630D01*
X364930Y206044D01*
X362872Y207802D01*
X362818Y207865D01*
X362392Y208364D01*
X362179Y208613D01*
X361967Y208862D01*
X361966Y208862D01*
X361754Y209112D01*
X361328Y209610D01*
X361115Y209859D01*
X361114Y209861D01*
X359700Y212169D01*
X358664Y214669D01*
X358032Y217302D01*
X357818Y220020D01*
X357815Y220026D01*
X357816Y220033D01*
X357791Y220091D01*
X357768Y220150D01*
X357763Y220155D01*
X357760Y220161D01*
X357707Y220196D01*
X357656Y220234D01*
X357649Y220234D01*
X357643Y220238D01*
X357569Y220249D01*
X347569Y220249D01*
X347544Y220242D01*
X347518Y220244D01*
X347479Y220223D01*
X347435Y220210D01*
X347418Y220190D01*
X347395Y220178D01*
X347373Y220139D01*
X347343Y220105D01*
X347339Y220079D01*
X347327Y220056D01*
X347321Y219982D01*
X347601Y216069D01*
X347604Y216059D01*
X347606Y216033D01*
X348440Y212199D01*
X348444Y212191D01*
X348450Y212165D01*
X349821Y208489D01*
X349827Y208481D01*
X349836Y208457D01*
X351716Y205013D01*
X351723Y205006D01*
X351735Y204983D01*
X354087Y201842D01*
X354095Y201836D01*
X354110Y201815D01*
X356885Y199041D01*
X356893Y199036D01*
X356911Y199017D01*
X360052Y196666D01*
X360062Y196663D01*
X360082Y196647D01*
X363526Y194766D01*
X363535Y194764D01*
X363558Y194752D01*
X367235Y193380D01*
X367244Y193380D01*
X367269Y193370D01*
X371103Y192536D01*
X371112Y192537D01*
X371138Y192531D01*
X375052Y192251D01*
X375061Y192253D01*
X375087Y192251D01*
X379001Y192531D01*
G37*
G36*
X153931Y192531D02*
X153931Y192531D01*
X153941Y192535D01*
X153967Y192536D01*
X157801Y193370D01*
X157809Y193375D01*
X157835Y193380D01*
X161511Y194752D01*
X161519Y194757D01*
X161543Y194766D01*
X164987Y196647D01*
X164994Y196654D01*
X165017Y196666D01*
X168158Y199017D01*
X168164Y199025D01*
X168185Y199041D01*
X170959Y201815D01*
X170964Y201824D01*
X170983Y201842D01*
X173334Y204983D01*
X173337Y204992D01*
X173353Y205013D01*
X175234Y208457D01*
X175236Y208466D01*
X175248Y208489D01*
X176620Y212165D01*
X176620Y212175D01*
X176630Y212199D01*
X177464Y216033D01*
X177463Y216043D01*
X177469Y216069D01*
X177749Y219982D01*
X177743Y220008D01*
X177747Y220033D01*
X177729Y220075D01*
X177719Y220119D01*
X177701Y220137D01*
X177690Y220161D01*
X177652Y220186D01*
X177621Y220218D01*
X177595Y220224D01*
X177574Y220238D01*
X177500Y220249D01*
X167500Y220249D01*
X167493Y220247D01*
X167486Y220249D01*
X167427Y220228D01*
X167366Y220210D01*
X167361Y220205D01*
X167354Y220202D01*
X167316Y220152D01*
X167274Y220105D01*
X167273Y220098D01*
X167268Y220092D01*
X167252Y220020D01*
X167038Y217302D01*
X166406Y214669D01*
X165370Y212169D01*
X163956Y209861D01*
X162198Y207802D01*
X160139Y206044D01*
X157831Y204630D01*
X155331Y203594D01*
X152698Y202962D01*
X150000Y202750D01*
X147302Y202962D01*
X144669Y203594D01*
X142169Y204630D01*
X139861Y206044D01*
X137802Y207802D01*
X137749Y207865D01*
X137323Y208364D01*
X137110Y208613D01*
X136897Y208862D01*
X136684Y209112D01*
X136259Y209610D01*
X136258Y209610D01*
X136046Y209859D01*
X136044Y209861D01*
X134630Y212169D01*
X133594Y214669D01*
X132962Y217302D01*
X132748Y220020D01*
X132746Y220026D01*
X132747Y220033D01*
X132721Y220091D01*
X132699Y220150D01*
X132693Y220155D01*
X132690Y220161D01*
X132637Y220196D01*
X132587Y220234D01*
X132580Y220234D01*
X132574Y220238D01*
X132500Y220249D01*
X122500Y220249D01*
X122475Y220242D01*
X122449Y220244D01*
X122409Y220223D01*
X122366Y220210D01*
X122349Y220190D01*
X122326Y220178D01*
X122304Y220139D01*
X122274Y220105D01*
X122270Y220079D01*
X122257Y220056D01*
X122251Y219982D01*
X122531Y216069D01*
X122535Y216059D01*
X122536Y216033D01*
X123370Y212199D01*
X123375Y212191D01*
X123380Y212165D01*
X124752Y208489D01*
X124757Y208481D01*
X124766Y208457D01*
X126647Y205013D01*
X126654Y205006D01*
X126666Y204983D01*
X129017Y201842D01*
X129025Y201836D01*
X129041Y201815D01*
X131815Y199041D01*
X131824Y199036D01*
X131842Y199017D01*
X134983Y196666D01*
X134992Y196663D01*
X135013Y196647D01*
X138457Y194766D01*
X138466Y194764D01*
X138489Y194752D01*
X142165Y193380D01*
X142175Y193380D01*
X142199Y193370D01*
X146033Y192536D01*
X146043Y192537D01*
X146069Y192531D01*
X149982Y192251D01*
X149992Y192253D01*
X150018Y192251D01*
X153931Y192531D01*
G37*
G36*
X52496Y478253D02*
X52496Y478253D01*
X52503Y478251D01*
X52563Y478272D01*
X52624Y478290D01*
X52628Y478295D01*
X52635Y478298D01*
X52674Y478348D01*
X52716Y478395D01*
X52717Y478402D01*
X52721Y478408D01*
X52738Y478480D01*
X52952Y481198D01*
X53584Y483831D01*
X54620Y486331D01*
X56034Y488639D01*
X57792Y490698D01*
X59850Y492456D01*
X62158Y493870D01*
X64659Y494906D01*
X67291Y495538D01*
X69989Y495750D01*
X72688Y495538D01*
X75320Y494906D01*
X77821Y493870D01*
X80129Y492456D01*
X82187Y490698D01*
X82311Y490552D01*
X82524Y490303D01*
X82950Y489804D01*
X83163Y489555D01*
X83376Y489306D01*
X83588Y489057D01*
X83589Y489057D01*
X83801Y488807D01*
X83945Y488639D01*
X85359Y486331D01*
X86395Y483831D01*
X87027Y481198D01*
X87241Y478480D01*
X87244Y478474D01*
X87242Y478467D01*
X87268Y478409D01*
X87291Y478350D01*
X87296Y478345D01*
X87299Y478339D01*
X87352Y478304D01*
X87403Y478266D01*
X87410Y478266D01*
X87416Y478262D01*
X87489Y478251D01*
X97489Y478251D01*
X97514Y478258D01*
X97540Y478256D01*
X97580Y478277D01*
X97624Y478290D01*
X97641Y478310D01*
X97664Y478322D01*
X97686Y478361D01*
X97716Y478395D01*
X97719Y478421D01*
X97732Y478444D01*
X97738Y478518D01*
X97458Y482431D01*
X97455Y482441D01*
X97453Y482467D01*
X96619Y486301D01*
X96614Y486309D01*
X96609Y486335D01*
X95238Y490011D01*
X95232Y490019D01*
X95223Y490043D01*
X93343Y493487D01*
X93336Y493494D01*
X93323Y493517D01*
X90972Y496658D01*
X90964Y496664D01*
X90949Y496685D01*
X88174Y499459D01*
X88166Y499464D01*
X88147Y499483D01*
X85006Y501834D01*
X84997Y501837D01*
X84976Y501853D01*
X81533Y503734D01*
X81523Y503736D01*
X81500Y503748D01*
X77824Y505120D01*
X77815Y505120D01*
X77790Y505130D01*
X73956Y505964D01*
X73946Y505963D01*
X73921Y505969D01*
X70007Y506249D01*
X69998Y506247D01*
X69972Y506249D01*
X66058Y505969D01*
X66049Y505965D01*
X66023Y505964D01*
X62189Y505130D01*
X62180Y505125D01*
X62155Y505120D01*
X58478Y503748D01*
X58471Y503743D01*
X58446Y503734D01*
X55002Y501853D01*
X54996Y501846D01*
X54972Y501834D01*
X51831Y499483D01*
X51826Y499475D01*
X51805Y499459D01*
X49030Y496685D01*
X49025Y496676D01*
X49007Y496658D01*
X46655Y493517D01*
X46652Y493508D01*
X46636Y493487D01*
X44756Y490043D01*
X44754Y490034D01*
X44741Y490011D01*
X43370Y486335D01*
X43369Y486325D01*
X43360Y486301D01*
X42526Y482467D01*
X42526Y482457D01*
X42521Y482431D01*
X42241Y478518D01*
X42246Y478492D01*
X42242Y478467D01*
X42261Y478425D01*
X42270Y478381D01*
X42289Y478363D01*
X42299Y478339D01*
X42337Y478314D01*
X42369Y478282D01*
X42394Y478276D01*
X42416Y478262D01*
X42489Y478251D01*
X52489Y478251D01*
X52496Y478253D01*
G37*
G36*
X502661Y478253D02*
X502661Y478253D01*
X502668Y478251D01*
X502727Y478272D01*
X502788Y478290D01*
X502793Y478295D01*
X502799Y478298D01*
X502838Y478348D01*
X502880Y478395D01*
X502881Y478402D01*
X502885Y478408D01*
X502902Y478480D01*
X503116Y481198D01*
X503748Y483831D01*
X504784Y486331D01*
X506198Y488639D01*
X507956Y490698D01*
X510014Y492456D01*
X512322Y493870D01*
X514823Y494906D01*
X517455Y495538D01*
X520154Y495750D01*
X522852Y495538D01*
X525484Y494906D01*
X527985Y493870D01*
X530293Y492456D01*
X532351Y490698D01*
X532475Y490552D01*
X532688Y490303D01*
X533114Y489804D01*
X533327Y489555D01*
X533540Y489306D01*
X533753Y489057D01*
X533966Y488807D01*
X534109Y488639D01*
X535523Y486331D01*
X536559Y483831D01*
X537191Y481198D01*
X537405Y478480D01*
X537408Y478474D01*
X537407Y478467D01*
X537432Y478409D01*
X537455Y478350D01*
X537461Y478345D01*
X537463Y478339D01*
X537516Y478304D01*
X537567Y478266D01*
X537574Y478266D01*
X537580Y478262D01*
X537654Y478251D01*
X547654Y478251D01*
X547679Y478258D01*
X547705Y478256D01*
X547744Y478277D01*
X547788Y478290D01*
X547805Y478310D01*
X547828Y478322D01*
X547850Y478361D01*
X547880Y478395D01*
X547884Y478421D01*
X547896Y478444D01*
X547902Y478518D01*
X547622Y482431D01*
X547619Y482441D01*
X547617Y482467D01*
X546783Y486301D01*
X546779Y486309D01*
X546773Y486335D01*
X545402Y490011D01*
X545396Y490019D01*
X545387Y490043D01*
X543507Y493487D01*
X543500Y493494D01*
X543488Y493517D01*
X541136Y496658D01*
X541129Y496664D01*
X541113Y496685D01*
X538339Y499459D01*
X538330Y499464D01*
X538312Y499483D01*
X535171Y501834D01*
X535162Y501837D01*
X535141Y501853D01*
X531697Y503734D01*
X531688Y503736D01*
X531665Y503748D01*
X527988Y505120D01*
X527979Y505120D01*
X527954Y505130D01*
X524120Y505964D01*
X524111Y505963D01*
X524085Y505969D01*
X520171Y506249D01*
X520162Y506247D01*
X520136Y506249D01*
X516222Y505969D01*
X516213Y505965D01*
X516187Y505964D01*
X512353Y505130D01*
X512344Y505125D01*
X512319Y505120D01*
X508643Y503748D01*
X508635Y503743D01*
X508610Y503734D01*
X505167Y501853D01*
X505160Y501846D01*
X505137Y501834D01*
X501996Y499483D01*
X501990Y499475D01*
X501969Y499459D01*
X499194Y496685D01*
X499190Y496676D01*
X499171Y496658D01*
X496820Y493517D01*
X496816Y493508D01*
X496800Y493487D01*
X494920Y490043D01*
X494918Y490034D01*
X494905Y490011D01*
X493534Y486335D01*
X493533Y486325D01*
X493524Y486301D01*
X492690Y482467D01*
X492691Y482457D01*
X492685Y482431D01*
X492405Y478518D01*
X492410Y478492D01*
X492407Y478467D01*
X492425Y478425D01*
X492435Y478381D01*
X492453Y478363D01*
X492463Y478339D01*
X492501Y478314D01*
X492533Y478282D01*
X492558Y478276D01*
X492580Y478262D01*
X492654Y478251D01*
X502654Y478251D01*
X502661Y478253D01*
G37*
G36*
X1628058Y478253D02*
X1628058Y478253D01*
X1628065Y478251D01*
X1628125Y478272D01*
X1628186Y478290D01*
X1628190Y478295D01*
X1628197Y478298D01*
X1628236Y478348D01*
X1628278Y478395D01*
X1628279Y478402D01*
X1628283Y478408D01*
X1628300Y478480D01*
X1628514Y481198D01*
X1629146Y483831D01*
X1630182Y486331D01*
X1631596Y488639D01*
X1633354Y490698D01*
X1635412Y492456D01*
X1637720Y493870D01*
X1640221Y494906D01*
X1642853Y495538D01*
X1645551Y495750D01*
X1648250Y495538D01*
X1650882Y494906D01*
X1653383Y493870D01*
X1655691Y492456D01*
X1657749Y490698D01*
X1657873Y490552D01*
X1658086Y490303D01*
X1658512Y489804D01*
X1658725Y489555D01*
X1658938Y489306D01*
X1659150Y489057D01*
X1659151Y489057D01*
X1659363Y488807D01*
X1659507Y488639D01*
X1660921Y486331D01*
X1661957Y483831D01*
X1662589Y481198D01*
X1662803Y478480D01*
X1662806Y478474D01*
X1662804Y478467D01*
X1662830Y478409D01*
X1662853Y478350D01*
X1662858Y478345D01*
X1662861Y478339D01*
X1662914Y478304D01*
X1662965Y478266D01*
X1662972Y478266D01*
X1662978Y478262D01*
X1663051Y478251D01*
X1673051Y478251D01*
X1673076Y478258D01*
X1673102Y478256D01*
X1673142Y478277D01*
X1673186Y478290D01*
X1673203Y478310D01*
X1673226Y478322D01*
X1673248Y478361D01*
X1673278Y478395D01*
X1673281Y478421D01*
X1673294Y478444D01*
X1673300Y478518D01*
X1673020Y482431D01*
X1673017Y482441D01*
X1673015Y482467D01*
X1672181Y486301D01*
X1672176Y486309D01*
X1672171Y486335D01*
X1670800Y490011D01*
X1670794Y490019D01*
X1670785Y490043D01*
X1668905Y493487D01*
X1668898Y493494D01*
X1668885Y493517D01*
X1666534Y496658D01*
X1666526Y496664D01*
X1666511Y496685D01*
X1663736Y499459D01*
X1663728Y499464D01*
X1663709Y499483D01*
X1660568Y501834D01*
X1660559Y501837D01*
X1660538Y501853D01*
X1657095Y503734D01*
X1657085Y503736D01*
X1657062Y503748D01*
X1653386Y505120D01*
X1653377Y505120D01*
X1653352Y505130D01*
X1649518Y505964D01*
X1649508Y505963D01*
X1649483Y505969D01*
X1645569Y506249D01*
X1645560Y506247D01*
X1645534Y506249D01*
X1641620Y505969D01*
X1641611Y505965D01*
X1641585Y505964D01*
X1637751Y505130D01*
X1637742Y505125D01*
X1637717Y505120D01*
X1634040Y503748D01*
X1634033Y503743D01*
X1634008Y503734D01*
X1630564Y501853D01*
X1630558Y501846D01*
X1630534Y501834D01*
X1627393Y499483D01*
X1627388Y499475D01*
X1627367Y499459D01*
X1624592Y496685D01*
X1624587Y496676D01*
X1624569Y496658D01*
X1622217Y493517D01*
X1622214Y493508D01*
X1622198Y493487D01*
X1620318Y490043D01*
X1620316Y490034D01*
X1620303Y490011D01*
X1618932Y486335D01*
X1618931Y486325D01*
X1618922Y486301D01*
X1618088Y482467D01*
X1618088Y482457D01*
X1618083Y482431D01*
X1617803Y478518D01*
X1617808Y478492D01*
X1617804Y478467D01*
X1617823Y478425D01*
X1617832Y478381D01*
X1617851Y478363D01*
X1617861Y478339D01*
X1617899Y478314D01*
X1617931Y478282D01*
X1617956Y478276D01*
X1617978Y478262D01*
X1618051Y478251D01*
X1628051Y478251D01*
X1628058Y478253D01*
G37*
G36*
X1402989Y478253D02*
X1402989Y478253D01*
X1402996Y478251D01*
X1403055Y478272D01*
X1403116Y478290D01*
X1403121Y478295D01*
X1403128Y478298D01*
X1403167Y478348D01*
X1403208Y478395D01*
X1403209Y478402D01*
X1403214Y478408D01*
X1403230Y478480D01*
X1403444Y481198D01*
X1404076Y483831D01*
X1405112Y486331D01*
X1406526Y488639D01*
X1408284Y490698D01*
X1410343Y492456D01*
X1412651Y493870D01*
X1415151Y494906D01*
X1417784Y495538D01*
X1420482Y495750D01*
X1423180Y495538D01*
X1425813Y494906D01*
X1428313Y493870D01*
X1430621Y492456D01*
X1432680Y490698D01*
X1432804Y490552D01*
X1433017Y490303D01*
X1433442Y489804D01*
X1433443Y489804D01*
X1433655Y489555D01*
X1433868Y489306D01*
X1434081Y489057D01*
X1434294Y488807D01*
X1434438Y488639D01*
X1435852Y486331D01*
X1436888Y483831D01*
X1437520Y481198D01*
X1437734Y478480D01*
X1437736Y478474D01*
X1437735Y478467D01*
X1437761Y478409D01*
X1437783Y478350D01*
X1437789Y478345D01*
X1437792Y478339D01*
X1437845Y478304D01*
X1437895Y478266D01*
X1437903Y478266D01*
X1437909Y478262D01*
X1437982Y478251D01*
X1447982Y478251D01*
X1448007Y478258D01*
X1448033Y478256D01*
X1448073Y478277D01*
X1448116Y478290D01*
X1448133Y478310D01*
X1448156Y478322D01*
X1448178Y478361D01*
X1448208Y478395D01*
X1448212Y478421D01*
X1448225Y478444D01*
X1448231Y478518D01*
X1447951Y482431D01*
X1447947Y482441D01*
X1447946Y482467D01*
X1447112Y486301D01*
X1447107Y486309D01*
X1447102Y486335D01*
X1445730Y490011D01*
X1445725Y490019D01*
X1445716Y490043D01*
X1443835Y493487D01*
X1443828Y493494D01*
X1443816Y493517D01*
X1441465Y496658D01*
X1441457Y496664D01*
X1441441Y496685D01*
X1438667Y499459D01*
X1438658Y499464D01*
X1438640Y499483D01*
X1435499Y501834D01*
X1435490Y501837D01*
X1435469Y501853D01*
X1432025Y503734D01*
X1432016Y503736D01*
X1431993Y503748D01*
X1428317Y505120D01*
X1428307Y505120D01*
X1428283Y505130D01*
X1424449Y505964D01*
X1424439Y505963D01*
X1424413Y505969D01*
X1420500Y506249D01*
X1420490Y506247D01*
X1420464Y506249D01*
X1416551Y505969D01*
X1416541Y505965D01*
X1416515Y505964D01*
X1412681Y505130D01*
X1412673Y505125D01*
X1412647Y505120D01*
X1408971Y503748D01*
X1408963Y503743D01*
X1408939Y503734D01*
X1405495Y501853D01*
X1405488Y501846D01*
X1405465Y501834D01*
X1402324Y499483D01*
X1402318Y499475D01*
X1402297Y499459D01*
X1399523Y496685D01*
X1399518Y496676D01*
X1399499Y496658D01*
X1397148Y493517D01*
X1397145Y493508D01*
X1397129Y493487D01*
X1395248Y490043D01*
X1395246Y490034D01*
X1395234Y490011D01*
X1393862Y486335D01*
X1393862Y486325D01*
X1393852Y486301D01*
X1393018Y482467D01*
X1393019Y482457D01*
X1393013Y482431D01*
X1392733Y478518D01*
X1392739Y478492D01*
X1392735Y478467D01*
X1392753Y478425D01*
X1392763Y478381D01*
X1392781Y478363D01*
X1392792Y478339D01*
X1392830Y478314D01*
X1392861Y478282D01*
X1392887Y478276D01*
X1392909Y478262D01*
X1392982Y478251D01*
X1402982Y478251D01*
X1402989Y478253D01*
G37*
G36*
X952825Y478253D02*
X952825Y478253D01*
X952832Y478251D01*
X952891Y478272D01*
X952952Y478290D01*
X952957Y478295D01*
X952964Y478298D01*
X953002Y478348D01*
X953044Y478395D01*
X953045Y478402D01*
X953049Y478408D01*
X953066Y478480D01*
X953280Y481198D01*
X953912Y483831D01*
X954948Y486331D01*
X956362Y488639D01*
X958120Y490698D01*
X960179Y492456D01*
X962486Y493870D01*
X964987Y494906D01*
X967619Y495538D01*
X970318Y495750D01*
X973016Y495538D01*
X975648Y494906D01*
X978149Y493870D01*
X980457Y492456D01*
X982515Y490698D01*
X982640Y490552D01*
X982852Y490303D01*
X982853Y490303D01*
X983278Y489804D01*
X983491Y489555D01*
X983704Y489306D01*
X983917Y489057D01*
X984130Y488807D01*
X984273Y488639D01*
X985688Y486331D01*
X986724Y483831D01*
X987355Y481198D01*
X987569Y478480D01*
X987572Y478474D01*
X987571Y478467D01*
X987597Y478409D01*
X987619Y478350D01*
X987625Y478345D01*
X987628Y478339D01*
X987680Y478304D01*
X987731Y478266D01*
X987738Y478266D01*
X987744Y478262D01*
X987818Y478251D01*
X997818Y478251D01*
X997843Y478258D01*
X997869Y478256D01*
X997909Y478277D01*
X997952Y478290D01*
X997969Y478310D01*
X997992Y478322D01*
X998014Y478361D01*
X998044Y478395D01*
X998048Y478421D01*
X998061Y478444D01*
X998066Y478518D01*
X997787Y482431D01*
X997783Y482441D01*
X997781Y482467D01*
X996947Y486301D01*
X996943Y486309D01*
X996937Y486335D01*
X995566Y490011D01*
X995560Y490019D01*
X995551Y490043D01*
X993671Y493487D01*
X993664Y493494D01*
X993652Y493517D01*
X991300Y496658D01*
X991293Y496664D01*
X991277Y496685D01*
X988503Y499459D01*
X988494Y499464D01*
X988476Y499483D01*
X985335Y501834D01*
X985326Y501837D01*
X985305Y501853D01*
X981861Y503734D01*
X981852Y503736D01*
X981829Y503748D01*
X978153Y505120D01*
X978143Y505120D01*
X978118Y505130D01*
X974284Y505964D01*
X974275Y505963D01*
X974249Y505969D01*
X970336Y506249D01*
X970326Y506247D01*
X970300Y506249D01*
X966386Y505969D01*
X966377Y505965D01*
X966351Y505964D01*
X962517Y505130D01*
X962509Y505125D01*
X962483Y505120D01*
X958807Y503748D01*
X958799Y503743D01*
X958774Y503734D01*
X955331Y501853D01*
X955324Y501846D01*
X955301Y501834D01*
X952160Y499483D01*
X952154Y499475D01*
X952133Y499459D01*
X949358Y496685D01*
X949354Y496676D01*
X949335Y496658D01*
X946984Y493517D01*
X946980Y493508D01*
X946965Y493487D01*
X945084Y490043D01*
X945082Y490034D01*
X945069Y490011D01*
X943698Y486335D01*
X943698Y486325D01*
X943688Y486301D01*
X942854Y482467D01*
X942855Y482457D01*
X942849Y482431D01*
X942569Y478518D01*
X942575Y478492D01*
X942571Y478467D01*
X942589Y478425D01*
X942599Y478381D01*
X942617Y478363D01*
X942628Y478339D01*
X942665Y478314D01*
X942697Y478282D01*
X942723Y478276D01*
X942744Y478262D01*
X942818Y478251D01*
X952818Y478251D01*
X952825Y478253D01*
G37*
G36*
X1177920Y478253D02*
X1177920Y478253D01*
X1177927Y478251D01*
X1177986Y478272D01*
X1178047Y478290D01*
X1178052Y478295D01*
X1178058Y478298D01*
X1178097Y478348D01*
X1178139Y478395D01*
X1178140Y478402D01*
X1178144Y478408D01*
X1178161Y478480D01*
X1178375Y481198D01*
X1179007Y483831D01*
X1180043Y486331D01*
X1181457Y488639D01*
X1183215Y490698D01*
X1185273Y492456D01*
X1187581Y493870D01*
X1190082Y494906D01*
X1192714Y495538D01*
X1195413Y495750D01*
X1198111Y495538D01*
X1200743Y494906D01*
X1203244Y493870D01*
X1205552Y492456D01*
X1207610Y490698D01*
X1207734Y490552D01*
X1207947Y490303D01*
X1208373Y489804D01*
X1208586Y489555D01*
X1208799Y489306D01*
X1209012Y489057D01*
X1209225Y488807D01*
X1209368Y488639D01*
X1210782Y486331D01*
X1211818Y483831D01*
X1212450Y481198D01*
X1212664Y478480D01*
X1212667Y478474D01*
X1212666Y478467D01*
X1212691Y478409D01*
X1212714Y478350D01*
X1212720Y478345D01*
X1212722Y478339D01*
X1212775Y478304D01*
X1212826Y478266D01*
X1212833Y478266D01*
X1212839Y478262D01*
X1212913Y478251D01*
X1222913Y478251D01*
X1222938Y478258D01*
X1222964Y478256D01*
X1223003Y478277D01*
X1223047Y478290D01*
X1223064Y478310D01*
X1223087Y478322D01*
X1223109Y478361D01*
X1223139Y478395D01*
X1223143Y478421D01*
X1223155Y478444D01*
X1223161Y478518D01*
X1222881Y482431D01*
X1222878Y482441D01*
X1222876Y482467D01*
X1222042Y486301D01*
X1222038Y486309D01*
X1222032Y486335D01*
X1220661Y490011D01*
X1220655Y490019D01*
X1220646Y490043D01*
X1218766Y493487D01*
X1218759Y493494D01*
X1218747Y493517D01*
X1216395Y496658D01*
X1216388Y496664D01*
X1216372Y496685D01*
X1213598Y499459D01*
X1213589Y499464D01*
X1213571Y499483D01*
X1210430Y501834D01*
X1210421Y501837D01*
X1210400Y501853D01*
X1206956Y503734D01*
X1206947Y503736D01*
X1206924Y503748D01*
X1203247Y505120D01*
X1203238Y505120D01*
X1203213Y505130D01*
X1199379Y505964D01*
X1199370Y505963D01*
X1199344Y505969D01*
X1195430Y506249D01*
X1195421Y506247D01*
X1195395Y506249D01*
X1191481Y505969D01*
X1191472Y505965D01*
X1191446Y505964D01*
X1187612Y505130D01*
X1187603Y505125D01*
X1187578Y505120D01*
X1183902Y503748D01*
X1183894Y503743D01*
X1183869Y503734D01*
X1180426Y501853D01*
X1180419Y501846D01*
X1180396Y501834D01*
X1177255Y499483D01*
X1177249Y499475D01*
X1177228Y499459D01*
X1174453Y496685D01*
X1174449Y496676D01*
X1174430Y496658D01*
X1172079Y493517D01*
X1172075Y493508D01*
X1172059Y493487D01*
X1170179Y490043D01*
X1170177Y490034D01*
X1170164Y490011D01*
X1168793Y486335D01*
X1168792Y486325D01*
X1168783Y486301D01*
X1167949Y482467D01*
X1167950Y482457D01*
X1167944Y482431D01*
X1167664Y478518D01*
X1167669Y478492D01*
X1167666Y478467D01*
X1167684Y478425D01*
X1167694Y478381D01*
X1167712Y478363D01*
X1167722Y478339D01*
X1167760Y478314D01*
X1167792Y478282D01*
X1167817Y478276D01*
X1167839Y478262D01*
X1167913Y478251D01*
X1177913Y478251D01*
X1177920Y478253D01*
G37*
G36*
X727755Y478253D02*
X727755Y478253D01*
X727762Y478251D01*
X727822Y478272D01*
X727883Y478290D01*
X727887Y478295D01*
X727894Y478298D01*
X727933Y478348D01*
X727975Y478395D01*
X727976Y478402D01*
X727980Y478408D01*
X727997Y478480D01*
X728211Y481198D01*
X728843Y483831D01*
X729879Y486331D01*
X731293Y488639D01*
X733051Y490698D01*
X735109Y492456D01*
X737417Y493870D01*
X739918Y494906D01*
X742550Y495538D01*
X745248Y495750D01*
X747947Y495538D01*
X750579Y494906D01*
X753080Y493870D01*
X755388Y492456D01*
X757446Y490698D01*
X757570Y490552D01*
X757783Y490303D01*
X758209Y489804D01*
X758422Y489555D01*
X758635Y489306D01*
X758847Y489057D01*
X758848Y489057D01*
X759060Y488807D01*
X759204Y488639D01*
X760618Y486331D01*
X761654Y483831D01*
X762286Y481198D01*
X762500Y478480D01*
X762503Y478474D01*
X762501Y478467D01*
X762527Y478409D01*
X762550Y478350D01*
X762555Y478345D01*
X762558Y478339D01*
X762611Y478304D01*
X762662Y478266D01*
X762669Y478266D01*
X762675Y478262D01*
X762748Y478251D01*
X772748Y478251D01*
X772773Y478258D01*
X772799Y478256D01*
X772839Y478277D01*
X772883Y478290D01*
X772900Y478310D01*
X772923Y478322D01*
X772945Y478361D01*
X772975Y478395D01*
X772978Y478421D01*
X772991Y478444D01*
X772997Y478518D01*
X772717Y482431D01*
X772714Y482441D01*
X772712Y482467D01*
X771878Y486301D01*
X771873Y486309D01*
X771868Y486335D01*
X770497Y490011D01*
X770491Y490019D01*
X770482Y490043D01*
X768602Y493487D01*
X768595Y493494D01*
X768582Y493517D01*
X766231Y496658D01*
X766223Y496664D01*
X766208Y496685D01*
X763433Y499459D01*
X763425Y499464D01*
X763406Y499483D01*
X760265Y501834D01*
X760256Y501837D01*
X760235Y501853D01*
X756792Y503734D01*
X756782Y503736D01*
X756759Y503748D01*
X753083Y505120D01*
X753074Y505120D01*
X753049Y505130D01*
X749215Y505964D01*
X749205Y505963D01*
X749180Y505969D01*
X745266Y506249D01*
X745257Y506247D01*
X745231Y506249D01*
X741317Y505969D01*
X741308Y505965D01*
X741282Y505964D01*
X737448Y505130D01*
X737439Y505125D01*
X737414Y505120D01*
X733737Y503748D01*
X733730Y503743D01*
X733705Y503734D01*
X730261Y501853D01*
X730255Y501846D01*
X730231Y501834D01*
X727090Y499483D01*
X727085Y499475D01*
X727064Y499459D01*
X724289Y496685D01*
X724284Y496676D01*
X724266Y496658D01*
X721914Y493517D01*
X721911Y493508D01*
X721895Y493487D01*
X720015Y490043D01*
X720013Y490034D01*
X720000Y490011D01*
X718629Y486335D01*
X718628Y486325D01*
X718619Y486301D01*
X717785Y482467D01*
X717785Y482457D01*
X717780Y482431D01*
X717500Y478518D01*
X717505Y478492D01*
X717501Y478467D01*
X717520Y478425D01*
X717529Y478381D01*
X717548Y478363D01*
X717558Y478339D01*
X717596Y478314D01*
X717628Y478282D01*
X717653Y478276D01*
X717675Y478262D01*
X717748Y478251D01*
X727748Y478251D01*
X727755Y478253D01*
G37*
G36*
X277591Y478253D02*
X277591Y478253D01*
X277598Y478251D01*
X277657Y478272D01*
X277718Y478290D01*
X277723Y478295D01*
X277730Y478298D01*
X277769Y478348D01*
X277810Y478395D01*
X277811Y478402D01*
X277816Y478408D01*
X277833Y478480D01*
X278047Y481198D01*
X278679Y483831D01*
X279714Y486331D01*
X281129Y488639D01*
X282887Y490698D01*
X284945Y492456D01*
X287253Y493870D01*
X289754Y494906D01*
X292386Y495538D01*
X295084Y495750D01*
X297783Y495538D01*
X300415Y494906D01*
X302916Y493870D01*
X305224Y492456D01*
X307282Y490698D01*
X307406Y490552D01*
X307619Y490303D01*
X308045Y489804D01*
X308258Y489555D01*
X308470Y489306D01*
X308683Y489057D01*
X308896Y488807D01*
X309040Y488639D01*
X310454Y486331D01*
X311490Y483831D01*
X312122Y481198D01*
X312336Y478480D01*
X312338Y478474D01*
X312337Y478467D01*
X312363Y478409D01*
X312385Y478350D01*
X312391Y478345D01*
X312394Y478339D01*
X312447Y478304D01*
X312497Y478266D01*
X312505Y478266D01*
X312511Y478262D01*
X312584Y478251D01*
X322584Y478251D01*
X322609Y478258D01*
X322635Y478256D01*
X322675Y478277D01*
X322718Y478290D01*
X322736Y478310D01*
X322758Y478322D01*
X322781Y478361D01*
X322810Y478395D01*
X322814Y478421D01*
X322827Y478444D01*
X322833Y478518D01*
X322553Y482431D01*
X322550Y482441D01*
X322548Y482467D01*
X321714Y486301D01*
X321709Y486309D01*
X321704Y486335D01*
X320333Y490011D01*
X320327Y490019D01*
X320318Y490043D01*
X318437Y493487D01*
X318431Y493494D01*
X318418Y493517D01*
X316067Y496658D01*
X316059Y496664D01*
X316044Y496685D01*
X313269Y499459D01*
X313261Y499464D01*
X313242Y499483D01*
X310101Y501834D01*
X310092Y501837D01*
X310071Y501853D01*
X306628Y503734D01*
X306618Y503736D01*
X306595Y503748D01*
X302919Y505120D01*
X302909Y505120D01*
X302885Y505130D01*
X299051Y505964D01*
X299041Y505963D01*
X299016Y505969D01*
X295102Y506249D01*
X295093Y506247D01*
X295066Y506249D01*
X291153Y505969D01*
X291144Y505965D01*
X291118Y505964D01*
X287284Y505130D01*
X287275Y505125D01*
X287249Y505120D01*
X283573Y503748D01*
X283565Y503743D01*
X283541Y503734D01*
X280097Y501853D01*
X280090Y501846D01*
X280067Y501834D01*
X276926Y499483D01*
X276920Y499475D01*
X276899Y499459D01*
X274125Y496685D01*
X274120Y496676D01*
X274102Y496658D01*
X271750Y493517D01*
X271747Y493508D01*
X271731Y493487D01*
X269851Y490043D01*
X269849Y490034D01*
X269836Y490011D01*
X268465Y486335D01*
X268464Y486325D01*
X268455Y486301D01*
X267621Y482467D01*
X267621Y482457D01*
X267615Y482431D01*
X267336Y478518D01*
X267341Y478492D01*
X267337Y478467D01*
X267356Y478425D01*
X267365Y478381D01*
X267383Y478363D01*
X267394Y478339D01*
X267432Y478314D01*
X267464Y478282D01*
X267489Y478276D01*
X267511Y478262D01*
X267584Y478251D01*
X277584Y478251D01*
X277591Y478253D01*
G37*
G36*
X1015634Y517256D02*
X1015634Y517256D01*
X1015651Y517253D01*
X1015700Y517275D01*
X1015752Y517290D01*
X1015763Y517303D01*
X1015779Y517310D01*
X1015809Y517355D01*
X1015844Y517395D01*
X1015847Y517412D01*
X1015856Y517427D01*
X1015867Y517500D01*
X1015867Y553250D01*
X1015850Y553308D01*
X1015838Y553366D01*
X1015830Y553378D01*
X1015828Y553384D01*
X1015820Y553391D01*
X1015794Y553426D01*
X1009294Y559926D01*
X1009241Y559955D01*
X1009191Y559988D01*
X1009177Y559990D01*
X1009171Y559993D01*
X1009161Y559993D01*
X1009118Y559999D01*
X1005018Y559999D01*
X1005001Y559994D01*
X1004984Y559997D01*
X1004935Y559975D01*
X1004884Y559960D01*
X1004872Y559947D01*
X1004857Y559940D01*
X1004827Y559895D01*
X1004792Y559855D01*
X1004789Y559838D01*
X1004780Y559824D01*
X1004769Y559750D01*
X1004769Y517500D01*
X1004773Y517484D01*
X1004771Y517467D01*
X1004793Y517417D01*
X1004808Y517366D01*
X1004821Y517355D01*
X1004828Y517339D01*
X1004873Y517309D01*
X1004913Y517274D01*
X1004930Y517271D01*
X1004944Y517262D01*
X1005018Y517251D01*
X1015618Y517251D01*
X1015634Y517256D01*
G37*
G36*
X1690868Y517256D02*
X1690868Y517256D01*
X1690885Y517253D01*
X1690934Y517275D01*
X1690986Y517290D01*
X1690997Y517303D01*
X1691013Y517310D01*
X1691042Y517355D01*
X1691078Y517395D01*
X1691080Y517412D01*
X1691090Y517427D01*
X1691101Y517500D01*
X1691101Y553250D01*
X1691084Y553308D01*
X1691072Y553366D01*
X1691063Y553378D01*
X1691061Y553384D01*
X1691054Y553391D01*
X1691028Y553426D01*
X1684528Y559926D01*
X1684475Y559955D01*
X1684425Y559988D01*
X1684411Y559990D01*
X1684405Y559993D01*
X1684395Y559993D01*
X1684351Y559999D01*
X1680251Y559999D01*
X1680235Y559994D01*
X1680218Y559997D01*
X1680169Y559975D01*
X1680117Y559960D01*
X1680106Y559947D01*
X1680090Y559940D01*
X1680061Y559895D01*
X1680025Y559855D01*
X1680023Y559838D01*
X1680013Y559824D01*
X1680002Y559750D01*
X1680002Y517500D01*
X1680007Y517484D01*
X1680004Y517467D01*
X1680026Y517417D01*
X1680041Y517366D01*
X1680054Y517355D01*
X1680061Y517339D01*
X1680106Y517309D01*
X1680147Y517274D01*
X1680164Y517271D01*
X1680178Y517262D01*
X1680251Y517251D01*
X1690851Y517251D01*
X1690868Y517256D01*
G37*
G36*
X790565Y517256D02*
X790565Y517256D01*
X790582Y517253D01*
X790631Y517275D01*
X790683Y517290D01*
X790694Y517303D01*
X790710Y517310D01*
X790739Y517355D01*
X790775Y517395D01*
X790777Y517412D01*
X790787Y517427D01*
X790798Y517500D01*
X790798Y553250D01*
X790781Y553308D01*
X790769Y553366D01*
X790760Y553378D01*
X790758Y553384D01*
X790751Y553391D01*
X790725Y553426D01*
X784225Y559926D01*
X784172Y559955D01*
X784122Y559988D01*
X784108Y559990D01*
X784102Y559993D01*
X784092Y559993D01*
X784048Y559999D01*
X779948Y559999D01*
X779932Y559994D01*
X779915Y559997D01*
X779866Y559975D01*
X779814Y559960D01*
X779803Y559947D01*
X779787Y559940D01*
X779758Y559895D01*
X779722Y559855D01*
X779720Y559838D01*
X779710Y559824D01*
X779699Y559750D01*
X779699Y517500D01*
X779704Y517484D01*
X779701Y517467D01*
X779723Y517417D01*
X779738Y517366D01*
X779751Y517355D01*
X779758Y517339D01*
X779803Y517309D01*
X779844Y517274D01*
X779861Y517271D01*
X779875Y517262D01*
X779948Y517251D01*
X790548Y517251D01*
X790565Y517256D01*
G37*
G36*
X1465798Y517256D02*
X1465798Y517256D01*
X1465815Y517253D01*
X1465865Y517275D01*
X1465916Y517290D01*
X1465927Y517303D01*
X1465943Y517310D01*
X1465973Y517355D01*
X1466008Y517395D01*
X1466011Y517412D01*
X1466020Y517427D01*
X1466031Y517500D01*
X1466031Y553250D01*
X1466014Y553308D01*
X1466002Y553366D01*
X1465994Y553378D01*
X1465992Y553384D01*
X1465984Y553391D01*
X1465958Y553426D01*
X1459458Y559926D01*
X1459406Y559955D01*
X1459356Y559988D01*
X1459341Y559990D01*
X1459336Y559993D01*
X1459325Y559993D01*
X1459282Y559999D01*
X1455182Y559999D01*
X1455166Y559994D01*
X1455149Y559997D01*
X1455099Y559975D01*
X1455048Y559960D01*
X1455037Y559947D01*
X1455021Y559940D01*
X1454991Y559895D01*
X1454956Y559855D01*
X1454953Y559838D01*
X1454944Y559824D01*
X1454933Y559750D01*
X1454933Y517500D01*
X1454938Y517484D01*
X1454935Y517467D01*
X1454957Y517417D01*
X1454972Y517366D01*
X1454985Y517355D01*
X1454992Y517339D01*
X1455037Y517309D01*
X1455077Y517274D01*
X1455094Y517271D01*
X1455109Y517262D01*
X1455182Y517251D01*
X1465782Y517251D01*
X1465798Y517256D01*
G37*
G36*
X1240729Y517256D02*
X1240729Y517256D01*
X1240746Y517253D01*
X1240795Y517275D01*
X1240847Y517290D01*
X1240858Y517303D01*
X1240874Y517310D01*
X1240903Y517355D01*
X1240939Y517395D01*
X1240941Y517412D01*
X1240951Y517427D01*
X1240962Y517500D01*
X1240962Y553250D01*
X1240945Y553308D01*
X1240933Y553366D01*
X1240924Y553378D01*
X1240923Y553384D01*
X1240915Y553391D01*
X1240889Y553426D01*
X1234389Y559926D01*
X1234336Y559955D01*
X1234286Y559988D01*
X1234272Y559990D01*
X1234266Y559993D01*
X1234256Y559993D01*
X1234213Y559999D01*
X1230113Y559999D01*
X1230096Y559994D01*
X1230079Y559997D01*
X1230030Y559975D01*
X1229978Y559960D01*
X1229967Y559947D01*
X1229951Y559940D01*
X1229922Y559895D01*
X1229886Y559855D01*
X1229884Y559838D01*
X1229874Y559824D01*
X1229863Y559750D01*
X1229863Y517500D01*
X1229868Y517484D01*
X1229866Y517467D01*
X1229887Y517417D01*
X1229903Y517366D01*
X1229915Y517355D01*
X1229922Y517339D01*
X1229967Y517309D01*
X1230008Y517274D01*
X1230025Y517271D01*
X1230039Y517262D01*
X1230113Y517251D01*
X1240713Y517251D01*
X1240729Y517256D01*
G37*
G36*
X115306Y517256D02*
X115306Y517256D01*
X115323Y517253D01*
X115372Y517275D01*
X115424Y517290D01*
X115435Y517303D01*
X115451Y517310D01*
X115480Y517355D01*
X115516Y517395D01*
X115518Y517412D01*
X115528Y517427D01*
X115539Y517500D01*
X115539Y553250D01*
X115522Y553308D01*
X115510Y553366D01*
X115501Y553378D01*
X115499Y553384D01*
X115492Y553391D01*
X115466Y553426D01*
X108966Y559926D01*
X108913Y559955D01*
X108863Y559988D01*
X108849Y559990D01*
X108843Y559993D01*
X108833Y559993D01*
X108789Y559999D01*
X104689Y559999D01*
X104673Y559994D01*
X104656Y559997D01*
X104607Y559975D01*
X104555Y559960D01*
X104544Y559947D01*
X104528Y559940D01*
X104499Y559895D01*
X104463Y559855D01*
X104461Y559838D01*
X104451Y559824D01*
X104440Y559750D01*
X104440Y517500D01*
X104445Y517484D01*
X104442Y517467D01*
X104464Y517417D01*
X104479Y517366D01*
X104492Y517355D01*
X104499Y517339D01*
X104544Y517309D01*
X104585Y517274D01*
X104602Y517271D01*
X104616Y517262D01*
X104689Y517251D01*
X115289Y517251D01*
X115306Y517256D01*
G37*
G36*
X340401Y517256D02*
X340401Y517256D01*
X340418Y517253D01*
X340467Y517275D01*
X340518Y517290D01*
X340530Y517303D01*
X340545Y517310D01*
X340575Y517355D01*
X340610Y517395D01*
X340613Y517412D01*
X340622Y517427D01*
X340633Y517500D01*
X340633Y553250D01*
X340617Y553308D01*
X340605Y553366D01*
X340596Y553378D01*
X340594Y553384D01*
X340586Y553391D01*
X340560Y553426D01*
X334060Y559926D01*
X334008Y559955D01*
X333958Y559988D01*
X333944Y559990D01*
X333938Y559993D01*
X333928Y559993D01*
X333884Y559999D01*
X329784Y559999D01*
X329768Y559994D01*
X329751Y559997D01*
X329702Y559975D01*
X329650Y559960D01*
X329639Y559947D01*
X329623Y559940D01*
X329593Y559895D01*
X329558Y559855D01*
X329555Y559838D01*
X329546Y559824D01*
X329535Y559750D01*
X329535Y517500D01*
X329540Y517484D01*
X329537Y517467D01*
X329559Y517417D01*
X329574Y517366D01*
X329587Y517355D01*
X329594Y517339D01*
X329639Y517309D01*
X329679Y517274D01*
X329696Y517271D01*
X329711Y517262D01*
X329784Y517251D01*
X340384Y517251D01*
X340401Y517256D01*
G37*
G36*
X565470Y517256D02*
X565470Y517256D01*
X565487Y517253D01*
X565536Y517275D01*
X565588Y517290D01*
X565599Y517303D01*
X565615Y517310D01*
X565644Y517355D01*
X565680Y517395D01*
X565682Y517412D01*
X565692Y517427D01*
X565703Y517500D01*
X565703Y553250D01*
X565686Y553308D01*
X565674Y553366D01*
X565665Y553378D01*
X565664Y553384D01*
X565656Y553391D01*
X565630Y553426D01*
X559130Y559926D01*
X559077Y559955D01*
X559027Y559988D01*
X559013Y559990D01*
X559007Y559993D01*
X558997Y559993D01*
X558954Y559999D01*
X554854Y559999D01*
X554837Y559994D01*
X554820Y559997D01*
X554771Y559975D01*
X554719Y559960D01*
X554708Y559947D01*
X554692Y559940D01*
X554663Y559895D01*
X554627Y559855D01*
X554625Y559838D01*
X554615Y559824D01*
X554604Y559750D01*
X554604Y517500D01*
X554609Y517484D01*
X554607Y517467D01*
X554628Y517417D01*
X554644Y517366D01*
X554656Y517355D01*
X554663Y517339D01*
X554708Y517309D01*
X554749Y517274D01*
X554766Y517271D01*
X554780Y517262D01*
X554854Y517251D01*
X565454Y517251D01*
X565470Y517256D01*
G37*
G36*
X340386Y138506D02*
X340386Y138506D01*
X340403Y138503D01*
X340452Y138525D01*
X340504Y138540D01*
X340515Y138553D01*
X340531Y138560D01*
X340560Y138605D01*
X340596Y138645D01*
X340598Y138662D01*
X340608Y138677D01*
X340619Y138750D01*
X340619Y181000D01*
X340614Y181016D01*
X340616Y181033D01*
X340595Y181083D01*
X340579Y181134D01*
X340567Y181145D01*
X340560Y181161D01*
X340515Y181191D01*
X340474Y181226D01*
X340457Y181229D01*
X340443Y181238D01*
X340369Y181249D01*
X329769Y181249D01*
X329753Y181244D01*
X329736Y181247D01*
X329687Y181225D01*
X329635Y181210D01*
X329624Y181197D01*
X329608Y181190D01*
X329579Y181145D01*
X329543Y181105D01*
X329541Y181088D01*
X329531Y181074D01*
X329520Y181000D01*
X329520Y145250D01*
X329537Y145192D01*
X329549Y145134D01*
X329558Y145122D01*
X329559Y145116D01*
X329567Y145109D01*
X329593Y145074D01*
X336093Y138574D01*
X336146Y138545D01*
X336196Y138512D01*
X336210Y138510D01*
X336216Y138507D01*
X336226Y138507D01*
X336269Y138501D01*
X340369Y138501D01*
X340386Y138506D01*
G37*
G36*
X565481Y138506D02*
X565481Y138506D01*
X565498Y138503D01*
X565547Y138525D01*
X565598Y138540D01*
X565610Y138553D01*
X565625Y138560D01*
X565655Y138605D01*
X565690Y138645D01*
X565693Y138662D01*
X565702Y138677D01*
X565713Y138750D01*
X565713Y181000D01*
X565709Y181016D01*
X565711Y181033D01*
X565689Y181083D01*
X565674Y181134D01*
X565661Y181145D01*
X565654Y181161D01*
X565609Y181191D01*
X565569Y181226D01*
X565552Y181229D01*
X565538Y181238D01*
X565464Y181249D01*
X554864Y181249D01*
X554848Y181244D01*
X554831Y181247D01*
X554782Y181225D01*
X554730Y181210D01*
X554719Y181197D01*
X554703Y181190D01*
X554673Y181145D01*
X554638Y181105D01*
X554635Y181088D01*
X554626Y181074D01*
X554615Y181000D01*
X554615Y145250D01*
X554632Y145192D01*
X554644Y145134D01*
X554652Y145122D01*
X554654Y145116D01*
X554662Y145109D01*
X554688Y145074D01*
X561188Y138574D01*
X561241Y138545D01*
X561291Y138512D01*
X561305Y138510D01*
X561311Y138507D01*
X561321Y138507D01*
X561364Y138501D01*
X565464Y138501D01*
X565481Y138506D01*
G37*
G36*
X1240714Y138506D02*
X1240714Y138506D01*
X1240731Y138503D01*
X1240780Y138525D01*
X1240832Y138540D01*
X1240843Y138553D01*
X1240859Y138560D01*
X1240889Y138605D01*
X1240924Y138645D01*
X1240927Y138662D01*
X1240936Y138677D01*
X1240947Y138750D01*
X1240947Y181000D01*
X1240942Y181016D01*
X1240945Y181033D01*
X1240923Y181083D01*
X1240908Y181134D01*
X1240895Y181145D01*
X1240888Y181161D01*
X1240843Y181191D01*
X1240803Y181226D01*
X1240786Y181229D01*
X1240771Y181238D01*
X1240698Y181249D01*
X1230098Y181249D01*
X1230081Y181244D01*
X1230064Y181247D01*
X1230015Y181225D01*
X1229964Y181210D01*
X1229952Y181197D01*
X1229937Y181190D01*
X1229907Y181145D01*
X1229872Y181105D01*
X1229869Y181088D01*
X1229860Y181074D01*
X1229849Y181000D01*
X1229849Y145250D01*
X1229865Y145192D01*
X1229877Y145134D01*
X1229886Y145122D01*
X1229888Y145116D01*
X1229896Y145109D01*
X1229922Y145074D01*
X1236422Y138574D01*
X1236474Y138545D01*
X1236524Y138512D01*
X1236538Y138510D01*
X1236544Y138507D01*
X1236554Y138507D01*
X1236598Y138501D01*
X1240698Y138501D01*
X1240714Y138506D01*
G37*
G36*
X1465809Y138506D02*
X1465809Y138506D01*
X1465826Y138503D01*
X1465875Y138525D01*
X1465927Y138540D01*
X1465938Y138553D01*
X1465954Y138560D01*
X1465983Y138605D01*
X1466019Y138645D01*
X1466021Y138662D01*
X1466031Y138677D01*
X1466042Y138750D01*
X1466042Y181000D01*
X1466037Y181016D01*
X1466040Y181033D01*
X1466018Y181083D01*
X1466003Y181134D01*
X1465990Y181145D01*
X1465983Y181161D01*
X1465938Y181191D01*
X1465897Y181226D01*
X1465880Y181229D01*
X1465866Y181238D01*
X1465793Y181249D01*
X1455193Y181249D01*
X1455176Y181244D01*
X1455159Y181247D01*
X1455110Y181225D01*
X1455058Y181210D01*
X1455047Y181197D01*
X1455031Y181190D01*
X1455002Y181145D01*
X1454966Y181105D01*
X1454964Y181088D01*
X1454954Y181074D01*
X1454943Y181000D01*
X1454943Y145250D01*
X1454960Y145192D01*
X1454972Y145134D01*
X1454981Y145122D01*
X1454983Y145116D01*
X1454990Y145109D01*
X1455016Y145074D01*
X1461516Y138574D01*
X1461569Y138545D01*
X1461619Y138512D01*
X1461633Y138510D01*
X1461639Y138507D01*
X1461649Y138507D01*
X1461693Y138501D01*
X1465793Y138501D01*
X1465809Y138506D01*
G37*
G36*
X1690878Y138506D02*
X1690878Y138506D01*
X1690895Y138503D01*
X1690945Y138525D01*
X1690996Y138540D01*
X1691007Y138553D01*
X1691023Y138560D01*
X1691053Y138605D01*
X1691088Y138645D01*
X1691091Y138662D01*
X1691100Y138677D01*
X1691111Y138750D01*
X1691111Y181000D01*
X1691106Y181016D01*
X1691109Y181033D01*
X1691087Y181083D01*
X1691072Y181134D01*
X1691059Y181145D01*
X1691052Y181161D01*
X1691007Y181191D01*
X1690967Y181226D01*
X1690950Y181229D01*
X1690936Y181238D01*
X1690862Y181249D01*
X1680262Y181249D01*
X1680246Y181244D01*
X1680229Y181247D01*
X1680179Y181225D01*
X1680128Y181210D01*
X1680117Y181197D01*
X1680101Y181190D01*
X1680071Y181145D01*
X1680036Y181105D01*
X1680033Y181088D01*
X1680024Y181074D01*
X1680013Y181000D01*
X1680013Y145250D01*
X1680030Y145192D01*
X1680042Y145134D01*
X1680050Y145122D01*
X1680052Y145116D01*
X1680060Y145109D01*
X1680086Y145074D01*
X1686586Y138574D01*
X1686638Y138545D01*
X1686689Y138512D01*
X1686703Y138510D01*
X1686708Y138507D01*
X1686719Y138507D01*
X1686762Y138501D01*
X1690862Y138501D01*
X1690878Y138506D01*
G37*
G36*
X790550Y138506D02*
X790550Y138506D01*
X790567Y138503D01*
X790616Y138525D01*
X790668Y138540D01*
X790679Y138553D01*
X790695Y138560D01*
X790724Y138605D01*
X790760Y138645D01*
X790762Y138662D01*
X790772Y138677D01*
X790783Y138750D01*
X790783Y181000D01*
X790778Y181016D01*
X790781Y181033D01*
X790759Y181083D01*
X790744Y181134D01*
X790731Y181145D01*
X790724Y181161D01*
X790679Y181191D01*
X790638Y181226D01*
X790621Y181229D01*
X790607Y181238D01*
X790534Y181249D01*
X779934Y181249D01*
X779917Y181244D01*
X779900Y181247D01*
X779851Y181225D01*
X779799Y181210D01*
X779788Y181197D01*
X779772Y181190D01*
X779743Y181145D01*
X779707Y181105D01*
X779705Y181088D01*
X779695Y181074D01*
X779684Y181000D01*
X779684Y145250D01*
X779701Y145192D01*
X779713Y145134D01*
X779722Y145122D01*
X779724Y145116D01*
X779731Y145109D01*
X779757Y145074D01*
X786257Y138574D01*
X786310Y138545D01*
X786360Y138512D01*
X786374Y138510D01*
X786380Y138507D01*
X786390Y138507D01*
X786434Y138501D01*
X790534Y138501D01*
X790550Y138506D01*
G37*
G36*
X115316Y138506D02*
X115316Y138506D01*
X115333Y138503D01*
X115383Y138525D01*
X115434Y138540D01*
X115445Y138553D01*
X115461Y138560D01*
X115491Y138605D01*
X115526Y138645D01*
X115529Y138662D01*
X115538Y138677D01*
X115549Y138750D01*
X115549Y181000D01*
X115544Y181016D01*
X115547Y181033D01*
X115525Y181083D01*
X115510Y181134D01*
X115497Y181145D01*
X115490Y181161D01*
X115445Y181191D01*
X115405Y181226D01*
X115388Y181229D01*
X115374Y181238D01*
X115300Y181249D01*
X104700Y181249D01*
X104684Y181244D01*
X104667Y181247D01*
X104617Y181225D01*
X104566Y181210D01*
X104555Y181197D01*
X104539Y181190D01*
X104509Y181145D01*
X104474Y181105D01*
X104471Y181088D01*
X104462Y181074D01*
X104451Y181000D01*
X104451Y145250D01*
X104468Y145192D01*
X104480Y145134D01*
X104488Y145122D01*
X104490Y145116D01*
X104498Y145109D01*
X104524Y145074D01*
X111024Y138574D01*
X111076Y138545D01*
X111127Y138512D01*
X111141Y138510D01*
X111146Y138507D01*
X111157Y138507D01*
X111200Y138501D01*
X115300Y138501D01*
X115316Y138506D01*
G37*
G36*
X1015645Y138506D02*
X1015645Y138506D01*
X1015662Y138503D01*
X1015711Y138525D01*
X1015763Y138540D01*
X1015774Y138553D01*
X1015790Y138560D01*
X1015819Y138605D01*
X1015855Y138645D01*
X1015857Y138662D01*
X1015867Y138677D01*
X1015878Y138750D01*
X1015878Y181000D01*
X1015873Y181016D01*
X1015875Y181033D01*
X1015854Y181083D01*
X1015838Y181134D01*
X1015826Y181145D01*
X1015819Y181161D01*
X1015774Y181191D01*
X1015733Y181226D01*
X1015716Y181229D01*
X1015702Y181238D01*
X1015628Y181249D01*
X1005028Y181249D01*
X1005012Y181244D01*
X1004995Y181247D01*
X1004946Y181225D01*
X1004894Y181210D01*
X1004883Y181197D01*
X1004867Y181190D01*
X1004838Y181145D01*
X1004802Y181105D01*
X1004800Y181088D01*
X1004790Y181074D01*
X1004779Y181000D01*
X1004779Y145250D01*
X1004796Y145192D01*
X1004808Y145134D01*
X1004817Y145122D01*
X1004818Y145116D01*
X1004826Y145109D01*
X1004852Y145074D01*
X1011352Y138574D01*
X1011405Y138545D01*
X1011455Y138512D01*
X1011469Y138510D01*
X1011475Y138507D01*
X1011485Y138507D01*
X1011528Y138501D01*
X1015628Y138501D01*
X1015645Y138506D01*
G37*
D10*
X210000Y210000D03*
X10000Y50000D03*
D11*
X200000Y15250D03*
X195000Y15250D03*
X190000Y15250D03*
X185000Y15250D03*
X180000Y15250D03*
X175000Y15250D03*
X170000Y15250D03*
X165000Y15250D03*
X160000Y15250D03*
X155000Y15250D03*
X150000Y15250D03*
X125000Y15250D03*
X120000Y15250D03*
X115000Y15250D03*
X110000Y15250D03*
X105000Y15250D03*
X100000Y15250D03*
X95000Y15250D03*
X90000Y15250D03*
X85000Y15250D03*
X80000Y15250D03*
X75000Y15250D03*
X70000Y15250D03*
X65000Y15250D03*
X60000Y15250D03*
X55000Y15250D03*
X50000Y15250D03*
X45000Y15250D03*
X40000Y15250D03*
X35000Y15250D03*
X30000Y15250D03*
X25000Y15250D03*
X20000Y15250D03*
D12*
X129000Y210000D03*
X171000Y210000D03*
X150000Y197000D03*
D13*
X150000Y155000D03*
X150000Y165000D03*
D14*
X82250Y140950D03*
X82250Y153650D03*
X82250Y166350D03*
X82250Y179050D03*
X137750Y166350D03*
X137750Y179050D03*
X137750Y153650D03*
X137750Y140950D03*
D13*
X65000Y120000D03*
X55000Y120000D03*
X136000Y72000D03*
X136000Y62000D03*
X155000Y90000D03*
X165000Y90000D03*
X100000Y70000D03*
X100000Y60000D03*
X155000Y130000D03*
X165000Y130000D03*
X155000Y100000D03*
X165000Y100000D03*
X65000Y110000D03*
X55000Y110000D03*
X60000Y145000D03*
X60000Y155000D03*
X165000Y110000D03*
X155000Y110000D03*
X165000Y120000D03*
X155000Y120000D03*
X155000Y140000D03*
X165000Y140000D03*
X160000Y155000D03*
X160000Y165000D03*
X155000Y80000D03*
X165000Y80000D03*
X155000Y70000D03*
X165000Y70000D03*
X50000Y145000D03*
X50000Y155000D03*
D15*
X180000Y122500D03*
X185000Y122500D03*
X190000Y122500D03*
X195000Y122500D03*
X200000Y122500D03*
X200000Y77500D03*
X195000Y77500D03*
X190000Y77500D03*
X185000Y77500D03*
X180000Y77500D03*
D13*
X185000Y60000D03*
X195000Y60000D03*
X175000Y140000D03*
X185000Y140000D03*
X205000Y140000D03*
X195000Y140000D03*
D10*
X435069Y210000D03*
X235069Y50000D03*
D11*
X425069Y15250D03*
X420069Y15250D03*
X415069Y15250D03*
X410069Y15250D03*
X405069Y15250D03*
X400069Y15250D03*
X395069Y15250D03*
X390069Y15250D03*
X385069Y15250D03*
X380069Y15250D03*
X375069Y15250D03*
X350069Y15250D03*
X345069Y15250D03*
X340069Y15250D03*
X335069Y15250D03*
X330069Y15250D03*
X325069Y15250D03*
X320069Y15250D03*
X315069Y15250D03*
X310069Y15250D03*
X305069Y15250D03*
X300069Y15250D03*
X295069Y15250D03*
X290069Y15250D03*
X285069Y15250D03*
X280069Y15250D03*
X275069Y15250D03*
X270069Y15250D03*
X265069Y15250D03*
X260069Y15250D03*
X255069Y15250D03*
X250069Y15250D03*
X245069Y15250D03*
D12*
X354069Y210000D03*
X396069Y210000D03*
X375069Y197000D03*
D13*
X375069Y155000D03*
X375069Y165000D03*
D14*
X307319Y140950D03*
X307319Y153650D03*
X307319Y166350D03*
X307319Y179050D03*
X362819Y166350D03*
X362819Y179050D03*
X362819Y153650D03*
X362819Y140950D03*
D13*
X290069Y120000D03*
X280069Y120000D03*
X361069Y72000D03*
X361069Y62000D03*
X380069Y90000D03*
X390069Y90000D03*
X325069Y70000D03*
X325069Y60000D03*
X380069Y130000D03*
X390069Y130000D03*
X380069Y100000D03*
X390069Y100000D03*
X290069Y110000D03*
X280069Y110000D03*
X285069Y145000D03*
X285069Y155000D03*
X390069Y110000D03*
X380069Y110000D03*
X390069Y120000D03*
X380069Y120000D03*
X380069Y140000D03*
X390069Y140000D03*
X385069Y155000D03*
X385069Y165000D03*
X380069Y80000D03*
X390069Y80000D03*
X380069Y70000D03*
X390069Y70000D03*
X275069Y145000D03*
X275069Y155000D03*
D15*
X405069Y122500D03*
X410069Y122500D03*
X415069Y122500D03*
X420069Y122500D03*
X425069Y122500D03*
X425069Y77500D03*
X420069Y77500D03*
X415069Y77500D03*
X410069Y77500D03*
X405069Y77500D03*
D13*
X410069Y60000D03*
X420069Y60000D03*
X400069Y140000D03*
X410069Y140000D03*
X430069Y140000D03*
X420069Y140000D03*
D10*
X660164Y210000D03*
X460164Y50000D03*
D11*
X650164Y15250D03*
X645164Y15250D03*
X640164Y15250D03*
X635164Y15250D03*
X630164Y15250D03*
X625164Y15250D03*
X620164Y15250D03*
X615164Y15250D03*
X610164Y15250D03*
X605164Y15250D03*
X600164Y15250D03*
X575164Y15250D03*
X570164Y15250D03*
X565164Y15250D03*
X560164Y15250D03*
X555164Y15250D03*
X550164Y15250D03*
X545164Y15250D03*
X540164Y15250D03*
X535164Y15250D03*
X530164Y15250D03*
X525164Y15250D03*
X520164Y15250D03*
X515164Y15250D03*
X510164Y15250D03*
X505164Y15250D03*
X500164Y15250D03*
X495164Y15250D03*
X490164Y15250D03*
X485164Y15250D03*
X480164Y15250D03*
X475164Y15250D03*
X470164Y15250D03*
D12*
X579164Y210000D03*
X621164Y210000D03*
X600164Y197000D03*
D13*
X600164Y155000D03*
X600164Y165000D03*
D14*
X532414Y140950D03*
X532414Y153650D03*
X532414Y166350D03*
X532414Y179050D03*
X587914Y166350D03*
X587914Y179050D03*
X587914Y153650D03*
X587914Y140950D03*
D13*
X515164Y120000D03*
X505164Y120000D03*
X586164Y72000D03*
X586164Y62000D03*
X605164Y90000D03*
X615164Y90000D03*
X550164Y70000D03*
X550164Y60000D03*
X605164Y130000D03*
X615164Y130000D03*
X605164Y100000D03*
X615164Y100000D03*
X515164Y110000D03*
X505164Y110000D03*
X510164Y145000D03*
X510164Y155000D03*
X615164Y110000D03*
X605164Y110000D03*
X615164Y120000D03*
X605164Y120000D03*
X605164Y140000D03*
X615164Y140000D03*
X610164Y155000D03*
X610164Y165000D03*
X605164Y80000D03*
X615164Y80000D03*
X605164Y70000D03*
X615164Y70000D03*
X500164Y145000D03*
X500164Y155000D03*
D15*
X630164Y122500D03*
X635164Y122500D03*
X640164Y122500D03*
X645164Y122500D03*
X650164Y122500D03*
X650164Y77500D03*
X645164Y77500D03*
X640164Y77500D03*
X635164Y77500D03*
X630164Y77500D03*
D13*
X635164Y60000D03*
X645164Y60000D03*
X625164Y140000D03*
X635164Y140000D03*
X655164Y140000D03*
X645164Y140000D03*
D10*
X885234Y210000D03*
X685234Y50000D03*
D11*
X875234Y15250D03*
X870234Y15250D03*
X865234Y15250D03*
X860234Y15250D03*
X855234Y15250D03*
X850234Y15250D03*
X845234Y15250D03*
X840234Y15250D03*
X835234Y15250D03*
X830234Y15250D03*
X825234Y15250D03*
X800234Y15250D03*
X795234Y15250D03*
X790234Y15250D03*
X785234Y15250D03*
X780234Y15250D03*
X775234Y15250D03*
X770234Y15250D03*
X765234Y15250D03*
X760234Y15250D03*
X755234Y15250D03*
X750234Y15250D03*
X745234Y15250D03*
X740234Y15250D03*
X735234Y15250D03*
X730234Y15250D03*
X725234Y15250D03*
X720234Y15250D03*
X715234Y15250D03*
X710234Y15250D03*
X705234Y15250D03*
X700234Y15250D03*
X695234Y15250D03*
D12*
X804234Y210000D03*
X846234Y210000D03*
X825234Y197000D03*
D13*
X825234Y155000D03*
X825234Y165000D03*
D14*
X757484Y140950D03*
X757484Y153650D03*
X757484Y166350D03*
X757484Y179050D03*
X812984Y166350D03*
X812984Y179050D03*
X812984Y153650D03*
X812984Y140950D03*
D13*
X740234Y120000D03*
X730234Y120000D03*
X811234Y72000D03*
X811234Y62000D03*
X830234Y90000D03*
X840234Y90000D03*
X775234Y70000D03*
X775234Y60000D03*
X830234Y130000D03*
X840234Y130000D03*
X830234Y100000D03*
X840234Y100000D03*
X740234Y110000D03*
X730234Y110000D03*
X735234Y145000D03*
X735234Y155000D03*
X840234Y110000D03*
X830234Y110000D03*
X840234Y120000D03*
X830234Y120000D03*
X830234Y140000D03*
X840234Y140000D03*
X835234Y155000D03*
X835234Y165000D03*
X830234Y80000D03*
X840234Y80000D03*
X830234Y70000D03*
X840234Y70000D03*
X725234Y145000D03*
X725234Y155000D03*
D15*
X855234Y122500D03*
X860234Y122500D03*
X865234Y122500D03*
X870234Y122500D03*
X875234Y122500D03*
X875234Y77500D03*
X870234Y77500D03*
X865234Y77500D03*
X860234Y77500D03*
X855234Y77500D03*
D13*
X860234Y60000D03*
X870234Y60000D03*
X850234Y140000D03*
X860234Y140000D03*
X880234Y140000D03*
X870234Y140000D03*
D10*
X1110328Y210000D03*
X910328Y50000D03*
D11*
X1100328Y15250D03*
X1095328Y15250D03*
X1090328Y15250D03*
X1085328Y15250D03*
X1080328Y15250D03*
X1075328Y15250D03*
X1070328Y15250D03*
X1065328Y15250D03*
X1060328Y15250D03*
X1055328Y15250D03*
X1050328Y15250D03*
X1025328Y15250D03*
X1020328Y15250D03*
X1015328Y15250D03*
X1010328Y15250D03*
X1005328Y15250D03*
X1000328Y15250D03*
X995328Y15250D03*
X990328Y15250D03*
X985328Y15250D03*
X980328Y15250D03*
X975328Y15250D03*
X970328Y15250D03*
X965328Y15250D03*
X960328Y15250D03*
X955328Y15250D03*
X950328Y15250D03*
X945328Y15250D03*
X940328Y15250D03*
X935328Y15250D03*
X930328Y15250D03*
X925328Y15250D03*
X920328Y15250D03*
D12*
X1029328Y210000D03*
X1071328Y210000D03*
X1050328Y197000D03*
D13*
X1050328Y155000D03*
X1050328Y165000D03*
D14*
X982578Y140950D03*
X982578Y153650D03*
X982578Y166350D03*
X982578Y179050D03*
X1038078Y166350D03*
X1038078Y179050D03*
X1038078Y153650D03*
X1038078Y140950D03*
D13*
X965328Y120000D03*
X955328Y120000D03*
X1036328Y72000D03*
X1036328Y62000D03*
X1055328Y90000D03*
X1065328Y90000D03*
X1000328Y70000D03*
X1000328Y60000D03*
X1055328Y130000D03*
X1065328Y130000D03*
X1055328Y100000D03*
X1065328Y100000D03*
X965328Y110000D03*
X955328Y110000D03*
X960328Y145000D03*
X960328Y155000D03*
X1065328Y110000D03*
X1055328Y110000D03*
X1065328Y120000D03*
X1055328Y120000D03*
X1055328Y140000D03*
X1065328Y140000D03*
X1060328Y155000D03*
X1060328Y165000D03*
X1055328Y80000D03*
X1065328Y80000D03*
X1055328Y70000D03*
X1065328Y70000D03*
X950328Y145000D03*
X950328Y155000D03*
D15*
X1080328Y122500D03*
X1085328Y122500D03*
X1090328Y122500D03*
X1095328Y122500D03*
X1100328Y122500D03*
X1100328Y77500D03*
X1095328Y77500D03*
X1090328Y77500D03*
X1085328Y77500D03*
X1080328Y77500D03*
D13*
X1085328Y60000D03*
X1095328Y60000D03*
X1075328Y140000D03*
X1085328Y140000D03*
X1105328Y140000D03*
X1095328Y140000D03*
D10*
X1335398Y210000D03*
X1135398Y50000D03*
D11*
X1325398Y15250D03*
X1320398Y15250D03*
X1315398Y15250D03*
X1310398Y15250D03*
X1305398Y15250D03*
X1300398Y15250D03*
X1295398Y15250D03*
X1290398Y15250D03*
X1285398Y15250D03*
X1280398Y15250D03*
X1275398Y15250D03*
X1250398Y15250D03*
X1245398Y15250D03*
X1240398Y15250D03*
X1235398Y15250D03*
X1230398Y15250D03*
X1225398Y15250D03*
X1220398Y15250D03*
X1215398Y15250D03*
X1210398Y15250D03*
X1205398Y15250D03*
X1200398Y15250D03*
X1195398Y15250D03*
X1190398Y15250D03*
X1185398Y15250D03*
X1180398Y15250D03*
X1175398Y15250D03*
X1170398Y15250D03*
X1165398Y15250D03*
X1160398Y15250D03*
X1155398Y15250D03*
X1150398Y15250D03*
X1145398Y15250D03*
D12*
X1254398Y210000D03*
X1296398Y210000D03*
X1275398Y197000D03*
D13*
X1275398Y155000D03*
X1275398Y165000D03*
D14*
X1207648Y140950D03*
X1207648Y153650D03*
X1207648Y166350D03*
X1207648Y179050D03*
X1263148Y166350D03*
X1263148Y179050D03*
X1263148Y153650D03*
X1263148Y140950D03*
D13*
X1190398Y120000D03*
X1180398Y120000D03*
X1261398Y72000D03*
X1261398Y62000D03*
X1280398Y90000D03*
X1290398Y90000D03*
X1225398Y70000D03*
X1225398Y60000D03*
X1280398Y130000D03*
X1290398Y130000D03*
X1280398Y100000D03*
X1290398Y100000D03*
X1190398Y110000D03*
X1180398Y110000D03*
X1185398Y145000D03*
X1185398Y155000D03*
X1290398Y110000D03*
X1280398Y110000D03*
X1290398Y120000D03*
X1280398Y120000D03*
X1280398Y140000D03*
X1290398Y140000D03*
X1285398Y155000D03*
X1285398Y165000D03*
X1280398Y80000D03*
X1290398Y80000D03*
X1280398Y70000D03*
X1290398Y70000D03*
X1175398Y145000D03*
X1175398Y155000D03*
D15*
X1305398Y122500D03*
X1310398Y122500D03*
X1315398Y122500D03*
X1320398Y122500D03*
X1325398Y122500D03*
X1325398Y77500D03*
X1320398Y77500D03*
X1315398Y77500D03*
X1310398Y77500D03*
X1305398Y77500D03*
D13*
X1310398Y60000D03*
X1320398Y60000D03*
X1300398Y140000D03*
X1310398Y140000D03*
X1330398Y140000D03*
X1320398Y140000D03*
D10*
X1560493Y210000D03*
X1360493Y50000D03*
D11*
X1550493Y15250D03*
X1545493Y15250D03*
X1540493Y15250D03*
X1535493Y15250D03*
X1530493Y15250D03*
X1525493Y15250D03*
X1520493Y15250D03*
X1515493Y15250D03*
X1510493Y15250D03*
X1505493Y15250D03*
X1500493Y15250D03*
X1475493Y15250D03*
X1470493Y15250D03*
X1465493Y15250D03*
X1460493Y15250D03*
X1455493Y15250D03*
X1450493Y15250D03*
X1445493Y15250D03*
X1440493Y15250D03*
X1435493Y15250D03*
X1430493Y15250D03*
X1425493Y15250D03*
X1420493Y15250D03*
X1415493Y15250D03*
X1410493Y15250D03*
X1405493Y15250D03*
X1400493Y15250D03*
X1395493Y15250D03*
X1390493Y15250D03*
X1385493Y15250D03*
X1380493Y15250D03*
X1375493Y15250D03*
X1370493Y15250D03*
D12*
X1479493Y210000D03*
X1521493Y210000D03*
X1500493Y197000D03*
D13*
X1500493Y155000D03*
X1500493Y165000D03*
D14*
X1432743Y140950D03*
X1432743Y153650D03*
X1432743Y166350D03*
X1432743Y179050D03*
X1488243Y166350D03*
X1488243Y179050D03*
X1488243Y153650D03*
X1488243Y140950D03*
D13*
X1415493Y120000D03*
X1405493Y120000D03*
X1486493Y72000D03*
X1486493Y62000D03*
X1505493Y90000D03*
X1515493Y90000D03*
X1450493Y70000D03*
X1450493Y60000D03*
X1505493Y130000D03*
X1515493Y130000D03*
X1505493Y100000D03*
X1515493Y100000D03*
X1415493Y110000D03*
X1405493Y110000D03*
X1410493Y145000D03*
X1410493Y155000D03*
X1515493Y110000D03*
X1505493Y110000D03*
X1515493Y120000D03*
X1505493Y120000D03*
X1505493Y140000D03*
X1515493Y140000D03*
X1510493Y155000D03*
X1510493Y165000D03*
X1505493Y80000D03*
X1515493Y80000D03*
X1505493Y70000D03*
X1515493Y70000D03*
X1400493Y145000D03*
X1400493Y155000D03*
D15*
X1530493Y122500D03*
X1535493Y122500D03*
X1540493Y122500D03*
X1545493Y122500D03*
X1550493Y122500D03*
X1550493Y77500D03*
X1545493Y77500D03*
X1540493Y77500D03*
X1535493Y77500D03*
X1530493Y77500D03*
D13*
X1535493Y60000D03*
X1545493Y60000D03*
X1525493Y140000D03*
X1535493Y140000D03*
X1555493Y140000D03*
X1545493Y140000D03*
D10*
X1785562Y210000D03*
X1585562Y50000D03*
D11*
X1775562Y15250D03*
X1770562Y15250D03*
X1765562Y15250D03*
X1760562Y15250D03*
X1755562Y15250D03*
X1750562Y15250D03*
X1745562Y15250D03*
X1740562Y15250D03*
X1735562Y15250D03*
X1730562Y15250D03*
X1725562Y15250D03*
X1700562Y15250D03*
X1695562Y15250D03*
X1690562Y15250D03*
X1685562Y15250D03*
X1680562Y15250D03*
X1675562Y15250D03*
X1670562Y15250D03*
X1665562Y15250D03*
X1660562Y15250D03*
X1655562Y15250D03*
X1650562Y15250D03*
X1645562Y15250D03*
X1640562Y15250D03*
X1635562Y15250D03*
X1630562Y15250D03*
X1625562Y15250D03*
X1620562Y15250D03*
X1615562Y15250D03*
X1610562Y15250D03*
X1605562Y15250D03*
X1600562Y15250D03*
X1595562Y15250D03*
D12*
X1704562Y210000D03*
X1746562Y210000D03*
X1725562Y197000D03*
D13*
X1725562Y155000D03*
X1725562Y165000D03*
D14*
X1657812Y140950D03*
X1657812Y153650D03*
X1657812Y166350D03*
X1657812Y179050D03*
X1713312Y166350D03*
X1713312Y179050D03*
X1713312Y153650D03*
X1713312Y140950D03*
D13*
X1640562Y120000D03*
X1630562Y120000D03*
X1711562Y72000D03*
X1711562Y62000D03*
X1730562Y90000D03*
X1740562Y90000D03*
X1675562Y70000D03*
X1675562Y60000D03*
X1730562Y130000D03*
X1740562Y130000D03*
X1730562Y100000D03*
X1740562Y100000D03*
X1640562Y110000D03*
X1630562Y110000D03*
X1635562Y145000D03*
X1635562Y155000D03*
X1740562Y110000D03*
X1730562Y110000D03*
X1740562Y120000D03*
X1730562Y120000D03*
X1730562Y140000D03*
X1740562Y140000D03*
X1735562Y155000D03*
X1735562Y165000D03*
X1730562Y80000D03*
X1740562Y80000D03*
X1730562Y70000D03*
X1740562Y70000D03*
X1625562Y145000D03*
X1625562Y155000D03*
D15*
X1755562Y122500D03*
X1760562Y122500D03*
X1765562Y122500D03*
X1770562Y122500D03*
X1775562Y122500D03*
X1775562Y77500D03*
X1770562Y77500D03*
X1765562Y77500D03*
X1760562Y77500D03*
X1755562Y77500D03*
D13*
X1760562Y60000D03*
X1770562Y60000D03*
X1750562Y140000D03*
X1760562Y140000D03*
X1780562Y140000D03*
X1770562Y140000D03*
D10*
X9989Y488500D03*
X209989Y648500D03*
D11*
X19989Y683250D03*
X24989Y683250D03*
X29989Y683250D03*
X34989Y683250D03*
X39989Y683250D03*
X44989Y683250D03*
X49989Y683250D03*
X54989Y683250D03*
X59989Y683250D03*
X64989Y683250D03*
X69989Y683250D03*
X94989Y683250D03*
X99989Y683250D03*
X104989Y683250D03*
X109989Y683250D03*
X114989Y683250D03*
X119989Y683250D03*
X124989Y683250D03*
X129989Y683250D03*
X134989Y683250D03*
X139989Y683250D03*
X144989Y683250D03*
X149989Y683250D03*
X154989Y683250D03*
X159989Y683250D03*
X164989Y683250D03*
X169989Y683250D03*
X174989Y683250D03*
X179989Y683250D03*
X184989Y683250D03*
X189989Y683250D03*
X194989Y683250D03*
X199989Y683250D03*
D12*
X90989Y488500D03*
X48989Y488500D03*
X69989Y501500D03*
D13*
X69989Y543500D03*
X69989Y533500D03*
D14*
X137739Y557550D03*
X137739Y544850D03*
X137739Y532150D03*
X137739Y519450D03*
X82239Y532150D03*
X82239Y519450D03*
X82239Y544850D03*
X82239Y557550D03*
D13*
X154989Y578500D03*
X164989Y578500D03*
X83989Y626500D03*
X83989Y636500D03*
X64989Y608500D03*
X54989Y608500D03*
X119989Y628500D03*
X119989Y638500D03*
X64989Y568500D03*
X54989Y568500D03*
X64989Y598500D03*
X54989Y598500D03*
X154989Y588500D03*
X164989Y588500D03*
X159989Y553500D03*
X159989Y543500D03*
X54989Y588500D03*
X64989Y588500D03*
X54989Y578500D03*
X64989Y578500D03*
X64989Y558500D03*
X54989Y558500D03*
X59989Y543500D03*
X59989Y533500D03*
X64989Y618500D03*
X54989Y618500D03*
X64989Y628500D03*
X54989Y628500D03*
X169989Y553500D03*
X169989Y543500D03*
D15*
X39989Y576000D03*
X34989Y576000D03*
X29989Y576000D03*
X24989Y576000D03*
X19989Y576000D03*
X19989Y621000D03*
X24989Y621000D03*
X29989Y621000D03*
X34989Y621000D03*
X39989Y621000D03*
D13*
X34989Y638500D03*
X24989Y638500D03*
X44989Y558500D03*
X34989Y558500D03*
X14989Y558500D03*
X24989Y558500D03*
D10*
X235084Y488500D03*
X435084Y648500D03*
D11*
X245084Y683250D03*
X250084Y683250D03*
X255084Y683250D03*
X260084Y683250D03*
X265084Y683250D03*
X270084Y683250D03*
X275084Y683250D03*
X280084Y683250D03*
X285084Y683250D03*
X290084Y683250D03*
X295084Y683250D03*
X320084Y683250D03*
X325084Y683250D03*
X330084Y683250D03*
X335084Y683250D03*
X340084Y683250D03*
X345084Y683250D03*
X350084Y683250D03*
X355084Y683250D03*
X360084Y683250D03*
X365084Y683250D03*
X370084Y683250D03*
X375084Y683250D03*
X380084Y683250D03*
X385084Y683250D03*
X390084Y683250D03*
X395084Y683250D03*
X400084Y683250D03*
X405084Y683250D03*
X410084Y683250D03*
X415084Y683250D03*
X420084Y683250D03*
X425084Y683250D03*
D12*
X316084Y488500D03*
X274084Y488500D03*
X295084Y501500D03*
D13*
X295084Y543500D03*
X295084Y533500D03*
D14*
X362834Y557550D03*
X362834Y544850D03*
X362834Y532150D03*
X362834Y519450D03*
X307334Y532150D03*
X307334Y519450D03*
X307334Y544850D03*
X307334Y557550D03*
D13*
X380084Y578500D03*
X390084Y578500D03*
X309084Y626500D03*
X309084Y636500D03*
X290084Y608500D03*
X280084Y608500D03*
X345084Y628500D03*
X345084Y638500D03*
X290084Y568500D03*
X280084Y568500D03*
X290084Y598500D03*
X280084Y598500D03*
X380084Y588500D03*
X390084Y588500D03*
X385084Y553500D03*
X385084Y543500D03*
X280084Y588500D03*
X290084Y588500D03*
X280084Y578500D03*
X290084Y578500D03*
X290084Y558500D03*
X280084Y558500D03*
X285084Y543500D03*
X285084Y533500D03*
X290084Y618500D03*
X280084Y618500D03*
X290084Y628500D03*
X280084Y628500D03*
X395084Y553500D03*
X395084Y543500D03*
D15*
X265084Y576000D03*
X260084Y576000D03*
X255084Y576000D03*
X250084Y576000D03*
X245084Y576000D03*
X245084Y621000D03*
X250084Y621000D03*
X255084Y621000D03*
X260084Y621000D03*
X265084Y621000D03*
D13*
X260084Y638500D03*
X250084Y638500D03*
X270084Y558500D03*
X260084Y558500D03*
X240084Y558500D03*
X250084Y558500D03*
D10*
X460154Y488500D03*
X660154Y648500D03*
D11*
X470154Y683250D03*
X475154Y683250D03*
X480154Y683250D03*
X485154Y683250D03*
X490154Y683250D03*
X495154Y683250D03*
X500154Y683250D03*
X505154Y683250D03*
X510154Y683250D03*
X515154Y683250D03*
X520154Y683250D03*
X545154Y683250D03*
X550154Y683250D03*
X555154Y683250D03*
X560154Y683250D03*
X565154Y683250D03*
X570154Y683250D03*
X575154Y683250D03*
X580154Y683250D03*
X585154Y683250D03*
X590154Y683250D03*
X595154Y683250D03*
X600154Y683250D03*
X605154Y683250D03*
X610154Y683250D03*
X615154Y683250D03*
X620154Y683250D03*
X625154Y683250D03*
X630154Y683250D03*
X635154Y683250D03*
X640154Y683250D03*
X645154Y683250D03*
X650154Y683250D03*
D12*
X541154Y488500D03*
X499154Y488500D03*
X520154Y501500D03*
D13*
X520154Y543500D03*
X520154Y533500D03*
D14*
X587904Y557550D03*
X587904Y544850D03*
X587904Y532150D03*
X587904Y519450D03*
X532404Y532150D03*
X532404Y519450D03*
X532404Y544850D03*
X532404Y557550D03*
D13*
X605154Y578500D03*
X615154Y578500D03*
X534154Y626500D03*
X534154Y636500D03*
X515154Y608500D03*
X505154Y608500D03*
X570154Y628500D03*
X570154Y638500D03*
X515154Y568500D03*
X505154Y568500D03*
X515154Y598500D03*
X505154Y598500D03*
X605154Y588500D03*
X615154Y588500D03*
X610154Y553500D03*
X610154Y543500D03*
X505154Y588500D03*
X515154Y588500D03*
X505154Y578500D03*
X515154Y578500D03*
X515154Y558500D03*
X505154Y558500D03*
X510154Y543500D03*
X510154Y533500D03*
X515154Y618500D03*
X505154Y618500D03*
X515154Y628500D03*
X505154Y628500D03*
X620154Y553500D03*
X620154Y543500D03*
D15*
X490154Y576000D03*
X485154Y576000D03*
X480154Y576000D03*
X475154Y576000D03*
X470154Y576000D03*
X470154Y621000D03*
X475154Y621000D03*
X480154Y621000D03*
X485154Y621000D03*
X490154Y621000D03*
D13*
X485154Y638500D03*
X475154Y638500D03*
X495154Y558500D03*
X485154Y558500D03*
X465154Y558500D03*
X475154Y558500D03*
D10*
X685248Y488500D03*
X885248Y648500D03*
D11*
X695248Y683250D03*
X700248Y683250D03*
X705248Y683250D03*
X710248Y683250D03*
X715248Y683250D03*
X720248Y683250D03*
X725248Y683250D03*
X730248Y683250D03*
X735248Y683250D03*
X740248Y683250D03*
X745248Y683250D03*
X770248Y683250D03*
X775248Y683250D03*
X780248Y683250D03*
X785248Y683250D03*
X790248Y683250D03*
X795248Y683250D03*
X800248Y683250D03*
X805248Y683250D03*
X810248Y683250D03*
X815248Y683250D03*
X820248Y683250D03*
X825248Y683250D03*
X830248Y683250D03*
X835248Y683250D03*
X840248Y683250D03*
X845248Y683250D03*
X850248Y683250D03*
X855248Y683250D03*
X860248Y683250D03*
X865248Y683250D03*
X870248Y683250D03*
X875248Y683250D03*
D12*
X766248Y488500D03*
X724248Y488500D03*
X745248Y501500D03*
D13*
X745248Y543500D03*
X745248Y533500D03*
D14*
X812998Y557550D03*
X812998Y544850D03*
X812998Y532150D03*
X812998Y519450D03*
X757498Y532150D03*
X757498Y519450D03*
X757498Y544850D03*
X757498Y557550D03*
D13*
X830248Y578500D03*
X840248Y578500D03*
X759248Y626500D03*
X759248Y636500D03*
X740248Y608500D03*
X730248Y608500D03*
X795248Y628500D03*
X795248Y638500D03*
X740248Y568500D03*
X730248Y568500D03*
X740248Y598500D03*
X730248Y598500D03*
X830248Y588500D03*
X840248Y588500D03*
X835248Y553500D03*
X835248Y543500D03*
X730248Y588500D03*
X740248Y588500D03*
X730248Y578500D03*
X740248Y578500D03*
X740248Y558500D03*
X730248Y558500D03*
X735248Y543500D03*
X735248Y533500D03*
X740248Y618500D03*
X730248Y618500D03*
X740248Y628500D03*
X730248Y628500D03*
X845248Y553500D03*
X845248Y543500D03*
D15*
X715248Y576000D03*
X710248Y576000D03*
X705248Y576000D03*
X700248Y576000D03*
X695248Y576000D03*
X695248Y621000D03*
X700248Y621000D03*
X705248Y621000D03*
X710248Y621000D03*
X715248Y621000D03*
D13*
X710248Y638500D03*
X700248Y638500D03*
X720248Y558500D03*
X710248Y558500D03*
X690248Y558500D03*
X700248Y558500D03*
D10*
X910318Y488500D03*
X1110318Y648500D03*
D11*
X920318Y683250D03*
X925318Y683250D03*
X930318Y683250D03*
X935318Y683250D03*
X940318Y683250D03*
X945318Y683250D03*
X950318Y683250D03*
X955318Y683250D03*
X960318Y683250D03*
X965318Y683250D03*
X970318Y683250D03*
X995318Y683250D03*
X1000318Y683250D03*
X1005318Y683250D03*
X1010318Y683250D03*
X1015318Y683250D03*
X1020318Y683250D03*
X1025318Y683250D03*
X1030318Y683250D03*
X1035318Y683250D03*
X1040318Y683250D03*
X1045318Y683250D03*
X1050318Y683250D03*
X1055318Y683250D03*
X1060318Y683250D03*
X1065318Y683250D03*
X1070318Y683250D03*
X1075318Y683250D03*
X1080318Y683250D03*
X1085318Y683250D03*
X1090318Y683250D03*
X1095318Y683250D03*
X1100318Y683250D03*
D12*
X991318Y488500D03*
X949318Y488500D03*
X970318Y501500D03*
D13*
X970318Y543500D03*
X970318Y533500D03*
D14*
X1038068Y557550D03*
X1038068Y544850D03*
X1038068Y532150D03*
X1038068Y519450D03*
X982568Y532150D03*
X982568Y519450D03*
X982568Y544850D03*
X982568Y557550D03*
D13*
X1055318Y578500D03*
X1065318Y578500D03*
X984318Y626500D03*
X984318Y636500D03*
X965318Y608500D03*
X955318Y608500D03*
X1020318Y628500D03*
X1020318Y638500D03*
X965318Y568500D03*
X955318Y568500D03*
X965318Y598500D03*
X955318Y598500D03*
X1055318Y588500D03*
X1065318Y588500D03*
X1060318Y553500D03*
X1060318Y543500D03*
X955318Y588500D03*
X965318Y588500D03*
X955318Y578500D03*
X965318Y578500D03*
X965318Y558500D03*
X955318Y558500D03*
X960318Y543500D03*
X960318Y533500D03*
X965318Y618500D03*
X955318Y618500D03*
X965318Y628500D03*
X955318Y628500D03*
X1070318Y553500D03*
X1070318Y543500D03*
D15*
X940318Y576000D03*
X935318Y576000D03*
X930318Y576000D03*
X925318Y576000D03*
X920318Y576000D03*
X920318Y621000D03*
X925318Y621000D03*
X930318Y621000D03*
X935318Y621000D03*
X940318Y621000D03*
D13*
X935318Y638500D03*
X925318Y638500D03*
X945318Y558500D03*
X935318Y558500D03*
X915318Y558500D03*
X925318Y558500D03*
D10*
X1135413Y488500D03*
X1335413Y648500D03*
D11*
X1145413Y683250D03*
X1150413Y683250D03*
X1155413Y683250D03*
X1160413Y683250D03*
X1165413Y683250D03*
X1170413Y683250D03*
X1175413Y683250D03*
X1180413Y683250D03*
X1185413Y683250D03*
X1190413Y683250D03*
X1195413Y683250D03*
X1220413Y683250D03*
X1225413Y683250D03*
X1230413Y683250D03*
X1235413Y683250D03*
X1240413Y683250D03*
X1245413Y683250D03*
X1250413Y683250D03*
X1255413Y683250D03*
X1260413Y683250D03*
X1265413Y683250D03*
X1270413Y683250D03*
X1275413Y683250D03*
X1280413Y683250D03*
X1285413Y683250D03*
X1290413Y683250D03*
X1295413Y683250D03*
X1300413Y683250D03*
X1305413Y683250D03*
X1310413Y683250D03*
X1315413Y683250D03*
X1320413Y683250D03*
X1325413Y683250D03*
D12*
X1216413Y488500D03*
X1174413Y488500D03*
X1195413Y501500D03*
D13*
X1195413Y543500D03*
X1195413Y533500D03*
D14*
X1263163Y557550D03*
X1263163Y544850D03*
X1263163Y532150D03*
X1263163Y519450D03*
X1207663Y532150D03*
X1207663Y519450D03*
X1207663Y544850D03*
X1207663Y557550D03*
D13*
X1280413Y578500D03*
X1290413Y578500D03*
X1209413Y626500D03*
X1209413Y636500D03*
X1190413Y608500D03*
X1180413Y608500D03*
X1245413Y628500D03*
X1245413Y638500D03*
X1190413Y568500D03*
X1180413Y568500D03*
X1190413Y598500D03*
X1180413Y598500D03*
X1280413Y588500D03*
X1290413Y588500D03*
X1285413Y553500D03*
X1285413Y543500D03*
X1180413Y588500D03*
X1190413Y588500D03*
X1180413Y578500D03*
X1190413Y578500D03*
X1190413Y558500D03*
X1180413Y558500D03*
X1185413Y543500D03*
X1185413Y533500D03*
X1190413Y618500D03*
X1180413Y618500D03*
X1190413Y628500D03*
X1180413Y628500D03*
X1295413Y553500D03*
X1295413Y543500D03*
D15*
X1165413Y576000D03*
X1160413Y576000D03*
X1155413Y576000D03*
X1150413Y576000D03*
X1145413Y576000D03*
X1145413Y621000D03*
X1150413Y621000D03*
X1155413Y621000D03*
X1160413Y621000D03*
X1165413Y621000D03*
D13*
X1160413Y638500D03*
X1150413Y638500D03*
X1170413Y558500D03*
X1160413Y558500D03*
X1140413Y558500D03*
X1150413Y558500D03*
D10*
X1360482Y488500D03*
X1560482Y648500D03*
D11*
X1370482Y683250D03*
X1375482Y683250D03*
X1380482Y683250D03*
X1385482Y683250D03*
X1390482Y683250D03*
X1395482Y683250D03*
X1400482Y683250D03*
X1405482Y683250D03*
X1410482Y683250D03*
X1415482Y683250D03*
X1420482Y683250D03*
X1445482Y683250D03*
X1450482Y683250D03*
X1455482Y683250D03*
X1460482Y683250D03*
X1465482Y683250D03*
X1470482Y683250D03*
X1475482Y683250D03*
X1480482Y683250D03*
X1485482Y683250D03*
X1490482Y683250D03*
X1495482Y683250D03*
X1500482Y683250D03*
X1505482Y683250D03*
X1510482Y683250D03*
X1515482Y683250D03*
X1520482Y683250D03*
X1525482Y683250D03*
X1530482Y683250D03*
X1535482Y683250D03*
X1540482Y683250D03*
X1545482Y683250D03*
X1550482Y683250D03*
D12*
X1441482Y488500D03*
X1399482Y488500D03*
X1420482Y501500D03*
D13*
X1420482Y543500D03*
X1420482Y533500D03*
D14*
X1488232Y557550D03*
X1488232Y544850D03*
X1488232Y532150D03*
X1488232Y519450D03*
X1432732Y532150D03*
X1432732Y519450D03*
X1432732Y544850D03*
X1432732Y557550D03*
D13*
X1505482Y578500D03*
X1515482Y578500D03*
X1434482Y626500D03*
X1434482Y636500D03*
X1415482Y608500D03*
X1405482Y608500D03*
X1470482Y628500D03*
X1470482Y638500D03*
X1415482Y568500D03*
X1405482Y568500D03*
X1415482Y598500D03*
X1405482Y598500D03*
X1505482Y588500D03*
X1515482Y588500D03*
X1510482Y553500D03*
X1510482Y543500D03*
X1405482Y588500D03*
X1415482Y588500D03*
X1405482Y578500D03*
X1415482Y578500D03*
X1415482Y558500D03*
X1405482Y558500D03*
X1410482Y543500D03*
X1410482Y533500D03*
X1415482Y618500D03*
X1405482Y618500D03*
X1415482Y628500D03*
X1405482Y628500D03*
X1520482Y553500D03*
X1520482Y543500D03*
D15*
X1390482Y576000D03*
X1385482Y576000D03*
X1380482Y576000D03*
X1375482Y576000D03*
X1370482Y576000D03*
X1370482Y621000D03*
X1375482Y621000D03*
X1380482Y621000D03*
X1385482Y621000D03*
X1390482Y621000D03*
D13*
X1385482Y638500D03*
X1375482Y638500D03*
X1395482Y558500D03*
X1385482Y558500D03*
X1365482Y558500D03*
X1375482Y558500D03*
D10*
X1585551Y488500D03*
X1785551Y648500D03*
D11*
X1595551Y683250D03*
X1600551Y683250D03*
X1605551Y683250D03*
X1610551Y683250D03*
X1615551Y683250D03*
X1620551Y683250D03*
X1625551Y683250D03*
X1630551Y683250D03*
X1635551Y683250D03*
X1640551Y683250D03*
X1645551Y683250D03*
X1670551Y683250D03*
X1675551Y683250D03*
X1680551Y683250D03*
X1685551Y683250D03*
X1690551Y683250D03*
X1695551Y683250D03*
X1700551Y683250D03*
X1705551Y683250D03*
X1710551Y683250D03*
X1715551Y683250D03*
X1720551Y683250D03*
X1725551Y683250D03*
X1730551Y683250D03*
X1735551Y683250D03*
X1740551Y683250D03*
X1745551Y683250D03*
X1750551Y683250D03*
X1755551Y683250D03*
X1760551Y683250D03*
X1765551Y683250D03*
X1770551Y683250D03*
X1775551Y683250D03*
D12*
X1666551Y488500D03*
X1624551Y488500D03*
X1645551Y501500D03*
D13*
X1645551Y543500D03*
X1645551Y533500D03*
D14*
X1713301Y557550D03*
X1713301Y544850D03*
X1713301Y532150D03*
X1713301Y519450D03*
X1657801Y532150D03*
X1657801Y519450D03*
X1657801Y544850D03*
X1657801Y557550D03*
D13*
X1730551Y578500D03*
X1740551Y578500D03*
X1659551Y626500D03*
X1659551Y636500D03*
X1640551Y608500D03*
X1630551Y608500D03*
X1695551Y628500D03*
X1695551Y638500D03*
X1640551Y568500D03*
X1630551Y568500D03*
X1640551Y598500D03*
X1630551Y598500D03*
X1730551Y588500D03*
X1740551Y588500D03*
X1735551Y553500D03*
X1735551Y543500D03*
X1630551Y588500D03*
X1640551Y588500D03*
X1630551Y578500D03*
X1640551Y578500D03*
X1640551Y558500D03*
X1630551Y558500D03*
X1635551Y543500D03*
X1635551Y533500D03*
X1640551Y618500D03*
X1630551Y618500D03*
X1640551Y628500D03*
X1630551Y628500D03*
X1745551Y553500D03*
X1745551Y543500D03*
D15*
X1615551Y576000D03*
X1610551Y576000D03*
X1605551Y576000D03*
X1600551Y576000D03*
X1595551Y576000D03*
X1595551Y621000D03*
X1600551Y621000D03*
X1605551Y621000D03*
X1610551Y621000D03*
X1615551Y621000D03*
D13*
X1610551Y638500D03*
X1600551Y638500D03*
X1620551Y558500D03*
X1610551Y558500D03*
X1590551Y558500D03*
X1600551Y558500D03*
D16*
X-26238Y635000D03*
X1821815Y635000D03*
D17*
X-35293Y63500D02*
X-35290Y63722D01*
X-35282Y63944D01*
X-35268Y64166D01*
X-35249Y64388D01*
X-35225Y64608D01*
X-35195Y64829D01*
X-35160Y65048D01*
X-35119Y65267D01*
X-35073Y65484D01*
X-35022Y65700D01*
X-34965Y65915D01*
X-34903Y66129D01*
X-34836Y66340D01*
X-34764Y66551D01*
X-34686Y66759D01*
X-34604Y66965D01*
X-34516Y67169D01*
X-34424Y67372D01*
X-34326Y67571D01*
X-34224Y67768D01*
X-34117Y67963D01*
X-34005Y68155D01*
X-33888Y68344D01*
X-33767Y68531D01*
X-33641Y68714D01*
X-33511Y68894D01*
X-33376Y69071D01*
X-33238Y69244D01*
X-33095Y69414D01*
X-32947Y69581D01*
X-32796Y69744D01*
X-32641Y69903D01*
X-32482Y70058D01*
X-32319Y70209D01*
X-32152Y70357D01*
X-31982Y70500D01*
X-31809Y70638D01*
X-31632Y70773D01*
X-31452Y70903D01*
X-31269Y71029D01*
X-31082Y71150D01*
X-30893Y71267D01*
X-30701Y71379D01*
X-30506Y71486D01*
X-30309Y71588D01*
X-30110Y71686D01*
X-29907Y71778D01*
X-29703Y71866D01*
X-29497Y71948D01*
X-29289Y72026D01*
X-29078Y72098D01*
X-28867Y72165D01*
X-28653Y72227D01*
X-28438Y72284D01*
X-28222Y72335D01*
X-28005Y72381D01*
X-27786Y72422D01*
X-27567Y72457D01*
X-27346Y72487D01*
X-27126Y72511D01*
X-26904Y72530D01*
X-26682Y72544D01*
X-26460Y72552D01*
X-26238Y72555D01*
X-26016Y72552D01*
X-25794Y72544D01*
X-25572Y72530D01*
X-25350Y72511D01*
X-25130Y72487D01*
X-24909Y72457D01*
X-24690Y72422D01*
X-24471Y72381D01*
X-24254Y72335D01*
X-24038Y72284D01*
X-23823Y72227D01*
X-23609Y72165D01*
X-23398Y72098D01*
X-23187Y72026D01*
X-22979Y71948D01*
X-22773Y71866D01*
X-22569Y71778D01*
X-22366Y71686D01*
X-22167Y71588D01*
X-21970Y71486D01*
X-21775Y71379D01*
X-21583Y71267D01*
X-21394Y71150D01*
X-21207Y71029D01*
X-21024Y70903D01*
X-20844Y70773D01*
X-20667Y70638D01*
X-20494Y70500D01*
X-20324Y70357D01*
X-20157Y70209D01*
X-19994Y70058D01*
X-19835Y69903D01*
X-19680Y69744D01*
X-19529Y69581D01*
X-19381Y69414D01*
X-19238Y69244D01*
X-19100Y69071D01*
X-18965Y68894D01*
X-18835Y68714D01*
X-18709Y68531D01*
X-18588Y68344D01*
X-18471Y68155D01*
X-18359Y67963D01*
X-18252Y67768D01*
X-18150Y67571D01*
X-18052Y67372D01*
X-17960Y67169D01*
X-17872Y66965D01*
X-17790Y66759D01*
X-17712Y66551D01*
X-17640Y66340D01*
X-17573Y66129D01*
X-17511Y65915D01*
X-17454Y65700D01*
X-17403Y65484D01*
X-17357Y65267D01*
X-17316Y65048D01*
X-17281Y64829D01*
X-17251Y64608D01*
X-17227Y64388D01*
X-17208Y64166D01*
X-17194Y63944D01*
X-17186Y63722D01*
X-17183Y63500D01*
X-17186Y63278D01*
X-17194Y63056D01*
X-17208Y62834D01*
X-17227Y62612D01*
X-17251Y62392D01*
X-17281Y62171D01*
X-17316Y61952D01*
X-17357Y61733D01*
X-17403Y61516D01*
X-17454Y61300D01*
X-17511Y61085D01*
X-17573Y60871D01*
X-17640Y60660D01*
X-17712Y60449D01*
X-17790Y60241D01*
X-17872Y60035D01*
X-17960Y59831D01*
X-18052Y59628D01*
X-18150Y59429D01*
X-18252Y59232D01*
X-18359Y59037D01*
X-18471Y58845D01*
X-18588Y58656D01*
X-18709Y58469D01*
X-18835Y58286D01*
X-18965Y58106D01*
X-19100Y57929D01*
X-19238Y57756D01*
X-19381Y57586D01*
X-19529Y57419D01*
X-19680Y57256D01*
X-19835Y57097D01*
X-19994Y56942D01*
X-20157Y56791D01*
X-20324Y56643D01*
X-20494Y56500D01*
X-20667Y56362D01*
X-20844Y56227D01*
X-21024Y56097D01*
X-21207Y55971D01*
X-21394Y55850D01*
X-21583Y55733D01*
X-21775Y55621D01*
X-21970Y55514D01*
X-22167Y55412D01*
X-22366Y55314D01*
X-22569Y55222D01*
X-22773Y55134D01*
X-22979Y55052D01*
X-23187Y54974D01*
X-23398Y54902D01*
X-23609Y54835D01*
X-23823Y54773D01*
X-24038Y54716D01*
X-24254Y54665D01*
X-24471Y54619D01*
X-24690Y54578D01*
X-24909Y54543D01*
X-25130Y54513D01*
X-25350Y54489D01*
X-25572Y54470D01*
X-25794Y54456D01*
X-26016Y54448D01*
X-26238Y54445D01*
X-26460Y54448D01*
X-26682Y54456D01*
X-26904Y54470D01*
X-27126Y54489D01*
X-27346Y54513D01*
X-27567Y54543D01*
X-27786Y54578D01*
X-28005Y54619D01*
X-28222Y54665D01*
X-28438Y54716D01*
X-28653Y54773D01*
X-28867Y54835D01*
X-29078Y54902D01*
X-29289Y54974D01*
X-29497Y55052D01*
X-29703Y55134D01*
X-29907Y55222D01*
X-30110Y55314D01*
X-30309Y55412D01*
X-30506Y55514D01*
X-30701Y55621D01*
X-30893Y55733D01*
X-31082Y55850D01*
X-31269Y55971D01*
X-31452Y56097D01*
X-31632Y56227D01*
X-31809Y56362D01*
X-31982Y56500D01*
X-32152Y56643D01*
X-32319Y56791D01*
X-32482Y56942D01*
X-32641Y57097D01*
X-32796Y57256D01*
X-32947Y57419D01*
X-33095Y57586D01*
X-33238Y57756D01*
X-33376Y57929D01*
X-33511Y58106D01*
X-33641Y58286D01*
X-33767Y58469D01*
X-33888Y58656D01*
X-34005Y58845D01*
X-34117Y59037D01*
X-34224Y59232D01*
X-34326Y59429D01*
X-34424Y59628D01*
X-34516Y59831D01*
X-34604Y60035D01*
X-34686Y60241D01*
X-34764Y60449D01*
X-34836Y60660D01*
X-34903Y60871D01*
X-34965Y61085D01*
X-35022Y61300D01*
X-35073Y61516D01*
X-35119Y61733D01*
X-35160Y61952D01*
X-35195Y62171D01*
X-35225Y62392D01*
X-35249Y62612D01*
X-35268Y62834D01*
X-35282Y63056D01*
X-35290Y63278D01*
X-35293Y63500D01*
D18*
X-26238Y63500D03*
M02*
