G04 EAGLE Gerber RS-274X export*
G75*
%MOMM*%
%FSLAX34Y34*%
%LPD*%
%INSolderpaste Top*%
%IPPOS*%
%AMOC8*
5,1,8,0,0,1.08239X$1,22.5*%
G01*
%ADD10R,0.600000X0.600000*%
%ADD11C,0.300000*%
%ADD12R,0.200000X0.650000*%
%ADD13R,0.650000X0.200000*%
%ADD14R,1.100000X1.200000*%


D10*
X25000Y100000D03*
X35000Y100000D03*
X25000Y140000D03*
X35000Y140000D03*
D11*
X24730Y206500D02*
X24730Y213500D01*
X24730Y206500D02*
X17730Y206500D01*
X17730Y213500D01*
X24730Y213500D01*
X24730Y209350D02*
X17730Y209350D01*
X17730Y212200D02*
X24730Y212200D01*
X42270Y213500D02*
X42270Y206500D01*
X35270Y206500D01*
X35270Y213500D01*
X42270Y213500D01*
X42270Y209350D02*
X35270Y209350D01*
X35270Y212200D02*
X42270Y212200D01*
D10*
X55000Y210000D03*
X65000Y210000D03*
D12*
X112000Y154250D03*
D10*
X120000Y130000D03*
D12*
X116000Y154250D03*
X120000Y154250D03*
X124000Y154250D03*
X128000Y154250D03*
X132000Y154250D03*
X136000Y154250D03*
X84000Y154250D03*
X88000Y154250D03*
X92000Y154250D03*
X96000Y154250D03*
X100000Y154250D03*
X104000Y154250D03*
X108000Y154250D03*
D13*
X75750Y122000D03*
X75750Y126000D03*
X75750Y130000D03*
X75750Y134000D03*
X75750Y138000D03*
X75750Y142000D03*
X75750Y146000D03*
X75750Y94000D03*
X75750Y98000D03*
X75750Y102000D03*
X75750Y106000D03*
X75750Y110000D03*
X75750Y114000D03*
X75750Y118000D03*
D12*
X108000Y85750D03*
X104000Y85750D03*
X100000Y85750D03*
X96000Y85750D03*
X92000Y85750D03*
X88000Y85750D03*
X84000Y85750D03*
X136000Y85750D03*
X132000Y85750D03*
X128000Y85750D03*
X124000Y85750D03*
X120000Y85750D03*
X116000Y85750D03*
X112000Y85750D03*
D13*
X144250Y118000D03*
X144250Y114000D03*
X144250Y110000D03*
X144250Y106000D03*
X144250Y102000D03*
X144250Y98000D03*
X144250Y94000D03*
X144250Y146000D03*
X144250Y142000D03*
X144250Y138000D03*
X144250Y134000D03*
X144250Y130000D03*
X144250Y126000D03*
X144250Y122000D03*
D10*
X100000Y130000D03*
X100000Y110000D03*
X120000Y110000D03*
X110000Y120000D03*
X50000Y115000D03*
X50000Y125000D03*
X100000Y165000D03*
X100000Y175000D03*
X140000Y165000D03*
X140000Y175000D03*
D14*
X22900Y128540D03*
X22900Y111540D03*
X36900Y111540D03*
X36900Y128540D03*
D10*
X250069Y100000D03*
X260069Y100000D03*
X250069Y140000D03*
X260069Y140000D03*
D11*
X249799Y206500D02*
X249799Y213500D01*
X249799Y206500D02*
X242799Y206500D01*
X242799Y213500D01*
X249799Y213500D01*
X249799Y209350D02*
X242799Y209350D01*
X242799Y212200D02*
X249799Y212200D01*
X267339Y213500D02*
X267339Y206500D01*
X260339Y206500D01*
X260339Y213500D01*
X267339Y213500D01*
X267339Y209350D02*
X260339Y209350D01*
X260339Y212200D02*
X267339Y212200D01*
D10*
X280069Y210000D03*
X290069Y210000D03*
D12*
X337069Y154250D03*
D10*
X345069Y130000D03*
D12*
X341069Y154250D03*
X345069Y154250D03*
X349069Y154250D03*
X353069Y154250D03*
X357069Y154250D03*
X361069Y154250D03*
X309069Y154250D03*
X313069Y154250D03*
X317069Y154250D03*
X321069Y154250D03*
X325069Y154250D03*
X329069Y154250D03*
X333069Y154250D03*
D13*
X300819Y122000D03*
X300819Y126000D03*
X300819Y130000D03*
X300819Y134000D03*
X300819Y138000D03*
X300819Y142000D03*
X300819Y146000D03*
X300819Y94000D03*
X300819Y98000D03*
X300819Y102000D03*
X300819Y106000D03*
X300819Y110000D03*
X300819Y114000D03*
X300819Y118000D03*
D12*
X333069Y85750D03*
X329069Y85750D03*
X325069Y85750D03*
X321069Y85750D03*
X317069Y85750D03*
X313069Y85750D03*
X309069Y85750D03*
X361069Y85750D03*
X357069Y85750D03*
X353069Y85750D03*
X349069Y85750D03*
X345069Y85750D03*
X341069Y85750D03*
X337069Y85750D03*
D13*
X369319Y118000D03*
X369319Y114000D03*
X369319Y110000D03*
X369319Y106000D03*
X369319Y102000D03*
X369319Y98000D03*
X369319Y94000D03*
X369319Y146000D03*
X369319Y142000D03*
X369319Y138000D03*
X369319Y134000D03*
X369319Y130000D03*
X369319Y126000D03*
X369319Y122000D03*
D10*
X325069Y130000D03*
X325069Y110000D03*
X345069Y110000D03*
X335069Y120000D03*
X275069Y115000D03*
X275069Y125000D03*
X325069Y165000D03*
X325069Y175000D03*
X365069Y165000D03*
X365069Y175000D03*
D14*
X247969Y128540D03*
X247969Y111540D03*
X261969Y111540D03*
X261969Y128540D03*
D10*
X475164Y100000D03*
X485164Y100000D03*
X475164Y140000D03*
X485164Y140000D03*
D11*
X474894Y206500D02*
X474894Y213500D01*
X474894Y206500D02*
X467894Y206500D01*
X467894Y213500D01*
X474894Y213500D01*
X474894Y209350D02*
X467894Y209350D01*
X467894Y212200D02*
X474894Y212200D01*
X492434Y213500D02*
X492434Y206500D01*
X485434Y206500D01*
X485434Y213500D01*
X492434Y213500D01*
X492434Y209350D02*
X485434Y209350D01*
X485434Y212200D02*
X492434Y212200D01*
D10*
X505164Y210000D03*
X515164Y210000D03*
D12*
X562164Y154250D03*
D10*
X570164Y130000D03*
D12*
X566164Y154250D03*
X570164Y154250D03*
X574164Y154250D03*
X578164Y154250D03*
X582164Y154250D03*
X586164Y154250D03*
X534164Y154250D03*
X538164Y154250D03*
X542164Y154250D03*
X546164Y154250D03*
X550164Y154250D03*
X554164Y154250D03*
X558164Y154250D03*
D13*
X525914Y122000D03*
X525914Y126000D03*
X525914Y130000D03*
X525914Y134000D03*
X525914Y138000D03*
X525914Y142000D03*
X525914Y146000D03*
X525914Y94000D03*
X525914Y98000D03*
X525914Y102000D03*
X525914Y106000D03*
X525914Y110000D03*
X525914Y114000D03*
X525914Y118000D03*
D12*
X558164Y85750D03*
X554164Y85750D03*
X550164Y85750D03*
X546164Y85750D03*
X542164Y85750D03*
X538164Y85750D03*
X534164Y85750D03*
X586164Y85750D03*
X582164Y85750D03*
X578164Y85750D03*
X574164Y85750D03*
X570164Y85750D03*
X566164Y85750D03*
X562164Y85750D03*
D13*
X594414Y118000D03*
X594414Y114000D03*
X594414Y110000D03*
X594414Y106000D03*
X594414Y102000D03*
X594414Y98000D03*
X594414Y94000D03*
X594414Y146000D03*
X594414Y142000D03*
X594414Y138000D03*
X594414Y134000D03*
X594414Y130000D03*
X594414Y126000D03*
X594414Y122000D03*
D10*
X550164Y130000D03*
X550164Y110000D03*
X570164Y110000D03*
X560164Y120000D03*
X500164Y115000D03*
X500164Y125000D03*
X550164Y165000D03*
X550164Y175000D03*
X590164Y165000D03*
X590164Y175000D03*
D14*
X473064Y128540D03*
X473064Y111540D03*
X487064Y111540D03*
X487064Y128540D03*
D10*
X700234Y100000D03*
X710234Y100000D03*
X700234Y140000D03*
X710234Y140000D03*
D11*
X699964Y206500D02*
X699964Y213500D01*
X699964Y206500D02*
X692964Y206500D01*
X692964Y213500D01*
X699964Y213500D01*
X699964Y209350D02*
X692964Y209350D01*
X692964Y212200D02*
X699964Y212200D01*
X717504Y213500D02*
X717504Y206500D01*
X710504Y206500D01*
X710504Y213500D01*
X717504Y213500D01*
X717504Y209350D02*
X710504Y209350D01*
X710504Y212200D02*
X717504Y212200D01*
D10*
X730234Y210000D03*
X740234Y210000D03*
D12*
X787234Y154250D03*
D10*
X795234Y130000D03*
D12*
X791234Y154250D03*
X795234Y154250D03*
X799234Y154250D03*
X803234Y154250D03*
X807234Y154250D03*
X811234Y154250D03*
X759234Y154250D03*
X763234Y154250D03*
X767234Y154250D03*
X771234Y154250D03*
X775234Y154250D03*
X779234Y154250D03*
X783234Y154250D03*
D13*
X750984Y122000D03*
X750984Y126000D03*
X750984Y130000D03*
X750984Y134000D03*
X750984Y138000D03*
X750984Y142000D03*
X750984Y146000D03*
X750984Y94000D03*
X750984Y98000D03*
X750984Y102000D03*
X750984Y106000D03*
X750984Y110000D03*
X750984Y114000D03*
X750984Y118000D03*
D12*
X783234Y85750D03*
X779234Y85750D03*
X775234Y85750D03*
X771234Y85750D03*
X767234Y85750D03*
X763234Y85750D03*
X759234Y85750D03*
X811234Y85750D03*
X807234Y85750D03*
X803234Y85750D03*
X799234Y85750D03*
X795234Y85750D03*
X791234Y85750D03*
X787234Y85750D03*
D13*
X819484Y118000D03*
X819484Y114000D03*
X819484Y110000D03*
X819484Y106000D03*
X819484Y102000D03*
X819484Y98000D03*
X819484Y94000D03*
X819484Y146000D03*
X819484Y142000D03*
X819484Y138000D03*
X819484Y134000D03*
X819484Y130000D03*
X819484Y126000D03*
X819484Y122000D03*
D10*
X775234Y130000D03*
X775234Y110000D03*
X795234Y110000D03*
X785234Y120000D03*
X725234Y115000D03*
X725234Y125000D03*
X775234Y165000D03*
X775234Y175000D03*
X815234Y165000D03*
X815234Y175000D03*
D14*
X698134Y128540D03*
X698134Y111540D03*
X712134Y111540D03*
X712134Y128540D03*
D10*
X925328Y100000D03*
X935328Y100000D03*
X925328Y140000D03*
X935328Y140000D03*
D11*
X925058Y206500D02*
X925058Y213500D01*
X925058Y206500D02*
X918058Y206500D01*
X918058Y213500D01*
X925058Y213500D01*
X925058Y209350D02*
X918058Y209350D01*
X918058Y212200D02*
X925058Y212200D01*
X942598Y213500D02*
X942598Y206500D01*
X935598Y206500D01*
X935598Y213500D01*
X942598Y213500D01*
X942598Y209350D02*
X935598Y209350D01*
X935598Y212200D02*
X942598Y212200D01*
D10*
X955328Y210000D03*
X965328Y210000D03*
D12*
X1012328Y154250D03*
D10*
X1020328Y130000D03*
D12*
X1016328Y154250D03*
X1020328Y154250D03*
X1024328Y154250D03*
X1028328Y154250D03*
X1032328Y154250D03*
X1036328Y154250D03*
X984328Y154250D03*
X988328Y154250D03*
X992328Y154250D03*
X996328Y154250D03*
X1000328Y154250D03*
X1004328Y154250D03*
X1008328Y154250D03*
D13*
X976078Y122000D03*
X976078Y126000D03*
X976078Y130000D03*
X976078Y134000D03*
X976078Y138000D03*
X976078Y142000D03*
X976078Y146000D03*
X976078Y94000D03*
X976078Y98000D03*
X976078Y102000D03*
X976078Y106000D03*
X976078Y110000D03*
X976078Y114000D03*
X976078Y118000D03*
D12*
X1008328Y85750D03*
X1004328Y85750D03*
X1000328Y85750D03*
X996328Y85750D03*
X992328Y85750D03*
X988328Y85750D03*
X984328Y85750D03*
X1036328Y85750D03*
X1032328Y85750D03*
X1028328Y85750D03*
X1024328Y85750D03*
X1020328Y85750D03*
X1016328Y85750D03*
X1012328Y85750D03*
D13*
X1044578Y118000D03*
X1044578Y114000D03*
X1044578Y110000D03*
X1044578Y106000D03*
X1044578Y102000D03*
X1044578Y98000D03*
X1044578Y94000D03*
X1044578Y146000D03*
X1044578Y142000D03*
X1044578Y138000D03*
X1044578Y134000D03*
X1044578Y130000D03*
X1044578Y126000D03*
X1044578Y122000D03*
D10*
X1000328Y130000D03*
X1000328Y110000D03*
X1020328Y110000D03*
X1010328Y120000D03*
X950328Y115000D03*
X950328Y125000D03*
X1000328Y165000D03*
X1000328Y175000D03*
X1040328Y165000D03*
X1040328Y175000D03*
D14*
X923228Y128540D03*
X923228Y111540D03*
X937228Y111540D03*
X937228Y128540D03*
D10*
X1150398Y100000D03*
X1160398Y100000D03*
X1150398Y140000D03*
X1160398Y140000D03*
D11*
X1150128Y206500D02*
X1150128Y213500D01*
X1150128Y206500D02*
X1143128Y206500D01*
X1143128Y213500D01*
X1150128Y213500D01*
X1150128Y209350D02*
X1143128Y209350D01*
X1143128Y212200D02*
X1150128Y212200D01*
X1167668Y213500D02*
X1167668Y206500D01*
X1160668Y206500D01*
X1160668Y213500D01*
X1167668Y213500D01*
X1167668Y209350D02*
X1160668Y209350D01*
X1160668Y212200D02*
X1167668Y212200D01*
D10*
X1180398Y210000D03*
X1190398Y210000D03*
D12*
X1237398Y154250D03*
D10*
X1245398Y130000D03*
D12*
X1241398Y154250D03*
X1245398Y154250D03*
X1249398Y154250D03*
X1253398Y154250D03*
X1257398Y154250D03*
X1261398Y154250D03*
X1209398Y154250D03*
X1213398Y154250D03*
X1217398Y154250D03*
X1221398Y154250D03*
X1225398Y154250D03*
X1229398Y154250D03*
X1233398Y154250D03*
D13*
X1201148Y122000D03*
X1201148Y126000D03*
X1201148Y130000D03*
X1201148Y134000D03*
X1201148Y138000D03*
X1201148Y142000D03*
X1201148Y146000D03*
X1201148Y94000D03*
X1201148Y98000D03*
X1201148Y102000D03*
X1201148Y106000D03*
X1201148Y110000D03*
X1201148Y114000D03*
X1201148Y118000D03*
D12*
X1233398Y85750D03*
X1229398Y85750D03*
X1225398Y85750D03*
X1221398Y85750D03*
X1217398Y85750D03*
X1213398Y85750D03*
X1209398Y85750D03*
X1261398Y85750D03*
X1257398Y85750D03*
X1253398Y85750D03*
X1249398Y85750D03*
X1245398Y85750D03*
X1241398Y85750D03*
X1237398Y85750D03*
D13*
X1269648Y118000D03*
X1269648Y114000D03*
X1269648Y110000D03*
X1269648Y106000D03*
X1269648Y102000D03*
X1269648Y98000D03*
X1269648Y94000D03*
X1269648Y146000D03*
X1269648Y142000D03*
X1269648Y138000D03*
X1269648Y134000D03*
X1269648Y130000D03*
X1269648Y126000D03*
X1269648Y122000D03*
D10*
X1225398Y130000D03*
X1225398Y110000D03*
X1245398Y110000D03*
X1235398Y120000D03*
X1175398Y115000D03*
X1175398Y125000D03*
X1225398Y165000D03*
X1225398Y175000D03*
X1265398Y165000D03*
X1265398Y175000D03*
D14*
X1148298Y128540D03*
X1148298Y111540D03*
X1162298Y111540D03*
X1162298Y128540D03*
D10*
X1375493Y100000D03*
X1385493Y100000D03*
X1375493Y140000D03*
X1385493Y140000D03*
D11*
X1375223Y206500D02*
X1375223Y213500D01*
X1375223Y206500D02*
X1368223Y206500D01*
X1368223Y213500D01*
X1375223Y213500D01*
X1375223Y209350D02*
X1368223Y209350D01*
X1368223Y212200D02*
X1375223Y212200D01*
X1392763Y213500D02*
X1392763Y206500D01*
X1385763Y206500D01*
X1385763Y213500D01*
X1392763Y213500D01*
X1392763Y209350D02*
X1385763Y209350D01*
X1385763Y212200D02*
X1392763Y212200D01*
D10*
X1405493Y210000D03*
X1415493Y210000D03*
D12*
X1462493Y154250D03*
D10*
X1470493Y130000D03*
D12*
X1466493Y154250D03*
X1470493Y154250D03*
X1474493Y154250D03*
X1478493Y154250D03*
X1482493Y154250D03*
X1486493Y154250D03*
X1434493Y154250D03*
X1438493Y154250D03*
X1442493Y154250D03*
X1446493Y154250D03*
X1450493Y154250D03*
X1454493Y154250D03*
X1458493Y154250D03*
D13*
X1426243Y122000D03*
X1426243Y126000D03*
X1426243Y130000D03*
X1426243Y134000D03*
X1426243Y138000D03*
X1426243Y142000D03*
X1426243Y146000D03*
X1426243Y94000D03*
X1426243Y98000D03*
X1426243Y102000D03*
X1426243Y106000D03*
X1426243Y110000D03*
X1426243Y114000D03*
X1426243Y118000D03*
D12*
X1458493Y85750D03*
X1454493Y85750D03*
X1450493Y85750D03*
X1446493Y85750D03*
X1442493Y85750D03*
X1438493Y85750D03*
X1434493Y85750D03*
X1486493Y85750D03*
X1482493Y85750D03*
X1478493Y85750D03*
X1474493Y85750D03*
X1470493Y85750D03*
X1466493Y85750D03*
X1462493Y85750D03*
D13*
X1494743Y118000D03*
X1494743Y114000D03*
X1494743Y110000D03*
X1494743Y106000D03*
X1494743Y102000D03*
X1494743Y98000D03*
X1494743Y94000D03*
X1494743Y146000D03*
X1494743Y142000D03*
X1494743Y138000D03*
X1494743Y134000D03*
X1494743Y130000D03*
X1494743Y126000D03*
X1494743Y122000D03*
D10*
X1450493Y130000D03*
X1450493Y110000D03*
X1470493Y110000D03*
X1460493Y120000D03*
X1400493Y115000D03*
X1400493Y125000D03*
X1450493Y165000D03*
X1450493Y175000D03*
X1490493Y165000D03*
X1490493Y175000D03*
D14*
X1373393Y128540D03*
X1373393Y111540D03*
X1387393Y111540D03*
X1387393Y128540D03*
D10*
X1600562Y100000D03*
X1610562Y100000D03*
X1600562Y140000D03*
X1610562Y140000D03*
D11*
X1600292Y206500D02*
X1600292Y213500D01*
X1600292Y206500D02*
X1593292Y206500D01*
X1593292Y213500D01*
X1600292Y213500D01*
X1600292Y209350D02*
X1593292Y209350D01*
X1593292Y212200D02*
X1600292Y212200D01*
X1617832Y213500D02*
X1617832Y206500D01*
X1610832Y206500D01*
X1610832Y213500D01*
X1617832Y213500D01*
X1617832Y209350D02*
X1610832Y209350D01*
X1610832Y212200D02*
X1617832Y212200D01*
D10*
X1630562Y210000D03*
X1640562Y210000D03*
D12*
X1687562Y154250D03*
D10*
X1695562Y130000D03*
D12*
X1691562Y154250D03*
X1695562Y154250D03*
X1699562Y154250D03*
X1703562Y154250D03*
X1707562Y154250D03*
X1711562Y154250D03*
X1659562Y154250D03*
X1663562Y154250D03*
X1667562Y154250D03*
X1671562Y154250D03*
X1675562Y154250D03*
X1679562Y154250D03*
X1683562Y154250D03*
D13*
X1651312Y122000D03*
X1651312Y126000D03*
X1651312Y130000D03*
X1651312Y134000D03*
X1651312Y138000D03*
X1651312Y142000D03*
X1651312Y146000D03*
X1651312Y94000D03*
X1651312Y98000D03*
X1651312Y102000D03*
X1651312Y106000D03*
X1651312Y110000D03*
X1651312Y114000D03*
X1651312Y118000D03*
D12*
X1683562Y85750D03*
X1679562Y85750D03*
X1675562Y85750D03*
X1671562Y85750D03*
X1667562Y85750D03*
X1663562Y85750D03*
X1659562Y85750D03*
X1711562Y85750D03*
X1707562Y85750D03*
X1703562Y85750D03*
X1699562Y85750D03*
X1695562Y85750D03*
X1691562Y85750D03*
X1687562Y85750D03*
D13*
X1719812Y118000D03*
X1719812Y114000D03*
X1719812Y110000D03*
X1719812Y106000D03*
X1719812Y102000D03*
X1719812Y98000D03*
X1719812Y94000D03*
X1719812Y146000D03*
X1719812Y142000D03*
X1719812Y138000D03*
X1719812Y134000D03*
X1719812Y130000D03*
X1719812Y126000D03*
X1719812Y122000D03*
D10*
X1675562Y130000D03*
X1675562Y110000D03*
X1695562Y110000D03*
X1685562Y120000D03*
X1625562Y115000D03*
X1625562Y125000D03*
X1675562Y165000D03*
X1675562Y175000D03*
X1715562Y165000D03*
X1715562Y175000D03*
D14*
X1598462Y128540D03*
X1598462Y111540D03*
X1612462Y111540D03*
X1612462Y128540D03*
D10*
X194989Y598500D03*
X184989Y598500D03*
X194989Y558500D03*
X184989Y558500D03*
D11*
X195259Y492000D02*
X195259Y485000D01*
X195259Y492000D02*
X202259Y492000D01*
X202259Y485000D01*
X195259Y485000D01*
X195259Y487850D02*
X202259Y487850D01*
X202259Y490700D02*
X195259Y490700D01*
X177719Y492000D02*
X177719Y485000D01*
X177719Y492000D02*
X184719Y492000D01*
X184719Y485000D01*
X177719Y485000D01*
X177719Y487850D02*
X184719Y487850D01*
X184719Y490700D02*
X177719Y490700D01*
D10*
X164989Y488500D03*
X154989Y488500D03*
D12*
X107989Y544250D03*
D10*
X99989Y568500D03*
D12*
X103989Y544250D03*
X99989Y544250D03*
X95989Y544250D03*
X91989Y544250D03*
X87989Y544250D03*
X83989Y544250D03*
X135989Y544250D03*
X131989Y544250D03*
X127989Y544250D03*
X123989Y544250D03*
X119989Y544250D03*
X115989Y544250D03*
X111989Y544250D03*
D13*
X144239Y576500D03*
X144239Y572500D03*
X144239Y568500D03*
X144239Y564500D03*
X144239Y560500D03*
X144239Y556500D03*
X144239Y552500D03*
X144239Y604500D03*
X144239Y600500D03*
X144239Y596500D03*
X144239Y592500D03*
X144239Y588500D03*
X144239Y584500D03*
X144239Y580500D03*
D12*
X111989Y612750D03*
X115989Y612750D03*
X119989Y612750D03*
X123989Y612750D03*
X127989Y612750D03*
X131989Y612750D03*
X135989Y612750D03*
X83989Y612750D03*
X87989Y612750D03*
X91989Y612750D03*
X95989Y612750D03*
X99989Y612750D03*
X103989Y612750D03*
X107989Y612750D03*
D13*
X75739Y580500D03*
X75739Y584500D03*
X75739Y588500D03*
X75739Y592500D03*
X75739Y596500D03*
X75739Y600500D03*
X75739Y604500D03*
X75739Y552500D03*
X75739Y556500D03*
X75739Y560500D03*
X75739Y564500D03*
X75739Y568500D03*
X75739Y572500D03*
X75739Y576500D03*
D10*
X119989Y568500D03*
X119989Y588500D03*
X99989Y588500D03*
X109989Y578500D03*
X169989Y583500D03*
X169989Y573500D03*
X119989Y533500D03*
X119989Y523500D03*
X79989Y533500D03*
X79989Y523500D03*
D14*
X197089Y569960D03*
X197089Y586960D03*
X183089Y586960D03*
X183089Y569960D03*
D10*
X420084Y598500D03*
X410084Y598500D03*
X420084Y558500D03*
X410084Y558500D03*
D11*
X420354Y492000D02*
X420354Y485000D01*
X420354Y492000D02*
X427354Y492000D01*
X427354Y485000D01*
X420354Y485000D01*
X420354Y487850D02*
X427354Y487850D01*
X427354Y490700D02*
X420354Y490700D01*
X402814Y492000D02*
X402814Y485000D01*
X402814Y492000D02*
X409814Y492000D01*
X409814Y485000D01*
X402814Y485000D01*
X402814Y487850D02*
X409814Y487850D01*
X409814Y490700D02*
X402814Y490700D01*
D10*
X390084Y488500D03*
X380084Y488500D03*
D12*
X333084Y544250D03*
D10*
X325084Y568500D03*
D12*
X329084Y544250D03*
X325084Y544250D03*
X321084Y544250D03*
X317084Y544250D03*
X313084Y544250D03*
X309084Y544250D03*
X361084Y544250D03*
X357084Y544250D03*
X353084Y544250D03*
X349084Y544250D03*
X345084Y544250D03*
X341084Y544250D03*
X337084Y544250D03*
D13*
X369334Y576500D03*
X369334Y572500D03*
X369334Y568500D03*
X369334Y564500D03*
X369334Y560500D03*
X369334Y556500D03*
X369334Y552500D03*
X369334Y604500D03*
X369334Y600500D03*
X369334Y596500D03*
X369334Y592500D03*
X369334Y588500D03*
X369334Y584500D03*
X369334Y580500D03*
D12*
X337084Y612750D03*
X341084Y612750D03*
X345084Y612750D03*
X349084Y612750D03*
X353084Y612750D03*
X357084Y612750D03*
X361084Y612750D03*
X309084Y612750D03*
X313084Y612750D03*
X317084Y612750D03*
X321084Y612750D03*
X325084Y612750D03*
X329084Y612750D03*
X333084Y612750D03*
D13*
X300834Y580500D03*
X300834Y584500D03*
X300834Y588500D03*
X300834Y592500D03*
X300834Y596500D03*
X300834Y600500D03*
X300834Y604500D03*
X300834Y552500D03*
X300834Y556500D03*
X300834Y560500D03*
X300834Y564500D03*
X300834Y568500D03*
X300834Y572500D03*
X300834Y576500D03*
D10*
X345084Y568500D03*
X345084Y588500D03*
X325084Y588500D03*
X335084Y578500D03*
X395084Y583500D03*
X395084Y573500D03*
X345084Y533500D03*
X345084Y523500D03*
X305084Y533500D03*
X305084Y523500D03*
D14*
X422184Y569960D03*
X422184Y586960D03*
X408184Y586960D03*
X408184Y569960D03*
D10*
X645154Y598500D03*
X635154Y598500D03*
X645154Y558500D03*
X635154Y558500D03*
D11*
X645424Y492000D02*
X645424Y485000D01*
X645424Y492000D02*
X652424Y492000D01*
X652424Y485000D01*
X645424Y485000D01*
X645424Y487850D02*
X652424Y487850D01*
X652424Y490700D02*
X645424Y490700D01*
X627884Y492000D02*
X627884Y485000D01*
X627884Y492000D02*
X634884Y492000D01*
X634884Y485000D01*
X627884Y485000D01*
X627884Y487850D02*
X634884Y487850D01*
X634884Y490700D02*
X627884Y490700D01*
D10*
X615154Y488500D03*
X605154Y488500D03*
D12*
X558154Y544250D03*
D10*
X550154Y568500D03*
D12*
X554154Y544250D03*
X550154Y544250D03*
X546154Y544250D03*
X542154Y544250D03*
X538154Y544250D03*
X534154Y544250D03*
X586154Y544250D03*
X582154Y544250D03*
X578154Y544250D03*
X574154Y544250D03*
X570154Y544250D03*
X566154Y544250D03*
X562154Y544250D03*
D13*
X594404Y576500D03*
X594404Y572500D03*
X594404Y568500D03*
X594404Y564500D03*
X594404Y560500D03*
X594404Y556500D03*
X594404Y552500D03*
X594404Y604500D03*
X594404Y600500D03*
X594404Y596500D03*
X594404Y592500D03*
X594404Y588500D03*
X594404Y584500D03*
X594404Y580500D03*
D12*
X562154Y612750D03*
X566154Y612750D03*
X570154Y612750D03*
X574154Y612750D03*
X578154Y612750D03*
X582154Y612750D03*
X586154Y612750D03*
X534154Y612750D03*
X538154Y612750D03*
X542154Y612750D03*
X546154Y612750D03*
X550154Y612750D03*
X554154Y612750D03*
X558154Y612750D03*
D13*
X525904Y580500D03*
X525904Y584500D03*
X525904Y588500D03*
X525904Y592500D03*
X525904Y596500D03*
X525904Y600500D03*
X525904Y604500D03*
X525904Y552500D03*
X525904Y556500D03*
X525904Y560500D03*
X525904Y564500D03*
X525904Y568500D03*
X525904Y572500D03*
X525904Y576500D03*
D10*
X570154Y568500D03*
X570154Y588500D03*
X550154Y588500D03*
X560154Y578500D03*
X620154Y583500D03*
X620154Y573500D03*
X570154Y533500D03*
X570154Y523500D03*
X530154Y533500D03*
X530154Y523500D03*
D14*
X647254Y569960D03*
X647254Y586960D03*
X633254Y586960D03*
X633254Y569960D03*
D10*
X870248Y598500D03*
X860248Y598500D03*
X870248Y558500D03*
X860248Y558500D03*
D11*
X870518Y492000D02*
X870518Y485000D01*
X870518Y492000D02*
X877518Y492000D01*
X877518Y485000D01*
X870518Y485000D01*
X870518Y487850D02*
X877518Y487850D01*
X877518Y490700D02*
X870518Y490700D01*
X852978Y492000D02*
X852978Y485000D01*
X852978Y492000D02*
X859978Y492000D01*
X859978Y485000D01*
X852978Y485000D01*
X852978Y487850D02*
X859978Y487850D01*
X859978Y490700D02*
X852978Y490700D01*
D10*
X840248Y488500D03*
X830248Y488500D03*
D12*
X783248Y544250D03*
D10*
X775248Y568500D03*
D12*
X779248Y544250D03*
X775248Y544250D03*
X771248Y544250D03*
X767248Y544250D03*
X763248Y544250D03*
X759248Y544250D03*
X811248Y544250D03*
X807248Y544250D03*
X803248Y544250D03*
X799248Y544250D03*
X795248Y544250D03*
X791248Y544250D03*
X787248Y544250D03*
D13*
X819498Y576500D03*
X819498Y572500D03*
X819498Y568500D03*
X819498Y564500D03*
X819498Y560500D03*
X819498Y556500D03*
X819498Y552500D03*
X819498Y604500D03*
X819498Y600500D03*
X819498Y596500D03*
X819498Y592500D03*
X819498Y588500D03*
X819498Y584500D03*
X819498Y580500D03*
D12*
X787248Y612750D03*
X791248Y612750D03*
X795248Y612750D03*
X799248Y612750D03*
X803248Y612750D03*
X807248Y612750D03*
X811248Y612750D03*
X759248Y612750D03*
X763248Y612750D03*
X767248Y612750D03*
X771248Y612750D03*
X775248Y612750D03*
X779248Y612750D03*
X783248Y612750D03*
D13*
X750998Y580500D03*
X750998Y584500D03*
X750998Y588500D03*
X750998Y592500D03*
X750998Y596500D03*
X750998Y600500D03*
X750998Y604500D03*
X750998Y552500D03*
X750998Y556500D03*
X750998Y560500D03*
X750998Y564500D03*
X750998Y568500D03*
X750998Y572500D03*
X750998Y576500D03*
D10*
X795248Y568500D03*
X795248Y588500D03*
X775248Y588500D03*
X785248Y578500D03*
X845248Y583500D03*
X845248Y573500D03*
X795248Y533500D03*
X795248Y523500D03*
X755248Y533500D03*
X755248Y523500D03*
D14*
X872348Y569960D03*
X872348Y586960D03*
X858348Y586960D03*
X858348Y569960D03*
D10*
X1095318Y598500D03*
X1085318Y598500D03*
X1095318Y558500D03*
X1085318Y558500D03*
D11*
X1095588Y492000D02*
X1095588Y485000D01*
X1095588Y492000D02*
X1102588Y492000D01*
X1102588Y485000D01*
X1095588Y485000D01*
X1095588Y487850D02*
X1102588Y487850D01*
X1102588Y490700D02*
X1095588Y490700D01*
X1078048Y492000D02*
X1078048Y485000D01*
X1078048Y492000D02*
X1085048Y492000D01*
X1085048Y485000D01*
X1078048Y485000D01*
X1078048Y487850D02*
X1085048Y487850D01*
X1085048Y490700D02*
X1078048Y490700D01*
D10*
X1065318Y488500D03*
X1055318Y488500D03*
D12*
X1008318Y544250D03*
D10*
X1000318Y568500D03*
D12*
X1004318Y544250D03*
X1000318Y544250D03*
X996318Y544250D03*
X992318Y544250D03*
X988318Y544250D03*
X984318Y544250D03*
X1036318Y544250D03*
X1032318Y544250D03*
X1028318Y544250D03*
X1024318Y544250D03*
X1020318Y544250D03*
X1016318Y544250D03*
X1012318Y544250D03*
D13*
X1044568Y576500D03*
X1044568Y572500D03*
X1044568Y568500D03*
X1044568Y564500D03*
X1044568Y560500D03*
X1044568Y556500D03*
X1044568Y552500D03*
X1044568Y604500D03*
X1044568Y600500D03*
X1044568Y596500D03*
X1044568Y592500D03*
X1044568Y588500D03*
X1044568Y584500D03*
X1044568Y580500D03*
D12*
X1012318Y612750D03*
X1016318Y612750D03*
X1020318Y612750D03*
X1024318Y612750D03*
X1028318Y612750D03*
X1032318Y612750D03*
X1036318Y612750D03*
X984318Y612750D03*
X988318Y612750D03*
X992318Y612750D03*
X996318Y612750D03*
X1000318Y612750D03*
X1004318Y612750D03*
X1008318Y612750D03*
D13*
X976068Y580500D03*
X976068Y584500D03*
X976068Y588500D03*
X976068Y592500D03*
X976068Y596500D03*
X976068Y600500D03*
X976068Y604500D03*
X976068Y552500D03*
X976068Y556500D03*
X976068Y560500D03*
X976068Y564500D03*
X976068Y568500D03*
X976068Y572500D03*
X976068Y576500D03*
D10*
X1020318Y568500D03*
X1020318Y588500D03*
X1000318Y588500D03*
X1010318Y578500D03*
X1070318Y583500D03*
X1070318Y573500D03*
X1020318Y533500D03*
X1020318Y523500D03*
X980318Y533500D03*
X980318Y523500D03*
D14*
X1097418Y569960D03*
X1097418Y586960D03*
X1083418Y586960D03*
X1083418Y569960D03*
D10*
X1320413Y598500D03*
X1310413Y598500D03*
X1320413Y558500D03*
X1310413Y558500D03*
D11*
X1320683Y492000D02*
X1320683Y485000D01*
X1320683Y492000D02*
X1327683Y492000D01*
X1327683Y485000D01*
X1320683Y485000D01*
X1320683Y487850D02*
X1327683Y487850D01*
X1327683Y490700D02*
X1320683Y490700D01*
X1303143Y492000D02*
X1303143Y485000D01*
X1303143Y492000D02*
X1310143Y492000D01*
X1310143Y485000D01*
X1303143Y485000D01*
X1303143Y487850D02*
X1310143Y487850D01*
X1310143Y490700D02*
X1303143Y490700D01*
D10*
X1290413Y488500D03*
X1280413Y488500D03*
D12*
X1233413Y544250D03*
D10*
X1225413Y568500D03*
D12*
X1229413Y544250D03*
X1225413Y544250D03*
X1221413Y544250D03*
X1217413Y544250D03*
X1213413Y544250D03*
X1209413Y544250D03*
X1261413Y544250D03*
X1257413Y544250D03*
X1253413Y544250D03*
X1249413Y544250D03*
X1245413Y544250D03*
X1241413Y544250D03*
X1237413Y544250D03*
D13*
X1269663Y576500D03*
X1269663Y572500D03*
X1269663Y568500D03*
X1269663Y564500D03*
X1269663Y560500D03*
X1269663Y556500D03*
X1269663Y552500D03*
X1269663Y604500D03*
X1269663Y600500D03*
X1269663Y596500D03*
X1269663Y592500D03*
X1269663Y588500D03*
X1269663Y584500D03*
X1269663Y580500D03*
D12*
X1237413Y612750D03*
X1241413Y612750D03*
X1245413Y612750D03*
X1249413Y612750D03*
X1253413Y612750D03*
X1257413Y612750D03*
X1261413Y612750D03*
X1209413Y612750D03*
X1213413Y612750D03*
X1217413Y612750D03*
X1221413Y612750D03*
X1225413Y612750D03*
X1229413Y612750D03*
X1233413Y612750D03*
D13*
X1201163Y580500D03*
X1201163Y584500D03*
X1201163Y588500D03*
X1201163Y592500D03*
X1201163Y596500D03*
X1201163Y600500D03*
X1201163Y604500D03*
X1201163Y552500D03*
X1201163Y556500D03*
X1201163Y560500D03*
X1201163Y564500D03*
X1201163Y568500D03*
X1201163Y572500D03*
X1201163Y576500D03*
D10*
X1245413Y568500D03*
X1245413Y588500D03*
X1225413Y588500D03*
X1235413Y578500D03*
X1295413Y583500D03*
X1295413Y573500D03*
X1245413Y533500D03*
X1245413Y523500D03*
X1205413Y533500D03*
X1205413Y523500D03*
D14*
X1322513Y569960D03*
X1322513Y586960D03*
X1308513Y586960D03*
X1308513Y569960D03*
D10*
X1545482Y598500D03*
X1535482Y598500D03*
X1545482Y558500D03*
X1535482Y558500D03*
D11*
X1545752Y492000D02*
X1545752Y485000D01*
X1545752Y492000D02*
X1552752Y492000D01*
X1552752Y485000D01*
X1545752Y485000D01*
X1545752Y487850D02*
X1552752Y487850D01*
X1552752Y490700D02*
X1545752Y490700D01*
X1528212Y492000D02*
X1528212Y485000D01*
X1528212Y492000D02*
X1535212Y492000D01*
X1535212Y485000D01*
X1528212Y485000D01*
X1528212Y487850D02*
X1535212Y487850D01*
X1535212Y490700D02*
X1528212Y490700D01*
D10*
X1515482Y488500D03*
X1505482Y488500D03*
D12*
X1458482Y544250D03*
D10*
X1450482Y568500D03*
D12*
X1454482Y544250D03*
X1450482Y544250D03*
X1446482Y544250D03*
X1442482Y544250D03*
X1438482Y544250D03*
X1434482Y544250D03*
X1486482Y544250D03*
X1482482Y544250D03*
X1478482Y544250D03*
X1474482Y544250D03*
X1470482Y544250D03*
X1466482Y544250D03*
X1462482Y544250D03*
D13*
X1494732Y576500D03*
X1494732Y572500D03*
X1494732Y568500D03*
X1494732Y564500D03*
X1494732Y560500D03*
X1494732Y556500D03*
X1494732Y552500D03*
X1494732Y604500D03*
X1494732Y600500D03*
X1494732Y596500D03*
X1494732Y592500D03*
X1494732Y588500D03*
X1494732Y584500D03*
X1494732Y580500D03*
D12*
X1462482Y612750D03*
X1466482Y612750D03*
X1470482Y612750D03*
X1474482Y612750D03*
X1478482Y612750D03*
X1482482Y612750D03*
X1486482Y612750D03*
X1434482Y612750D03*
X1438482Y612750D03*
X1442482Y612750D03*
X1446482Y612750D03*
X1450482Y612750D03*
X1454482Y612750D03*
X1458482Y612750D03*
D13*
X1426232Y580500D03*
X1426232Y584500D03*
X1426232Y588500D03*
X1426232Y592500D03*
X1426232Y596500D03*
X1426232Y600500D03*
X1426232Y604500D03*
X1426232Y552500D03*
X1426232Y556500D03*
X1426232Y560500D03*
X1426232Y564500D03*
X1426232Y568500D03*
X1426232Y572500D03*
X1426232Y576500D03*
D10*
X1470482Y568500D03*
X1470482Y588500D03*
X1450482Y588500D03*
X1460482Y578500D03*
X1520482Y583500D03*
X1520482Y573500D03*
X1470482Y533500D03*
X1470482Y523500D03*
X1430482Y533500D03*
X1430482Y523500D03*
D14*
X1547582Y569960D03*
X1547582Y586960D03*
X1533582Y586960D03*
X1533582Y569960D03*
D10*
X1770551Y598500D03*
X1760551Y598500D03*
X1770551Y558500D03*
X1760551Y558500D03*
D11*
X1770821Y492000D02*
X1770821Y485000D01*
X1770821Y492000D02*
X1777821Y492000D01*
X1777821Y485000D01*
X1770821Y485000D01*
X1770821Y487850D02*
X1777821Y487850D01*
X1777821Y490700D02*
X1770821Y490700D01*
X1753281Y492000D02*
X1753281Y485000D01*
X1753281Y492000D02*
X1760281Y492000D01*
X1760281Y485000D01*
X1753281Y485000D01*
X1753281Y487850D02*
X1760281Y487850D01*
X1760281Y490700D02*
X1753281Y490700D01*
D10*
X1740551Y488500D03*
X1730551Y488500D03*
D12*
X1683551Y544250D03*
D10*
X1675551Y568500D03*
D12*
X1679551Y544250D03*
X1675551Y544250D03*
X1671551Y544250D03*
X1667551Y544250D03*
X1663551Y544250D03*
X1659551Y544250D03*
X1711551Y544250D03*
X1707551Y544250D03*
X1703551Y544250D03*
X1699551Y544250D03*
X1695551Y544250D03*
X1691551Y544250D03*
X1687551Y544250D03*
D13*
X1719801Y576500D03*
X1719801Y572500D03*
X1719801Y568500D03*
X1719801Y564500D03*
X1719801Y560500D03*
X1719801Y556500D03*
X1719801Y552500D03*
X1719801Y604500D03*
X1719801Y600500D03*
X1719801Y596500D03*
X1719801Y592500D03*
X1719801Y588500D03*
X1719801Y584500D03*
X1719801Y580500D03*
D12*
X1687551Y612750D03*
X1691551Y612750D03*
X1695551Y612750D03*
X1699551Y612750D03*
X1703551Y612750D03*
X1707551Y612750D03*
X1711551Y612750D03*
X1659551Y612750D03*
X1663551Y612750D03*
X1667551Y612750D03*
X1671551Y612750D03*
X1675551Y612750D03*
X1679551Y612750D03*
X1683551Y612750D03*
D13*
X1651301Y580500D03*
X1651301Y584500D03*
X1651301Y588500D03*
X1651301Y592500D03*
X1651301Y596500D03*
X1651301Y600500D03*
X1651301Y604500D03*
X1651301Y552500D03*
X1651301Y556500D03*
X1651301Y560500D03*
X1651301Y564500D03*
X1651301Y568500D03*
X1651301Y572500D03*
X1651301Y576500D03*
D10*
X1695551Y568500D03*
X1695551Y588500D03*
X1675551Y588500D03*
X1685551Y578500D03*
X1745551Y583500D03*
X1745551Y573500D03*
X1695551Y533500D03*
X1695551Y523500D03*
X1655551Y533500D03*
X1655551Y523500D03*
D14*
X1772651Y569960D03*
X1772651Y586960D03*
X1758651Y586960D03*
X1758651Y569960D03*
M02*
